<?xml version="1.0" encoding="utf-8" standalone="no"?>
<!DOCTYPE svg PUBLIC "-//W3C//DTD SVG 1.1//EN"
  "http://www.w3.org/Graphics/SVG/1.1/DTD/svg11.dtd">
<!-- Created with matplotlib (https://matplotlib.org/) -->
<svg height="180pt" version="1.1" viewBox="0 0 720 180" width="720pt" xmlns="http://www.w3.org/2000/svg" xmlns:xlink="http://www.w3.org/1999/xlink">
 <defs>
  <style type="text/css">
*{stroke-linecap:butt;stroke-linejoin:round;}
  </style>
 </defs>
 <g id="figure_1">
  <g id="patch_1">
   <path d="M 0 180 
L 720 180 
L 720 0 
L 0 0 
z
" style="fill:#ffffff;"/>
  </g>
  <g id="axes_1">
   <g id="patch_2">
    <path d="M 90 160.2 
L 648 160.2 
L 648 21.6 
L 90 21.6 
z
" style="fill:#ffffff;"/>
   </g>
   <g id="line2d_1">
    <path clip-path="url(#p37ca01f4e9)" d="M 90 160.2 
L 648 160.2 
" style="fill:none;stroke:#000000;stroke-linecap:square;stroke-width:0.5;"/>
   </g>
   <g id="patch_3">
    <path clip-path="url(#p37ca01f4e9)" d="M 90 159.443125 
L 177.238024 159.443125 
L 177.238024 159.590737 
L 122.331283 159.590737 
L 122.331283 159.731536 
L 173.986083 159.731536 
L 173.986083 159.879147 
L 122.331283 159.879147 
L 122.331283 160.052551 
L 179.092437 160.052551 
L 179.092437 160.2 
L 90 160.2 
z
" style="fill:#6b296b;"/>
   </g>
   <g id="patch_4">
    <path clip-path="url(#p37ca01f4e9)" d="M 179.092437 159.374646 
Q 170.107319 159.408885 160.443325 159.426084 
Q 150.779332 159.443125 140.476396 159.443125 
Q 117.194957 159.443125 103.597479 159.341187 
Q 90 159.239249 90 159.064923 
Q 90 158.888563 103.837082 158.787407 
Q 117.69413 158.686251 141.794214 158.686251 
Q 151.078836 158.686251 159.584747 158.700009 
Q 168.110626 158.713611 175.658125 158.740503 
L 175.658125 158.891378 
Q 167.871023 158.856825 160.163788 158.839783 
Q 152.456554 158.822585 144.709385 158.822585 
Q 130.37313 158.822585 122.605995 158.885437 
Q 114.83886 158.948132 114.83886 159.064923 
Q 114.83886 159.180619 122.326458 159.243783 
Q 129.814056 159.306791 143.591237 159.306791 
Q 147.34502 159.306791 150.559696 159.303195 
Q 153.774371 159.299443 156.330138 159.291625 
L 156.330138 159.149975 
L 141.654445 159.149975 
L 141.654445 159.023803 
L 179.092437 159.023803 
z
" style="fill:#787800;"/>
   </g>
   <g id="patch_5">
    <path clip-path="url(#p37ca01f4e9)" d="M 90 157.929376 
L 113.478248 157.929376 
L 113.478248 158.205621 
L 147.319712 157.929376 
L 174.584145 157.929376 
L 130.730759 158.287862 
L 179.092437 158.686251 
L 149.700715 158.686251 
L 113.478248 158.388108 
L 113.478248 158.686251 
L 90 158.686251 
z
" style="fill:#bd2e1f;"/>
   </g>
   <g id="patch_6">
    <path clip-path="url(#p37ca01f4e9)" d="M 90 157.172502 
L 118.617829 157.172502 
L 154.779002 157.691575 
L 154.779002 157.172502 
L 179.092437 157.172502 
L 179.092437 157.929376 
L 150.453299 157.929376 
L 114.292126 157.410302 
L 114.292126 157.929376 
L 90 157.929376 
z
" style="fill:#40ba47;"/>
   </g>
   <g id="patch_7">
    <path clip-path="url(#p37ca01f4e9)" d="M 136.922017 157.059317 
L 135.17729 157.059317 
Q 113.776544 157.059317 101.878992 156.974494 
Q 90 156.889539 90 156.738138 
Q 90 156.587002 101.860431 156.501381 
Q 113.720861 156.415627 134.546218 156.415627 
Q 155.594307 156.415627 167.343372 156.500582 
Q 179.092437 156.585404 179.092437 156.738138 
Q 179.092437 156.842934 172.855966 156.918701 
Q 166.619496 156.994468 154.907553 157.032685 
L 172.354821 157.172502 
L 151.065441 157.172502 
z
M 134.546218 156.531741 
Q 124.33771 156.531741 118.71375 156.585804 
Q 113.08979 156.639866 113.08979 156.738138 
Q 113.08979 156.838007 118.583824 156.891137 
Q 124.096418 156.944134 134.546218 156.944134 
Q 144.81041 156.944134 150.43437 156.890072 
Q 156.05833 156.835876 156.05833 156.738138 
Q 156.05833 156.639866 150.43437 156.585804 
Q 144.81041 156.531741 134.546218 156.531741 
z
" style="fill:#40ba47;"/>
   </g>
   <g id="patch_8">
    <path clip-path="url(#p37ca01f4e9)" d="M 171.664034 155.694868 
L 171.664034 155.849339 
Q 162.372482 155.822447 153.516471 155.808845 
Q 144.684657 155.795087 136.820713 155.795087 
Q 126.391913 155.795087 121.383186 155.813692 
Q 116.398655 155.832141 116.398655 155.871228 
Q 116.398655 155.900621 119.762004 155.917037 
Q 123.125352 155.933297 131.981363 155.945023 
L 144.370099 155.961127 
Q 163.195172 155.985673 171.131706 156.035548 
Q 179.092437 156.085266 179.092437 156.177198 
Q 179.092437 156.297741 168.010325 156.356684 
Q 156.928213 156.415627 134.15907 156.415627 
Q 123.43991 156.415627 112.623962 156.402337 
Q 101.808014 156.389204 90.992067 156.363251 
L 90.992067 156.204559 
Q 101.808014 156.241613 111.89806 156.260531 
Q 121.988105 156.279293 131.376444 156.279293 
Q 140.909964 156.279293 145.967085 156.258811 
Q 151.024206 156.238173 151.024206 156.200025 
Q 151.024206 156.165941 147.588267 156.147336 
Q 144.152329 156.128731 133.868709 156.114034 
L 122.593024 156.09793 
Q 105.655298 156.074478 97.815551 156.023197 
Q 90 155.971915 90 155.884986 
Q 90 155.776012 100.888538 155.717382 
Q 111.777076 155.658752 132.199134 155.658752 
Q 141.514883 155.658752 151.338764 155.66782 
Q 161.162645 155.676889 171.664034 155.694868 
z
" style="fill:#40ba47;"/>
   </g>
   <g id="patch_9">
    <path clip-path="url(#p37ca01f4e9)" d="M 90 154.901878 
L 179.092437 154.901878 
L 179.092437 155.049489 
L 147.039879 155.049489 
L 147.039879 155.658752 
L 122.114716 155.658752 
L 122.114716 155.049489 
L 90 155.049489 
z
" style="fill:#40ba47;"/>
   </g>
   <g id="patch_10">
    <path clip-path="url(#p37ca01f4e9)" d="M 90 154.145003 
L 114.631438 154.145003 
L 134.527502 154.414759 
L 154.404848 154.145003 
L 179.092437 154.145003 
L 145.813791 154.582972 
L 145.813791 154.901878 
L 123.297362 154.901878 
L 123.297362 154.582972 
z
" style="fill:#177875;"/>
   </g>
   <g id="patch_11">
    <path clip-path="url(#p37ca01f4e9)" d="M 151.714409 153.869245 
L 117.45089 153.869245 
L 112.040861 154.145003 
L 90 154.145003 
L 121.476535 152.631254 
L 147.615902 152.631254 
L 179.092437 154.145003 
L 157.069792 154.145003 
z
M 122.915566 153.588296 
L 146.195086 153.588296 
L 134.573542 152.986171 
z
" style="fill:#21599c;"/>
   </g>
   <g id="patch_12">
    <path clip-path="url(#p37ca01f4e9)" d="M 90 151.117505 
L 112.040861 151.117505 
L 134.573542 152.234811 
L 157.069792 151.117505 
L 179.092437 151.117505 
L 147.615902 152.631254 
L 121.476535 152.631254 
z
" style="fill:#21599c;"/>
   </g>
   <g id="patch_13">
    <path clip-path="url(#p37ca01f4e9)" d="M 90 148.846881 
L 116.281411 148.846881 
L 134.511886 150.062 
L 152.862525 148.846881 
L 179.092437 148.846881 
L 179.092437 151.117505 
L 159.574498 151.117505 
L 159.574498 149.45663 
L 141.120863 150.680996 
L 128.023073 150.680996 
L 109.569437 149.45663 
L 109.569437 151.117505 
L 90 151.117505 
z
" style="fill:#21599c;"/>
   </g>
   <g id="patch_14">
    <path clip-path="url(#p37ca01f4e9)" d="M 118.380577 145.819382 
L 150.71186 145.819382 
L 150.71186 148.846881 
L 118.380577 148.846881 
z
" style="fill:#21599c;"/>
   </g>
   <g id="patch_15">
    <path clip-path="url(#p37ca01f4e9)" d="M 90 111.00315 
L 122.331283 111.00315 
L 122.331283 139.036709 
L 179.092437 139.036709 
L 179.092437 145.819382 
L 90 145.819382 
z
" style="fill:#21599c;"/>
   </g>
   <g id="patch_16">
    <path clip-path="url(#p37ca01f4e9)" d="M 90.927206 75.430043 
L 178.165231 75.430043 
L 178.165231 82.36779 
L 123.258489 82.36779 
L 123.258489 88.985333 
L 174.913289 88.985333 
L 174.913289 95.92308 
L 123.258489 95.92308 
L 123.258489 111.00315 
L 90.927206 111.00315 
z
" style="fill:#21599c;"/>
   </g>
   <g id="patch_17">
    <path clip-path="url(#p37ca01f4e9)" d="M 183.781513 159.351364 
L 271.019537 159.351364 
L 271.019537 159.516872 
L 216.112795 159.516872 
L 216.112795 159.674741 
L 267.767596 159.674741 
L 267.767596 159.840248 
L 216.112795 159.840248 
L 216.112795 160.034674 
L 272.87395 160.034674 
L 272.87395 160.2 
L 183.781513 160.2 
z
" style="fill:#6b296b;"/>
   </g>
   <g id="patch_18">
    <path clip-path="url(#p37ca01f4e9)" d="M 272.87395 159.274582 
Q 263.888832 159.312973 254.224838 159.332256 
Q 244.560844 159.351364 234.257909 159.351364 
Q 210.97647 159.351364 197.378991 159.237068 
Q 183.781513 159.122771 183.781513 158.927309 
Q 183.781513 158.729569 197.618594 158.616149 
Q 211.475643 158.502729 235.575726 158.502729 
Q 244.860348 158.502729 253.36626 158.518155 
Q 261.892139 158.533406 269.439638 158.563558 
L 269.439638 158.732725 
Q 261.652536 158.693983 253.945301 158.674875 
Q 246.238066 158.655592 238.490898 158.655592 
Q 224.154643 158.655592 216.387508 158.726063 
Q 208.620372 158.796359 208.620372 158.927309 
Q 208.620372 159.057033 216.107971 159.127855 
Q 223.595569 159.198501 237.37275 159.198501 
Q 241.126533 159.198501 244.341208 159.194469 
Q 247.555884 159.190262 250.111651 159.181497 
L 250.111651 159.022674 
L 235.435958 159.022674 
L 235.435958 158.881205 
L 272.87395 158.881205 
z
" style="fill:#787800;"/>
   </g>
   <g id="patch_19">
    <path clip-path="url(#p37ca01f4e9)" d="M 183.781513 157.654093 
L 207.259761 157.654093 
L 207.259761 157.963829 
L 241.101225 157.654093 
L 268.365658 157.654093 
L 224.512272 158.05604 
L 272.87395 158.502729 
L 243.482228 158.502729 
L 207.259761 158.16844 
L 207.259761 158.502729 
L 183.781513 158.502729 
z
" style="fill:#bd2e1f;"/>
   </g>
   <g id="patch_20">
    <path clip-path="url(#p37ca01f4e9)" d="M 183.781513 156.805457 
L 210.062923 156.805457 
L 228.293399 157.259603 
L 246.644037 156.805457 
L 272.87395 156.805457 
L 272.87395 157.654093 
L 253.356011 157.654093 
L 253.356011 157.033349 
L 234.902375 157.49095 
L 221.804585 157.49095 
L 203.35095 157.033349 
L 203.35095 157.654093 
L 183.781513 157.654093 
z
" style="fill:#21599c;"/>
   </g>
   <g id="patch_21">
    <path clip-path="url(#p37ca01f4e9)" d="M 183.781513 155.956822 
L 212.399342 155.956822 
L 248.560515 156.538826 
L 248.560515 155.956822 
L 272.87395 155.956822 
L 272.87395 156.805457 
L 244.234812 156.805457 
L 208.073638 156.223453 
L 208.073638 156.805457 
L 183.781513 156.805457 
z
" style="fill:#40ba47;"/>
   </g>
   <g id="patch_22">
    <path clip-path="url(#p37ca01f4e9)" d="M 230.703529 155.829915 
L 228.958803 155.829915 
Q 207.558057 155.829915 195.660504 155.734809 
Q 183.781513 155.639554 183.781513 155.469797 
Q 183.781513 155.300338 195.641943 155.204337 
Q 207.502374 155.108186 228.327731 155.108186 
Q 249.375819 155.108186 261.124884 155.203441 
Q 272.87395 155.298547 272.87395 155.469797 
Q 272.87395 155.587298 266.637479 155.672251 
Q 260.401008 155.757204 248.689065 155.800054 
L 266.136334 155.956822 
L 244.846954 155.956822 
z
M 228.327731 155.238378 
Q 218.119223 155.238378 212.495263 155.298995 
Q 206.871303 155.359612 206.871303 155.469797 
Q 206.871303 155.581774 212.365336 155.641345 
Q 217.877931 155.700768 228.327731 155.700768 
Q 238.591922 155.700768 244.215882 155.640151 
Q 249.839842 155.579385 249.839842 155.469797 
Q 249.839842 155.359612 244.215882 155.298995 
Q 238.591922 155.238378 228.327731 155.238378 
z
" style="fill:#40ba47;"/>
   </g>
   <g id="patch_23">
    <path clip-path="url(#p37ca01f4e9)" d="M 265.445547 154.300045 
L 265.445547 154.473243 
Q 256.153995 154.443091 247.297984 154.42784 
Q 238.46617 154.412413 230.602226 154.412413 
Q 220.173426 154.412413 215.164699 154.433274 
Q 210.180168 154.45396 210.180168 154.497785 
Q 210.180168 154.530742 213.543516 154.549149 
Q 216.906865 154.56738 225.762875 154.580528 
L 238.151612 154.598584 
Q 256.976684 154.626106 264.913219 154.682028 
Q 272.87395 154.737773 272.87395 154.840851 
Q 272.87395 154.976009 261.791838 155.042097 
Q 250.709726 155.108186 227.940583 155.108186 
Q 217.221422 155.108186 206.405475 155.093285 
Q 195.589527 155.07856 184.773579 155.04946 
L 184.773579 154.871529 
Q 195.589527 154.913075 205.679572 154.934287 
Q 215.769617 154.955323 225.157957 154.955323 
Q 234.691477 154.955323 239.748598 154.932358 
Q 244.805718 154.909219 244.805718 154.866445 
Q 244.805718 154.828229 241.36978 154.807368 
Q 237.933841 154.786507 227.650222 154.770029 
L 216.374536 154.751973 
Q 199.43681 154.725678 191.597063 154.668179 
Q 183.781513 154.61068 183.781513 154.513212 
Q 183.781513 154.391027 194.670051 154.325289 
Q 205.558588 154.25955 225.980646 154.25955 
Q 235.296395 154.25955 245.120276 154.269718 
Q 254.944157 154.279885 265.445547 154.300045 
z
" style="fill:#40ba47;"/>
   </g>
   <g id="patch_24">
    <path clip-path="url(#p37ca01f4e9)" d="M 183.781513 153.410915 
L 208.412951 153.410915 
L 228.309014 153.713375 
L 248.18636 153.410915 
L 272.87395 153.410915 
L 239.595304 153.901981 
L 239.595304 154.25955 
L 217.078875 154.25955 
L 217.078875 153.901981 
z
" style="fill:#177875;"/>
   </g>
   <g id="patch_25">
    <path clip-path="url(#p37ca01f4e9)" d="M 184.708719 151.713643 
L 271.946743 151.713643 
L 271.946743 152.044659 
L 217.040002 152.044659 
L 217.040002 152.360396 
L 268.694802 152.360396 
L 268.694802 152.691411 
L 217.040002 152.691411 
L 217.040002 153.410915 
L 184.708719 153.410915 
z
" style="fill:#21599c;"/>
   </g>
   <g id="patch_26">
    <path clip-path="url(#p37ca01f4e9)" d="M 183.781513 150.016372 
L 272.87395 150.016372 
L 272.87395 150.347387 
L 240.821391 150.347387 
L 240.821391 151.713643 
L 215.896228 151.713643 
L 215.896228 150.347387 
L 183.781513 150.347387 
z
" style="fill:#40ba47;"/>
   </g>
   <g id="patch_27">
    <path clip-path="url(#p37ca01f4e9)" d="M 212.16209 146.621829 
L 244.493372 146.621829 
L 244.493372 150.016372 
L 212.16209 150.016372 
z
" style="fill:#21599c;"/>
   </g>
   <g id="patch_28">
    <path clip-path="url(#p37ca01f4e9)" d="M 183.781513 141.530015 
L 216.112795 141.530015 
L 216.112795 145.629875 
L 272.87395 145.629875 
L 272.87395 146.621829 
L 183.781513 146.621829 
z
" style="fill:#21599c;"/>
   </g>
   <g id="patch_29">
    <path clip-path="url(#p37ca01f4e9)" d="M 183.781513 129.649116 
L 205.822373 129.649116 
L 228.355054 138.418473 
L 250.851305 129.649116 
L 272.87395 129.649116 
L 241.397415 141.530015 
L 215.258047 141.530015 
z
" style="fill:#21599c;"/>
   </g>
   <g id="patch_30">
    <path clip-path="url(#p37ca01f4e9)" d="M 245.495922 117.899896 
L 211.232403 117.899896 
L 205.822373 129.649116 
L 183.781513 129.649116 
L 215.258047 65.152806 
L 241.397415 65.152806 
L 272.87395 129.649116 
L 250.851305 129.649116 
z
M 216.697079 105.929513 
L 239.976599 105.929513 
L 228.355054 80.274744 
z
" style="fill:#21599c;"/>
   </g>
   <g id="patch_31">
    <path clip-path="url(#p37ca01f4e9)" d="M 277.563025 159.309283 
L 364.801049 159.309283 
L 364.801049 159.482997 
L 309.894308 159.482997 
L 309.894308 159.648694 
L 361.549108 159.648694 
L 361.549108 159.822409 
L 309.894308 159.822409 
L 309.894308 160.026476 
L 366.655462 160.026476 
L 366.655462 160.2 
L 277.563025 160.2 
z
" style="fill:#6b296b;"/>
   </g>
   <g id="patch_32">
    <path clip-path="url(#p37ca01f4e9)" d="M 278.490232 158.418565 
L 365.728256 158.418565 
L 365.728256 158.59228 
L 310.821514 158.59228 
L 310.821514 158.757977 
L 362.476315 158.757977 
L 362.476315 158.931692 
L 310.821514 158.931692 
L 310.821514 159.309283 
L 278.490232 159.309283 
z
" style="fill:#21599c;"/>
   </g>
   <g id="patch_33">
    <path clip-path="url(#p37ca01f4e9)" d="M 305.943602 157.527848 
L 338.274885 157.527848 
L 338.274885 158.418565 
L 305.943602 158.418565 
z
" style="fill:#21599c;"/>
   </g>
   <g id="patch_34">
    <path clip-path="url(#p37ca01f4e9)" d="M 277.563025 156.63713 
L 309.894308 156.63713 
L 309.894308 157.354324 
L 366.655462 157.354324 
L 366.655462 157.527848 
L 277.563025 157.527848 
z
" style="fill:#21599c;"/>
   </g>
   <g id="patch_35">
    <path clip-path="url(#p37ca01f4e9)" d="M 277.563025 155.746413 
L 303.844436 155.746413 
L 322.074911 156.223078 
L 340.42555 155.746413 
L 366.655462 155.746413 
L 366.655462 156.63713 
L 347.137524 156.63713 
L 347.137524 155.985605 
L 328.683888 156.465897 
L 315.586098 156.465897 
L 297.132462 155.985605 
L 297.132462 156.63713 
L 277.563025 156.63713 
z
" style="fill:#21599c;"/>
   </g>
   <g id="patch_36">
    <path clip-path="url(#p37ca01f4e9)" d="M 277.563025 154.855695 
L 299.603886 154.855695 
L 322.136567 155.513139 
L 344.632817 154.855695 
L 366.655462 154.855695 
L 335.178928 155.746413 
L 309.03956 155.746413 
z
" style="fill:#21599c;"/>
   </g>
   <g id="patch_37">
    <path clip-path="url(#p37ca01f4e9)" d="M 277.563025 153.964978 
L 302.194464 153.964978 
L 322.090527 154.282437 
L 341.967873 153.964978 
L 366.655462 153.964978 
L 333.376817 154.480395 
L 333.376817 154.855695 
L 310.860388 154.855695 
L 310.860388 154.480395 
z
" style="fill:#177875;"/>
   </g>
   <g id="patch_38">
    <path clip-path="url(#p37ca01f4e9)" d="M 277.563025 152.183543 
L 301.041273 152.183543 
L 301.041273 152.833733 
L 334.882738 152.183543 
L 362.14717 152.183543 
L 318.293784 153.0273 
L 366.655462 153.964978 
L 337.26374 153.964978 
L 301.041273 153.263247 
L 301.041273 153.964978 
L 277.563025 153.964978 
z
" style="fill:#bd2e1f;"/>
   </g>
   <g id="patch_39">
    <path clip-path="url(#p37ca01f4e9)" d="M 359.22706 150.487114 
L 359.22706 150.850687 
Q 349.935507 150.787393 341.079496 150.755378 
Q 332.247682 150.722995 324.383738 150.722995 
Q 313.954939 150.722995 308.946211 150.766785 
Q 303.96168 150.810208 303.96168 150.902205 
Q 303.96168 150.971387 307.325029 151.010026 
Q 310.688377 151.048297 319.544388 151.075896 
L 331.933125 151.113799 
Q 350.758197 151.171573 358.694731 151.288962 
Q 366.655462 151.405982 366.655462 151.62236 
Q 366.655462 151.906079 355.57335 152.044811 
Q 344.491238 152.183543 321.722096 152.183543 
Q 311.002935 152.183543 300.186987 152.152264 
Q 289.37104 152.121353 278.555092 152.060267 
L 278.555092 151.686758 
Q 289.37104 151.773971 299.461085 151.818498 
Q 309.55113 151.862657 318.939469 151.862657 
Q 328.472989 151.862657 333.53011 151.81445 
Q 338.587231 151.765876 338.587231 151.676086 
Q 338.587231 151.595865 335.151292 151.552074 
Q 331.715354 151.508283 321.431735 151.473692 
L 310.156049 151.435789 
Q 293.218323 151.380591 285.378576 151.259891 
Q 277.563025 151.13919 277.563025 150.934588 
Q 277.563025 150.6781 288.451563 150.540104 
Q 299.340101 150.402108 319.762159 150.402108 
Q 329.077908 150.402108 338.901789 150.423452 
Q 348.72567 150.444795 359.22706 150.487114 
z
" style="fill:#40ba47;"/>
   </g>
   <g id="patch_40">
    <path clip-path="url(#p37ca01f4e9)" d="M 366.655462 150.16034 
Q 357.670344 150.281224 348.006351 150.341942 
Q 338.342357 150.402108 328.039422 150.402108 
Q 304.757982 150.402108 291.160504 150.042215 
Q 277.563025 149.682322 277.563025 149.06686 
Q 277.563025 148.444223 291.400107 148.087089 
Q 305.257156 147.729956 329.357239 147.729956 
Q 338.641861 147.729956 347.147773 147.778531 
Q 355.673651 147.826553 363.22115 147.921494 
L 363.22115 148.454158 
Q 355.434048 148.33217 347.726814 148.272004 
Q 340.019579 148.211286 332.272411 148.211286 
Q 317.936156 148.211286 310.16902 148.433183 
Q 302.401885 148.654528 302.401885 149.06686 
Q 302.401885 149.475328 309.889483 149.698329 
Q 317.377082 149.920779 331.154263 149.920779 
Q 334.908045 149.920779 338.122721 149.908083 
Q 341.337396 149.894835 343.893163 149.867236 
L 343.893163 149.367139 
L 329.21747 149.367139 
L 329.21747 148.921688 
L 366.655462 148.921688 
z
" style="fill:#787800;"/>
   </g>
   <g id="patch_41">
    <path clip-path="url(#p37ca01f4e9)" d="M 324.485042 147.330356 
L 322.740315 147.330356 
Q 301.339569 147.330356 289.442017 147.03089 
Q 277.563025 146.730955 277.563025 146.19643 
Q 277.563025 145.662846 289.423456 145.36056 
Q 301.283887 145.057804 322.109244 145.057804 
Q 343.157332 145.057804 354.906397 145.357739 
Q 366.655462 145.657205 366.655462 146.19643 
Q 366.655462 146.566413 360.418992 146.833911 
Q 354.182521 147.101408 342.470578 147.236332 
L 359.917847 147.729956 
L 338.628466 147.729956 
z
M 322.109244 145.467747 
Q 311.900735 145.467747 306.276775 145.658615 
Q 300.652815 145.849483 300.652815 146.19643 
Q 300.652815 146.549019 306.146849 146.736596 
Q 311.659443 146.923703 322.109244 146.923703 
Q 332.373435 146.923703 337.997395 146.732835 
Q 343.621355 146.541497 343.621355 146.19643 
Q 343.621355 145.849483 337.997395 145.658615 
Q 332.373435 145.467747 322.109244 145.467747 
z
" style="fill:#40ba47;"/>
   </g>
   <g id="patch_42">
    <path clip-path="url(#p37ca01f4e9)" d="M 339.277435 144.084238 
L 305.013915 144.084238 
L 299.603886 145.057804 
L 277.563025 145.057804 
L 309.03956 139.713499 
L 335.178928 139.713499 
L 366.655462 145.057804 
L 344.632817 145.057804 
z
M 310.478591 143.092346 
L 333.758112 143.092346 
L 322.136567 140.966536 
z
" style="fill:#21599c;"/>
   </g>
   <g id="patch_43">
    <path clip-path="url(#p37ca01f4e9)" d="M 277.563025 132.58776 
L 306.180854 132.58776 
L 342.342027 137.474679 
L 342.342027 132.58776 
L 366.655462 132.58776 
L 366.655462 139.713499 
L 338.016324 139.713499 
L 301.855151 134.82658 
L 301.855151 139.713499 
L 277.563025 139.713499 
z
" style="fill:#40ba47;"/>
   </g>
   <g id="patch_44">
    <path clip-path="url(#p37ca01f4e9)" d="M 277.563025 60.439648 
L 366.655462 60.439648 
L 366.655462 74.51054 
L 334.602904 74.51054 
L 334.602904 132.58776 
L 309.677741 132.58776 
L 309.677741 74.51054 
L 277.563025 74.51054 
z
" style="fill:#40ba47;"/>
   </g>
   <g id="patch_45">
    <path clip-path="url(#p37ca01f4e9)" d="M 433.058947 160.036308 
L 398.795428 160.036308 
L 393.385398 160.2 
L 371.344538 160.2 
L 402.821072 159.301428 
L 428.96044 159.301428 
L 460.436975 160.2 
L 438.41433 160.2 
z
M 404.260104 159.869535 
L 427.539624 159.869535 
L 415.91808 159.512109 
z
" style="fill:#21599c;"/>
   </g>
   <g id="patch_46">
    <path clip-path="url(#p37ca01f4e9)" d="M 460.436975 159.220128 
Q 451.451857 159.260778 441.787863 159.281196 
Q 432.12387 159.301428 421.820934 159.301428 
Q 398.539495 159.301428 384.942016 159.180406 
Q 371.344538 159.059384 371.344538 158.852421 
Q 371.344538 158.643045 385.18162 158.52295 
Q 399.038668 158.402856 423.138752 158.402856 
Q 432.423373 158.402856 440.929285 158.419191 
Q 449.455164 158.435339 457.002663 158.467265 
L 457.002663 158.646386 
Q 449.215561 158.605364 441.508326 158.585132 
Q 433.801092 158.564714 426.053923 158.564714 
Q 411.717668 158.564714 403.950533 158.639332 
Q 396.183397 158.713765 396.183397 158.852421 
Q 396.183397 158.989777 403.670996 159.064766 
Q 411.158594 159.13957 424.935775 159.13957 
Q 428.689558 159.13957 431.904233 159.135301 
Q 435.118909 159.130846 437.674676 159.121565 
L 437.674676 158.953396 
L 422.998983 158.953396 
L 422.998983 158.803603 
L 460.436975 158.803603 
z
" style="fill:#787800;"/>
   </g>
   <g id="patch_47">
    <path clip-path="url(#p37ca01f4e9)" d="M 371.344538 157.504284 
L 399.962367 157.504284 
L 436.12354 158.120536 
L 436.12354 157.504284 
L 460.436975 157.504284 
L 460.436975 158.402856 
L 431.797837 158.402856 
L 395.636664 157.786605 
L 395.636664 158.402856 
L 371.344538 158.402856 
z
" style="fill:#40ba47;"/>
   </g>
   <g id="patch_48">
    <path clip-path="url(#p37ca01f4e9)" d="M 453.008572 156.64859 
L 453.008572 156.83198 
Q 443.71702 156.800054 434.861009 156.783905 
Q 426.029195 156.767571 418.165251 156.767571 
Q 407.736451 156.767571 402.727724 156.789659 
Q 397.743193 156.811562 397.743193 156.857966 
Q 397.743193 156.892862 401.106541 156.912352 
Q 404.46989 156.931656 413.325901 156.945577 
L 425.714637 156.964696 
Q 444.539709 156.993838 452.476244 157.05305 
Q 460.436975 157.112076 460.436975 157.221219 
Q 460.436975 157.364329 449.354863 157.434307 
Q 438.272751 157.504284 415.503608 157.504284 
Q 404.784448 157.504284 393.9685 157.488507 
Q 383.152552 157.472915 372.336605 157.442103 
L 372.336605 157.253701 
Q 383.152552 157.297693 393.242597 157.320152 
Q 403.332643 157.342426 412.720982 157.342426 
Q 422.254502 157.342426 427.311623 157.318111 
Q 432.368744 157.293609 432.368744 157.248319 
Q 432.368744 157.207854 428.932805 157.185766 
Q 425.496866 157.163677 415.213247 157.146229 
L 403.937561 157.127111 
Q 386.999836 157.099268 379.160088 157.038386 
Q 371.344538 156.977503 371.344538 156.8743 
Q 371.344538 156.744925 382.233076 156.675319 
Q 393.121614 156.605713 413.543671 156.605713 
Q 422.859421 156.605713 432.683301 156.616478 
Q 442.507182 156.627244 453.008572 156.64859 
z
" style="fill:#40ba47;"/>
   </g>
   <g id="patch_49">
    <path clip-path="url(#p37ca01f4e9)" d="M 371.344538 155.707141 
L 460.436975 155.707141 
L 460.436975 155.882387 
L 428.384417 155.882387 
L 428.384417 156.605713 
L 403.459253 156.605713 
L 403.459253 155.882387 
L 371.344538 155.882387 
z
" style="fill:#40ba47;"/>
   </g>
   <g id="patch_50">
    <path clip-path="url(#p37ca01f4e9)" d="M 371.344538 154.808569 
L 395.975976 154.808569 
L 415.872039 155.128827 
L 435.749386 154.808569 
L 460.436975 154.808569 
L 427.158329 155.328531 
L 427.158329 155.707141 
L 404.6419 155.707141 
L 404.6419 155.328531 
z
" style="fill:#177875;"/>
   </g>
   <g id="patch_51">
    <path clip-path="url(#p37ca01f4e9)" d="M 371.344538 153.011425 
L 458.582562 153.011425 
L 458.582562 153.361918 
L 403.67582 153.361918 
L 403.67582 153.696235 
L 455.330621 153.696235 
L 455.330621 154.046728 
L 403.67582 154.046728 
L 403.67582 154.458461 
L 460.436975 154.458461 
L 460.436975 154.808569 
L 371.344538 154.808569 
z
" style="fill:#6b296b;"/>
   </g>
   <g id="patch_52">
    <path clip-path="url(#p37ca01f4e9)" d="M 372.271744 151.214281 
L 459.509768 151.214281 
L 459.509768 151.564775 
L 404.603027 151.564775 
L 404.603027 151.899091 
L 456.257827 151.899091 
L 456.257827 152.249584 
L 404.603027 152.249584 
L 404.603027 153.011425 
L 372.271744 153.011425 
z
" style="fill:#21599c;"/>
   </g>
   <g id="patch_53">
    <path clip-path="url(#p37ca01f4e9)" d="M 371.344538 149.417138 
L 394.822786 149.417138 
L 394.822786 150.073061 
L 428.66425 149.417138 
L 455.928683 149.417138 
L 412.075297 150.268335 
L 460.436975 151.214281 
L 431.045253 151.214281 
L 394.822786 150.506362 
L 394.822786 151.214281 
L 371.344538 151.214281 
z
" style="fill:#bd2e1f;"/>
   </g>
   <g id="patch_54">
    <path clip-path="url(#p37ca01f4e9)" d="M 418.266555 149.148388 
L 416.521828 149.148388 
Q 395.121082 149.148388 383.223529 148.946984 
Q 371.344538 148.745264 371.344538 148.385772 
Q 371.344538 148.026912 383.204968 147.823611 
Q 395.065399 147.619994 415.890756 147.619994 
Q 436.938845 147.619994 448.68791 147.821714 
Q 460.436975 148.023118 460.436975 148.385772 
Q 460.436975 148.634602 454.200504 148.814506 
Q 447.964034 148.994411 436.25209 149.085153 
L 453.699359 149.417138 
L 432.409979 149.417138 
z
M 415.890756 147.895699 
Q 405.682248 147.895699 400.058288 148.024067 
Q 394.434328 148.152434 394.434328 148.385772 
Q 394.434328 148.622904 399.928361 148.749058 
Q 405.440956 148.874896 415.890756 148.874896 
Q 426.154947 148.874896 431.778908 148.746529 
Q 437.402868 148.617845 437.402868 148.385772 
Q 437.402868 148.152434 431.778908 148.024067 
Q 426.154947 147.895699 415.890756 147.895699 
z
" style="fill:#40ba47;"/>
   </g>
   <g id="patch_55">
    <path clip-path="url(#p37ca01f4e9)" d="M 399.725115 144.025707 
L 432.056398 144.025707 
L 432.056398 147.619994 
L 399.725115 147.619994 
z
" style="fill:#21599c;"/>
   </g>
   <g id="patch_56">
    <path clip-path="url(#p37ca01f4e9)" d="M 371.344538 139.532847 
L 397.625948 139.532847 
L 415.856424 141.937191 
L 434.207063 139.532847 
L 460.436975 139.532847 
L 460.436975 144.025707 
L 440.919036 144.025707 
L 440.919036 140.739352 
L 422.4654 143.161991 
L 409.367611 143.161991 
L 390.913975 140.739352 
L 390.913975 144.025707 
L 371.344538 144.025707 
z
" style="fill:#21599c;"/>
   </g>
   <g id="patch_57">
    <path clip-path="url(#p37ca01f4e9)" d="M 371.344538 133.242844 
L 403.67582 133.242844 
L 403.67582 138.307469 
L 460.436975 138.307469 
L 460.436975 139.532847 
L 371.344538 139.532847 
z
" style="fill:#21599c;"/>
   </g>
   <g id="patch_58">
    <path clip-path="url(#p37ca01f4e9)" d="M 371.344538 59.559952 
L 393.385398 59.559952 
L 415.91808 113.945696 
L 438.41433 59.559952 
L 460.436975 59.559952 
L 428.96044 133.242844 
L 402.821072 133.242844 
z
" style="fill:#21599c;"/>
   </g>
   <g id="patch_59">
    <path clip-path="url(#p37ca01f4e9)" d="M 526.84046 159.974566 
L 492.57694 159.974566 
L 487.166911 160.2 
L 465.12605 160.2 
L 496.602585 158.9625 
L 522.741953 158.9625 
L 554.218487 160.2 
L 532.195842 160.2 
z
M 498.041616 159.744889 
L 521.321137 159.744889 
L 509.699592 159.252647 
z
" style="fill:#21599c;"/>
   </g>
   <g id="patch_60">
    <path clip-path="url(#p37ca01f4e9)" d="M 465.12605 157.725 
L 552.364075 157.725 
L 552.364075 157.966347 
L 497.457333 157.966347 
L 497.457333 158.196555 
L 549.112134 158.196555 
L 549.112134 158.437902 
L 497.457333 158.437902 
L 497.457333 158.721418 
L 554.218487 158.721418 
L 554.218487 158.9625 
L 465.12605 158.9625 
z
" style="fill:#6b296b;"/>
   </g>
   <g id="patch_61">
    <path clip-path="url(#p37ca01f4e9)" d="M 466.053257 156.4875 
L 553.291281 156.4875 
L 553.291281 156.728847 
L 498.384539 156.728847 
L 498.384539 156.959055 
L 550.03934 156.959055 
L 550.03934 157.200402 
L 498.384539 157.200402 
L 498.384539 157.725 
L 466.053257 157.725 
z
" style="fill:#21599c;"/>
   </g>
   <g id="patch_62">
    <path clip-path="url(#p37ca01f4e9)" d="M 554.218487 156.375534 
Q 545.233369 156.431517 535.569376 156.459636 
Q 525.905382 156.4875 515.602447 156.4875 
Q 492.321008 156.4875 478.723529 156.32083 
Q 465.12605 156.15416 465.12605 155.869133 
Q 465.12605 155.580784 478.963132 155.415392 
Q 492.820181 155.25 516.920264 155.25 
Q 526.204886 155.25 534.710798 155.272495 
Q 543.236676 155.294735 550.784176 155.338703 
L 550.784176 155.585385 
Q 542.997073 155.528891 535.289839 155.501028 
Q 527.582604 155.472908 519.835436 155.472908 
Q 505.499181 155.472908 497.732045 155.575671 
Q 489.96491 155.678179 489.96491 155.869133 
Q 489.96491 156.058299 497.452508 156.161573 
Q 504.940107 156.264592 518.717288 156.264592 
Q 522.47107 156.264592 525.685746 156.258712 
Q 528.900421 156.252577 531.456188 156.239795 
L 531.456188 156.008196 
L 516.780496 156.008196 
L 516.780496 155.801903 
L 554.218487 155.801903 
z
" style="fill:#787800;"/>
   </g>
   <g id="patch_63">
    <path clip-path="url(#p37ca01f4e9)" d="M 493.506628 154.0125 
L 525.83791 154.0125 
L 525.83791 155.25 
L 493.506628 155.25 
z
" style="fill:#21599c;"/>
   </g>
   <g id="patch_64">
    <path clip-path="url(#p37ca01f4e9)" d="M 465.12605 152.775 
L 488.604298 152.775 
L 488.604298 153.226664 
L 522.445763 152.775 
L 549.710195 152.775 
L 505.85681 153.361128 
L 554.218487 154.0125 
L 524.826766 154.0125 
L 488.604298 153.525032 
L 488.604298 154.0125 
L 465.12605 154.0125 
z
" style="fill:#bd2e1f;"/>
   </g>
   <g id="patch_65">
    <path clip-path="url(#p37ca01f4e9)" d="M 465.12605 151.5375 
L 497.457333 151.5375 
L 497.457333 152.533918 
L 554.218487 152.533918 
L 554.218487 152.775 
L 465.12605 152.775 
z
" style="fill:#21599c;"/>
   </g>
   <g id="patch_66">
    <path clip-path="url(#p37ca01f4e9)" d="M 465.12605 150.3 
L 491.407461 150.3 
L 509.637937 150.962245 
L 527.988575 150.3 
L 554.218487 150.3 
L 554.218487 151.5375 
L 534.700549 151.5375 
L 534.700549 150.632316 
L 516.246913 151.299601 
L 503.149123 151.299601 
L 484.695487 150.632316 
L 484.695487 151.5375 
L 465.12605 151.5375 
z
" style="fill:#21599c;"/>
   </g>
   <g id="patch_67">
    <path clip-path="url(#p37ca01f4e9)" d="M 465.12605 149.0625 
L 493.743879 149.0625 
L 529.905053 149.911193 
L 529.905053 149.0625 
L 554.218487 149.0625 
L 554.218487 150.3 
L 525.57935 150.3 
L 489.418176 149.451307 
L 489.418176 150.3 
L 465.12605 150.3 
z
" style="fill:#40ba47;"/>
   </g>
   <g id="patch_68">
    <path clip-path="url(#p37ca01f4e9)" d="M 512.048067 148.877441 
L 510.30334 148.877441 
Q 488.902595 148.877441 477.005042 148.738756 
Q 465.12605 148.599853 465.12605 148.352309 
Q 465.12605 148.105201 476.986481 147.965209 
Q 488.846912 147.825 509.672269 147.825 
Q 530.720357 147.825 542.469422 147.963903 
Q 554.218487 148.102588 554.218487 148.352309 
Q 554.218487 148.523652 547.982017 148.647533 
Q 541.745546 148.771413 530.033603 148.833898 
L 547.480872 149.0625 
L 526.191492 149.0625 
z
M 509.672269 148.014849 
Q 499.463761 148.014849 493.8398 148.103242 
Q 488.21584 148.191634 488.21584 148.352309 
Q 488.21584 148.515596 493.709874 148.602465 
Q 499.222468 148.689116 509.672269 148.689116 
Q 519.93646 148.689116 525.56042 148.600724 
Q 531.18438 148.512113 531.18438 148.352309 
Q 531.18438 148.191634 525.56042 148.103242 
Q 519.93646 148.014849 509.672269 148.014849 
z
" style="fill:#40ba47;"/>
   </g>
   <g id="patch_69">
    <path clip-path="url(#p37ca01f4e9)" d="M 546.790085 146.64655 
L 546.790085 146.899112 
Q 537.498532 146.855144 528.642522 146.832904 
Q 519.810708 146.810408 511.946763 146.810408 
Q 501.517964 146.810408 496.509236 146.840828 
Q 491.524706 146.870993 491.524706 146.9349 
Q 491.524706 146.982958 494.888054 147.009799 
Q 498.251402 147.036385 507.107413 147.055557 
L 519.49615 147.081886 
Q 538.321222 147.12202 546.257756 147.203566 
Q 554.218487 147.284856 554.218487 147.435166 
Q 554.218487 147.632256 543.136375 147.728628 
Q 532.054264 147.825 509.285121 147.825 
Q 498.56596 147.825 487.750013 147.803272 
Q 476.934065 147.781799 466.118117 147.739364 
L 466.118117 147.479901 
Q 476.934065 147.540485 487.02411 147.571416 
Q 497.114155 147.602092 506.502495 147.602092 
Q 516.036014 147.602092 521.093135 147.568604 
Q 526.150256 147.534861 526.150256 147.472488 
Q 526.150256 147.41676 522.714318 147.386341 
Q 519.278379 147.355921 508.99476 147.331892 
L 497.719074 147.305562 
Q 480.781348 147.267218 472.941601 147.183371 
Q 465.12605 147.099525 465.12605 146.957395 
Q 465.12605 146.779222 476.014588 146.683361 
Q 486.903126 146.5875 507.325184 146.5875 
Q 516.640933 146.5875 526.464814 146.602326 
Q 536.288695 146.617153 546.790085 146.64655 
z
" style="fill:#40ba47;"/>
   </g>
   <g id="patch_70">
    <path clip-path="url(#p37ca01f4e9)" d="M 465.12605 145.35 
L 554.218487 145.35 
L 554.218487 145.591347 
L 522.165929 145.591347 
L 522.165929 146.5875 
L 497.240766 146.5875 
L 497.240766 145.591347 
L 465.12605 145.591347 
z
" style="fill:#40ba47;"/>
   </g>
   <g id="patch_71">
    <path clip-path="url(#p37ca01f4e9)" d="M 465.12605 144.1125 
L 487.166911 144.1125 
L 509.699592 145.025905 
L 532.195842 144.1125 
L 554.218487 144.1125 
L 522.741953 145.35 
L 496.602585 145.35 
z
" style="fill:#21599c;"/>
   </g>
   <g id="patch_72">
    <path clip-path="url(#p37ca01f4e9)" d="M 465.12605 21.6 
L 489.757489 21.6 
L 509.653552 65.264442 
L 529.530898 21.6 
L 554.218487 21.6 
L 520.939842 92.49236 
L 520.939842 144.1125 
L 498.423413 144.1125 
L 498.423413 92.49236 
z
" style="fill:#177875;"/>
   </g>
   <g id="patch_73">
    <path clip-path="url(#p37ca01f4e9)" d="M 558.907563 159.311787 
L 646.145587 159.311787 
L 646.145587 159.485013 
L 591.238846 159.485013 
L 591.238846 159.650245 
L 642.893646 159.650245 
L 642.893646 159.823471 
L 591.238846 159.823471 
L 591.238846 160.026964 
L 648 160.026964 
L 648 160.2 
L 558.907563 160.2 
z
" style="fill:#6b296b;"/>
   </g>
   <g id="patch_74">
    <path clip-path="url(#p37ca01f4e9)" d="M 559.834769 158.423574 
L 647.072794 158.423574 
L 647.072794 158.596801 
L 592.166052 158.596801 
L 592.166052 158.762032 
L 643.820853 158.762032 
L 643.820853 158.935258 
L 592.166052 158.935258 
L 592.166052 159.311787 
L 559.834769 159.311787 
z
" style="fill:#21599c;"/>
   </g>
   <g id="patch_75">
    <path clip-path="url(#p37ca01f4e9)" d="M 648 158.343211 
Q 639.014882 158.383393 629.350888 158.403575 
Q 619.686895 158.423574 609.383959 158.423574 
Q 586.10252 158.423574 572.505042 158.303947 
Q 558.907563 158.18432 558.907563 157.979743 
Q 558.907563 157.772781 572.744645 157.654071 
Q 586.601693 157.535362 610.701777 157.535362 
Q 619.986399 157.535362 628.49231 157.551508 
Q 637.018189 157.56747 644.565688 157.599028 
L 644.565688 157.776084 
Q 636.778586 157.735535 629.071351 157.715536 
Q 621.364117 157.695354 613.616948 157.695354 
Q 599.280693 157.695354 591.513558 157.769111 
Q 583.746423 157.842686 583.746423 157.979743 
Q 583.746423 158.115516 591.234021 158.189641 
Q 598.721619 158.263582 612.4988 158.263582 
Q 616.252583 158.263582 619.467259 158.259362 
Q 622.681934 158.254959 625.237701 158.245785 
L 625.237701 158.079555 
L 610.562008 158.079555 
L 610.562008 157.931489 
L 648 157.931489 
z
" style="fill:#787800;"/>
   </g>
   <g id="patch_76">
    <path clip-path="url(#p37ca01f4e9)" d="M 587.28814 156.647149 
L 619.619423 156.647149 
L 619.619423 157.535362 
L 587.28814 157.535362 
z
" style="fill:#21599c;"/>
   </g>
   <g id="patch_77">
    <path clip-path="url(#p37ca01f4e9)" d="M 558.907563 155.758936 
L 582.385811 155.758936 
L 582.385811 156.083117 
L 616.227275 155.758936 
L 643.491708 155.758936 
L 599.638322 156.179628 
L 648 156.647149 
L 618.608278 156.647149 
L 582.385811 156.29727 
L 582.385811 156.647149 
L 558.907563 156.647149 
z
" style="fill:#bd2e1f;"/>
   </g>
   <g id="patch_78">
    <path clip-path="url(#p37ca01f4e9)" d="M 558.907563 154.870723 
L 587.525392 154.870723 
L 623.686565 155.47987 
L 623.686565 154.870723 
L 648 154.870723 
L 648 155.758936 
L 619.360862 155.758936 
L 583.199689 155.149789 
L 583.199689 155.758936 
L 558.907563 155.758936 
z
" style="fill:#40ba47;"/>
   </g>
   <g id="patch_79">
    <path clip-path="url(#p37ca01f4e9)" d="M 605.82958 154.737898 
L 604.084853 154.737898 
Q 582.684107 154.737898 570.786555 154.638357 
Q 558.907563 154.538659 558.907563 154.360985 
Q 558.907563 154.183624 570.767994 154.083145 
Q 582.628424 153.98251 603.453782 153.98251 
Q 624.50187 153.98251 636.250935 154.082208 
Q 648 154.181749 648 154.360985 
Q 648 154.483966 641.763529 154.572881 
Q 635.527059 154.661796 623.815116 154.706645 
L 641.262384 154.870723 
L 619.973004 154.870723 
z
M 603.453782 154.118774 
Q 593.245273 154.118774 587.621313 154.182218 
Q 581.997353 154.245661 581.997353 154.360985 
Q 581.997353 154.478184 587.491387 154.540534 
Q 593.003981 154.602728 603.453782 154.602728 
Q 613.717973 154.602728 619.341933 154.539284 
Q 624.965893 154.475684 624.965893 154.360985 
Q 624.965893 154.245661 619.341933 154.182218 
Q 613.717973 154.118774 603.453782 154.118774 
z
" style="fill:#40ba47;"/>
   </g>
   <g id="patch_80">
    <path clip-path="url(#p37ca01f4e9)" d="M 640.571597 153.136681 
L 640.571597 153.317956 
Q 631.280045 153.286398 622.424034 153.270436 
Q 613.59222 153.25429 605.728276 153.25429 
Q 595.299476 153.25429 590.290749 153.276123 
Q 585.306218 153.297774 585.306218 153.343643 
Q 585.306218 153.378137 588.669567 153.397402 
Q 592.032915 153.416483 600.888926 153.430244 
L 613.277662 153.449142 
Q 632.102735 153.477948 640.039269 153.536478 
Q 648 153.594823 648 153.702708 
Q 648 153.844169 636.917888 153.91334 
Q 625.835776 153.98251 603.066633 153.98251 
Q 592.347473 153.98251 581.531525 153.966915 
Q 570.715577 153.951503 559.89963 153.921046 
L 559.89963 153.734816 
Q 570.715577 153.7783 580.805623 153.800501 
Q 590.895668 153.822518 600.284007 153.822518 
Q 609.817527 153.822518 614.874648 153.798483 
Q 619.931769 153.774264 619.931769 153.729495 
Q 619.931769 153.689497 616.49583 153.667664 
Q 613.059892 153.64583 602.776272 153.628583 
L 591.500587 153.609685 
Q 574.562861 153.582163 566.723114 153.521983 
Q 558.907563 153.461802 558.907563 153.359789 
Q 558.907563 153.231906 569.796101 153.163102 
Q 580.684639 153.094298 601.106697 153.094298 
Q 610.422446 153.094298 620.246327 153.104939 
Q 630.070208 153.115581 640.571597 153.136681 
z
" style="fill:#40ba47;"/>
   </g>
   <g id="patch_81">
    <path clip-path="url(#p37ca01f4e9)" d="M 558.907563 152.206085 
L 648 152.206085 
L 648 152.379311 
L 615.947442 152.379311 
L 615.947442 153.094298 
L 591.022279 153.094298 
L 591.022279 152.379311 
L 558.907563 152.379311 
z
" style="fill:#40ba47;"/>
   </g>
   <g id="patch_82">
    <path clip-path="url(#p37ca01f4e9)" d="M 558.907563 151.317872 
L 583.539001 151.317872 
L 603.435065 151.634438 
L 623.312411 151.317872 
L 648 151.317872 
L 614.721354 151.83184 
L 614.721354 152.206085 
L 592.204925 152.206085 
L 592.204925 151.83184 
z
" style="fill:#177875;"/>
   </g>
   <g id="patch_83">
    <path clip-path="url(#p37ca01f4e9)" d="M 620.621972 150.994263 
L 586.358453 150.994263 
L 580.948424 151.317872 
L 558.907563 151.317872 
L 590.384098 149.541446 
L 616.523465 149.541446 
L 648 151.317872 
L 625.977355 151.317872 
z
M 591.823129 150.664562 
L 615.10265 150.664562 
L 603.481105 149.957951 
z
" style="fill:#21599c;"/>
   </g>
   <g id="patch_84">
    <path clip-path="url(#p37ca01f4e9)" d="M 558.907563 145.988595 
L 585.188974 145.988595 
L 603.419449 147.889896 
L 621.770088 145.988595 
L 648 145.988595 
L 648 149.541446 
L 628.482061 149.541446 
L 628.482061 146.942672 
L 610.028426 148.85844 
L 596.930636 148.85844 
L 578.477 146.942672 
L 578.477 149.541446 
L 558.907563 149.541446 
z
" style="fill:#21599c;"/>
   </g>
   <g id="patch_85">
    <path clip-path="url(#p37ca01f4e9)" d="M 558.907563 125.559701 
L 591.238846 125.559701 
L 591.238846 142.00877 
L 648 142.00877 
L 648 145.988595 
L 558.907563 145.988595 
z
" style="fill:#21599c;"/>
   </g>
   <g id="patch_86">
    <path clip-path="url(#p37ca01f4e9)" d="M 558.907563 60.720167 
L 580.948424 60.720167 
L 603.481105 108.57858 
L 625.977355 60.720167 
L 648 60.720167 
L 616.523465 125.559701 
L 590.384098 125.559701 
z
" style="fill:#21599c;"/>
   </g>
   <g id="matplotlib.axis_1">
    <g id="xtick_1">
     <g id="line2d_2">
      <defs>
       <path d="M 0 0 
L 0 3.5 
" id="ma43951d7c9" style="stroke:#000000;stroke-width:0.8;"/>
      </defs>
      <g>
       <use style="stroke:#000000;stroke-width:0.8;" x="134.546218" xlink:href="#ma43951d7c9" y="160.2"/>
      </g>
     </g>
     <g id="text_1">
      <!-- 14 -->
      <defs>
       <path d="M 12.40625 8.296875 
L 28.515625 8.296875 
L 28.515625 63.921875 
L 10.984375 60.40625 
L 10.984375 69.390625 
L 28.421875 72.90625 
L 38.28125 72.90625 
L 38.28125 8.296875 
L 54.390625 8.296875 
L 54.390625 0 
L 12.40625 0 
z
" id="DejaVuSans-49"/>
       <path d="M 37.796875 64.3125 
L 12.890625 25.390625 
L 37.796875 25.390625 
z
M 35.203125 72.90625 
L 47.609375 72.90625 
L 47.609375 25.390625 
L 58.015625 25.390625 
L 58.015625 17.1875 
L 47.609375 17.1875 
L 47.609375 0 
L 37.796875 0 
L 37.796875 17.1875 
L 4.890625 17.1875 
L 4.890625 26.703125 
z
" id="DejaVuSans-52"/>
      </defs>
      <g transform="translate(125.638718 177.837813)scale(0.14 -0.14)">
       <use xlink:href="#DejaVuSans-49"/>
       <use x="63.623047" xlink:href="#DejaVuSans-52"/>
      </g>
     </g>
    </g>
    <g id="xtick_2">
     <g id="line2d_3">
      <g>
       <use style="stroke:#000000;stroke-width:0.8;" x="228.327731" xlink:href="#ma43951d7c9" y="160.2"/>
      </g>
     </g>
     <g id="text_2">
      <!-- 15 -->
      <defs>
       <path d="M 10.796875 72.90625 
L 49.515625 72.90625 
L 49.515625 64.59375 
L 19.828125 64.59375 
L 19.828125 46.734375 
Q 21.96875 47.46875 24.109375 47.828125 
Q 26.265625 48.1875 28.421875 48.1875 
Q 40.625 48.1875 47.75 41.5 
Q 54.890625 34.8125 54.890625 23.390625 
Q 54.890625 11.625 47.5625 5.09375 
Q 40.234375 -1.421875 26.90625 -1.421875 
Q 22.3125 -1.421875 17.546875 -0.640625 
Q 12.796875 0.140625 7.71875 1.703125 
L 7.71875 11.625 
Q 12.109375 9.234375 16.796875 8.0625 
Q 21.484375 6.890625 26.703125 6.890625 
Q 35.15625 6.890625 40.078125 11.328125 
Q 45.015625 15.765625 45.015625 23.390625 
Q 45.015625 31 40.078125 35.4375 
Q 35.15625 39.890625 26.703125 39.890625 
Q 22.75 39.890625 18.8125 39.015625 
Q 14.890625 38.140625 10.796875 36.28125 
z
" id="DejaVuSans-53"/>
      </defs>
      <g transform="translate(219.420231 177.837813)scale(0.14 -0.14)">
       <use xlink:href="#DejaVuSans-49"/>
       <use x="63.623047" xlink:href="#DejaVuSans-53"/>
      </g>
     </g>
    </g>
    <g id="xtick_3">
     <g id="line2d_4">
      <g>
       <use style="stroke:#000000;stroke-width:0.8;" x="322.109244" xlink:href="#ma43951d7c9" y="160.2"/>
      </g>
     </g>
     <g id="text_3">
      <!-- 16 -->
      <defs>
       <path d="M 33.015625 40.375 
Q 26.375 40.375 22.484375 35.828125 
Q 18.609375 31.296875 18.609375 23.390625 
Q 18.609375 15.53125 22.484375 10.953125 
Q 26.375 6.390625 33.015625 6.390625 
Q 39.65625 6.390625 43.53125 10.953125 
Q 47.40625 15.53125 47.40625 23.390625 
Q 47.40625 31.296875 43.53125 35.828125 
Q 39.65625 40.375 33.015625 40.375 
z
M 52.59375 71.296875 
L 52.59375 62.3125 
Q 48.875 64.0625 45.09375 64.984375 
Q 41.3125 65.921875 37.59375 65.921875 
Q 27.828125 65.921875 22.671875 59.328125 
Q 17.53125 52.734375 16.796875 39.40625 
Q 19.671875 43.65625 24.015625 45.921875 
Q 28.375 48.1875 33.59375 48.1875 
Q 44.578125 48.1875 50.953125 41.515625 
Q 57.328125 34.859375 57.328125 23.390625 
Q 57.328125 12.15625 50.6875 5.359375 
Q 44.046875 -1.421875 33.015625 -1.421875 
Q 20.359375 -1.421875 13.671875 8.265625 
Q 6.984375 17.96875 6.984375 36.375 
Q 6.984375 53.65625 15.1875 63.9375 
Q 23.390625 74.21875 37.203125 74.21875 
Q 40.921875 74.21875 44.703125 73.484375 
Q 48.484375 72.75 52.59375 71.296875 
z
" id="DejaVuSans-54"/>
      </defs>
      <g transform="translate(313.201744 177.837813)scale(0.14 -0.14)">
       <use xlink:href="#DejaVuSans-49"/>
       <use x="63.623047" xlink:href="#DejaVuSans-54"/>
      </g>
     </g>
    </g>
    <g id="xtick_4">
     <g id="line2d_5">
      <g>
       <use style="stroke:#000000;stroke-width:0.8;" x="415.890756" xlink:href="#ma43951d7c9" y="160.2"/>
      </g>
     </g>
     <g id="text_4">
      <!-- 17 -->
      <defs>
       <path d="M 8.203125 72.90625 
L 55.078125 72.90625 
L 55.078125 68.703125 
L 28.609375 0 
L 18.3125 0 
L 43.21875 64.59375 
L 8.203125 64.59375 
z
" id="DejaVuSans-55"/>
      </defs>
      <g transform="translate(406.983256 177.837813)scale(0.14 -0.14)">
       <use xlink:href="#DejaVuSans-49"/>
       <use x="63.623047" xlink:href="#DejaVuSans-55"/>
      </g>
     </g>
    </g>
    <g id="xtick_5">
     <g id="line2d_6">
      <g>
       <use style="stroke:#000000;stroke-width:0.8;" x="509.672269" xlink:href="#ma43951d7c9" y="160.2"/>
      </g>
     </g>
     <g id="text_5">
      <!-- 18 -->
      <defs>
       <path d="M 31.78125 34.625 
Q 24.75 34.625 20.71875 30.859375 
Q 16.703125 27.09375 16.703125 20.515625 
Q 16.703125 13.921875 20.71875 10.15625 
Q 24.75 6.390625 31.78125 6.390625 
Q 38.8125 6.390625 42.859375 10.171875 
Q 46.921875 13.96875 46.921875 20.515625 
Q 46.921875 27.09375 42.890625 30.859375 
Q 38.875 34.625 31.78125 34.625 
z
M 21.921875 38.8125 
Q 15.578125 40.375 12.03125 44.71875 
Q 8.5 49.078125 8.5 55.328125 
Q 8.5 64.0625 14.71875 69.140625 
Q 20.953125 74.21875 31.78125 74.21875 
Q 42.671875 74.21875 48.875 69.140625 
Q 55.078125 64.0625 55.078125 55.328125 
Q 55.078125 49.078125 51.53125 44.71875 
Q 48 40.375 41.703125 38.8125 
Q 48.828125 37.15625 52.796875 32.3125 
Q 56.78125 27.484375 56.78125 20.515625 
Q 56.78125 9.90625 50.3125 4.234375 
Q 43.84375 -1.421875 31.78125 -1.421875 
Q 19.734375 -1.421875 13.25 4.234375 
Q 6.78125 9.90625 6.78125 20.515625 
Q 6.78125 27.484375 10.78125 32.3125 
Q 14.796875 37.15625 21.921875 38.8125 
z
M 18.3125 54.390625 
Q 18.3125 48.734375 21.84375 45.5625 
Q 25.390625 42.390625 31.78125 42.390625 
Q 38.140625 42.390625 41.71875 45.5625 
Q 45.3125 48.734375 45.3125 54.390625 
Q 45.3125 60.0625 41.71875 63.234375 
Q 38.140625 66.40625 31.78125 66.40625 
Q 25.390625 66.40625 21.84375 63.234375 
Q 18.3125 60.0625 18.3125 54.390625 
z
" id="DejaVuSans-56"/>
      </defs>
      <g transform="translate(500.764769 177.837813)scale(0.14 -0.14)">
       <use xlink:href="#DejaVuSans-49"/>
       <use x="63.623047" xlink:href="#DejaVuSans-56"/>
      </g>
     </g>
    </g>
    <g id="xtick_6">
     <g id="line2d_7">
      <g>
       <use style="stroke:#000000;stroke-width:0.8;" x="603.453782" xlink:href="#ma43951d7c9" y="160.2"/>
      </g>
     </g>
     <g id="text_6">
      <!-- 19 -->
      <defs>
       <path d="M 10.984375 1.515625 
L 10.984375 10.5 
Q 14.703125 8.734375 18.5 7.8125 
Q 22.3125 6.890625 25.984375 6.890625 
Q 35.75 6.890625 40.890625 13.453125 
Q 46.046875 20.015625 46.78125 33.40625 
Q 43.953125 29.203125 39.59375 26.953125 
Q 35.25 24.703125 29.984375 24.703125 
Q 19.046875 24.703125 12.671875 31.3125 
Q 6.296875 37.9375 6.296875 49.421875 
Q 6.296875 60.640625 12.9375 67.421875 
Q 19.578125 74.21875 30.609375 74.21875 
Q 43.265625 74.21875 49.921875 64.515625 
Q 56.59375 54.828125 56.59375 36.375 
Q 56.59375 19.140625 48.40625 8.859375 
Q 40.234375 -1.421875 26.421875 -1.421875 
Q 22.703125 -1.421875 18.890625 -0.6875 
Q 15.09375 0.046875 10.984375 1.515625 
z
M 30.609375 32.421875 
Q 37.25 32.421875 41.125 36.953125 
Q 45.015625 41.5 45.015625 49.421875 
Q 45.015625 57.28125 41.125 61.84375 
Q 37.25 66.40625 30.609375 66.40625 
Q 23.96875 66.40625 20.09375 61.84375 
Q 16.21875 57.28125 16.21875 49.421875 
Q 16.21875 41.5 20.09375 36.953125 
Q 23.96875 32.421875 30.609375 32.421875 
z
" id="DejaVuSans-57"/>
      </defs>
      <g transform="translate(594.546282 177.837813)scale(0.14 -0.14)">
       <use xlink:href="#DejaVuSans-49"/>
       <use x="63.623047" xlink:href="#DejaVuSans-57"/>
      </g>
     </g>
    </g>
    <g id="text_7">
     <!-- Sequence Position -->
     <defs>
      <path d="M 53.515625 70.515625 
L 53.515625 60.890625 
Q 47.90625 63.578125 42.921875 64.890625 
Q 37.9375 66.21875 33.296875 66.21875 
Q 25.25 66.21875 20.875 63.09375 
Q 16.5 59.96875 16.5 54.203125 
Q 16.5 49.359375 19.40625 46.890625 
Q 22.3125 44.4375 30.421875 42.921875 
L 36.375 41.703125 
Q 47.40625 39.59375 52.65625 34.296875 
Q 57.90625 29 57.90625 20.125 
Q 57.90625 9.515625 50.796875 4.046875 
Q 43.703125 -1.421875 29.984375 -1.421875 
Q 24.8125 -1.421875 18.96875 -0.25 
Q 13.140625 0.921875 6.890625 3.21875 
L 6.890625 13.375 
Q 12.890625 10.015625 18.65625 8.296875 
Q 24.421875 6.59375 29.984375 6.59375 
Q 38.421875 6.59375 43.015625 9.90625 
Q 47.609375 13.234375 47.609375 19.390625 
Q 47.609375 24.75 44.3125 27.78125 
Q 41.015625 30.8125 33.5 32.328125 
L 27.484375 33.5 
Q 16.453125 35.6875 11.515625 40.375 
Q 6.59375 45.0625 6.59375 53.421875 
Q 6.59375 63.09375 13.40625 68.65625 
Q 20.21875 74.21875 32.171875 74.21875 
Q 37.3125 74.21875 42.625 73.28125 
Q 47.953125 72.359375 53.515625 70.515625 
z
" id="DejaVuSans-83"/>
      <path d="M 56.203125 29.59375 
L 56.203125 25.203125 
L 14.890625 25.203125 
Q 15.484375 15.921875 20.484375 11.0625 
Q 25.484375 6.203125 34.421875 6.203125 
Q 39.59375 6.203125 44.453125 7.46875 
Q 49.3125 8.734375 54.109375 11.28125 
L 54.109375 2.78125 
Q 49.265625 0.734375 44.1875 -0.34375 
Q 39.109375 -1.421875 33.890625 -1.421875 
Q 20.796875 -1.421875 13.15625 6.1875 
Q 5.515625 13.8125 5.515625 26.8125 
Q 5.515625 40.234375 12.765625 48.109375 
Q 20.015625 56 32.328125 56 
Q 43.359375 56 49.78125 48.890625 
Q 56.203125 41.796875 56.203125 29.59375 
z
M 47.21875 32.234375 
Q 47.125 39.59375 43.09375 43.984375 
Q 39.0625 48.390625 32.421875 48.390625 
Q 24.90625 48.390625 20.390625 44.140625 
Q 15.875 39.890625 15.1875 32.171875 
z
" id="DejaVuSans-101"/>
      <path d="M 14.796875 27.296875 
Q 14.796875 17.390625 18.875 11.75 
Q 22.953125 6.109375 30.078125 6.109375 
Q 37.203125 6.109375 41.296875 11.75 
Q 45.40625 17.390625 45.40625 27.296875 
Q 45.40625 37.203125 41.296875 42.84375 
Q 37.203125 48.484375 30.078125 48.484375 
Q 22.953125 48.484375 18.875 42.84375 
Q 14.796875 37.203125 14.796875 27.296875 
z
M 45.40625 8.203125 
Q 42.578125 3.328125 38.25 0.953125 
Q 33.9375 -1.421875 27.875 -1.421875 
Q 17.96875 -1.421875 11.734375 6.484375 
Q 5.515625 14.40625 5.515625 27.296875 
Q 5.515625 40.1875 11.734375 48.09375 
Q 17.96875 56 27.875 56 
Q 33.9375 56 38.25 53.625 
Q 42.578125 51.265625 45.40625 46.390625 
L 45.40625 54.6875 
L 54.390625 54.6875 
L 54.390625 -20.796875 
L 45.40625 -20.796875 
z
" id="DejaVuSans-113"/>
      <path d="M 8.5 21.578125 
L 8.5 54.6875 
L 17.484375 54.6875 
L 17.484375 21.921875 
Q 17.484375 14.15625 20.5 10.265625 
Q 23.53125 6.390625 29.59375 6.390625 
Q 36.859375 6.390625 41.078125 11.03125 
Q 45.3125 15.671875 45.3125 23.6875 
L 45.3125 54.6875 
L 54.296875 54.6875 
L 54.296875 0 
L 45.3125 0 
L 45.3125 8.40625 
Q 42.046875 3.421875 37.71875 1 
Q 33.40625 -1.421875 27.6875 -1.421875 
Q 18.265625 -1.421875 13.375 4.4375 
Q 8.5 10.296875 8.5 21.578125 
z
M 31.109375 56 
z
" id="DejaVuSans-117"/>
      <path d="M 54.890625 33.015625 
L 54.890625 0 
L 45.90625 0 
L 45.90625 32.71875 
Q 45.90625 40.484375 42.875 44.328125 
Q 39.84375 48.1875 33.796875 48.1875 
Q 26.515625 48.1875 22.3125 43.546875 
Q 18.109375 38.921875 18.109375 30.90625 
L 18.109375 0 
L 9.078125 0 
L 9.078125 54.6875 
L 18.109375 54.6875 
L 18.109375 46.1875 
Q 21.34375 51.125 25.703125 53.5625 
Q 30.078125 56 35.796875 56 
Q 45.21875 56 50.046875 50.171875 
Q 54.890625 44.34375 54.890625 33.015625 
z
" id="DejaVuSans-110"/>
      <path d="M 48.78125 52.59375 
L 48.78125 44.1875 
Q 44.96875 46.296875 41.140625 47.34375 
Q 37.3125 48.390625 33.40625 48.390625 
Q 24.65625 48.390625 19.8125 42.84375 
Q 14.984375 37.3125 14.984375 27.296875 
Q 14.984375 17.28125 19.8125 11.734375 
Q 24.65625 6.203125 33.40625 6.203125 
Q 37.3125 6.203125 41.140625 7.25 
Q 44.96875 8.296875 48.78125 10.40625 
L 48.78125 2.09375 
Q 45.015625 0.34375 40.984375 -0.53125 
Q 36.96875 -1.421875 32.421875 -1.421875 
Q 20.0625 -1.421875 12.78125 6.34375 
Q 5.515625 14.109375 5.515625 27.296875 
Q 5.515625 40.671875 12.859375 48.328125 
Q 20.21875 56 33.015625 56 
Q 37.15625 56 41.109375 55.140625 
Q 45.0625 54.296875 48.78125 52.59375 
z
" id="DejaVuSans-99"/>
      <path id="DejaVuSans-32"/>
      <path d="M 19.671875 64.796875 
L 19.671875 37.40625 
L 32.078125 37.40625 
Q 38.96875 37.40625 42.71875 40.96875 
Q 46.484375 44.53125 46.484375 51.125 
Q 46.484375 57.671875 42.71875 61.234375 
Q 38.96875 64.796875 32.078125 64.796875 
z
M 9.8125 72.90625 
L 32.078125 72.90625 
Q 44.34375 72.90625 50.609375 67.359375 
Q 56.890625 61.8125 56.890625 51.125 
Q 56.890625 40.328125 50.609375 34.8125 
Q 44.34375 29.296875 32.078125 29.296875 
L 19.671875 29.296875 
L 19.671875 0 
L 9.8125 0 
z
" id="DejaVuSans-80"/>
      <path d="M 30.609375 48.390625 
Q 23.390625 48.390625 19.1875 42.75 
Q 14.984375 37.109375 14.984375 27.296875 
Q 14.984375 17.484375 19.15625 11.84375 
Q 23.34375 6.203125 30.609375 6.203125 
Q 37.796875 6.203125 41.984375 11.859375 
Q 46.1875 17.53125 46.1875 27.296875 
Q 46.1875 37.015625 41.984375 42.703125 
Q 37.796875 48.390625 30.609375 48.390625 
z
M 30.609375 56 
Q 42.328125 56 49.015625 48.375 
Q 55.71875 40.765625 55.71875 27.296875 
Q 55.71875 13.875 49.015625 6.21875 
Q 42.328125 -1.421875 30.609375 -1.421875 
Q 18.84375 -1.421875 12.171875 6.21875 
Q 5.515625 13.875 5.515625 27.296875 
Q 5.515625 40.765625 12.171875 48.375 
Q 18.84375 56 30.609375 56 
z
" id="DejaVuSans-111"/>
      <path d="M 44.28125 53.078125 
L 44.28125 44.578125 
Q 40.484375 46.53125 36.375 47.5 
Q 32.28125 48.484375 27.875 48.484375 
Q 21.1875 48.484375 17.84375 46.4375 
Q 14.5 44.390625 14.5 40.28125 
Q 14.5 37.15625 16.890625 35.375 
Q 19.28125 33.59375 26.515625 31.984375 
L 29.59375 31.296875 
Q 39.15625 29.25 43.1875 25.515625 
Q 47.21875 21.78125 47.21875 15.09375 
Q 47.21875 7.46875 41.1875 3.015625 
Q 35.15625 -1.421875 24.609375 -1.421875 
Q 20.21875 -1.421875 15.453125 -0.5625 
Q 10.6875 0.296875 5.421875 2 
L 5.421875 11.28125 
Q 10.40625 8.6875 15.234375 7.390625 
Q 20.0625 6.109375 24.8125 6.109375 
Q 31.15625 6.109375 34.5625 8.28125 
Q 37.984375 10.453125 37.984375 14.40625 
Q 37.984375 18.0625 35.515625 20.015625 
Q 33.0625 21.96875 24.703125 23.78125 
L 21.578125 24.515625 
Q 13.234375 26.265625 9.515625 29.90625 
Q 5.8125 33.546875 5.8125 39.890625 
Q 5.8125 47.609375 11.28125 51.796875 
Q 16.75 56 26.8125 56 
Q 31.78125 56 36.171875 55.265625 
Q 40.578125 54.546875 44.28125 53.078125 
z
" id="DejaVuSans-115"/>
      <path d="M 9.421875 54.6875 
L 18.40625 54.6875 
L 18.40625 0 
L 9.421875 0 
z
M 9.421875 75.984375 
L 18.40625 75.984375 
L 18.40625 64.59375 
L 9.421875 64.59375 
z
" id="DejaVuSans-105"/>
      <path d="M 18.3125 70.21875 
L 18.3125 54.6875 
L 36.8125 54.6875 
L 36.8125 47.703125 
L 18.3125 47.703125 
L 18.3125 18.015625 
Q 18.3125 11.328125 20.140625 9.421875 
Q 21.96875 7.515625 27.59375 7.515625 
L 36.8125 7.515625 
L 36.8125 0 
L 27.59375 0 
Q 17.1875 0 13.234375 3.875 
Q 9.28125 7.765625 9.28125 18.015625 
L 9.28125 47.703125 
L 2.6875 47.703125 
L 2.6875 54.6875 
L 9.28125 54.6875 
L 9.28125 70.21875 
z
" id="DejaVuSans-116"/>
     </defs>
     <g transform="translate(304.994844 195.387188)scale(0.14 -0.14)">
      <use xlink:href="#DejaVuSans-83"/>
      <use x="63.476562" xlink:href="#DejaVuSans-101"/>
      <use x="125" xlink:href="#DejaVuSans-113"/>
      <use x="188.476562" xlink:href="#DejaVuSans-117"/>
      <use x="251.855469" xlink:href="#DejaVuSans-101"/>
      <use x="313.378906" xlink:href="#DejaVuSans-110"/>
      <use x="376.757812" xlink:href="#DejaVuSans-99"/>
      <use x="431.738281" xlink:href="#DejaVuSans-101"/>
      <use x="493.261719" xlink:href="#DejaVuSans-32"/>
      <use x="525.048828" xlink:href="#DejaVuSans-80"/>
      <use x="581.726562" xlink:href="#DejaVuSans-111"/>
      <use x="642.908203" xlink:href="#DejaVuSans-115"/>
      <use x="695.007812" xlink:href="#DejaVuSans-105"/>
      <use x="722.791016" xlink:href="#DejaVuSans-116"/>
      <use x="762" xlink:href="#DejaVuSans-105"/>
      <use x="789.783203" xlink:href="#DejaVuSans-111"/>
      <use x="850.964844" xlink:href="#DejaVuSans-110"/>
     </g>
    </g>
   </g>
   <g id="matplotlib.axis_2">
    <g id="ytick_1">
     <g id="line2d_8">
      <defs>
       <path d="M 0 0 
L -3.5 0 
" id="m6bc14bb708" style="stroke:#000000;stroke-width:0.8;"/>
      </defs>
      <g>
       <use style="stroke:#000000;stroke-width:0.8;" x="90" xlink:href="#m6bc14bb708" y="160.2"/>
      </g>
     </g>
     <g id="text_8">
      <!-- 0 -->
      <defs>
       <path d="M 31.78125 66.40625 
Q 24.171875 66.40625 20.328125 58.90625 
Q 16.5 51.421875 16.5 36.375 
Q 16.5 21.390625 20.328125 13.890625 
Q 24.171875 6.390625 31.78125 6.390625 
Q 39.453125 6.390625 43.28125 13.890625 
Q 47.125 21.390625 47.125 36.375 
Q 47.125 51.421875 43.28125 58.90625 
Q 39.453125 66.40625 31.78125 66.40625 
z
M 31.78125 74.21875 
Q 44.046875 74.21875 50.515625 64.515625 
Q 56.984375 54.828125 56.984375 36.375 
Q 56.984375 17.96875 50.515625 8.265625 
Q 44.046875 -1.421875 31.78125 -1.421875 
Q 19.53125 -1.421875 13.0625 8.265625 
Q 6.59375 17.96875 6.59375 36.375 
Q 6.59375 54.828125 13.0625 64.515625 
Q 19.53125 74.21875 31.78125 74.21875 
z
" id="DejaVuSans-48"/>
      </defs>
      <g transform="translate(74.0925 165.518906)scale(0.14 -0.14)">
       <use xlink:href="#DejaVuSans-48"/>
      </g>
     </g>
    </g>
    <g id="ytick_2">
     <g id="line2d_9">
      <g>
       <use style="stroke:#000000;stroke-width:0.8;" x="90" xlink:href="#m6bc14bb708" y="111.73639"/>
      </g>
     </g>
     <g id="text_9">
      <!-- 1 -->
      <g transform="translate(74.0925 117.055296)scale(0.14 -0.14)">
       <use xlink:href="#DejaVuSans-49"/>
      </g>
     </g>
    </g>
    <g id="ytick_3">
     <g id="line2d_10">
      <g>
       <use style="stroke:#000000;stroke-width:0.8;" x="90" xlink:href="#m6bc14bb708" y="63.272779"/>
      </g>
     </g>
     <g id="text_10">
      <!-- 2 -->
      <defs>
       <path d="M 19.1875 8.296875 
L 53.609375 8.296875 
L 53.609375 0 
L 7.328125 0 
L 7.328125 8.296875 
Q 12.9375 14.109375 22.625 23.890625 
Q 32.328125 33.6875 34.8125 36.53125 
Q 39.546875 41.84375 41.421875 45.53125 
Q 43.3125 49.21875 43.3125 52.78125 
Q 43.3125 58.59375 39.234375 62.25 
Q 35.15625 65.921875 28.609375 65.921875 
Q 23.96875 65.921875 18.8125 64.3125 
Q 13.671875 62.703125 7.8125 59.421875 
L 7.8125 69.390625 
Q 13.765625 71.78125 18.9375 73 
Q 24.125 74.21875 28.421875 74.21875 
Q 39.75 74.21875 46.484375 68.546875 
Q 53.21875 62.890625 53.21875 53.421875 
Q 53.21875 48.921875 51.53125 44.890625 
Q 49.859375 40.875 45.40625 35.40625 
Q 44.1875 33.984375 37.640625 27.21875 
Q 31.109375 20.453125 19.1875 8.296875 
z
" id="DejaVuSans-50"/>
      </defs>
      <g transform="translate(74.0925 68.591685)scale(0.14 -0.14)">
       <use xlink:href="#DejaVuSans-50"/>
      </g>
     </g>
    </g>
    <g id="text_11">
     <!-- Information (Bits) -->
     <defs>
      <path d="M 9.8125 72.90625 
L 19.671875 72.90625 
L 19.671875 0 
L 9.8125 0 
z
" id="DejaVuSans-73"/>
      <path d="M 37.109375 75.984375 
L 37.109375 68.5 
L 28.515625 68.5 
Q 23.6875 68.5 21.796875 66.546875 
Q 19.921875 64.59375 19.921875 59.515625 
L 19.921875 54.6875 
L 34.71875 54.6875 
L 34.71875 47.703125 
L 19.921875 47.703125 
L 19.921875 0 
L 10.890625 0 
L 10.890625 47.703125 
L 2.296875 47.703125 
L 2.296875 54.6875 
L 10.890625 54.6875 
L 10.890625 58.5 
Q 10.890625 67.625 15.140625 71.796875 
Q 19.390625 75.984375 28.609375 75.984375 
z
" id="DejaVuSans-102"/>
      <path d="M 41.109375 46.296875 
Q 39.59375 47.171875 37.8125 47.578125 
Q 36.03125 48 33.890625 48 
Q 26.265625 48 22.1875 43.046875 
Q 18.109375 38.09375 18.109375 28.8125 
L 18.109375 0 
L 9.078125 0 
L 9.078125 54.6875 
L 18.109375 54.6875 
L 18.109375 46.1875 
Q 20.953125 51.171875 25.484375 53.578125 
Q 30.03125 56 36.53125 56 
Q 37.453125 56 38.578125 55.875 
Q 39.703125 55.765625 41.0625 55.515625 
z
" id="DejaVuSans-114"/>
      <path d="M 52 44.1875 
Q 55.375 50.25 60.0625 53.125 
Q 64.75 56 71.09375 56 
Q 79.640625 56 84.28125 50.015625 
Q 88.921875 44.046875 88.921875 33.015625 
L 88.921875 0 
L 79.890625 0 
L 79.890625 32.71875 
Q 79.890625 40.578125 77.09375 44.375 
Q 74.3125 48.1875 68.609375 48.1875 
Q 61.625 48.1875 57.5625 43.546875 
Q 53.515625 38.921875 53.515625 30.90625 
L 53.515625 0 
L 44.484375 0 
L 44.484375 32.71875 
Q 44.484375 40.625 41.703125 44.40625 
Q 38.921875 48.1875 33.109375 48.1875 
Q 26.21875 48.1875 22.15625 43.53125 
Q 18.109375 38.875 18.109375 30.90625 
L 18.109375 0 
L 9.078125 0 
L 9.078125 54.6875 
L 18.109375 54.6875 
L 18.109375 46.1875 
Q 21.1875 51.21875 25.484375 53.609375 
Q 29.78125 56 35.6875 56 
Q 41.65625 56 45.828125 52.96875 
Q 50 49.953125 52 44.1875 
z
" id="DejaVuSans-109"/>
      <path d="M 34.28125 27.484375 
Q 23.390625 27.484375 19.1875 25 
Q 14.984375 22.515625 14.984375 16.5 
Q 14.984375 11.71875 18.140625 8.90625 
Q 21.296875 6.109375 26.703125 6.109375 
Q 34.1875 6.109375 38.703125 11.40625 
Q 43.21875 16.703125 43.21875 25.484375 
L 43.21875 27.484375 
z
M 52.203125 31.203125 
L 52.203125 0 
L 43.21875 0 
L 43.21875 8.296875 
Q 40.140625 3.328125 35.546875 0.953125 
Q 30.953125 -1.421875 24.3125 -1.421875 
Q 15.921875 -1.421875 10.953125 3.296875 
Q 6 8.015625 6 15.921875 
Q 6 25.140625 12.171875 29.828125 
Q 18.359375 34.515625 30.609375 34.515625 
L 43.21875 34.515625 
L 43.21875 35.40625 
Q 43.21875 41.609375 39.140625 45 
Q 35.0625 48.390625 27.6875 48.390625 
Q 23 48.390625 18.546875 47.265625 
Q 14.109375 46.140625 10.015625 43.890625 
L 10.015625 52.203125 
Q 14.9375 54.109375 19.578125 55.046875 
Q 24.21875 56 28.609375 56 
Q 40.484375 56 46.34375 49.84375 
Q 52.203125 43.703125 52.203125 31.203125 
z
" id="DejaVuSans-97"/>
      <path d="M 31 75.875 
Q 24.46875 64.65625 21.28125 53.65625 
Q 18.109375 42.671875 18.109375 31.390625 
Q 18.109375 20.125 21.3125 9.0625 
Q 24.515625 -2 31 -13.1875 
L 23.1875 -13.1875 
Q 15.875 -1.703125 12.234375 9.375 
Q 8.59375 20.453125 8.59375 31.390625 
Q 8.59375 42.28125 12.203125 53.3125 
Q 15.828125 64.359375 23.1875 75.875 
z
" id="DejaVuSans-40"/>
      <path d="M 19.671875 34.8125 
L 19.671875 8.109375 
L 35.5 8.109375 
Q 43.453125 8.109375 47.28125 11.40625 
Q 51.125 14.703125 51.125 21.484375 
Q 51.125 28.328125 47.28125 31.5625 
Q 43.453125 34.8125 35.5 34.8125 
z
M 19.671875 64.796875 
L 19.671875 42.828125 
L 34.28125 42.828125 
Q 41.5 42.828125 45.03125 45.53125 
Q 48.578125 48.25 48.578125 53.8125 
Q 48.578125 59.328125 45.03125 62.0625 
Q 41.5 64.796875 34.28125 64.796875 
z
M 9.8125 72.90625 
L 35.015625 72.90625 
Q 46.296875 72.90625 52.390625 68.21875 
Q 58.5 63.53125 58.5 54.890625 
Q 58.5 48.1875 55.375 44.234375 
Q 52.25 40.28125 46.1875 39.3125 
Q 53.46875 37.75 57.5 32.78125 
Q 61.53125 27.828125 61.53125 20.40625 
Q 61.53125 10.640625 54.890625 5.3125 
Q 48.25 0 35.984375 0 
L 9.8125 0 
z
" id="DejaVuSans-66"/>
      <path d="M 8.015625 75.875 
L 15.828125 75.875 
Q 23.140625 64.359375 26.78125 53.3125 
Q 30.421875 42.28125 30.421875 31.390625 
Q 30.421875 20.453125 26.78125 9.375 
Q 23.140625 -1.703125 15.828125 -13.1875 
L 8.015625 -13.1875 
Q 14.5 -2 17.703125 9.0625 
Q 20.90625 20.125 20.90625 31.390625 
Q 20.90625 42.671875 17.703125 53.65625 
Q 14.5 64.65625 8.015625 75.875 
z
" id="DejaVuSans-41"/>
     </defs>
     <g transform="translate(67.180937 152.245156)rotate(-90)scale(0.14 -0.14)">
      <use xlink:href="#DejaVuSans-73"/>
      <use x="29.492188" xlink:href="#DejaVuSans-110"/>
      <use x="92.871094" xlink:href="#DejaVuSans-102"/>
      <use x="128.076172" xlink:href="#DejaVuSans-111"/>
      <use x="189.257812" xlink:href="#DejaVuSans-114"/>
      <use x="228.621094" xlink:href="#DejaVuSans-109"/>
      <use x="326.033203" xlink:href="#DejaVuSans-97"/>
      <use x="387.3125" xlink:href="#DejaVuSans-116"/>
      <use x="426.521484" xlink:href="#DejaVuSans-105"/>
      <use x="454.304688" xlink:href="#DejaVuSans-111"/>
      <use x="515.486328" xlink:href="#DejaVuSans-110"/>
      <use x="578.865234" xlink:href="#DejaVuSans-32"/>
      <use x="610.652344" xlink:href="#DejaVuSans-40"/>
      <use x="649.666016" xlink:href="#DejaVuSans-66"/>
      <use x="718.269531" xlink:href="#DejaVuSans-105"/>
      <use x="746.052734" xlink:href="#DejaVuSans-116"/>
      <use x="785.261719" xlink:href="#DejaVuSans-115"/>
      <use x="837.361328" xlink:href="#DejaVuSans-41"/>
     </g>
    </g>
   </g>
   <g id="patch_87">
    <path d="M 90 160.2 
L 90 21.6 
" style="fill:none;stroke:#000000;stroke-linecap:square;stroke-linejoin:miter;stroke-width:0.8;"/>
   </g>
   <g id="patch_88">
    <path d="M 648 160.2 
L 648 21.6 
" style="fill:none;stroke:#000000;stroke-linecap:square;stroke-linejoin:miter;stroke-width:0.8;"/>
   </g>
   <g id="patch_89">
    <path d="M 90 160.2 
L 648 160.2 
" style="fill:none;stroke:#000000;stroke-linecap:square;stroke-linejoin:miter;stroke-width:0.8;"/>
   </g>
   <g id="patch_90">
    <path d="M 90 21.6 
L 648 21.6 
" style="fill:none;stroke:#000000;stroke-linecap:square;stroke-linejoin:miter;stroke-width:0.8;"/>
   </g>
  </g>
 </g>
 <defs>
  <clipPath id="p37ca01f4e9">
   <rect height="138.6" width="558" x="90" y="21.6"/>
  </clipPath>
 </defs>
</svg>
