<?xml version="1.0" encoding="utf-8" standalone="no"?>
<!DOCTYPE svg PUBLIC "-//W3C//DTD SVG 1.1//EN"
  "http://www.w3.org/Graphics/SVG/1.1/DTD/svg11.dtd">
<!-- Created with matplotlib (https://matplotlib.org/) -->
<svg height="180pt" version="1.1" viewBox="0 0 720 180" width="720pt" xmlns="http://www.w3.org/2000/svg" xmlns:xlink="http://www.w3.org/1999/xlink">
 <defs>
  <style type="text/css">
*{stroke-linecap:butt;stroke-linejoin:round;}
  </style>
 </defs>
 <g id="figure_1">
  <g id="patch_1">
   <path d="M 0 180 
L 720 180 
L 720 0 
L 0 0 
z
" style="fill:#ffffff;"/>
  </g>
  <g id="axes_1">
   <g id="patch_2">
    <path d="M 90 160.2 
L 648 160.2 
L 648 21.6 
L 90 21.6 
z
" style="fill:#ffffff;"/>
   </g>
   <g id="line2d_1">
    <path clip-path="url(#p9144a7a4ec)" d="M 90 160.2 
L 648 160.2 
" style="fill:none;stroke:#000000;stroke-linecap:square;stroke-width:0.5;"/>
   </g>
   <g id="patch_3">
    <path clip-path="url(#p9144a7a4ec)" d="M 151.714409 159.976561 
L 117.45089 159.976561 
L 112.040861 160.2 
L 90 160.2 
L 121.476535 158.973451 
L 147.615902 158.973451 
L 179.092437 160.2 
L 157.069792 160.2 
z
M 122.915566 159.748916 
L 146.195086 159.748916 
L 134.573542 159.26103 
z
" style="fill:#21599c;"/>
   </g>
   <g id="patch_4">
    <path clip-path="url(#p9144a7a4ec)" d="M 114.414169 157.986114 
L 114.414169 158.734503 
L 123.161057 158.734503 
Q 138.118034 158.734503 146.012557 158.638293 
Q 153.927375 158.542083 153.927375 158.358863 
Q 153.927375 158.176694 146.053146 158.081535 
Q 138.199211 157.986114 123.161057 157.986114 
z
M 90 157.746903 
L 115.733305 157.746903 
Q 137.306258 157.746903 147.859348 157.786859 
Q 158.412439 157.826552 165.961957 157.921974 
Q 172.618522 158.00504 175.845332 158.113605 
Q 179.092437 158.221908 179.092437 158.358863 
Q 179.092437 158.497921 175.845332 158.606748 
Q 172.618522 158.715576 165.961957 158.79838 
Q 158.351555 158.893802 147.696993 158.933758 
Q 137.04243 158.973451 115.733305 158.973451 
L 90 158.973451 
z
" style="fill:#6b296b;"/>
   </g>
   <g id="patch_5">
    <path clip-path="url(#p9144a7a4ec)" d="M 179.092437 157.635928 
Q 170.107319 157.691415 160.443325 157.719286 
Q 150.779332 157.746903 140.476396 157.746903 
Q 117.194957 157.746903 103.597479 157.581708 
Q 90 157.416512 90 157.134008 
Q 90 156.848211 103.837082 156.684282 
Q 117.69413 156.520354 141.794214 156.520354 
Q 151.078836 156.520354 159.584747 156.54265 
Q 168.110626 156.564693 175.658125 156.608272 
L 175.658125 156.852771 
Q 167.871023 156.796777 160.163788 156.76916 
Q 152.456554 156.74129 144.709385 156.74129 
Q 130.37313 156.74129 122.605995 156.843143 
Q 114.83886 156.944743 114.83886 157.134008 
Q 114.83886 157.3215 122.326458 157.42386 
Q 129.814056 157.525967 143.591237 157.525967 
Q 147.34502 157.525967 150.559696 157.520139 
Q 153.774371 157.514059 156.330138 157.50139 
L 156.330138 157.27184 
L 141.654445 157.27184 
L 141.654445 157.067373 
L 179.092437 157.067373 
z
" style="fill:#787800;"/>
   </g>
   <g id="patch_6">
    <path clip-path="url(#p9144a7a4ec)" d="M 118.380577 155.293805 
L 150.71186 155.293805 
L 150.71186 156.520354 
L 118.380577 156.520354 
z
" style="fill:#21599c;"/>
   </g>
   <g id="patch_7">
    <path clip-path="url(#p9144a7a4ec)" d="M 90 154.067257 
L 113.478248 154.067257 
L 113.478248 154.514923 
L 147.319712 154.067257 
L 174.584145 154.067257 
L 130.730759 154.648198 
L 179.092437 155.293805 
L 149.700715 155.293805 
L 113.478248 154.810651 
L 113.478248 155.293805 
L 90 155.293805 
z
" style="fill:#bd2e1f;"/>
   </g>
   <g id="patch_8">
    <path clip-path="url(#p9144a7a4ec)" d="M 90 152.840708 
L 118.617829 152.840708 
L 154.779002 153.68189 
L 154.779002 152.840708 
L 179.092437 152.840708 
L 179.092437 154.067257 
L 150.453299 154.067257 
L 114.292126 153.226075 
L 114.292126 154.067257 
L 90 154.067257 
z
" style="fill:#40ba47;"/>
   </g>
   <g id="patch_9">
    <path clip-path="url(#p9144a7a4ec)" d="M 90 151.614159 
L 136.309506 151.614159 
Q 156.981736 151.614159 168.025486 151.718256 
Q 179.092437 151.822089 179.092437 152.014247 
Q 179.092437 152.207456 168.025486 152.311289 
Q 156.981736 152.415122 136.309506 152.415122 
L 117.91099 152.415122 
L 117.91099 152.840708 
L 90 152.840708 
z
M 117.91099 151.843381 
L 117.91099 152.1859 
L 133.339758 152.1859 
Q 141.460163 152.1859 145.891584 152.141212 
Q 150.323004 152.096525 150.323004 152.014247 
Q 150.323004 151.932231 145.891584 151.887806 
Q 141.460163 151.843381 133.339758 151.843381 
z
" style="fill:#787800;"/>
   </g>
   <g id="patch_10">
    <path clip-path="url(#p9144a7a4ec)" d="M 136.922017 151.430738 
L 135.17729 151.430738 
Q 113.776544 151.430738 101.878992 151.29328 
Q 90 151.155606 90 150.910253 
Q 90 150.665332 101.860431 150.526579 
Q 113.720861 150.387611 134.546218 150.387611 
Q 155.594307 150.387611 167.343372 150.525284 
Q 179.092437 150.662742 179.092437 150.910253 
Q 179.092437 151.08008 172.855966 151.202864 
Q 166.619496 151.325648 154.907553 151.38758 
L 172.354821 151.614159 
L 151.065441 151.614159 
z
M 134.546218 150.575779 
Q 124.33771 150.575779 118.71375 150.66339 
Q 113.08979 150.751 113.08979 150.910253 
Q 113.08979 151.072096 118.583824 151.158196 
Q 124.096418 151.24408 134.546218 151.24408 
Q 144.81041 151.24408 150.43437 151.156469 
Q 156.05833 151.068643 156.05833 150.910253 
Q 156.05833 150.751 150.43437 150.66339 
Q 144.81041 150.575779 134.546218 150.575779 
z
" style="fill:#40ba47;"/>
   </g>
   <g id="patch_11">
    <path clip-path="url(#p9144a7a4ec)" d="M 126.148854 149.704939 
Q 134.14433 149.704939 137.613266 149.668137 
Q 141.082202 149.631072 141.082202 149.546429 
Q 141.082202 149.462573 137.613266 149.42656 
Q 134.14433 149.390284 126.148854 149.390284 
L 115.445917 149.390284 
L 115.445917 149.704939 
z
M 115.445917 149.923383 
L 115.445917 150.387611 
L 90 150.387611 
L 90 149.161062 
L 128.856317 149.161062 
Q 148.358508 149.161062 157.432737 149.242551 
Q 166.528119 149.323778 166.528119 149.499638 
Q 166.528119 149.621083 161.79006 149.699156 
Q 157.073152 149.777228 147.55473 149.814292 
Q 152.779286 149.829013 156.903936 149.881324 
Q 161.049738 149.933372 165.280148 150.039309 
L 179.092437 150.387611 
L 151.99666 150.387611 
L 139.961143 150.082945 
Q 136.322991 149.990941 132.579078 149.957293 
Q 128.856317 149.923383 122.637614 149.923383 
z
" style="fill:#bd2e1f;"/>
   </g>
   <g id="patch_12">
    <path clip-path="url(#p9144a7a4ec)" d="M 171.664034 147.993041 
L 171.664034 148.243367 
Q 162.372482 148.199788 153.516471 148.177745 
Q 144.684657 148.155449 136.820713 148.155449 
Q 126.391913 148.155449 121.383186 148.1856 
Q 116.398655 148.215497 116.398655 148.278839 
Q 116.398655 148.326472 119.762004 148.353075 
Q 123.125352 148.379425 131.981363 148.398428 
L 144.370099 148.424525 
Q 163.195172 148.464303 171.131706 148.545127 
Q 179.092437 148.625698 179.092437 148.774678 
Q 179.092437 148.970023 168.010325 149.065543 
Q 156.928213 149.161062 134.15907 149.161062 
Q 123.43991 149.161062 112.623962 149.139526 
Q 101.808014 149.118243 90.992067 149.076184 
L 90.992067 148.819017 
Q 101.808014 148.879065 111.89806 148.909722 
Q 121.988105 148.940126 131.376444 148.940126 
Q 140.909964 148.940126 145.967085 148.906935 
Q 151.024206 148.873491 151.024206 148.811669 
Q 151.024206 148.756435 147.588267 148.726285 
Q 144.152329 148.696134 133.868709 148.672317 
L 122.593024 148.646221 
Q 105.655298 148.608216 97.815551 148.525111 
Q 90 148.442007 90 148.301135 
Q 90 148.124538 100.888538 148.029526 
Q 111.777076 147.934513 132.199134 147.934513 
Q 141.514883 147.934513 151.338764 147.949209 
Q 161.162645 147.963904 171.664034 147.993041 
z
" style="fill:#40ba47;"/>
   </g>
   <g id="patch_13">
    <path clip-path="url(#p9144a7a4ec)" d="M 90 146.707965 
L 179.092437 146.707965 
L 179.092437 146.947176 
L 147.039879 146.947176 
L 147.039879 147.934513 
L 122.114716 147.934513 
L 122.114716 146.947176 
L 90 146.947176 
z
" style="fill:#40ba47;"/>
   </g>
   <g id="patch_14">
    <path clip-path="url(#p9144a7a4ec)" d="M 90.927206 143.028319 
L 178.165231 143.028319 
L 178.165231 143.745952 
L 123.258489 143.745952 
L 123.258489 144.430464 
L 174.913289 144.430464 
L 174.913289 145.148098 
L 123.258489 145.148098 
L 123.258489 146.707965 
L 90.927206 146.707965 
z
" style="fill:#21599c;"/>
   </g>
   <g id="patch_15">
    <path clip-path="url(#p9144a7a4ec)" d="M 90 138.122124 
L 116.281411 138.122124 
L 134.511886 140.747664 
L 152.862525 138.122124 
L 179.092437 138.122124 
L 179.092437 143.028319 
L 159.574498 143.028319 
L 159.574498 139.439625 
L 141.120863 142.085143 
L 128.023073 142.085143 
L 109.569437 139.439625 
L 109.569437 143.028319 
L 90 143.028319 
z
" style="fill:#21599c;"/>
   </g>
   <g id="patch_16">
    <path clip-path="url(#p9144a7a4ec)" d="M 90 127.083186 
L 112.040861 127.083186 
L 134.573542 135.231086 
L 157.069792 127.083186 
L 179.092437 127.083186 
L 147.615902 138.122124 
L 121.476535 138.122124 
z
" style="fill:#21599c;"/>
   </g>
   <g id="patch_17">
    <path clip-path="url(#p9144a7a4ec)" d="M 90 21.6 
L 122.331283 21.6 
L 122.331283 106.533632 
L 179.092437 106.533632 
L 179.092437 127.083186 
L 90 127.083186 
z
" style="fill:#21599c;"/>
   </g>
   <g id="patch_18">
    <path clip-path="url(#p9144a7a4ec)" d="M 208.195682 159.56858 
L 208.195682 160.047188 
L 216.94257 160.047188 
Q 231.899546 160.047188 239.79407 159.98566 
Q 247.708888 159.924132 247.708888 159.80696 
Q 247.708888 159.69046 239.834659 159.629604 
Q 231.980724 159.56858 216.94257 159.56858 
z
M 183.781513 159.415601 
L 209.514818 159.415601 
Q 231.08777 159.415601 241.640861 159.441153 
Q 252.193951 159.466538 259.74347 159.527562 
Q 266.400034 159.580684 269.626845 159.650113 
Q 272.87395 159.719375 272.87395 159.80696 
Q 272.87395 159.89589 269.626845 159.965487 
Q 266.400034 160.035084 259.74347 160.088039 
Q 252.133068 160.149063 241.478505 160.174615 
Q 230.823943 160.2 209.514818 160.2 
L 183.781513 160.2 
z
" style="fill:#6b296b;"/>
   </g>
   <g id="patch_19">
    <path clip-path="url(#p9144a7a4ec)" d="M 184.708719 158.631201 
L 271.946743 158.631201 
L 271.946743 158.784181 
L 217.040002 158.784181 
L 217.040002 158.9301 
L 268.694802 158.9301 
L 268.694802 159.08308 
L 217.040002 159.08308 
L 217.040002 159.415601 
L 184.708719 159.415601 
z
" style="fill:#21599c;"/>
   </g>
   <g id="patch_20">
    <path clip-path="url(#p9144a7a4ec)" d="M 212.16209 157.846802 
L 244.493372 157.846802 
L 244.493372 158.631201 
L 212.16209 158.631201 
z
" style="fill:#21599c;"/>
   </g>
   <g id="patch_21">
    <path clip-path="url(#p9144a7a4ec)" d="M 183.781513 157.062402 
L 216.112795 157.062402 
L 216.112795 157.69399 
L 272.87395 157.69399 
L 272.87395 157.846802 
L 183.781513 157.846802 
z
" style="fill:#21599c;"/>
   </g>
   <g id="patch_22">
    <path clip-path="url(#p9144a7a4ec)" d="M 183.781513 156.278003 
L 210.062923 156.278003 
L 228.293399 156.697772 
L 246.644037 156.278003 
L 272.87395 156.278003 
L 272.87395 157.062402 
L 253.356011 157.062402 
L 253.356011 156.488644 
L 234.902375 156.911608 
L 221.804585 156.911608 
L 203.35095 156.488644 
L 203.35095 157.062402 
L 183.781513 157.062402 
z
" style="fill:#21599c;"/>
   </g>
   <g id="patch_23">
    <path clip-path="url(#p9144a7a4ec)" d="M 183.781513 155.493603 
L 230.091019 155.493603 
Q 250.763248 155.493603 261.806998 155.560175 
Q 272.87395 155.626578 272.87395 155.749466 
Q 272.87395 155.873027 261.806998 155.93943 
Q 250.763248 156.005833 230.091019 156.005833 
L 211.692503 156.005833 
L 211.692503 156.278003 
L 183.781513 156.278003 
z
M 211.692503 155.640195 
L 211.692503 155.859242 
L 227.121271 155.859242 
Q 235.241675 155.859242 239.673096 155.830663 
Q 244.104517 155.802084 244.104517 155.749466 
Q 244.104517 155.697016 239.673096 155.668605 
Q 235.241675 155.640195 227.121271 155.640195 
z
" style="fill:#787800;"/>
   </g>
   <g id="patch_24">
    <path clip-path="url(#p9144a7a4ec)" d="M 230.703529 155.376302 
L 228.958803 155.376302 
Q 207.558057 155.376302 195.660504 155.288395 
Q 183.781513 155.200351 183.781513 155.043443 
Q 183.781513 154.886812 195.641943 154.798077 
Q 207.502374 154.709204 228.327731 154.709204 
Q 249.375819 154.709204 261.124884 154.797249 
Q 272.87395 154.885156 272.87395 155.043443 
Q 272.87395 155.15205 266.637479 155.230573 
Q 260.401008 155.309096 248.689065 155.348702 
L 266.136334 155.493603 
L 244.846954 155.493603 
z
M 228.327731 154.829541 
Q 218.119223 154.829541 212.495263 154.88557 
Q 206.871303 154.941598 206.871303 155.043443 
Q 206.871303 155.146944 212.365336 155.202007 
Q 217.877931 155.256931 228.327731 155.256931 
Q 238.591922 155.256931 244.215882 155.200903 
Q 249.839842 155.144736 249.839842 155.043443 
Q 249.839842 154.941598 244.215882 154.88557 
Q 238.591922 154.829541 228.327731 154.829541 
z
" style="fill:#40ba47;"/>
   </g>
   <g id="patch_25">
    <path clip-path="url(#p9144a7a4ec)" d="M 219.930367 154.272623 
Q 227.925842 154.272623 231.394778 154.249088 
Q 234.863715 154.225384 234.863715 154.171253 
Q 234.863715 154.117626 231.394778 154.094595 
Q 227.925842 154.071396 219.930367 154.071396 
L 209.227429 154.071396 
L 209.227429 154.272623 
z
M 209.227429 154.412322 
L 209.227429 154.709204 
L 183.781513 154.709204 
L 183.781513 153.924804 
L 222.637829 153.924804 
Q 242.14002 153.924804 251.21425 153.976918 
Q 260.309632 154.028864 260.309632 154.14133 
Q 260.309632 154.218996 255.571572 154.268925 
Q 250.854665 154.318853 241.336242 154.342557 
Q 246.560799 154.351971 250.685449 154.385425 
Q 254.83125 154.41871 259.061661 154.486459 
L 272.87395 154.709204 
L 245.778173 154.709204 
L 233.742656 154.514365 
Q 230.104503 154.455526 226.36059 154.434008 
Q 222.637829 154.412322 216.419127 154.412322 
z
" style="fill:#bd2e1f;"/>
   </g>
   <g id="patch_26">
    <path clip-path="url(#p9144a7a4ec)" d="M 183.781513 153.140405 
L 205.822373 153.140405 
L 228.355054 153.719374 
L 250.851305 153.140405 
L 272.87395 153.140405 
L 241.397415 153.924804 
L 215.258047 153.924804 
z
" style="fill:#21599c;"/>
   </g>
   <g id="patch_27">
    <path clip-path="url(#p9144a7a4ec)" d="M 183.781513 151.571606 
L 207.259761 151.571606 
L 207.259761 152.144187 
L 241.101225 151.571606 
L 268.365658 151.571606 
L 224.512272 152.314651 
L 272.87395 153.140405 
L 243.482228 153.140405 
L 207.259761 152.522434 
L 207.259761 153.140405 
L 183.781513 153.140405 
z
" style="fill:#bd2e1f;"/>
   </g>
   <g id="patch_28">
    <path clip-path="url(#p9144a7a4ec)" d="M 183.781513 150.002807 
L 212.399342 150.002807 
L 248.560515 151.078709 
L 248.560515 150.002807 
L 272.87395 150.002807 
L 272.87395 151.571606 
L 244.234812 151.571606 
L 208.073638 150.495705 
L 208.073638 151.571606 
L 183.781513 151.571606 
z
" style="fill:#40ba47;"/>
   </g>
   <g id="patch_29">
    <path clip-path="url(#p9144a7a4ec)" d="M 245.495922 149.288341 
L 211.232403 149.288341 
L 205.822373 150.002807 
L 183.781513 150.002807 
L 215.258047 146.08081 
L 241.397415 146.08081 
L 272.87395 150.002807 
L 250.851305 150.002807 
z
M 216.697079 148.560427 
L 239.976599 148.560427 
L 228.355054 147.000369 
z
" style="fill:#21599c;"/>
   </g>
   <g id="patch_30">
    <path clip-path="url(#p9144a7a4ec)" d="M 183.781513 130.392821 
L 272.87395 130.392821 
L 272.87395 133.452416 
L 240.821391 133.452416 
L 240.821391 146.08081 
L 215.896228 146.08081 
L 215.896228 133.452416 
L 183.781513 133.452416 
z
" style="fill:#40ba47;"/>
   </g>
   <g id="patch_31">
    <path clip-path="url(#p9144a7a4ec)" d="M 272.87395 128.476624 
Q 263.888832 129.434723 254.224838 129.915959 
Q 244.560844 130.392821 234.257909 130.392821 
Q 210.97647 130.392821 197.378991 127.5404 
Q 183.781513 124.68798 183.781513 119.809991 
Q 183.781513 114.875128 197.618594 112.044582 
Q 211.475643 109.214036 235.575726 109.214036 
Q 244.860348 109.214036 253.36626 109.599025 
Q 261.892139 109.979639 269.439638 110.732118 
L 269.439638 114.953876 
Q 261.652536 113.987028 253.945301 113.510166 
Q 246.238066 113.028929 238.490898 113.028929 
Q 224.154643 113.028929 216.387508 114.78763 
Q 208.620372 116.541957 208.620372 119.809991 
Q 208.620372 123.0474 216.107971 124.814851 
Q 223.595569 126.577927 237.37275 126.577927 
Q 241.126533 126.577927 244.341208 126.477305 
Q 247.555884 126.372308 250.111651 126.153564 
L 250.111651 122.189924 
L 235.435958 122.189924 
L 235.435958 118.659398 
L 272.87395 118.659398 
z
" style="fill:#787800;"/>
   </g>
   <g id="patch_32">
    <path clip-path="url(#p9144a7a4ec)" d="M 265.445547 73.359479 
L 265.445547 81.043709 
Q 256.153995 79.705969 247.297984 79.029321 
Q 238.46617 78.344895 230.602226 78.344895 
Q 220.173426 78.344895 215.164699 79.270425 
Q 210.180168 80.188177 210.180168 82.132568 
Q 210.180168 83.594749 213.543516 84.411393 
Q 216.906865 85.220259 225.762875 85.803577 
L 238.151612 86.604665 
Q 256.976684 87.825742 264.913219 90.306784 
Q 272.87395 92.780049 272.87395 97.353255 
Q 272.87395 103.349755 261.791838 106.281895 
Q 250.709726 109.214036 227.940583 109.214036 
Q 217.221422 109.214036 206.405475 108.552943 
Q 195.589527 107.899628 184.773579 106.608553 
L 184.773579 98.714328 
Q 195.589527 100.55761 205.679572 101.498695 
Q 215.769617 102.432002 225.157957 102.432002 
Q 234.691477 102.432002 239.748598 101.413142 
Q 244.805718 100.386504 244.805718 98.488779 
Q 244.805718 96.79327 241.36978 95.867741 
Q 237.933841 94.942211 227.650222 94.21112 
L 216.374536 93.410031 
Q 199.43681 92.243397 191.597063 89.692357 
Q 183.781513 87.141317 183.781513 82.816993 
Q 183.781513 77.396033 194.670051 74.479447 
Q 205.558588 71.562862 225.980646 71.562862 
Q 235.296395 71.562862 245.120276 72.013961 
Q 254.944157 72.465059 265.445547 73.359479 
z
" style="fill:#40ba47;"/>
   </g>
   <g id="patch_33">
    <path clip-path="url(#p9144a7a4ec)" d="M 278.490232 159.230404 
L 365.728256 159.230404 
L 365.728256 159.419502 
L 310.821514 159.419502 
L 310.821514 159.599873 
L 362.476315 159.599873 
L 362.476315 159.788971 
L 310.821514 159.788971 
L 310.821514 160.2 
L 278.490232 160.2 
z
" style="fill:#21599c;"/>
   </g>
   <g id="patch_34">
    <path clip-path="url(#p9144a7a4ec)" d="M 305.943602 158.260807 
L 338.274885 158.260807 
L 338.274885 159.230404 
L 305.943602 159.230404 
z
" style="fill:#21599c;"/>
   </g>
   <g id="patch_35">
    <path clip-path="url(#p9144a7a4ec)" d="M 277.563025 157.291211 
L 301.041273 157.291211 
L 301.041273 157.645095 
L 334.882738 157.291211 
L 362.14717 157.291211 
L 318.293784 157.75045 
L 366.655462 158.260807 
L 337.26374 158.260807 
L 301.041273 157.87887 
L 301.041273 158.260807 
L 277.563025 158.260807 
z
" style="fill:#bd2e1f;"/>
   </g>
   <g id="patch_36">
    <path clip-path="url(#p9144a7a4ec)" d="M 277.563025 156.321615 
L 309.894308 156.321615 
L 309.894308 157.10232 
L 366.655462 157.10232 
L 366.655462 157.291211 
L 277.563025 157.291211 
z
" style="fill:#21599c;"/>
   </g>
   <g id="patch_37">
    <path clip-path="url(#p9144a7a4ec)" d="M 277.563025 155.352018 
L 303.844436 155.352018 
L 322.074911 155.870896 
L 340.42555 155.352018 
L 366.655462 155.352018 
L 366.655462 156.321615 
L 347.137524 156.321615 
L 347.137524 155.612392 
L 328.683888 156.135218 
L 315.586098 156.135218 
L 297.132462 155.612392 
L 297.132462 156.321615 
L 277.563025 156.321615 
z
" style="fill:#21599c;"/>
   </g>
   <g id="patch_38">
    <path clip-path="url(#p9144a7a4ec)" d="M 324.485042 155.207022 
L 322.740315 155.207022 
Q 301.339569 155.207022 289.442017 155.098361 
Q 277.563025 154.989528 277.563025 154.795575 
Q 277.563025 154.601963 289.423456 154.492278 
Q 301.283887 154.382422 322.109244 154.382422 
Q 343.157332 154.382422 354.906397 154.491254 
Q 366.655462 154.599916 366.655462 154.795575 
Q 366.655462 154.929824 360.418992 155.026886 
Q 354.182521 155.123948 342.470578 155.172906 
L 359.917847 155.352018 
L 338.628466 155.352018 
z
M 322.109244 154.531171 
Q 311.900735 154.531171 306.276775 154.600427 
Q 300.652815 154.669684 300.652815 154.795575 
Q 300.652815 154.923512 306.146849 154.991575 
Q 311.659443 155.059468 322.109244 155.059468 
Q 332.373435 155.059468 337.997395 154.990211 
Q 343.621355 154.920783 343.621355 154.795575 
Q 343.621355 154.669684 337.997395 154.600427 
Q 332.373435 154.531171 322.109244 154.531171 
z
" style="fill:#40ba47;"/>
   </g>
   <g id="patch_39">
    <path clip-path="url(#p9144a7a4ec)" d="M 313.71188 153.842764 
Q 321.707355 153.842764 325.176291 153.813672 
Q 328.645227 153.784372 328.645227 153.717461 
Q 328.645227 153.651172 325.176291 153.622704 
Q 321.707355 153.594027 313.71188 153.594027 
L 303.008942 153.594027 
L 303.008942 153.842764 
z
M 303.008942 154.015446 
L 303.008942 154.382422 
L 277.563025 154.382422 
L 277.563025 153.412825 
L 316.419342 153.412825 
Q 335.921533 153.412825 344.995762 153.477244 
Q 354.091144 153.541454 354.091144 153.680472 
Q 354.091144 153.776476 349.353085 153.838193 
Q 344.636178 153.899909 335.117755 153.929209 
Q 340.342311 153.940846 344.466961 153.982198 
Q 348.612763 154.023343 352.843173 154.107086 
L 366.655462 154.382422 
L 339.559685 154.382422 
L 327.524169 154.141581 
Q 323.886016 154.068851 320.142103 154.042253 
Q 316.419342 154.015446 310.200639 154.015446 
z
" style="fill:#bd2e1f;"/>
   </g>
   <g id="patch_40">
    <path clip-path="url(#p9144a7a4ec)" d="M 277.563025 152.443229 
L 299.603886 152.443229 
L 322.136567 153.158893 
L 344.632817 152.443229 
L 366.655462 152.443229 
L 335.178928 153.412825 
L 309.03956 153.412825 
z
" style="fill:#21599c;"/>
   </g>
   <g id="patch_41">
    <path clip-path="url(#p9144a7a4ec)" d="M 301.977194 150.882233 
L 301.977194 152.065448 
L 310.724083 152.065448 
Q 325.681059 152.065448 333.575582 151.913338 
Q 341.4904 151.761228 341.4904 151.471555 
Q 341.4904 151.183543 333.616171 151.033096 
Q 325.762237 150.882233 310.724083 150.882233 
z
M 277.563025 150.504036 
L 303.29633 150.504036 
Q 324.869283 150.504036 335.422373 150.567208 
Q 345.975464 150.629963 353.524982 150.780826 
Q 360.181547 150.912156 363.408357 151.083799 
Q 366.655462 151.255027 366.655462 151.471555 
Q 366.655462 151.691407 363.408357 151.863466 
Q 360.181547 152.035525 353.524982 152.166439 
Q 345.914581 152.317302 335.260018 152.380473 
Q 324.605455 152.443229 303.29633 152.443229 
L 277.563025 152.443229 
z
" style="fill:#6b296b;"/>
   </g>
   <g id="patch_42">
    <path clip-path="url(#p9144a7a4ec)" d="M 366.655462 150.328584 
Q 357.670344 150.41631 348.006351 150.460373 
Q 338.342357 150.504036 328.039422 150.504036 
Q 304.757982 150.504036 291.160504 150.24286 
Q 277.563025 149.981684 277.563025 149.535041 
Q 277.563025 149.08319 291.400107 148.824017 
Q 305.257156 148.564844 329.357239 148.564844 
Q 338.641861 148.564844 347.147773 148.600094 
Q 355.673651 148.634945 363.22115 148.703844 
L 363.22115 149.0904 
Q 355.434048 149.001873 347.726814 148.95821 
Q 340.019579 148.914147 332.272411 148.914147 
Q 317.936156 148.914147 310.16902 149.075179 
Q 302.401885 149.23581 302.401885 149.535041 
Q 302.401885 149.831468 309.889483 149.993301 
Q 317.377082 150.154733 331.154263 150.154733 
Q 334.908045 150.154733 338.122721 150.14552 
Q 341.337396 150.135906 343.893163 150.115877 
L 343.893163 149.752955 
L 329.21747 149.752955 
L 329.21747 149.429689 
L 366.655462 149.429689 
z
" style="fill:#787800;"/>
   </g>
   <g id="patch_43">
    <path clip-path="url(#p9144a7a4ec)" d="M 277.563025 145.656054 
L 323.872532 145.656054 
Q 344.544761 145.656054 355.588511 145.902921 
Q 366.655462 146.149165 366.655462 146.604871 
Q 366.655462 147.063071 355.588511 147.309314 
Q 344.544761 147.555557 323.872532 147.555557 
L 305.474015 147.555557 
L 305.474015 148.564844 
L 277.563025 148.564844 
z
M 305.474015 146.19966 
L 305.474015 147.011952 
L 320.902784 147.011952 
Q 329.023188 147.011952 333.454609 146.905973 
Q 337.886029 146.799995 337.886029 146.604871 
Q 337.886029 146.41037 333.454609 146.305015 
Q 329.023188 146.19966 320.902784 146.19966 
z
" style="fill:#787800;"/>
   </g>
   <g id="patch_44">
    <path clip-path="url(#p9144a7a4ec)" d="M 339.277435 144.949533 
L 305.013915 144.949533 
L 299.603886 145.656054 
L 277.563025 145.656054 
L 309.03956 141.777669 
L 335.178928 141.777669 
L 366.655462 145.656054 
L 344.632817 145.656054 
z
M 310.478591 144.229713 
L 333.758112 144.229713 
L 322.136567 142.687003 
z
" style="fill:#21599c;"/>
   </g>
   <g id="patch_45">
    <path clip-path="url(#p9144a7a4ec)" d="M 277.563025 137.899283 
L 306.180854 137.899283 
L 342.342027 140.559128 
L 342.342027 137.899283 
L 366.655462 137.899283 
L 366.655462 141.777669 
L 338.016324 141.777669 
L 301.855151 139.117825 
L 301.855151 141.777669 
L 277.563025 141.777669 
z
" style="fill:#40ba47;"/>
   </g>
   <g id="patch_46">
    <path clip-path="url(#p9144a7a4ec)" d="M 277.563025 117.53776 
L 366.655462 117.53776 
L 366.655462 121.508824 
L 334.602904 121.508824 
L 334.602904 137.899283 
L 309.677741 137.899283 
L 309.677741 121.508824 
L 277.563025 121.508824 
z
" style="fill:#40ba47;"/>
   </g>
   <g id="patch_47">
    <path clip-path="url(#p9144a7a4ec)" d="M 359.22706 53.828008 
L 359.22706 67.482072 
Q 349.935507 65.105048 341.079496 63.902717 
Q 332.247682 62.686565 324.383738 62.686565 
Q 313.954939 62.686565 308.946211 64.331134 
Q 303.96168 65.961882 303.96168 69.416858 
Q 303.96168 72.015 307.325029 73.46609 
Q 310.688377 74.903359 319.544388 75.939852 
L 331.933125 77.363302 
Q 350.758197 79.533027 358.694731 83.941576 
Q 366.655462 88.336305 366.655462 96.462408 
Q 366.655462 107.117553 355.57335 112.327656 
Q 344.491238 117.53776 321.722096 117.53776 
Q 311.002935 117.53776 300.186987 116.363068 
Q 289.37104 115.202196 278.555092 112.908092 
L 278.555092 98.880891 
Q 289.37104 102.156208 299.461085 103.828416 
Q 309.55113 105.486804 318.939469 105.486804 
Q 328.472989 105.486804 333.53011 103.676397 
Q 338.587231 101.85217 338.587231 98.480114 
Q 338.587231 95.467375 335.151292 93.822806 
Q 331.715354 92.178238 321.431735 90.879167 
L 310.156049 89.455717 
Q 293.218323 87.382732 285.378576 82.849804 
Q 277.563025 78.316875 277.563025 70.633009 
Q 277.563025 61.000537 288.451563 55.818074 
Q 299.340101 50.63561 319.762159 50.63561 
Q 329.077908 50.63561 338.901789 51.437164 
Q 348.72567 52.238719 359.22706 53.828008 
z
" style="fill:#40ba47;"/>
   </g>
   <g id="patch_48">
    <path clip-path="url(#p9144a7a4ec)" d="M 395.758707 159.407975 
L 395.758707 160.00832 
L 404.505595 160.00832 
Q 419.462572 160.00832 427.357095 159.931142 
Q 435.271913 159.853963 435.271913 159.706988 
Q 435.271913 159.560855 427.397684 159.48452 
Q 419.543749 159.407975 404.505595 159.407975 
z
M 371.344538 159.216084 
L 397.077843 159.216084 
Q 418.650795 159.216084 429.203886 159.248136 
Q 439.756976 159.279977 447.306495 159.356523 
Q 453.96306 159.423158 457.18987 159.510247 
Q 460.436975 159.597125 460.436975 159.706988 
Q 460.436975 159.818537 457.18987 159.905837 
Q 453.96306 159.993137 447.306495 160.059561 
Q 439.696093 160.136107 429.041531 160.168159 
Q 418.386968 160.2 397.077843 160.2 
L 371.344538 160.2 
z
" style="fill:#6b296b;"/>
   </g>
   <g id="patch_49">
    <path clip-path="url(#p9144a7a4ec)" d="M 372.271744 158.232168 
L 459.509768 158.232168 
L 459.509768 158.424059 
L 404.603027 158.424059 
L 404.603027 158.607093 
L 456.257827 158.607093 
L 456.257827 158.798984 
L 404.603027 158.798984 
L 404.603027 159.216084 
L 372.271744 159.216084 
z
" style="fill:#21599c;"/>
   </g>
   <g id="patch_50">
    <path clip-path="url(#p9144a7a4ec)" d="M 460.436975 158.143146 
Q 451.451857 158.187657 441.787863 158.210014 
Q 432.12387 158.232168 421.820934 158.232168 
Q 398.539495 158.232168 384.942016 158.099651 
Q 371.344538 157.967134 371.344538 157.740515 
Q 371.344538 157.511253 385.18162 157.379752 
Q 399.038668 157.248252 423.138752 157.248252 
Q 432.423373 157.248252 440.929285 157.266137 
Q 449.455164 157.28382 457.002663 157.318778 
L 457.002663 157.514911 
Q 449.215561 157.469994 441.508326 157.44784 
Q 433.801092 157.425483 426.053923 157.425483 
Q 411.717668 157.425483 403.950533 157.507188 
Q 396.183397 157.588689 396.183397 157.740515 
Q 396.183397 157.890917 403.670996 157.973029 
Q 411.158594 158.054937 424.935775 158.054937 
Q 428.689558 158.054937 431.904233 158.050262 
Q 435.118909 158.045384 437.674676 158.035222 
L 437.674676 157.851081 
L 422.998983 157.851081 
L 422.998983 157.687061 
L 460.436975 157.687061 
z
" style="fill:#787800;"/>
   </g>
   <g id="patch_51">
    <path clip-path="url(#p9144a7a4ec)" d="M 371.344538 156.264336 
L 403.67582 156.264336 
L 403.67582 157.056571 
L 460.436975 157.056571 
L 460.436975 157.248252 
L 371.344538 157.248252 
z
" style="fill:#21599c;"/>
   </g>
   <g id="patch_52">
    <path clip-path="url(#p9144a7a4ec)" d="M 371.344538 155.280419 
L 397.625948 155.280419 
L 415.856424 155.80696 
L 434.207063 155.280419 
L 460.436975 155.280419 
L 460.436975 156.264336 
L 440.919036 156.264336 
L 440.919036 155.544639 
L 422.4654 156.075186 
L 409.367611 156.075186 
L 390.913975 155.544639 
L 390.913975 156.264336 
L 371.344538 156.264336 
z
" style="fill:#21599c;"/>
   </g>
   <g id="patch_53">
    <path clip-path="url(#p9144a7a4ec)" d="M 371.344538 154.296503 
L 417.654044 154.296503 
Q 438.326274 154.296503 449.370024 154.380008 
Q 460.436975 154.463301 460.436975 154.617446 
Q 460.436975 154.772435 449.370024 154.855729 
Q 438.326274 154.939022 417.654044 154.939022 
L 399.255528 154.939022 
L 399.255528 155.280419 
L 371.344538 155.280419 
z
M 399.255528 154.480381 
L 399.255528 154.755144 
L 414.684296 154.755144 
Q 422.804701 154.755144 427.236121 154.719296 
Q 431.667542 154.683448 431.667542 154.617446 
Q 431.667542 154.551655 427.236121 154.516018 
Q 422.804701 154.480381 414.684296 154.480381 
z
" style="fill:#787800;"/>
   </g>
   <g id="patch_54">
    <path clip-path="url(#p9144a7a4ec)" d="M 418.266555 154.149366 
L 416.521828 154.149366 
Q 395.121082 154.149366 383.223529 154.0391 
Q 371.344538 153.92866 371.344538 153.731842 
Q 371.344538 153.53537 383.204968 153.424065 
Q 395.065399 153.312587 415.890756 153.312587 
Q 436.938845 153.312587 448.68791 153.423027 
Q 460.436975 153.533293 460.436975 153.731842 
Q 460.436975 153.868074 454.200504 153.966569 
Q 447.964034 154.065065 436.25209 154.114745 
L 453.699359 154.296503 
L 432.409979 154.296503 
z
M 415.890756 153.463533 
Q 405.682248 153.463533 400.058288 153.533813 
Q 394.434328 153.604092 394.434328 153.731842 
Q 394.434328 153.861669 399.928361 153.930737 
Q 405.440956 153.999632 415.890756 153.999632 
Q 426.154947 153.999632 431.778908 153.929352 
Q 437.402868 153.8589 437.402868 153.731842 
Q 437.402868 153.604092 431.778908 153.533813 
Q 426.154947 153.463533 415.890756 153.463533 
z
" style="fill:#40ba47;"/>
   </g>
   <g id="patch_55">
    <path clip-path="url(#p9144a7a4ec)" d="M 371.344538 152.328671 
L 393.385398 152.328671 
L 415.91808 153.054905 
L 438.41433 152.328671 
L 460.436975 152.328671 
L 428.96044 153.312587 
L 402.821072 153.312587 
z
" style="fill:#21599c;"/>
   </g>
   <g id="patch_56">
    <path clip-path="url(#p9144a7a4ec)" d="M 399.725115 150.360839 
L 432.056398 150.360839 
L 432.056398 152.328671 
L 399.725115 152.328671 
z
" style="fill:#21599c;"/>
   </g>
   <g id="patch_57">
    <path clip-path="url(#p9144a7a4ec)" d="M 371.344538 148.393007 
L 399.962367 148.393007 
L 436.12354 149.74257 
L 436.12354 148.393007 
L 460.436975 148.393007 
L 460.436975 150.360839 
L 431.797837 150.360839 
L 395.636664 149.011275 
L 395.636664 150.360839 
L 371.344538 150.360839 
z
" style="fill:#40ba47;"/>
   </g>
   <g id="patch_58">
    <path clip-path="url(#p9144a7a4ec)" d="M 407.493392 147.297752 
Q 415.488867 147.297752 418.957804 147.238708 
Q 422.42674 147.179243 422.42674 147.043443 
Q 422.42674 146.908909 418.957804 146.85113 
Q 415.488867 146.792931 407.493392 146.792931 
L 396.790455 146.792931 
L 396.790455 147.297752 
z
M 396.790455 147.648216 
L 396.790455 148.393007 
L 371.344538 148.393007 
L 371.344538 146.425174 
L 410.200855 146.425174 
Q 429.703045 146.425174 438.777275 146.555913 
Q 447.872657 146.686231 447.872657 146.968374 
Q 447.872657 147.163217 443.134597 147.288473 
Q 438.41769 147.41373 428.899267 147.473195 
Q 434.123824 147.496812 438.248474 147.580738 
Q 442.394276 147.664242 446.624686 147.834203 
L 460.436975 148.393007 
L 433.341198 148.393007 
L 421.305681 147.904212 
Q 417.667529 147.756603 413.923616 147.702621 
Q 410.200855 147.648216 403.982152 147.648216 
z
" style="fill:#bd2e1f;"/>
   </g>
   <g id="patch_59">
    <path clip-path="url(#p9144a7a4ec)" d="M 371.344538 141.505594 
L 394.822786 141.505594 
L 394.822786 143.301146 
L 428.66425 141.505594 
L 455.928683 141.505594 
L 412.075297 143.8357 
L 460.436975 146.425174 
L 431.045253 146.425174 
L 394.822786 144.487286 
L 394.822786 146.425174 
L 371.344538 146.425174 
z
" style="fill:#bd2e1f;"/>
   </g>
   <g id="patch_60">
    <path clip-path="url(#p9144a7a4ec)" d="M 433.058947 140.071683 
L 398.795428 140.071683 
L 393.385398 141.505594 
L 371.344538 141.505594 
L 402.821072 133.634265 
L 428.96044 133.634265 
L 460.436975 141.505594 
L 438.41433 141.505594 
z
M 404.260104 138.61078 
L 427.539624 138.61078 
L 415.91808 135.479793 
z
" style="fill:#21599c;"/>
   </g>
   <g id="patch_61">
    <path clip-path="url(#p9144a7a4ec)" d="M 453.008572 121.453705 
L 453.008572 124.064202 
Q 443.71702 123.609743 434.861009 123.379871 
Q 426.029195 123.147358 418.165251 123.147358 
Q 407.736451 123.147358 402.727724 123.46178 
Q 397.743193 123.77356 397.743193 124.434111 
Q 397.743193 124.930845 401.106541 125.208277 
Q 404.46989 125.483066 413.325901 125.681231 
L 425.714637 125.953378 
Q 444.539709 126.368204 452.476244 127.211067 
Q 460.436975 128.051288 460.436975 129.604904 
Q 460.436975 131.642043 449.354863 132.638154 
Q 438.272751 133.634265 415.503608 133.634265 
Q 404.784448 133.634265 393.9685 133.409678 
Q 383.152552 133.187733 372.336605 132.749127 
L 372.336605 130.06729 
Q 383.152552 130.693492 393.242597 131.013199 
Q 403.332643 131.330263 412.720982 131.330263 
Q 422.254502 131.330263 427.311623 130.984134 
Q 432.368744 130.635364 432.368744 129.990666 
Q 432.368744 129.414665 428.932805 129.100243 
Q 425.496866 128.785821 415.213247 128.537454 
L 403.937561 128.265307 
Q 386.999836 127.868976 379.160088 127.002333 
Q 371.344538 126.13569 371.344538 124.666625 
Q 371.344538 122.825009 382.233076 121.834182 
Q 393.121614 120.843356 413.543671 120.843356 
Q 422.859421 120.843356 432.683301 120.996603 
Q 442.507182 121.149851 453.008572 121.453705 
z
" style="fill:#40ba47;"/>
   </g>
   <g id="patch_62">
    <path clip-path="url(#p9144a7a4ec)" d="M 371.344538 49.01748 
L 460.436975 49.01748 
L 460.436975 63.025527 
L 428.384417 63.025527 
L 428.384417 120.843356 
L 403.459253 120.843356 
L 403.459253 63.025527 
L 371.344538 63.025527 
z
" style="fill:#40ba47;"/>
   </g>
   <g id="patch_63">
    <path clip-path="url(#p9144a7a4ec)" d="M 489.540219 159.599074 
L 489.540219 160.054568 
L 498.287108 160.054568 
Q 513.244084 160.054568 521.138608 159.996011 
Q 529.053425 159.937455 529.053425 159.825941 
Q 529.053425 159.715067 521.179196 159.65715 
Q 513.325262 159.599074 498.287108 159.599074 
z
M 465.12605 159.453482 
L 490.859356 159.453482 
Q 512.432308 159.453482 522.985398 159.4778 
Q 533.538489 159.501959 541.088008 159.560036 
Q 547.744572 159.610593 550.971383 159.676669 
Q 554.218487 159.742586 554.218487 159.825941 
Q 554.218487 159.910576 550.971383 159.976813 
Q 547.744572 160.043049 541.088008 160.093446 
Q 533.477606 160.151523 522.823043 160.175841 
Q 512.168481 160.2 490.859356 160.2 
L 465.12605 160.2 
z
" style="fill:#6b296b;"/>
   </g>
   <g id="patch_64">
    <path clip-path="url(#p9144a7a4ec)" d="M 554.218487 159.385939 
Q 545.233369 159.41971 535.569376 159.436673 
Q 525.905382 159.453482 515.602447 159.453482 
Q 492.321008 159.453482 478.723529 159.352939 
Q 465.12605 159.252395 465.12605 159.080454 
Q 465.12605 158.906508 478.963132 158.806736 
Q 492.820181 158.706964 516.920264 158.706964 
Q 526.204886 158.706964 534.710798 158.720534 
Q 543.236676 158.73395 550.784176 158.760474 
L 550.784176 158.909284 
Q 542.997073 158.875204 535.289839 158.858395 
Q 527.582604 158.841433 519.835436 158.841433 
Q 505.499181 158.841433 497.732045 158.903424 
Q 489.96491 158.965261 489.96491 159.080454 
Q 489.96491 159.194568 497.452508 159.256867 
Q 504.940107 159.319013 518.717288 159.319013 
Q 522.47107 159.319013 525.685746 159.315466 
Q 528.900421 159.311765 531.456188 159.304055 
L 531.456188 159.164343 
L 516.780496 159.164343 
L 516.780496 159.039898 
L 554.218487 159.039898 
z
" style="fill:#787800;"/>
   </g>
   <g id="patch_65">
    <path clip-path="url(#p9144a7a4ec)" d="M 465.12605 157.960445 
L 488.604298 157.960445 
L 488.604298 158.23291 
L 522.445763 157.960445 
L 549.710195 157.960445 
L 505.85681 158.314026 
L 554.218487 158.706964 
L 524.826766 158.706964 
L 488.604298 158.4129 
L 488.604298 158.706964 
L 465.12605 158.706964 
z
" style="fill:#bd2e1f;"/>
   </g>
   <g id="patch_66">
    <path clip-path="url(#p9144a7a4ec)" d="M 465.12605 157.213927 
L 493.743879 157.213927 
L 529.905053 157.725899 
L 529.905053 157.213927 
L 554.218487 157.213927 
L 554.218487 157.960445 
L 525.57935 157.960445 
L 489.418176 157.448474 
L 489.418176 157.960445 
L 465.12605 157.960445 
z
" style="fill:#40ba47;"/>
   </g>
   <g id="patch_67">
    <path clip-path="url(#p9144a7a4ec)" d="M 465.12605 156.467409 
L 511.435557 156.467409 
Q 532.107786 156.467409 543.151536 156.530766 
Q 554.218487 156.593962 554.218487 156.710915 
Q 554.218487 156.828509 543.151536 156.891705 
Q 532.107786 156.954902 511.435557 156.954902 
L 493.03704 156.954902 
L 493.03704 157.213927 
L 465.12605 157.213927 
z
M 493.03704 156.606921 
L 493.03704 156.81539 
L 508.465809 156.81539 
Q 516.586213 156.81539 521.017634 156.788191 
Q 525.449055 156.760993 525.449055 156.710915 
Q 525.449055 156.660998 521.017634 156.63396 
Q 516.586213 156.606921 508.465809 156.606921 
z
" style="fill:#787800;"/>
   </g>
   <g id="patch_68">
    <path clip-path="url(#p9144a7a4ec)" d="M 512.048067 156.355773 
L 510.30334 156.355773 
Q 488.902595 156.355773 477.005042 156.272111 
Q 465.12605 156.188319 465.12605 156.038989 
Q 465.12605 155.889921 476.986481 155.805472 
Q 488.846912 155.720891 509.672269 155.720891 
Q 530.720357 155.720891 542.469422 155.804684 
Q 554.218487 155.888345 554.218487 156.038989 
Q 554.218487 156.142351 547.982017 156.217081 
Q 541.745546 156.291812 530.033603 156.329506 
L 547.480872 156.467409 
L 526.191492 156.467409 
z
M 509.672269 155.835417 
Q 499.463761 155.835417 493.8398 155.888739 
Q 488.21584 155.942062 488.21584 156.038989 
Q 488.21584 156.137491 493.709874 156.189895 
Q 499.222468 156.242167 509.672269 156.242167 
Q 519.93646 156.242167 525.56042 156.188844 
Q 531.18438 156.13539 531.18438 156.038989 
Q 531.18438 155.942062 525.56042 155.888739 
Q 519.93646 155.835417 509.672269 155.835417 
z
" style="fill:#40ba47;"/>
   </g>
   <g id="patch_69">
    <path clip-path="url(#p9144a7a4ec)" d="M 501.274905 155.305394 
Q 509.27038 155.305394 512.739316 155.282996 
Q 516.208253 155.260437 516.208253 155.20892 
Q 516.208253 155.157883 512.739316 155.135964 
Q 509.27038 155.113885 501.274905 155.113885 
L 490.571967 155.113885 
L 490.571967 155.305394 
z
M 490.571967 155.438347 
L 490.571967 155.720891 
L 465.12605 155.720891 
L 465.12605 154.974373 
L 503.982367 154.974373 
Q 523.484558 154.974373 532.558788 155.02397 
Q 541.654169 155.073407 541.654169 155.180441 
Q 541.654169 155.254357 536.91611 155.301874 
Q 532.199203 155.349392 522.68078 155.371951 
Q 527.905336 155.38091 532.029986 155.412748 
Q 536.175788 155.444426 540.406198 155.508903 
L 554.218487 155.720891 
L 527.122711 155.720891 
L 515.087194 155.535461 
Q 511.449041 155.479465 507.705128 155.458986 
Q 503.982367 155.438347 497.763664 155.438347 
z
" style="fill:#bd2e1f;"/>
   </g>
   <g id="patch_70">
    <path clip-path="url(#p9144a7a4ec)" d="M 546.790085 154.263477 
L 546.790085 154.415833 
Q 537.498532 154.38931 528.642522 154.375894 
Q 519.810708 154.362324 511.946763 154.362324 
Q 501.517964 154.362324 496.509236 154.380674 
Q 491.524706 154.398871 491.524706 154.437423 
Q 491.524706 154.466414 494.888054 154.482605 
Q 498.251402 154.498643 507.107413 154.510208 
L 519.49615 154.526092 
Q 538.321222 154.550302 546.257756 154.599495 
Q 554.218487 154.648533 554.218487 154.739206 
Q 554.218487 154.8581 543.136375 154.916237 
Q 532.054264 154.974373 509.285121 154.974373 
Q 498.56596 154.974373 487.750013 154.961265 
Q 476.934065 154.948312 466.118117 154.922713 
L 466.118117 154.766193 
Q 476.934065 154.80274 487.02411 154.821399 
Q 497.114155 154.839904 506.502495 154.839904 
Q 516.036014 154.839904 521.093135 154.819703 
Q 526.150256 154.799347 526.150256 154.761721 
Q 526.150256 154.728104 522.714318 154.709753 
Q 519.278379 154.691402 508.99476 154.676907 
L 497.719074 154.661023 
Q 480.781348 154.637892 472.941601 154.587312 
Q 465.12605 154.536732 465.12605 154.450993 
Q 465.12605 154.34351 476.014588 154.285682 
Q 486.903126 154.227855 507.325184 154.227855 
Q 516.640933 154.227855 526.464814 154.236799 
Q 536.288695 154.245743 546.790085 154.263477 
z
" style="fill:#40ba47;"/>
   </g>
   <g id="patch_71">
    <path clip-path="url(#p9144a7a4ec)" d="M 465.12605 152.734818 
L 491.407461 152.734818 
L 509.637937 153.533814 
L 527.988575 152.734818 
L 554.218487 152.734818 
L 554.218487 154.227855 
L 534.700549 154.227855 
L 534.700549 153.135756 
L 516.246913 153.940831 
L 503.149123 153.940831 
L 484.695487 153.135756 
L 484.695487 154.227855 
L 465.12605 154.227855 
z
" style="fill:#21599c;"/>
   </g>
   <g id="patch_72">
    <path clip-path="url(#p9144a7a4ec)" d="M 465.12605 151.241782 
L 554.218487 151.241782 
L 554.218487 151.532966 
L 522.165929 151.532966 
L 522.165929 152.734818 
L 497.240766 152.734818 
L 497.240766 151.532966 
L 465.12605 151.532966 
z
" style="fill:#40ba47;"/>
   </g>
   <g id="patch_73">
    <path clip-path="url(#p9144a7a4ec)" d="M 526.84046 150.697812 
L 492.57694 150.697812 
L 487.166911 151.241782 
L 465.12605 151.241782 
L 496.602585 148.255709 
L 522.741953 148.255709 
L 554.218487 151.241782 
L 532.195842 151.241782 
z
M 498.041616 150.143603 
L 521.321137 150.143603 
L 509.699592 148.95583 
z
" style="fill:#21599c;"/>
   </g>
   <g id="patch_74">
    <path clip-path="url(#p9144a7a4ec)" d="M 493.506628 143.030082 
L 525.83791 143.030082 
L 525.83791 148.255709 
L 493.506628 148.255709 
z
" style="fill:#21599c;"/>
   </g>
   <g id="patch_75">
    <path clip-path="url(#p9144a7a4ec)" d="M 465.12605 133.325346 
L 497.457333 133.325346 
L 497.457333 141.139468 
L 554.218487 141.139468 
L 554.218487 143.030082 
L 465.12605 143.030082 
z
" style="fill:#21599c;"/>
   </g>
   <g id="patch_76">
    <path clip-path="url(#p9144a7a4ec)" d="M 466.053257 113.169355 
L 553.291281 113.169355 
L 553.291281 117.100335 
L 498.384539 117.100335 
L 498.384539 120.849885 
L 550.03934 120.849885 
L 550.03934 124.780865 
L 498.384539 124.780865 
L 498.384539 133.325346 
L 466.053257 133.325346 
z
" style="fill:#21599c;"/>
   </g>
   <g id="patch_77">
    <path clip-path="url(#p9144a7a4ec)" d="M 465.12605 75.843447 
L 487.166911 75.843447 
L 509.699592 103.393903 
L 532.195842 75.843447 
L 554.218487 75.843447 
L 522.741953 113.169355 
L 496.602585 113.169355 
z
" style="fill:#21599c;"/>
   </g>
   <g id="patch_78">
    <path clip-path="url(#p9144a7a4ec)" d="M 559.834769 159.635988 
L 647.072794 159.635988 
L 647.072794 159.745986 
L 592.166052 159.745986 
L 592.166052 159.850907 
L 643.820853 159.850907 
L 643.820853 159.960905 
L 592.166052 159.960905 
L 592.166052 160.2 
L 559.834769 160.2 
z
" style="fill:#21599c;"/>
   </g>
   <g id="patch_79">
    <path clip-path="url(#p9144a7a4ec)" d="M 587.28814 159.071977 
L 619.619423 159.071977 
L 619.619423 159.635988 
L 587.28814 159.635988 
z
" style="fill:#21599c;"/>
   </g>
   <g id="patch_80">
    <path clip-path="url(#p9144a7a4ec)" d="M 558.907563 158.507965 
L 582.385811 158.507965 
L 582.385811 158.713818 
L 616.227275 158.507965 
L 643.491708 158.507965 
L 599.638322 158.775103 
L 648 159.071977 
L 618.608278 159.071977 
L 582.385811 158.849805 
L 582.385811 159.071977 
L 558.907563 159.071977 
z
" style="fill:#bd2e1f;"/>
   </g>
   <g id="patch_81">
    <path clip-path="url(#p9144a7a4ec)" d="M 558.907563 157.943953 
L 585.188974 157.943953 
L 603.419449 158.245783 
L 621.770088 157.943953 
L 648 157.943953 
L 648 158.507965 
L 628.482061 158.507965 
L 628.482061 158.095412 
L 610.028426 158.399538 
L 596.930636 158.399538 
L 578.477 158.095412 
L 578.477 158.507965 
L 558.907563 158.507965 
z
" style="fill:#21599c;"/>
   </g>
   <g id="patch_82">
    <path clip-path="url(#p9144a7a4ec)" d="M 558.907563 157.379942 
L 605.217069 157.379942 
Q 625.889299 157.379942 636.933049 157.427809 
Q 648 157.475555 648 157.563916 
Q 648 157.652761 636.933049 157.700507 
Q 625.889299 157.748254 605.217069 157.748254 
L 586.818553 157.748254 
L 586.818553 157.943953 
L 558.907563 157.943953 
z
M 586.818553 157.485346 
L 586.818553 157.642849 
L 602.247321 157.642849 
Q 610.367726 157.642849 614.799147 157.6223 
Q 619.230567 157.601751 619.230567 157.563916 
Q 619.230567 157.526203 614.799147 157.505774 
Q 610.367726 157.485346 602.247321 157.485346 
z
" style="fill:#787800;"/>
   </g>
   <g id="patch_83">
    <path clip-path="url(#p9144a7a4ec)" d="M 595.056417 157.066024 
Q 603.051893 157.066024 606.520829 157.049102 
Q 609.989765 157.032058 609.989765 156.993135 
Q 609.989765 156.954576 606.520829 156.938016 
Q 603.051893 156.921335 595.056417 156.921335 
L 584.35348 156.921335 
L 584.35348 157.066024 
z
M 584.35348 157.166473 
L 584.35348 157.379942 
L 558.907563 157.379942 
L 558.907563 156.81593 
L 597.76388 156.81593 
Q 617.266071 156.81593 626.3403 156.853402 
Q 635.435682 156.890753 635.435682 156.971619 
Q 635.435682 157.027465 630.697623 157.063365 
Q 625.980715 157.099265 616.462293 157.116309 
Q 621.686849 157.123078 625.811499 157.147133 
Q 629.957301 157.171066 634.187711 157.21978 
L 648 157.379942 
L 620.904223 157.379942 
L 608.868706 157.239845 
Q 605.230554 157.197538 601.486641 157.182066 
Q 597.76388 157.166473 591.545177 157.166473 
z
" style="fill:#bd2e1f;"/>
   </g>
   <g id="patch_84">
    <path clip-path="url(#p9144a7a4ec)" d="M 558.907563 156.251918 
L 580.948424 156.251918 
L 603.481105 156.668218 
L 625.977355 156.251918 
L 648 156.251918 
L 616.523465 156.81593 
L 590.384098 156.81593 
z
" style="fill:#21599c;"/>
   </g>
   <g id="patch_85">
    <path clip-path="url(#p9144a7a4ec)" d="M 558.907563 155.123895 
L 591.238846 155.123895 
L 591.238846 156.032164 
L 648 156.032164 
L 648 156.251918 
L 558.907563 156.251918 
z
" style="fill:#21599c;"/>
   </g>
   <g id="patch_86">
    <path clip-path="url(#p9144a7a4ec)" d="M 605.82958 154.955207 
L 604.084853 154.955207 
Q 582.684107 154.955207 570.786555 154.828791 
Q 558.907563 154.702176 558.907563 154.476532 
Q 558.907563 154.251284 570.767994 154.123677 
Q 582.628424 153.995872 603.453782 153.995872 
Q 624.50187 153.995872 636.250935 154.122486 
Q 648 154.248903 648 154.476532 
Q 648 154.632717 641.763529 154.745638 
Q 635.527059 154.858559 623.815116 154.915516 
L 641.262384 155.123895 
L 619.973004 155.123895 
z
M 603.453782 154.168925 
Q 593.245273 154.168925 587.621313 154.249498 
Q 581.997353 154.330071 581.997353 154.476532 
Q 581.997353 154.625374 587.491387 154.704558 
Q 593.003981 154.783543 603.453782 154.783543 
Q 613.717973 154.783543 619.341933 154.70297 
Q 624.965893 154.622198 624.965893 154.476532 
Q 624.965893 154.330071 619.341933 154.249498 
Q 613.717973 154.168925 603.453782 154.168925 
z
" style="fill:#40ba47;"/>
   </g>
   <g id="patch_87">
    <path clip-path="url(#p9144a7a4ec)" d="M 583.321732 152.63383 
L 583.321732 153.66624 
L 592.06862 153.66624 
Q 607.025597 153.66624 614.92012 153.533517 
Q 622.834938 153.400795 622.834938 153.148041 
Q 622.834938 152.896738 614.960709 152.765465 
Q 607.106774 152.63383 592.06862 152.63383 
z
M 558.907563 152.303837 
L 584.640868 152.303837 
Q 606.213821 152.303837 616.766911 152.358956 
Q 627.320002 152.413714 634.86952 152.545349 
Q 641.526085 152.65994 644.752895 152.809706 
Q 648 152.95911 648 153.148041 
Q 648 153.339873 644.752895 153.490002 
Q 641.526085 153.640131 634.86952 153.754359 
Q 627.259118 153.885994 616.604556 153.941114 
Q 605.949993 153.995872 584.640868 153.995872 
L 558.907563 153.995872 
z
" style="fill:#6b296b;"/>
   </g>
   <g id="patch_88">
    <path clip-path="url(#p9144a7a4ec)" d="M 558.907563 147.791743 
L 587.525392 147.791743 
L 623.686565 150.886192 
L 623.686565 147.791743 
L 648 147.791743 
L 648 152.303837 
L 619.360862 152.303837 
L 583.199689 149.209388 
L 583.199689 152.303837 
L 558.907563 152.303837 
z
" style="fill:#40ba47;"/>
   </g>
   <g id="patch_89">
    <path clip-path="url(#p9144a7a4ec)" d="M 620.621972 146.353308 
L 586.358453 146.353308 
L 580.948424 147.791743 
L 558.907563 147.791743 
L 590.384098 139.89558 
L 616.523465 139.89558 
L 648 147.791743 
L 625.977355 147.791743 
z
M 591.823129 144.887796 
L 615.10265 144.887796 
L 603.481105 141.74693 
z
" style="fill:#21599c;"/>
   </g>
   <g id="patch_90">
    <path clip-path="url(#p9144a7a4ec)" d="M 648 139.079097 
Q 639.014882 139.487338 629.350888 139.692391 
Q 619.686895 139.89558 609.383959 139.89558 
Q 586.10252 139.89558 572.505042 138.680176 
Q 558.907563 137.464772 558.907563 135.386282 
Q 558.907563 133.283559 572.744645 132.077476 
Q 586.601693 130.871393 610.701777 130.871393 
Q 619.986399 130.871393 628.49231 131.035435 
Q 637.018189 131.197613 644.565688 131.518241 
L 644.565688 133.317113 
Q 636.778586 132.905144 629.071351 132.701955 
Q 621.364117 132.496902 613.616948 132.496902 
Q 599.280693 132.496902 591.513558 133.246277 
Q 583.746423 133.993788 583.746423 135.386282 
Q 583.746423 136.765728 591.234021 137.518831 
Q 598.721619 138.27007 612.4988 138.27007 
Q 616.252583 138.27007 619.467259 138.227196 
Q 622.681934 138.182457 625.237701 138.089251 
L 625.237701 136.400362 
L 610.562008 136.400362 
L 610.562008 134.89602 
L 648 134.89602 
z
" style="fill:#787800;"/>
   </g>
   <g id="patch_91">
    <path clip-path="url(#p9144a7a4ec)" d="M 640.571597 115.295536 
L 640.571597 118.633703 
Q 631.280045 118.052564 622.424034 117.758616 
Q 613.59222 117.46129 605.728276 117.46129 
Q 595.299476 117.46129 590.290749 117.863357 
Q 585.306218 118.262044 585.306218 119.106722 
Q 585.306218 119.74192 588.669567 120.096684 
Q 592.032915 120.44807 600.888926 120.701474 
L 613.277662 121.049481 
Q 632.102735 121.579938 640.039269 122.657747 
Q 648 123.732177 648 125.718859 
Q 648 128.323845 636.917888 129.597619 
Q 625.835776 130.871393 603.066633 130.871393 
Q 592.347473 130.871393 581.531525 130.584202 
Q 570.715577 130.300391 559.89963 129.739525 
L 559.89963 126.310133 
Q 570.715577 127.110888 580.805623 127.519712 
Q 590.895668 127.925157 600.284007 127.925157 
Q 609.817527 127.925157 614.874648 127.482546 
Q 619.931769 127.036556 619.931769 126.212151 
Q 619.931769 125.475592 616.49583 125.073525 
Q 613.059892 124.671459 602.776272 124.35386 
L 591.500587 124.005853 
Q 574.562861 123.499046 566.723114 122.390829 
Q 558.907563 121.282612 558.907563 119.404049 
Q 558.907563 117.049087 569.796101 115.782071 
Q 580.684639 114.515054 601.106697 114.515054 
Q 610.422446 114.515054 620.246327 114.711019 
Q 630.070208 114.906985 640.571597 115.295536 
z
" style="fill:#40ba47;"/>
   </g>
   <g id="patch_92">
    <path clip-path="url(#p9144a7a4ec)" d="M 558.907563 96.466681 
L 648 96.466681 
L 648 99.986616 
L 615.947442 99.986616 
L 615.947442 114.515054 
L 591.022279 114.515054 
L 591.022279 99.986616 
L 558.907563 99.986616 
z
" style="fill:#40ba47;"/>
   </g>
   <g id="matplotlib.axis_1">
    <g id="xtick_1">
     <g id="line2d_2">
      <defs>
       <path d="M 0 0 
L 0 3.5 
" id="mcf3b8fa379" style="stroke:#000000;stroke-width:0.8;"/>
      </defs>
      <g>
       <use style="stroke:#000000;stroke-width:0.8;" x="134.546218" xlink:href="#mcf3b8fa379" y="160.2"/>
      </g>
     </g>
     <g id="text_1">
      <!-- 53 -->
      <defs>
       <path d="M 10.796875 72.90625 
L 49.515625 72.90625 
L 49.515625 64.59375 
L 19.828125 64.59375 
L 19.828125 46.734375 
Q 21.96875 47.46875 24.109375 47.828125 
Q 26.265625 48.1875 28.421875 48.1875 
Q 40.625 48.1875 47.75 41.5 
Q 54.890625 34.8125 54.890625 23.390625 
Q 54.890625 11.625 47.5625 5.09375 
Q 40.234375 -1.421875 26.90625 -1.421875 
Q 22.3125 -1.421875 17.546875 -0.640625 
Q 12.796875 0.140625 7.71875 1.703125 
L 7.71875 11.625 
Q 12.109375 9.234375 16.796875 8.0625 
Q 21.484375 6.890625 26.703125 6.890625 
Q 35.15625 6.890625 40.078125 11.328125 
Q 45.015625 15.765625 45.015625 23.390625 
Q 45.015625 31 40.078125 35.4375 
Q 35.15625 39.890625 26.703125 39.890625 
Q 22.75 39.890625 18.8125 39.015625 
Q 14.890625 38.140625 10.796875 36.28125 
z
" id="DejaVuSans-53"/>
       <path d="M 40.578125 39.3125 
Q 47.65625 37.796875 51.625 33 
Q 55.609375 28.21875 55.609375 21.1875 
Q 55.609375 10.40625 48.1875 4.484375 
Q 40.765625 -1.421875 27.09375 -1.421875 
Q 22.515625 -1.421875 17.65625 -0.515625 
Q 12.796875 0.390625 7.625 2.203125 
L 7.625 11.71875 
Q 11.71875 9.328125 16.59375 8.109375 
Q 21.484375 6.890625 26.8125 6.890625 
Q 36.078125 6.890625 40.9375 10.546875 
Q 45.796875 14.203125 45.796875 21.1875 
Q 45.796875 27.640625 41.28125 31.265625 
Q 36.765625 34.90625 28.71875 34.90625 
L 20.21875 34.90625 
L 20.21875 43.015625 
L 29.109375 43.015625 
Q 36.375 43.015625 40.234375 45.921875 
Q 44.09375 48.828125 44.09375 54.296875 
Q 44.09375 59.90625 40.109375 62.90625 
Q 36.140625 65.921875 28.71875 65.921875 
Q 24.65625 65.921875 20.015625 65.03125 
Q 15.375 64.15625 9.8125 62.3125 
L 9.8125 71.09375 
Q 15.4375 72.65625 20.34375 73.4375 
Q 25.25 74.21875 29.59375 74.21875 
Q 40.828125 74.21875 47.359375 69.109375 
Q 53.90625 64.015625 53.90625 55.328125 
Q 53.90625 49.265625 50.4375 45.09375 
Q 46.96875 40.921875 40.578125 39.3125 
z
" id="DejaVuSans-51"/>
      </defs>
      <g transform="translate(128.183718 174.798438)scale(0.1 -0.1)">
       <use xlink:href="#DejaVuSans-53"/>
       <use x="63.623047" xlink:href="#DejaVuSans-51"/>
      </g>
     </g>
    </g>
    <g id="xtick_2">
     <g id="line2d_3">
      <g>
       <use style="stroke:#000000;stroke-width:0.8;" x="228.327731" xlink:href="#mcf3b8fa379" y="160.2"/>
      </g>
     </g>
     <g id="text_2">
      <!-- 54 -->
      <defs>
       <path d="M 37.796875 64.3125 
L 12.890625 25.390625 
L 37.796875 25.390625 
z
M 35.203125 72.90625 
L 47.609375 72.90625 
L 47.609375 25.390625 
L 58.015625 25.390625 
L 58.015625 17.1875 
L 47.609375 17.1875 
L 47.609375 0 
L 37.796875 0 
L 37.796875 17.1875 
L 4.890625 17.1875 
L 4.890625 26.703125 
z
" id="DejaVuSans-52"/>
      </defs>
      <g transform="translate(221.965231 174.798438)scale(0.1 -0.1)">
       <use xlink:href="#DejaVuSans-53"/>
       <use x="63.623047" xlink:href="#DejaVuSans-52"/>
      </g>
     </g>
    </g>
    <g id="xtick_3">
     <g id="line2d_4">
      <g>
       <use style="stroke:#000000;stroke-width:0.8;" x="322.109244" xlink:href="#mcf3b8fa379" y="160.2"/>
      </g>
     </g>
     <g id="text_3">
      <!-- 55 -->
      <g transform="translate(315.746744 174.798438)scale(0.1 -0.1)">
       <use xlink:href="#DejaVuSans-53"/>
       <use x="63.623047" xlink:href="#DejaVuSans-53"/>
      </g>
     </g>
    </g>
    <g id="xtick_4">
     <g id="line2d_5">
      <g>
       <use style="stroke:#000000;stroke-width:0.8;" x="415.890756" xlink:href="#mcf3b8fa379" y="160.2"/>
      </g>
     </g>
     <g id="text_4">
      <!-- 56 -->
      <defs>
       <path d="M 33.015625 40.375 
Q 26.375 40.375 22.484375 35.828125 
Q 18.609375 31.296875 18.609375 23.390625 
Q 18.609375 15.53125 22.484375 10.953125 
Q 26.375 6.390625 33.015625 6.390625 
Q 39.65625 6.390625 43.53125 10.953125 
Q 47.40625 15.53125 47.40625 23.390625 
Q 47.40625 31.296875 43.53125 35.828125 
Q 39.65625 40.375 33.015625 40.375 
z
M 52.59375 71.296875 
L 52.59375 62.3125 
Q 48.875 64.0625 45.09375 64.984375 
Q 41.3125 65.921875 37.59375 65.921875 
Q 27.828125 65.921875 22.671875 59.328125 
Q 17.53125 52.734375 16.796875 39.40625 
Q 19.671875 43.65625 24.015625 45.921875 
Q 28.375 48.1875 33.59375 48.1875 
Q 44.578125 48.1875 50.953125 41.515625 
Q 57.328125 34.859375 57.328125 23.390625 
Q 57.328125 12.15625 50.6875 5.359375 
Q 44.046875 -1.421875 33.015625 -1.421875 
Q 20.359375 -1.421875 13.671875 8.265625 
Q 6.984375 17.96875 6.984375 36.375 
Q 6.984375 53.65625 15.1875 63.9375 
Q 23.390625 74.21875 37.203125 74.21875 
Q 40.921875 74.21875 44.703125 73.484375 
Q 48.484375 72.75 52.59375 71.296875 
z
" id="DejaVuSans-54"/>
      </defs>
      <g transform="translate(409.528256 174.798438)scale(0.1 -0.1)">
       <use xlink:href="#DejaVuSans-53"/>
       <use x="63.623047" xlink:href="#DejaVuSans-54"/>
      </g>
     </g>
    </g>
    <g id="xtick_5">
     <g id="line2d_6">
      <g>
       <use style="stroke:#000000;stroke-width:0.8;" x="509.672269" xlink:href="#mcf3b8fa379" y="160.2"/>
      </g>
     </g>
     <g id="text_5">
      <!-- 57 -->
      <defs>
       <path d="M 8.203125 72.90625 
L 55.078125 72.90625 
L 55.078125 68.703125 
L 28.609375 0 
L 18.3125 0 
L 43.21875 64.59375 
L 8.203125 64.59375 
z
" id="DejaVuSans-55"/>
      </defs>
      <g transform="translate(503.309769 174.798438)scale(0.1 -0.1)">
       <use xlink:href="#DejaVuSans-53"/>
       <use x="63.623047" xlink:href="#DejaVuSans-55"/>
      </g>
     </g>
    </g>
    <g id="xtick_6">
     <g id="line2d_7">
      <g>
       <use style="stroke:#000000;stroke-width:0.8;" x="603.453782" xlink:href="#mcf3b8fa379" y="160.2"/>
      </g>
     </g>
     <g id="text_6">
      <!-- 58 -->
      <defs>
       <path d="M 31.78125 34.625 
Q 24.75 34.625 20.71875 30.859375 
Q 16.703125 27.09375 16.703125 20.515625 
Q 16.703125 13.921875 20.71875 10.15625 
Q 24.75 6.390625 31.78125 6.390625 
Q 38.8125 6.390625 42.859375 10.171875 
Q 46.921875 13.96875 46.921875 20.515625 
Q 46.921875 27.09375 42.890625 30.859375 
Q 38.875 34.625 31.78125 34.625 
z
M 21.921875 38.8125 
Q 15.578125 40.375 12.03125 44.71875 
Q 8.5 49.078125 8.5 55.328125 
Q 8.5 64.0625 14.71875 69.140625 
Q 20.953125 74.21875 31.78125 74.21875 
Q 42.671875 74.21875 48.875 69.140625 
Q 55.078125 64.0625 55.078125 55.328125 
Q 55.078125 49.078125 51.53125 44.71875 
Q 48 40.375 41.703125 38.8125 
Q 48.828125 37.15625 52.796875 32.3125 
Q 56.78125 27.484375 56.78125 20.515625 
Q 56.78125 9.90625 50.3125 4.234375 
Q 43.84375 -1.421875 31.78125 -1.421875 
Q 19.734375 -1.421875 13.25 4.234375 
Q 6.78125 9.90625 6.78125 20.515625 
Q 6.78125 27.484375 10.78125 32.3125 
Q 14.796875 37.15625 21.921875 38.8125 
z
M 18.3125 54.390625 
Q 18.3125 48.734375 21.84375 45.5625 
Q 25.390625 42.390625 31.78125 42.390625 
Q 38.140625 42.390625 41.71875 45.5625 
Q 45.3125 48.734375 45.3125 54.390625 
Q 45.3125 60.0625 41.71875 63.234375 
Q 38.140625 66.40625 31.78125 66.40625 
Q 25.390625 66.40625 21.84375 63.234375 
Q 18.3125 60.0625 18.3125 54.390625 
z
" id="DejaVuSans-56"/>
      </defs>
      <g transform="translate(597.091282 174.798438)scale(0.1 -0.1)">
       <use xlink:href="#DejaVuSans-53"/>
       <use x="63.623047" xlink:href="#DejaVuSans-56"/>
      </g>
     </g>
    </g>
    <g id="text_7">
     <!-- Sequence Position -->
     <defs>
      <path d="M 53.515625 70.515625 
L 53.515625 60.890625 
Q 47.90625 63.578125 42.921875 64.890625 
Q 37.9375 66.21875 33.296875 66.21875 
Q 25.25 66.21875 20.875 63.09375 
Q 16.5 59.96875 16.5 54.203125 
Q 16.5 49.359375 19.40625 46.890625 
Q 22.3125 44.4375 30.421875 42.921875 
L 36.375 41.703125 
Q 47.40625 39.59375 52.65625 34.296875 
Q 57.90625 29 57.90625 20.125 
Q 57.90625 9.515625 50.796875 4.046875 
Q 43.703125 -1.421875 29.984375 -1.421875 
Q 24.8125 -1.421875 18.96875 -0.25 
Q 13.140625 0.921875 6.890625 3.21875 
L 6.890625 13.375 
Q 12.890625 10.015625 18.65625 8.296875 
Q 24.421875 6.59375 29.984375 6.59375 
Q 38.421875 6.59375 43.015625 9.90625 
Q 47.609375 13.234375 47.609375 19.390625 
Q 47.609375 24.75 44.3125 27.78125 
Q 41.015625 30.8125 33.5 32.328125 
L 27.484375 33.5 
Q 16.453125 35.6875 11.515625 40.375 
Q 6.59375 45.0625 6.59375 53.421875 
Q 6.59375 63.09375 13.40625 68.65625 
Q 20.21875 74.21875 32.171875 74.21875 
Q 37.3125 74.21875 42.625 73.28125 
Q 47.953125 72.359375 53.515625 70.515625 
z
" id="DejaVuSans-83"/>
      <path d="M 56.203125 29.59375 
L 56.203125 25.203125 
L 14.890625 25.203125 
Q 15.484375 15.921875 20.484375 11.0625 
Q 25.484375 6.203125 34.421875 6.203125 
Q 39.59375 6.203125 44.453125 7.46875 
Q 49.3125 8.734375 54.109375 11.28125 
L 54.109375 2.78125 
Q 49.265625 0.734375 44.1875 -0.34375 
Q 39.109375 -1.421875 33.890625 -1.421875 
Q 20.796875 -1.421875 13.15625 6.1875 
Q 5.515625 13.8125 5.515625 26.8125 
Q 5.515625 40.234375 12.765625 48.109375 
Q 20.015625 56 32.328125 56 
Q 43.359375 56 49.78125 48.890625 
Q 56.203125 41.796875 56.203125 29.59375 
z
M 47.21875 32.234375 
Q 47.125 39.59375 43.09375 43.984375 
Q 39.0625 48.390625 32.421875 48.390625 
Q 24.90625 48.390625 20.390625 44.140625 
Q 15.875 39.890625 15.1875 32.171875 
z
" id="DejaVuSans-101"/>
      <path d="M 14.796875 27.296875 
Q 14.796875 17.390625 18.875 11.75 
Q 22.953125 6.109375 30.078125 6.109375 
Q 37.203125 6.109375 41.296875 11.75 
Q 45.40625 17.390625 45.40625 27.296875 
Q 45.40625 37.203125 41.296875 42.84375 
Q 37.203125 48.484375 30.078125 48.484375 
Q 22.953125 48.484375 18.875 42.84375 
Q 14.796875 37.203125 14.796875 27.296875 
z
M 45.40625 8.203125 
Q 42.578125 3.328125 38.25 0.953125 
Q 33.9375 -1.421875 27.875 -1.421875 
Q 17.96875 -1.421875 11.734375 6.484375 
Q 5.515625 14.40625 5.515625 27.296875 
Q 5.515625 40.1875 11.734375 48.09375 
Q 17.96875 56 27.875 56 
Q 33.9375 56 38.25 53.625 
Q 42.578125 51.265625 45.40625 46.390625 
L 45.40625 54.6875 
L 54.390625 54.6875 
L 54.390625 -20.796875 
L 45.40625 -20.796875 
z
" id="DejaVuSans-113"/>
      <path d="M 8.5 21.578125 
L 8.5 54.6875 
L 17.484375 54.6875 
L 17.484375 21.921875 
Q 17.484375 14.15625 20.5 10.265625 
Q 23.53125 6.390625 29.59375 6.390625 
Q 36.859375 6.390625 41.078125 11.03125 
Q 45.3125 15.671875 45.3125 23.6875 
L 45.3125 54.6875 
L 54.296875 54.6875 
L 54.296875 0 
L 45.3125 0 
L 45.3125 8.40625 
Q 42.046875 3.421875 37.71875 1 
Q 33.40625 -1.421875 27.6875 -1.421875 
Q 18.265625 -1.421875 13.375 4.4375 
Q 8.5 10.296875 8.5 21.578125 
z
M 31.109375 56 
z
" id="DejaVuSans-117"/>
      <path d="M 54.890625 33.015625 
L 54.890625 0 
L 45.90625 0 
L 45.90625 32.71875 
Q 45.90625 40.484375 42.875 44.328125 
Q 39.84375 48.1875 33.796875 48.1875 
Q 26.515625 48.1875 22.3125 43.546875 
Q 18.109375 38.921875 18.109375 30.90625 
L 18.109375 0 
L 9.078125 0 
L 9.078125 54.6875 
L 18.109375 54.6875 
L 18.109375 46.1875 
Q 21.34375 51.125 25.703125 53.5625 
Q 30.078125 56 35.796875 56 
Q 45.21875 56 50.046875 50.171875 
Q 54.890625 44.34375 54.890625 33.015625 
z
" id="DejaVuSans-110"/>
      <path d="M 48.78125 52.59375 
L 48.78125 44.1875 
Q 44.96875 46.296875 41.140625 47.34375 
Q 37.3125 48.390625 33.40625 48.390625 
Q 24.65625 48.390625 19.8125 42.84375 
Q 14.984375 37.3125 14.984375 27.296875 
Q 14.984375 17.28125 19.8125 11.734375 
Q 24.65625 6.203125 33.40625 6.203125 
Q 37.3125 6.203125 41.140625 7.25 
Q 44.96875 8.296875 48.78125 10.40625 
L 48.78125 2.09375 
Q 45.015625 0.34375 40.984375 -0.53125 
Q 36.96875 -1.421875 32.421875 -1.421875 
Q 20.0625 -1.421875 12.78125 6.34375 
Q 5.515625 14.109375 5.515625 27.296875 
Q 5.515625 40.671875 12.859375 48.328125 
Q 20.21875 56 33.015625 56 
Q 37.15625 56 41.109375 55.140625 
Q 45.0625 54.296875 48.78125 52.59375 
z
" id="DejaVuSans-99"/>
      <path id="DejaVuSans-32"/>
      <path d="M 19.671875 64.796875 
L 19.671875 37.40625 
L 32.078125 37.40625 
Q 38.96875 37.40625 42.71875 40.96875 
Q 46.484375 44.53125 46.484375 51.125 
Q 46.484375 57.671875 42.71875 61.234375 
Q 38.96875 64.796875 32.078125 64.796875 
z
M 9.8125 72.90625 
L 32.078125 72.90625 
Q 44.34375 72.90625 50.609375 67.359375 
Q 56.890625 61.8125 56.890625 51.125 
Q 56.890625 40.328125 50.609375 34.8125 
Q 44.34375 29.296875 32.078125 29.296875 
L 19.671875 29.296875 
L 19.671875 0 
L 9.8125 0 
z
" id="DejaVuSans-80"/>
      <path d="M 30.609375 48.390625 
Q 23.390625 48.390625 19.1875 42.75 
Q 14.984375 37.109375 14.984375 27.296875 
Q 14.984375 17.484375 19.15625 11.84375 
Q 23.34375 6.203125 30.609375 6.203125 
Q 37.796875 6.203125 41.984375 11.859375 
Q 46.1875 17.53125 46.1875 27.296875 
Q 46.1875 37.015625 41.984375 42.703125 
Q 37.796875 48.390625 30.609375 48.390625 
z
M 30.609375 56 
Q 42.328125 56 49.015625 48.375 
Q 55.71875 40.765625 55.71875 27.296875 
Q 55.71875 13.875 49.015625 6.21875 
Q 42.328125 -1.421875 30.609375 -1.421875 
Q 18.84375 -1.421875 12.171875 6.21875 
Q 5.515625 13.875 5.515625 27.296875 
Q 5.515625 40.765625 12.171875 48.375 
Q 18.84375 56 30.609375 56 
z
" id="DejaVuSans-111"/>
      <path d="M 44.28125 53.078125 
L 44.28125 44.578125 
Q 40.484375 46.53125 36.375 47.5 
Q 32.28125 48.484375 27.875 48.484375 
Q 21.1875 48.484375 17.84375 46.4375 
Q 14.5 44.390625 14.5 40.28125 
Q 14.5 37.15625 16.890625 35.375 
Q 19.28125 33.59375 26.515625 31.984375 
L 29.59375 31.296875 
Q 39.15625 29.25 43.1875 25.515625 
Q 47.21875 21.78125 47.21875 15.09375 
Q 47.21875 7.46875 41.1875 3.015625 
Q 35.15625 -1.421875 24.609375 -1.421875 
Q 20.21875 -1.421875 15.453125 -0.5625 
Q 10.6875 0.296875 5.421875 2 
L 5.421875 11.28125 
Q 10.40625 8.6875 15.234375 7.390625 
Q 20.0625 6.109375 24.8125 6.109375 
Q 31.15625 6.109375 34.5625 8.28125 
Q 37.984375 10.453125 37.984375 14.40625 
Q 37.984375 18.0625 35.515625 20.015625 
Q 33.0625 21.96875 24.703125 23.78125 
L 21.578125 24.515625 
Q 13.234375 26.265625 9.515625 29.90625 
Q 5.8125 33.546875 5.8125 39.890625 
Q 5.8125 47.609375 11.28125 51.796875 
Q 16.75 56 26.8125 56 
Q 31.78125 56 36.171875 55.265625 
Q 40.578125 54.546875 44.28125 53.078125 
z
" id="DejaVuSans-115"/>
      <path d="M 9.421875 54.6875 
L 18.40625 54.6875 
L 18.40625 0 
L 9.421875 0 
z
M 9.421875 75.984375 
L 18.40625 75.984375 
L 18.40625 64.59375 
L 9.421875 64.59375 
z
" id="DejaVuSans-105"/>
      <path d="M 18.3125 70.21875 
L 18.3125 54.6875 
L 36.8125 54.6875 
L 36.8125 47.703125 
L 18.3125 47.703125 
L 18.3125 18.015625 
Q 18.3125 11.328125 20.140625 9.421875 
Q 21.96875 7.515625 27.59375 7.515625 
L 36.8125 7.515625 
L 36.8125 0 
L 27.59375 0 
Q 17.1875 0 13.234375 3.875 
Q 9.28125 7.765625 9.28125 18.015625 
L 9.28125 47.703125 
L 2.6875 47.703125 
L 2.6875 54.6875 
L 9.28125 54.6875 
L 9.28125 70.21875 
z
" id="DejaVuSans-116"/>
     </defs>
     <g transform="translate(304.994844 191.515938)scale(0.14 -0.14)">
      <use xlink:href="#DejaVuSans-83"/>
      <use x="63.476562" xlink:href="#DejaVuSans-101"/>
      <use x="125" xlink:href="#DejaVuSans-113"/>
      <use x="188.476562" xlink:href="#DejaVuSans-117"/>
      <use x="251.855469" xlink:href="#DejaVuSans-101"/>
      <use x="313.378906" xlink:href="#DejaVuSans-110"/>
      <use x="376.757812" xlink:href="#DejaVuSans-99"/>
      <use x="431.738281" xlink:href="#DejaVuSans-101"/>
      <use x="493.261719" xlink:href="#DejaVuSans-32"/>
      <use x="525.048828" xlink:href="#DejaVuSans-80"/>
      <use x="581.726562" xlink:href="#DejaVuSans-111"/>
      <use x="642.908203" xlink:href="#DejaVuSans-115"/>
      <use x="695.007812" xlink:href="#DejaVuSans-105"/>
      <use x="722.791016" xlink:href="#DejaVuSans-116"/>
      <use x="762" xlink:href="#DejaVuSans-105"/>
      <use x="789.783203" xlink:href="#DejaVuSans-111"/>
      <use x="850.964844" xlink:href="#DejaVuSans-110"/>
     </g>
    </g>
   </g>
   <g id="matplotlib.axis_2">
    <g id="ytick_1">
     <g id="line2d_8">
      <defs>
       <path d="M 0 0 
L -3.5 0 
" id="m26805c6593" style="stroke:#000000;stroke-width:0.8;"/>
      </defs>
      <g>
       <use style="stroke:#000000;stroke-width:0.8;" x="90" xlink:href="#m26805c6593" y="160.2"/>
      </g>
     </g>
     <g id="text_8">
      <!-- 0.0 -->
      <defs>
       <path d="M 31.78125 66.40625 
Q 24.171875 66.40625 20.328125 58.90625 
Q 16.5 51.421875 16.5 36.375 
Q 16.5 21.390625 20.328125 13.890625 
Q 24.171875 6.390625 31.78125 6.390625 
Q 39.453125 6.390625 43.28125 13.890625 
Q 47.125 21.390625 47.125 36.375 
Q 47.125 51.421875 43.28125 58.90625 
Q 39.453125 66.40625 31.78125 66.40625 
z
M 31.78125 74.21875 
Q 44.046875 74.21875 50.515625 64.515625 
Q 56.984375 54.828125 56.984375 36.375 
Q 56.984375 17.96875 50.515625 8.265625 
Q 44.046875 -1.421875 31.78125 -1.421875 
Q 19.53125 -1.421875 13.0625 8.265625 
Q 6.59375 17.96875 6.59375 36.375 
Q 6.59375 54.828125 13.0625 64.515625 
Q 19.53125 74.21875 31.78125 74.21875 
z
" id="DejaVuSans-48"/>
       <path d="M 10.6875 12.40625 
L 21 12.40625 
L 21 0 
L 10.6875 0 
z
" id="DejaVuSans-46"/>
      </defs>
      <g transform="translate(67.096875 163.999219)scale(0.1 -0.1)">
       <use xlink:href="#DejaVuSans-48"/>
       <use x="63.623047" xlink:href="#DejaVuSans-46"/>
       <use x="95.410156" xlink:href="#DejaVuSans-48"/>
      </g>
     </g>
    </g>
    <g id="ytick_2">
     <g id="line2d_9">
      <g>
       <use style="stroke:#000000;stroke-width:0.8;" x="90" xlink:href="#m26805c6593" y="130.620568"/>
      </g>
     </g>
     <g id="text_9">
      <!-- 0.5 -->
      <g transform="translate(67.096875 134.419787)scale(0.1 -0.1)">
       <use xlink:href="#DejaVuSans-48"/>
       <use x="63.623047" xlink:href="#DejaVuSans-46"/>
       <use x="95.410156" xlink:href="#DejaVuSans-53"/>
      </g>
     </g>
    </g>
    <g id="ytick_3">
     <g id="line2d_10">
      <g>
       <use style="stroke:#000000;stroke-width:0.8;" x="90" xlink:href="#m26805c6593" y="101.041137"/>
      </g>
     </g>
     <g id="text_10">
      <!-- 1.0 -->
      <defs>
       <path d="M 12.40625 8.296875 
L 28.515625 8.296875 
L 28.515625 63.921875 
L 10.984375 60.40625 
L 10.984375 69.390625 
L 28.421875 72.90625 
L 38.28125 72.90625 
L 38.28125 8.296875 
L 54.390625 8.296875 
L 54.390625 0 
L 12.40625 0 
z
" id="DejaVuSans-49"/>
      </defs>
      <g transform="translate(67.096875 104.840356)scale(0.1 -0.1)">
       <use xlink:href="#DejaVuSans-49"/>
       <use x="63.623047" xlink:href="#DejaVuSans-46"/>
       <use x="95.410156" xlink:href="#DejaVuSans-48"/>
      </g>
     </g>
    </g>
    <g id="ytick_4">
     <g id="line2d_11">
      <g>
       <use style="stroke:#000000;stroke-width:0.8;" x="90" xlink:href="#m26805c6593" y="71.461705"/>
      </g>
     </g>
     <g id="text_11">
      <!-- 1.5 -->
      <g transform="translate(67.096875 75.260924)scale(0.1 -0.1)">
       <use xlink:href="#DejaVuSans-49"/>
       <use x="63.623047" xlink:href="#DejaVuSans-46"/>
       <use x="95.410156" xlink:href="#DejaVuSans-53"/>
      </g>
     </g>
    </g>
    <g id="ytick_5">
     <g id="line2d_12">
      <g>
       <use style="stroke:#000000;stroke-width:0.8;" x="90" xlink:href="#m26805c6593" y="41.882274"/>
      </g>
     </g>
     <g id="text_12">
      <!-- 2.0 -->
      <defs>
       <path d="M 19.1875 8.296875 
L 53.609375 8.296875 
L 53.609375 0 
L 7.328125 0 
L 7.328125 8.296875 
Q 12.9375 14.109375 22.625 23.890625 
Q 32.328125 33.6875 34.8125 36.53125 
Q 39.546875 41.84375 41.421875 45.53125 
Q 43.3125 49.21875 43.3125 52.78125 
Q 43.3125 58.59375 39.234375 62.25 
Q 35.15625 65.921875 28.609375 65.921875 
Q 23.96875 65.921875 18.8125 64.3125 
Q 13.671875 62.703125 7.8125 59.421875 
L 7.8125 69.390625 
Q 13.765625 71.78125 18.9375 73 
Q 24.125 74.21875 28.421875 74.21875 
Q 39.75 74.21875 46.484375 68.546875 
Q 53.21875 62.890625 53.21875 53.421875 
Q 53.21875 48.921875 51.53125 44.890625 
Q 49.859375 40.875 45.40625 35.40625 
Q 44.1875 33.984375 37.640625 27.21875 
Q 31.109375 20.453125 19.1875 8.296875 
z
" id="DejaVuSans-50"/>
      </defs>
      <g transform="translate(67.096875 45.681493)scale(0.1 -0.1)">
       <use xlink:href="#DejaVuSans-50"/>
       <use x="63.623047" xlink:href="#DejaVuSans-46"/>
       <use x="95.410156" xlink:href="#DejaVuSans-48"/>
      </g>
     </g>
    </g>
    <g id="text_13">
     <!-- Information (Bits) -->
     <defs>
      <path d="M 9.8125 72.90625 
L 19.671875 72.90625 
L 19.671875 0 
L 9.8125 0 
z
" id="DejaVuSans-73"/>
      <path d="M 37.109375 75.984375 
L 37.109375 68.5 
L 28.515625 68.5 
Q 23.6875 68.5 21.796875 66.546875 
Q 19.921875 64.59375 19.921875 59.515625 
L 19.921875 54.6875 
L 34.71875 54.6875 
L 34.71875 47.703125 
L 19.921875 47.703125 
L 19.921875 0 
L 10.890625 0 
L 10.890625 47.703125 
L 2.296875 47.703125 
L 2.296875 54.6875 
L 10.890625 54.6875 
L 10.890625 58.5 
Q 10.890625 67.625 15.140625 71.796875 
Q 19.390625 75.984375 28.609375 75.984375 
z
" id="DejaVuSans-102"/>
      <path d="M 41.109375 46.296875 
Q 39.59375 47.171875 37.8125 47.578125 
Q 36.03125 48 33.890625 48 
Q 26.265625 48 22.1875 43.046875 
Q 18.109375 38.09375 18.109375 28.8125 
L 18.109375 0 
L 9.078125 0 
L 9.078125 54.6875 
L 18.109375 54.6875 
L 18.109375 46.1875 
Q 20.953125 51.171875 25.484375 53.578125 
Q 30.03125 56 36.53125 56 
Q 37.453125 56 38.578125 55.875 
Q 39.703125 55.765625 41.0625 55.515625 
z
" id="DejaVuSans-114"/>
      <path d="M 52 44.1875 
Q 55.375 50.25 60.0625 53.125 
Q 64.75 56 71.09375 56 
Q 79.640625 56 84.28125 50.015625 
Q 88.921875 44.046875 88.921875 33.015625 
L 88.921875 0 
L 79.890625 0 
L 79.890625 32.71875 
Q 79.890625 40.578125 77.09375 44.375 
Q 74.3125 48.1875 68.609375 48.1875 
Q 61.625 48.1875 57.5625 43.546875 
Q 53.515625 38.921875 53.515625 30.90625 
L 53.515625 0 
L 44.484375 0 
L 44.484375 32.71875 
Q 44.484375 40.625 41.703125 44.40625 
Q 38.921875 48.1875 33.109375 48.1875 
Q 26.21875 48.1875 22.15625 43.53125 
Q 18.109375 38.875 18.109375 30.90625 
L 18.109375 0 
L 9.078125 0 
L 9.078125 54.6875 
L 18.109375 54.6875 
L 18.109375 46.1875 
Q 21.1875 51.21875 25.484375 53.609375 
Q 29.78125 56 35.6875 56 
Q 41.65625 56 45.828125 52.96875 
Q 50 49.953125 52 44.1875 
z
" id="DejaVuSans-109"/>
      <path d="M 34.28125 27.484375 
Q 23.390625 27.484375 19.1875 25 
Q 14.984375 22.515625 14.984375 16.5 
Q 14.984375 11.71875 18.140625 8.90625 
Q 21.296875 6.109375 26.703125 6.109375 
Q 34.1875 6.109375 38.703125 11.40625 
Q 43.21875 16.703125 43.21875 25.484375 
L 43.21875 27.484375 
z
M 52.203125 31.203125 
L 52.203125 0 
L 43.21875 0 
L 43.21875 8.296875 
Q 40.140625 3.328125 35.546875 0.953125 
Q 30.953125 -1.421875 24.3125 -1.421875 
Q 15.921875 -1.421875 10.953125 3.296875 
Q 6 8.015625 6 15.921875 
Q 6 25.140625 12.171875 29.828125 
Q 18.359375 34.515625 30.609375 34.515625 
L 43.21875 34.515625 
L 43.21875 35.40625 
Q 43.21875 41.609375 39.140625 45 
Q 35.0625 48.390625 27.6875 48.390625 
Q 23 48.390625 18.546875 47.265625 
Q 14.109375 46.140625 10.015625 43.890625 
L 10.015625 52.203125 
Q 14.9375 54.109375 19.578125 55.046875 
Q 24.21875 56 28.609375 56 
Q 40.484375 56 46.34375 49.84375 
Q 52.203125 43.703125 52.203125 31.203125 
z
" id="DejaVuSans-97"/>
      <path d="M 31 75.875 
Q 24.46875 64.65625 21.28125 53.65625 
Q 18.109375 42.671875 18.109375 31.390625 
Q 18.109375 20.125 21.3125 9.0625 
Q 24.515625 -2 31 -13.1875 
L 23.1875 -13.1875 
Q 15.875 -1.703125 12.234375 9.375 
Q 8.59375 20.453125 8.59375 31.390625 
Q 8.59375 42.28125 12.203125 53.3125 
Q 15.828125 64.359375 23.1875 75.875 
z
" id="DejaVuSans-40"/>
      <path d="M 19.671875 34.8125 
L 19.671875 8.109375 
L 35.5 8.109375 
Q 43.453125 8.109375 47.28125 11.40625 
Q 51.125 14.703125 51.125 21.484375 
Q 51.125 28.328125 47.28125 31.5625 
Q 43.453125 34.8125 35.5 34.8125 
z
M 19.671875 64.796875 
L 19.671875 42.828125 
L 34.28125 42.828125 
Q 41.5 42.828125 45.03125 45.53125 
Q 48.578125 48.25 48.578125 53.8125 
Q 48.578125 59.328125 45.03125 62.0625 
Q 41.5 64.796875 34.28125 64.796875 
z
M 9.8125 72.90625 
L 35.015625 72.90625 
Q 46.296875 72.90625 52.390625 68.21875 
Q 58.5 63.53125 58.5 54.890625 
Q 58.5 48.1875 55.375 44.234375 
Q 52.25 40.28125 46.1875 39.3125 
Q 53.46875 37.75 57.5 32.78125 
Q 61.53125 27.828125 61.53125 20.40625 
Q 61.53125 10.640625 54.890625 5.3125 
Q 48.25 0 35.984375 0 
L 9.8125 0 
z
" id="DejaVuSans-66"/>
      <path d="M 8.015625 75.875 
L 15.828125 75.875 
Q 23.140625 64.359375 26.78125 53.3125 
Q 30.421875 42.28125 30.421875 31.390625 
Q 30.421875 20.453125 26.78125 9.375 
Q 23.140625 -1.703125 15.828125 -13.1875 
L 8.015625 -13.1875 
Q 14.5 -2 17.703125 9.0625 
Q 20.90625 20.125 20.90625 31.390625 
Q 20.90625 42.671875 17.703125 53.65625 
Q 14.5 64.65625 8.015625 75.875 
z
" id="DejaVuSans-41"/>
     </defs>
     <g transform="translate(60.185312 152.245156)rotate(-90)scale(0.14 -0.14)">
      <use xlink:href="#DejaVuSans-73"/>
      <use x="29.492188" xlink:href="#DejaVuSans-110"/>
      <use x="92.871094" xlink:href="#DejaVuSans-102"/>
      <use x="128.076172" xlink:href="#DejaVuSans-111"/>
      <use x="189.257812" xlink:href="#DejaVuSans-114"/>
      <use x="228.621094" xlink:href="#DejaVuSans-109"/>
      <use x="326.033203" xlink:href="#DejaVuSans-97"/>
      <use x="387.3125" xlink:href="#DejaVuSans-116"/>
      <use x="426.521484" xlink:href="#DejaVuSans-105"/>
      <use x="454.304688" xlink:href="#DejaVuSans-111"/>
      <use x="515.486328" xlink:href="#DejaVuSans-110"/>
      <use x="578.865234" xlink:href="#DejaVuSans-32"/>
      <use x="610.652344" xlink:href="#DejaVuSans-40"/>
      <use x="649.666016" xlink:href="#DejaVuSans-66"/>
      <use x="718.269531" xlink:href="#DejaVuSans-105"/>
      <use x="746.052734" xlink:href="#DejaVuSans-116"/>
      <use x="785.261719" xlink:href="#DejaVuSans-115"/>
      <use x="837.361328" xlink:href="#DejaVuSans-41"/>
     </g>
    </g>
   </g>
   <g id="patch_93">
    <path d="M 90 160.2 
L 90 21.6 
" style="fill:none;stroke:#000000;stroke-linecap:square;stroke-linejoin:miter;stroke-width:0.8;"/>
   </g>
   <g id="patch_94">
    <path d="M 648 160.2 
L 648 21.6 
" style="fill:none;stroke:#000000;stroke-linecap:square;stroke-linejoin:miter;stroke-width:0.8;"/>
   </g>
   <g id="patch_95">
    <path d="M 90 160.2 
L 648 160.2 
" style="fill:none;stroke:#000000;stroke-linecap:square;stroke-linejoin:miter;stroke-width:0.8;"/>
   </g>
   <g id="patch_96">
    <path d="M 90 21.6 
L 648 21.6 
" style="fill:none;stroke:#000000;stroke-linecap:square;stroke-linejoin:miter;stroke-width:0.8;"/>
   </g>
  </g>
 </g>
 <defs>
  <clipPath id="p9144a7a4ec">
   <rect height="138.6" width="558" x="90" y="21.6"/>
  </clipPath>
 </defs>
</svg>
