<?xml version="1.0" encoding="utf-8" standalone="no"?>
<!DOCTYPE svg PUBLIC "-//W3C//DTD SVG 1.1//EN"
  "http://www.w3.org/Graphics/SVG/1.1/DTD/svg11.dtd">
<!-- Created with matplotlib (https://matplotlib.org/) -->
<svg height="180pt" version="1.1" viewBox="0 0 720 180" width="720pt" xmlns="http://www.w3.org/2000/svg" xmlns:xlink="http://www.w3.org/1999/xlink">
 <defs>
  <style type="text/css">
*{stroke-linecap:butt;stroke-linejoin:round;}
  </style>
 </defs>
 <g id="figure_1">
  <g id="patch_1">
   <path d="M 0 180 
L 720 180 
L 720 0 
L 0 0 
z
" style="fill:#ffffff;"/>
  </g>
  <g id="axes_1">
   <g id="patch_2">
    <path d="M 90 160.2 
L 648 160.2 
L 648 21.6 
L 90 21.6 
z
" style="fill:#ffffff;"/>
   </g>
   <g id="line2d_1">
    <path clip-path="url(#p57c91d8a04)" d="M 90 160.2 
L 648 160.2 
" style="fill:none;stroke:#000000;stroke-linecap:square;stroke-width:0.5;"/>
   </g>
   <g id="patch_3">
    <path clip-path="url(#p57c91d8a04)" d="M 90 159.099628 
L 105.405456 159.099628 
L 116.174578 159.89932 
L 126.863532 159.099628 
L 142.349155 159.099628 
L 153.03811 159.89932 
L 163.820593 159.099628 
L 179.092437 159.099628 
L 164.395124 160.2 
L 145.863149 160.2 
L 134.546218 159.363519 
L 123.3629 160.2 
L 104.817563 160.2 
z
" style="fill:#21599c;"/>
   </g>
   <g id="patch_4">
    <path clip-path="url(#p57c91d8a04)" d="M 179.092437 159.020754 
Q 171.640008 159.05985 163.581509 159.079625 
Q 155.523009 159.099628 146.746203 159.099628 
Q 120.572915 159.099628 105.286457 158.951426 
Q 90 158.803225 90 158.549782 
Q 90 158.295431 105.286457 158.147456 
Q 120.572915 157.999255 146.746203 157.999255 
Q 155.523009 157.999255 163.581509 158.019258 
Q 171.640008 158.039033 179.092437 158.078129 
L 179.092437 158.297476 
Q 171.572667 158.245651 164.277368 158.221557 
Q 156.982069 158.197463 148.923569 158.197463 
Q 134.467654 158.197463 126.184683 158.291339 
Q 117.92416 158.384988 117.92416 158.549782 
Q 117.92416 158.713895 126.184683 158.807771 
Q 134.467654 158.90142 148.923569 158.90142 
Q 156.982069 158.90142 164.277368 158.877325 
Q 171.572667 158.853004 179.092437 158.801179 
z
" style="fill:#6b296b;"/>
   </g>
   <g id="patch_5">
    <path clip-path="url(#p57c91d8a04)" d="M 90 156.898883 
L 177.238024 156.898883 
L 177.238024 157.113486 
L 122.331283 157.113486 
L 122.331283 157.318184 
L 173.986083 157.318184 
L 173.986083 157.532788 
L 122.331283 157.532788 
L 122.331283 157.784888 
L 179.092437 157.784888 
L 179.092437 157.999255 
L 90 157.999255 
z
" style="fill:#6b296b;"/>
   </g>
   <g id="patch_6">
    <path clip-path="url(#p57c91d8a04)" d="M 90.927206 155.79851 
L 178.165231 155.79851 
L 178.165231 156.013113 
L 123.258489 156.013113 
L 123.258489 156.217812 
L 174.913289 156.217812 
L 174.913289 156.432415 
L 123.258489 156.432415 
L 123.258489 156.898883 
L 90.927206 156.898883 
z
" style="fill:#21599c;"/>
   </g>
   <g id="patch_7">
    <path clip-path="url(#p57c91d8a04)" d="M 179.092437 155.698952 
Q 170.107319 155.748731 160.443325 155.773734 
Q 150.779332 155.79851 140.476396 155.79851 
Q 117.194957 155.79851 103.597479 155.650309 
Q 90 155.502107 90 155.248665 
Q 90 154.992267 103.837082 154.845203 
Q 117.69413 154.698138 141.794214 154.698138 
Q 151.078836 154.698138 159.584747 154.71814 
Q 168.110626 154.737916 175.658125 154.777012 
L 175.658125 154.996359 
Q 167.871023 154.946125 160.163788 154.921349 
Q 152.456554 154.896346 144.709385 154.896346 
Q 130.37313 154.896346 122.605995 154.987721 
Q 114.83886 155.07887 114.83886 155.248665 
Q 114.83886 155.416869 122.326458 155.508699 
Q 129.814056 155.600302 143.591237 155.600302 
Q 147.34502 155.600302 150.559696 155.595074 
Q 153.774371 155.589619 156.330138 155.578254 
L 156.330138 155.372318 
L 141.654445 155.372318 
L 141.654445 155.188884 
L 179.092437 155.188884 
z
" style="fill:#787800;"/>
   </g>
   <g id="patch_8">
    <path clip-path="url(#p57c91d8a04)" d="M 118.380577 153.597765 
L 150.71186 153.597765 
L 150.71186 154.698138 
L 118.380577 154.698138 
z
" style="fill:#21599c;"/>
   </g>
   <g id="patch_9">
    <path clip-path="url(#p57c91d8a04)" d="M 90 152.497393 
L 136.309506 152.497393 
Q 156.981736 152.497393 168.025486 152.590781 
Q 179.092437 152.683933 179.092437 152.856323 
Q 179.092437 153.029656 168.025486 153.122808 
Q 156.981736 153.21596 136.309506 153.21596 
L 117.91099 153.21596 
L 117.91099 153.597765 
L 90 153.597765 
z
M 117.91099 152.703035 
L 117.91099 153.010318 
L 133.339758 153.010318 
Q 141.460163 153.010318 145.891584 152.970228 
Q 150.323004 152.930137 150.323004 152.856323 
Q 150.323004 152.782744 145.891584 152.74289 
Q 141.460163 152.703035 133.339758 152.703035 
z
" style="fill:#787800;"/>
   </g>
   <g id="patch_10">
    <path clip-path="url(#p57c91d8a04)" d="M 136.922017 152.33284 
L 135.17729 152.33284 
Q 113.776544 152.33284 101.878992 152.209523 
Q 90 152.086011 90 151.865898 
Q 90 151.646172 101.860431 151.521693 
Q 113.720861 151.39702 134.546218 151.39702 
Q 155.594307 151.39702 167.343372 151.520532 
Q 179.092437 151.643849 179.092437 151.865898 
Q 179.092437 152.018255 172.855966 152.128408 
Q 166.619496 152.238561 154.907553 152.294122 
L 172.354821 152.497393 
L 151.065441 152.497393 
z
M 134.546218 151.565832 
Q 124.33771 151.565832 118.71375 151.64443 
Q 113.08979 151.723028 113.08979 151.865898 
Q 113.08979 152.011092 118.583824 152.088335 
Q 124.096418 152.165384 134.546218 152.165384 
Q 144.81041 152.165384 150.43437 152.086786 
Q 156.05833 152.007994 156.05833 151.865898 
Q 156.05833 151.723028 150.43437 151.64443 
Q 144.81041 151.565832 134.546218 151.565832 
z
" style="fill:#40ba47;"/>
   </g>
   <g id="patch_11">
    <path clip-path="url(#p57c91d8a04)" d="M 114.414169 149.625482 
L 114.414169 150.968285 
L 123.161057 150.968285 
Q 138.118034 150.968285 146.012557 150.79566 
Q 153.927375 150.623034 153.927375 150.29429 
Q 153.927375 149.967432 146.053146 149.796693 
Q 138.199211 149.625482 123.161057 149.625482 
z
M 90 149.196275 
L 115.733305 149.196275 
Q 137.306258 149.196275 147.859348 149.267967 
Q 158.412439 149.339187 165.961957 149.510398 
Q 172.618522 149.659441 175.845332 149.854235 
Q 179.092437 150.048557 179.092437 150.29429 
Q 179.092437 150.543795 175.845332 150.739061 
Q 172.618522 150.934326 165.961957 151.082898 
Q 158.351555 151.254109 147.696993 151.3258 
Q 137.04243 151.39702 115.733305 151.39702 
L 90 151.39702 
z
" style="fill:#6b296b;"/>
   </g>
   <g id="patch_12">
    <path clip-path="url(#p57c91d8a04)" d="M 90 146.995531 
L 115.634585 146.995531 
L 115.634585 147.834134 
L 153.457852 147.834134 
L 153.457852 146.995531 
L 179.092437 146.995531 
L 179.092437 149.196275 
L 153.457852 149.196275 
L 153.457852 148.263341 
L 115.634585 148.263341 
L 115.634585 149.196275 
L 90 149.196275 
z
" style="fill:#177875;"/>
   </g>
   <g id="patch_13">
    <path clip-path="url(#p57c91d8a04)" d="M 171.664034 144.8998 
L 171.664034 145.34895 
Q 162.372482 145.270758 153.516471 145.231207 
Q 144.684657 145.191202 136.820713 145.191202 
Q 126.391913 145.191202 121.383186 145.2453 
Q 116.398655 145.298943 116.398655 145.412594 
Q 116.398655 145.49806 119.762004 145.545794 
Q 123.125352 145.593073 131.981363 145.627168 
L 144.370099 145.673993 
Q 163.195172 145.745366 171.131706 145.890385 
Q 179.092437 146.034949 179.092437 146.302257 
Q 179.092437 146.652758 168.010325 146.824144 
Q 156.928213 146.995531 134.15907 146.995531 
Q 123.43991 146.995531 112.623962 146.956889 
Q 101.808014 146.918702 90.992067 146.843238 
L 90.992067 146.381813 
Q 101.808014 146.489555 111.89806 146.544562 
Q 121.988105 146.599115 131.376444 146.599115 
Q 140.909964 146.599115 145.967085 146.539561 
Q 151.024206 146.479553 151.024206 146.36863 
Q 151.024206 146.269526 147.588267 146.215428 
Q 144.152329 146.16133 133.868709 146.118597 
L 122.593024 146.071772 
Q 105.655298 146.003582 97.815551 145.854471 
Q 90 145.70536 90 145.4526 
Q 90 145.13574 100.888538 144.965263 
Q 111.777076 144.794786 132.199134 144.794786 
Q 141.514883 144.794786 151.338764 144.821153 
Q 161.162645 144.84752 171.664034 144.8998 
z
" style="fill:#40ba47;"/>
   </g>
   <g id="patch_14">
    <path clip-path="url(#p57c91d8a04)" d="M 90 142.594041 
L 118.617829 142.594041 
L 154.779002 144.103339 
L 154.779002 142.594041 
L 179.092437 142.594041 
L 179.092437 144.794786 
L 150.453299 144.794786 
L 114.292126 143.285488 
L 114.292126 144.794786 
L 90 144.794786 
z
" style="fill:#40ba47;"/>
   </g>
   <g id="patch_15">
    <path clip-path="url(#p57c91d8a04)" d="M 126.148854 141.369151 
Q 134.14433 141.369151 137.613266 141.303119 
Q 141.082202 141.236616 141.082202 141.084743 
Q 141.082202 140.934285 137.613266 140.869668 
Q 134.14433 140.804579 126.148854 140.804579 
L 115.445917 140.804579 
L 115.445917 141.369151 
z
M 115.445917 141.761097 
L 115.445917 142.594041 
L 90 142.594041 
L 90 140.393296 
L 128.856317 140.393296 
Q 148.358508 140.393296 157.432737 140.539509 
Q 166.528119 140.685251 166.528119 141.000788 
Q 166.528119 141.218693 161.79006 141.358775 
Q 157.073152 141.498857 147.55473 141.56536 
Q 152.779286 141.591773 156.903936 141.685632 
Q 161.049738 141.77902 165.280148 141.969097 
L 179.092437 142.594041 
L 151.99666 142.594041 
L 139.961143 142.047392 
Q 136.322991 141.882312 132.579078 141.821941 
Q 128.856317 141.761097 122.637614 141.761097 
z
" style="fill:#bd2e1f;"/>
   </g>
   <g id="patch_16">
    <path clip-path="url(#p57c91d8a04)" d="M 90 135.991806 
L 113.478248 135.991806 
L 113.478248 137.598265 
L 147.319712 135.991806 
L 174.584145 135.991806 
L 130.730759 138.076524 
L 179.092437 140.393296 
L 149.700715 140.393296 
L 113.478248 138.65949 
L 113.478248 140.393296 
L 90 140.393296 
z
" style="fill:#bd2e1f;"/>
   </g>
   <g id="patch_17">
    <path clip-path="url(#p57c91d8a04)" d="M 90 131.590316 
L 116.281411 131.590316 
L 134.511886 133.945764 
L 152.862525 131.590316 
L 179.092437 131.590316 
L 179.092437 135.991806 
L 159.574498 135.991806 
L 159.574498 132.772285 
L 141.120863 135.145656 
L 128.023073 135.145656 
L 109.569437 132.772285 
L 109.569437 135.991806 
L 90 135.991806 
z
" style="fill:#21599c;"/>
   </g>
   <g id="patch_18">
    <path clip-path="url(#p57c91d8a04)" d="M 90 126.088454 
L 122.331283 126.088454 
L 122.331283 130.518479 
L 179.092437 130.518479 
L 179.092437 131.590316 
L 90 131.590316 
z
" style="fill:#21599c;"/>
   </g>
   <g id="patch_19">
    <path clip-path="url(#p57c91d8a04)" d="M 90 107.382122 
L 179.092437 107.382122 
L 179.092437 111.030378 
L 147.039879 111.030378 
L 147.039879 126.088454 
L 122.114716 126.088454 
L 122.114716 111.030378 
L 90 111.030378 
z
" style="fill:#40ba47;"/>
   </g>
   <g id="patch_20">
    <path clip-path="url(#p57c91d8a04)" d="M 151.714409 102.170328 
L 117.45089 102.170328 
L 112.040861 107.382122 
L 90 107.382122 
L 121.476535 78.772438 
L 147.615902 78.772438 
L 179.092437 107.382122 
L 157.069792 107.382122 
z
M 122.915566 96.86043 
L 146.195086 96.86043 
L 134.573542 85.480324 
z
" style="fill:#21599c;"/>
   </g>
   <g id="patch_21">
    <path clip-path="url(#p57c91d8a04)" d="M 90 35.857913 
L 112.040861 35.857913 
L 134.573542 67.533358 
L 157.069792 35.857913 
L 179.092437 35.857913 
L 147.615902 78.772438 
L 121.476535 78.772438 
z
" style="fill:#21599c;"/>
   </g>
   <g id="patch_22">
    <path clip-path="url(#p57c91d8a04)" d="M 183.781513 159.034289 
L 216.112795 159.034289 
L 216.112795 159.972904 
L 272.87395 159.972904 
L 272.87395 160.2 
L 183.781513 160.2 
z
" style="fill:#21599c;"/>
   </g>
   <g id="patch_23">
    <path clip-path="url(#p57c91d8a04)" d="M 183.781513 157.868577 
L 230.091019 157.868577 
Q 250.763248 157.868577 261.806998 157.96751 
Q 272.87395 158.066193 272.87395 158.24882 
Q 272.87395 158.432446 261.806998 158.531129 
Q 250.763248 158.629812 230.091019 158.629812 
L 211.692503 158.629812 
L 211.692503 159.034289 
L 183.781513 159.034289 
z
M 211.692503 158.08643 
L 211.692503 158.411959 
L 227.121271 158.411959 
Q 235.241675 158.411959 239.673096 158.369488 
Q 244.104517 158.327017 244.104517 158.24882 
Q 244.104517 158.170873 239.673096 158.128651 
Q 235.241675 158.08643 227.121271 158.08643 
z
" style="fill:#787800;"/>
   </g>
   <g id="patch_24">
    <path clip-path="url(#p57c91d8a04)" d="M 183.781513 156.702866 
L 205.822373 156.702866 
L 228.355054 157.563284 
L 250.851305 156.702866 
L 272.87395 156.702866 
L 241.397415 157.868577 
L 215.258047 157.868577 
z
" style="fill:#21599c;"/>
   </g>
   <g id="patch_25">
    <path clip-path="url(#p57c91d8a04)" d="M 212.16209 155.537154 
L 244.493372 155.537154 
L 244.493372 156.702866 
L 212.16209 156.702866 
z
" style="fill:#21599c;"/>
   </g>
   <g id="patch_26">
    <path clip-path="url(#p57c91d8a04)" d="M 183.781513 154.371443 
L 209.416098 154.371443 
L 209.416098 154.815642 
L 247.239364 154.815642 
L 247.239364 154.371443 
L 272.87395 154.371443 
L 272.87395 155.537154 
L 247.239364 155.537154 
L 247.239364 155.042988 
L 209.416098 155.042988 
L 209.416098 155.537154 
L 183.781513 155.537154 
z
" style="fill:#177875;"/>
   </g>
   <g id="patch_27">
    <path clip-path="url(#p57c91d8a04)" d="M 183.781513 153.205731 
L 199.186968 153.205731 
L 209.95609 154.052908 
L 220.645045 153.205731 
L 236.130668 153.205731 
L 246.819623 154.052908 
L 257.602106 153.205731 
L 272.87395 153.205731 
L 258.176637 154.371443 
L 239.644662 154.371443 
L 228.327731 153.485292 
L 217.144412 154.371443 
L 198.599076 154.371443 
z
" style="fill:#21599c;"/>
   </g>
   <g id="patch_28">
    <path clip-path="url(#p57c91d8a04)" d="M 184.708719 152.04002 
L 271.946743 152.04002 
L 271.946743 152.267366 
L 217.040002 152.267366 
L 217.040002 152.484219 
L 268.694802 152.484219 
L 268.694802 152.711565 
L 217.040002 152.711565 
L 217.040002 153.205731 
L 184.708719 153.205731 
z
" style="fill:#21599c;"/>
   </g>
   <g id="patch_29">
    <path clip-path="url(#p57c91d8a04)" d="M 272.87395 151.956462 
Q 265.421521 151.99788 257.363021 152.018829 
Q 249.304522 152.04002 240.527716 152.04002 
Q 214.354427 152.04002 199.06797 151.883018 
Q 183.781513 151.726017 183.781513 151.457525 
Q 183.781513 151.18807 199.06797 151.03131 
Q 214.354427 150.874308 240.527716 150.874308 
Q 249.304522 150.874308 257.363021 150.895499 
Q 265.421521 150.916448 272.87395 150.957866 
L 272.87395 151.190237 
Q 265.35418 151.135335 258.058881 151.10981 
Q 250.763582 151.084286 242.705082 151.084286 
Q 228.249166 151.084286 219.966196 151.183736 
Q 211.705673 151.282945 211.705673 151.457525 
Q 211.705673 151.631383 219.966196 151.730833 
Q 228.249166 151.830042 242.705082 151.830042 
Q 250.763582 151.830042 258.058881 151.804518 
Q 265.35418 151.778752 272.87395 151.72385 
z
" style="fill:#6b296b;"/>
   </g>
   <g id="patch_30">
    <path clip-path="url(#p57c91d8a04)" d="M 208.195682 148.997578 
L 208.195682 150.420115 
L 216.94257 150.420115 
Q 231.899546 150.420115 239.79407 150.237239 
Q 247.708888 150.054363 247.708888 149.706098 
Q 247.708888 149.359833 239.834659 149.178955 
Q 231.980724 148.997578 216.94257 148.997578 
z
M 183.781513 148.542885 
L 209.514818 148.542885 
Q 231.08777 148.542885 241.640861 148.618834 
Q 252.193951 148.694283 259.74347 148.87566 
Q 266.400034 149.033553 269.626845 149.239914 
Q 272.87395 149.445775 272.87395 149.706098 
Q 272.87395 149.97042 269.626845 150.17728 
Q 266.400034 150.38414 259.74347 150.541533 
Q 252.133068 150.722911 241.478505 150.798859 
Q 230.823943 150.874308 209.514818 150.874308 
L 183.781513 150.874308 
z
" style="fill:#6b296b;"/>
   </g>
   <g id="patch_31">
    <path clip-path="url(#p57c91d8a04)" d="M 183.781513 146.211462 
L 210.062923 146.211462 
L 228.293399 147.459118 
L 246.644037 146.211462 
L 272.87395 146.211462 
L 272.87395 148.542885 
L 253.356011 148.542885 
L 253.356011 146.837539 
L 234.902375 148.094688 
L 221.804585 148.094688 
L 203.35095 146.837539 
L 203.35095 148.542885 
L 183.781513 148.542885 
z
" style="fill:#21599c;"/>
   </g>
   <g id="patch_32">
    <path clip-path="url(#p57c91d8a04)" d="M 245.495922 145.78675 
L 211.232403 145.78675 
L 205.822373 146.211462 
L 183.781513 146.211462 
L 215.258047 143.880039 
L 241.397415 143.880039 
L 272.87395 146.211462 
L 250.851305 146.211462 
z
M 216.697079 145.354042 
L 239.976599 145.354042 
L 228.355054 144.42667 
z
" style="fill:#21599c;"/>
   </g>
   <g id="patch_33">
    <path clip-path="url(#p57c91d8a04)" d="M 183.781513 140.382905 
L 271.019537 140.382905 
L 271.019537 141.064944 
L 216.112795 141.064944 
L 216.112795 141.715504 
L 267.767596 141.715504 
L 267.767596 142.397542 
L 216.112795 142.397542 
L 216.112795 143.19875 
L 272.87395 143.19875 
L 272.87395 143.880039 
L 183.781513 143.880039 
z
" style="fill:#6b296b;"/>
   </g>
   <g id="patch_34">
    <path clip-path="url(#p57c91d8a04)" d="M 230.703529 139.859935 
L 228.958803 139.859935 
Q 207.558057 139.859935 195.660504 139.468014 
Q 183.781513 139.075479 183.781513 138.375929 
Q 183.781513 137.677609 195.641943 137.281998 
Q 207.502374 136.885771 228.327731 136.885771 
Q 249.375819 136.885771 261.124884 137.278306 
Q 272.87395 137.670226 272.87395 138.375929 
Q 272.87395 138.860138 266.637479 139.210221 
Q 260.401008 139.560303 248.689065 139.736883 
L 266.136334 140.382905 
L 244.846954 140.382905 
z
M 228.327731 137.422277 
Q 218.119223 137.422277 212.495263 137.672072 
Q 206.871303 137.921867 206.871303 138.375929 
Q 206.871303 138.837373 212.365336 139.082862 
Q 217.877931 139.327735 228.327731 139.327735 
Q 238.591922 139.327735 244.215882 139.07794 
Q 249.839842 138.827529 249.839842 138.375929 
Q 249.839842 137.921867 244.215882 137.672072 
Q 238.591922 137.422277 228.327731 137.422277 
z
" style="fill:#40ba47;"/>
   </g>
   <g id="patch_35">
    <path clip-path="url(#p57c91d8a04)" d="M 183.781513 132.222925 
L 212.399342 132.222925 
L 248.560515 135.420762 
L 248.560515 132.222925 
L 272.87395 132.222925 
L 272.87395 136.885771 
L 244.234812 136.885771 
L 208.073638 133.687934 
L 208.073638 136.885771 
L 183.781513 136.885771 
z
" style="fill:#40ba47;"/>
   </g>
   <g id="patch_36">
    <path clip-path="url(#p57c91d8a04)" d="M 219.930367 127.681247 
Q 227.925842 127.681247 231.394778 127.436413 
Q 234.863715 127.189829 234.863715 126.62671 
Q 234.863715 126.068838 231.394778 125.82925 
Q 227.925842 125.587913 219.930367 125.587913 
L 209.227429 125.587913 
L 209.227429 127.681247 
z
M 209.227429 129.134514 
L 209.227429 132.222925 
L 183.781513 132.222925 
L 183.781513 124.062944 
L 222.637829 124.062944 
Q 242.14002 124.062944 251.21425 124.605078 
Q 260.309632 125.145462 260.309632 126.315421 
Q 260.309632 127.123374 255.571572 127.642773 
Q 250.854665 128.162172 241.336242 128.408755 
Q 246.560799 128.506689 250.685449 128.854703 
Q 254.83125 129.200969 259.061661 129.905742 
L 272.87395 132.222925 
L 245.778173 132.222925 
L 233.742656 130.196046 
Q 230.104503 129.58396 226.36059 129.360111 
Q 222.637829 129.134514 216.419127 129.134514 
z
" style="fill:#bd2e1f;"/>
   </g>
   <g id="patch_37">
    <path clip-path="url(#p57c91d8a04)" d="M 183.781513 114.737253 
L 207.259761 114.737253 
L 207.259761 118.14095 
L 241.101225 114.737253 
L 268.365658 114.737253 
L 224.512272 119.154265 
L 272.87395 124.062944 
L 243.482228 124.062944 
L 207.259761 120.389429 
L 207.259761 124.062944 
L 183.781513 124.062944 
z
" style="fill:#bd2e1f;"/>
   </g>
   <g id="patch_38">
    <path clip-path="url(#p57c91d8a04)" d="M 183.781513 104.24585 
L 272.87395 104.24585 
L 272.87395 106.291965 
L 240.821391 106.291965 
L 240.821391 114.737253 
L 215.896228 114.737253 
L 215.896228 106.291965 
L 183.781513 106.291965 
z
" style="fill:#40ba47;"/>
   </g>
   <g id="patch_39">
    <path clip-path="url(#p57c91d8a04)" d="M 272.87395 103.085676 
Q 263.888832 103.665763 254.224838 103.957131 
Q 244.560844 104.24585 234.257909 104.24585 
Q 210.97647 104.24585 197.378991 102.518834 
Q 183.781513 100.791818 183.781513 97.83841 
Q 183.781513 94.850567 197.618594 93.136795 
Q 211.475643 91.423023 235.575726 91.423023 
Q 244.860348 91.423023 253.36626 91.656117 
Q 261.892139 91.886563 269.439638 92.342156 
L 269.439638 94.898245 
Q 261.652536 94.312861 253.945301 94.024142 
Q 246.238066 93.732774 238.490898 93.732774 
Q 224.154643 93.732774 216.387508 94.797591 
Q 208.620372 95.859758 208.620372 97.83841 
Q 208.620372 99.798519 216.107971 100.868633 
Q 223.595569 101.936099 237.37275 101.936099 
Q 241.126533 101.936099 244.341208 101.875176 
Q 247.555884 101.811605 250.111651 101.679165 
L 250.111651 99.279355 
L 235.435958 99.279355 
L 235.435958 97.141776 
L 272.87395 97.141776 
z
" style="fill:#787800;"/>
   </g>
   <g id="patch_40">
    <path clip-path="url(#p57c91d8a04)" d="M 265.445547 32.588427 
L 265.445547 45.197663 
Q 256.153995 43.002533 247.297984 41.892206 
Q 238.46617 40.769116 230.602226 40.769116 
Q 220.173426 40.769116 215.164699 42.287839 
Q 210.180168 43.793801 210.180168 46.984397 
Q 210.180168 49.383726 213.543516 50.723776 
Q 216.906865 52.051064 225.762875 53.008243 
L 238.151612 54.322769 
Q 256.976684 56.326463 264.913219 60.397664 
Q 272.87395 64.456103 272.87395 71.960386 
Q 272.87395 81.800185 261.791838 86.611604 
Q 250.709726 91.423023 227.940583 91.423023 
Q 217.221422 91.423023 206.405475 90.338221 
Q 195.589527 89.26618 184.773579 87.147624 
L 184.773579 74.193803 
Q 195.589527 77.218488 205.679572 78.762737 
Q 215.769617 80.294223 225.157957 80.294223 
Q 234.691477 80.294223 239.748598 78.622351 
Q 244.805718 76.937716 244.805718 73.823694 
Q 244.805718 71.041494 241.36978 69.52277 
Q 237.933841 68.004046 227.650222 66.804382 
L 216.374536 65.489856 
Q 199.43681 63.575498 191.597063 59.389436 
Q 183.781513 55.203374 183.781513 48.107487 
Q 183.781513 39.212105 194.670051 34.42621 
Q 205.558588 29.640316 225.980646 29.640316 
Q 235.296395 29.640316 245.120276 30.380534 
Q 254.944157 31.120752 265.445547 32.588427 
z
" style="fill:#40ba47;"/>
   </g>
   <g id="patch_41">
    <path clip-path="url(#p57c91d8a04)" d="M 366.655462 160.119909 
Q 359.203034 160.159608 351.144534 160.179689 
Q 343.086034 160.2 334.309228 160.2 
Q 308.13594 160.2 292.849483 160.049512 
Q 277.563025 159.899023 277.563025 159.641669 
Q 277.563025 159.383393 292.849483 159.233135 
Q 308.13594 159.082647 334.309228 159.082647 
Q 343.086034 159.082647 351.144534 159.102958 
Q 359.203034 159.123038 366.655462 159.162738 
L 366.655462 159.38547 
Q 359.135692 159.332845 351.840393 159.308379 
Q 344.545094 159.283913 336.486595 159.283913 
Q 322.030679 159.283913 313.747709 159.379238 
Q 305.487185 159.474332 305.487185 159.641669 
Q 305.487185 159.808315 313.747709 159.903639 
Q 322.030679 159.998733 336.486595 159.998733 
Q 344.545094 159.998733 351.840393 159.974267 
Q 359.135692 159.949571 366.655462 159.896946 
z
" style="fill:#6b296b;"/>
   </g>
   <g id="patch_42">
    <path clip-path="url(#p57c91d8a04)" d="M 301.977194 158.183208 
L 301.977194 158.864971 
L 310.724083 158.864971 
Q 325.681059 158.864971 333.575582 158.777326 
Q 341.4904 158.689681 341.4904 158.522772 
Q 341.4904 158.356822 333.616171 158.270135 
Q 325.762237 158.183208 310.724083 158.183208 
z
M 277.563025 157.965293 
L 303.29633 157.965293 
Q 324.869283 157.965293 335.422373 158.001692 
Q 345.975464 158.037852 353.524982 158.124778 
Q 360.181547 158.20045 363.408357 158.29935 
Q 366.655462 158.39801 366.655462 158.522772 
Q 366.655462 158.649451 363.408357 158.74859 
Q 360.181547 158.847729 353.524982 158.923161 
Q 345.914581 159.010088 335.260018 159.046487 
Q 324.605455 159.082647 303.29633 159.082647 
L 277.563025 159.082647 
z
" style="fill:#6b296b;"/>
   </g>
   <g id="patch_43">
    <path clip-path="url(#p57c91d8a04)" d="M 277.563025 156.84794 
L 364.801049 156.84794 
L 364.801049 157.065855 
L 309.894308 157.065855 
L 309.894308 157.273712 
L 361.549108 157.273712 
L 361.549108 157.491627 
L 309.894308 157.491627 
L 309.894308 157.747617 
L 366.655462 157.747617 
L 366.655462 157.965293 
L 277.563025 157.965293 
z
" style="fill:#6b296b;"/>
   </g>
   <g id="patch_44">
    <path clip-path="url(#p57c91d8a04)" d="M 366.655462 156.746845 
Q 357.670344 156.797392 348.006351 156.822781 
Q 338.342357 156.84794 328.039422 156.84794 
Q 304.757982 156.84794 291.160504 156.697451 
Q 277.563025 156.546963 277.563025 156.289609 
Q 277.563025 156.029255 291.400107 155.87992 
Q 305.257156 155.730586 329.357239 155.730586 
Q 338.641861 155.730586 347.147773 155.750897 
Q 355.673651 155.770978 363.22115 155.810677 
L 363.22115 156.033409 
Q 355.434048 155.9824 347.726814 155.957242 
Q 340.019579 155.931853 332.272411 155.931853 
Q 317.936156 155.931853 310.16902 156.024639 
Q 302.401885 156.117194 302.401885 156.289609 
Q 302.401885 156.460409 309.889483 156.553656 
Q 317.377082 156.646673 331.154263 156.646673 
Q 334.908045 156.646673 338.122721 156.641364 
Q 341.337396 156.635825 343.893163 156.624284 
L 343.893163 156.41517 
L 329.21747 156.41517 
L 329.21747 156.228906 
L 366.655462 156.228906 
z
" style="fill:#787800;"/>
   </g>
   <g id="patch_45">
    <path clip-path="url(#p57c91d8a04)" d="M 277.563025 154.613233 
L 303.197611 154.613233 
L 303.197611 155.039005 
L 341.020877 155.039005 
L 341.020877 154.613233 
L 366.655462 154.613233 
L 366.655462 155.730586 
L 341.020877 155.730586 
L 341.020877 155.25692 
L 303.197611 155.25692 
L 303.197611 155.730586 
L 277.563025 155.730586 
z
" style="fill:#177875;"/>
   </g>
   <g id="patch_46">
    <path clip-path="url(#p57c91d8a04)" d="M 359.22706 153.549196 
L 359.22706 153.777237 
Q 349.935507 153.737538 341.079496 153.717457 
Q 332.247682 153.697146 324.383738 153.697146 
Q 313.954939 153.697146 308.946211 153.724612 
Q 303.96168 153.751848 303.96168 153.809551 
Q 303.96168 153.852943 307.325029 153.877178 
Q 310.688377 153.901182 319.544388 153.918493 
L 331.933125 153.942267 
Q 350.758197 153.978504 358.694731 154.052132 
Q 366.655462 154.12553 366.655462 154.261247 
Q 366.655462 154.439201 355.57335 154.526217 
Q 344.491238 154.613233 321.722096 154.613233 
Q 311.002935 154.613233 300.186987 154.593614 
Q 289.37104 154.574226 278.555092 154.535911 
L 278.555092 154.301638 
Q 289.37104 154.356341 299.461085 154.384269 
Q 309.55113 154.411966 318.939469 154.411966 
Q 328.472989 154.411966 333.53011 154.38173 
Q 338.587231 154.351263 338.587231 154.294945 
Q 338.587231 154.244628 335.151292 154.217162 
Q 331.715354 154.189695 321.431735 154.167999 
L 310.156049 154.144226 
Q 293.218323 154.109604 285.378576 154.033898 
Q 277.563025 153.958192 277.563025 153.829862 
Q 277.563025 153.668987 288.451563 153.582433 
Q 299.340101 153.495879 319.762159 153.495879 
Q 329.077908 153.495879 338.901789 153.509266 
Q 348.72567 153.522653 359.22706 153.549196 
z
" style="fill:#40ba47;"/>
   </g>
   <g id="patch_47">
    <path clip-path="url(#p57c91d8a04)" d="M 277.563025 152.378526 
L 301.041273 152.378526 
L 301.041273 152.786338 
L 334.882738 152.378526 
L 362.14717 152.378526 
L 318.293784 152.907748 
L 366.655462 153.495879 
L 337.26374 153.495879 
L 301.041273 153.055739 
L 301.041273 153.495879 
L 277.563025 153.495879 
z
" style="fill:#bd2e1f;"/>
   </g>
   <g id="patch_48">
    <path clip-path="url(#p57c91d8a04)" d="M 313.71188 151.75663 
Q 321.707355 151.75663 325.176291 151.723104 
Q 328.645227 151.689339 328.645227 151.612231 
Q 328.645227 151.535841 325.176291 151.503034 
Q 321.707355 151.469987 313.71188 151.469987 
L 303.008942 151.469987 
L 303.008942 151.75663 
z
M 303.008942 151.955627 
L 303.008942 152.378526 
L 277.563025 152.378526 
L 277.563025 151.261172 
L 316.419342 151.261172 
Q 335.921533 151.261172 344.995762 151.335407 
Q 354.091144 151.409402 354.091144 151.569606 
Q 354.091144 151.68024 349.353085 151.751361 
Q 344.636178 151.822483 335.117755 151.856248 
Q 340.342311 151.869658 344.466961 151.917312 
Q 348.612763 151.964726 352.843173 152.061232 
L 366.655462 152.378526 
L 339.559685 152.378526 
L 327.524169 152.100983 
Q 323.886016 152.01717 320.142103 151.986518 
Q 316.419342 151.955627 310.200639 151.955627 
z
" style="fill:#bd2e1f;"/>
   </g>
   <g id="patch_49">
    <path clip-path="url(#p57c91d8a04)" d="M 277.563025 150.143819 
L 303.844436 150.143819 
L 322.074911 150.741768 
L 340.42555 150.143819 
L 366.655462 150.143819 
L 366.655462 151.261172 
L 347.137524 151.261172 
L 347.137524 150.443871 
L 328.683888 151.04637 
L 315.586098 151.04637 
L 297.132462 150.443871 
L 297.132462 151.261172 
L 277.563025 151.261172 
z
" style="fill:#21599c;"/>
   </g>
   <g id="patch_50">
    <path clip-path="url(#p57c91d8a04)" d="M 277.563025 149.026465 
L 306.180854 149.026465 
L 342.342027 149.79276 
L 342.342027 149.026465 
L 366.655462 149.026465 
L 366.655462 150.143819 
L 338.016324 150.143819 
L 301.855151 149.377524 
L 301.855151 150.143819 
L 277.563025 150.143819 
z
" style="fill:#40ba47;"/>
   </g>
   <g id="patch_51">
    <path clip-path="url(#p57c91d8a04)" d="M 277.563025 147.909112 
L 323.872532 147.909112 
Q 344.544761 147.909112 355.588511 148.003941 
Q 366.655462 148.09853 366.655462 148.273581 
Q 366.655462 148.449589 355.588511 148.544178 
Q 344.544761 148.638768 323.872532 148.638768 
L 305.474015 148.638768 
L 305.474015 149.026465 
L 277.563025 149.026465 
z
M 305.474015 148.117927 
L 305.474015 148.429953 
L 320.902784 148.429953 
Q 329.023188 148.429953 333.454609 148.389243 
Q 337.886029 148.348534 337.886029 148.273581 
Q 337.886029 148.198867 333.454609 148.158397 
Q 329.023188 148.117927 320.902784 148.117927 
z
" style="fill:#787800;"/>
   </g>
   <g id="patch_52">
    <path clip-path="url(#p57c91d8a04)" d="M 324.485042 147.74202 
L 322.740315 147.74202 
Q 301.339569 147.74202 289.442017 147.616799 
Q 277.563025 147.491382 277.563025 147.267872 
Q 277.563025 147.044755 289.423456 146.918355 
Q 301.283887 146.791758 322.109244 146.791758 
Q 343.157332 146.791758 354.906397 146.917175 
Q 366.655462 147.042396 366.655462 147.267872 
Q 366.655462 147.422579 360.418992 147.534433 
Q 354.182521 147.646286 342.470578 147.702704 
L 359.917847 147.909112 
L 338.628466 147.909112 
z
M 322.109244 146.963175 
Q 311.900735 146.963175 306.276775 147.042986 
Q 300.652815 147.122797 300.652815 147.267872 
Q 300.652815 147.415306 306.146849 147.493741 
Q 311.659443 147.571979 322.109244 147.571979 
Q 332.373435 147.571979 337.997395 147.492168 
Q 343.621355 147.412161 343.621355 147.267872 
Q 343.621355 147.122797 337.997395 147.042986 
Q 332.373435 146.963175 322.109244 146.963175 
z
" style="fill:#40ba47;"/>
   </g>
   <g id="patch_53">
    <path clip-path="url(#p57c91d8a04)" d="M 277.563025 144.557051 
L 292.968481 144.557051 
L 303.737603 146.181117 
L 314.426558 144.557051 
L 329.912181 144.557051 
L 340.601135 146.181117 
L 351.383618 144.557051 
L 366.655462 144.557051 
L 351.95815 146.791758 
L 333.426174 146.791758 
L 322.109244 145.092979 
L 310.925925 146.791758 
L 292.380589 146.791758 
z
" style="fill:#21599c;"/>
   </g>
   <g id="patch_54">
    <path clip-path="url(#p57c91d8a04)" d="M 277.563025 142.322344 
L 366.655462 142.322344 
L 366.655462 142.758174 
L 334.602904 142.758174 
L 334.602904 144.557051 
L 309.677741 144.557051 
L 309.677741 142.758174 
L 277.563025 142.758174 
z
" style="fill:#40ba47;"/>
   </g>
   <g id="patch_55">
    <path clip-path="url(#p57c91d8a04)" d="M 339.277435 141.304609 
L 305.013915 141.304609 
L 299.603886 142.322344 
L 277.563025 142.322344 
L 309.03956 136.735577 
L 335.178928 136.735577 
L 366.655462 142.322344 
L 344.632817 142.322344 
z
M 310.478591 140.267717 
L 333.758112 140.267717 
L 322.136567 138.045462 
z
" style="fill:#21599c;"/>
   </g>
   <g id="patch_56">
    <path clip-path="url(#p57c91d8a04)" d="M 277.563025 117.740568 
L 299.603886 117.740568 
L 322.136567 131.760887 
L 344.632817 117.740568 
L 366.655462 117.740568 
L 335.178928 136.735577 
L 309.03956 136.735577 
z
" style="fill:#21599c;"/>
   </g>
   <g id="patch_57">
    <path clip-path="url(#p57c91d8a04)" d="M 305.943602 96.510851 
L 338.274885 96.510851 
L 338.274885 117.740568 
L 305.943602 117.740568 
z
" style="fill:#21599c;"/>
   </g>
   <g id="patch_58">
    <path clip-path="url(#p57c91d8a04)" d="M 277.563025 73.046428 
L 309.894308 73.046428 
L 309.894308 91.939664 
L 366.655462 91.939664 
L 366.655462 96.510851 
L 277.563025 96.510851 
z
" style="fill:#21599c;"/>
   </g>
   <g id="patch_59">
    <path clip-path="url(#p57c91d8a04)" d="M 278.490232 36.173763 
L 365.728256 36.173763 
L 365.728256 43.36496 
L 310.821514 43.36496 
L 310.821514 50.224256 
L 362.476315 50.224256 
L 362.476315 57.415453 
L 310.821514 57.415453 
L 310.821514 73.046428 
L 278.490232 73.046428 
z
" style="fill:#21599c;"/>
   </g>
   <g id="patch_60">
    <path clip-path="url(#p57c91d8a04)" d="M 460.436975 160.110498 
Q 452.984546 160.154862 444.926047 160.177302 
Q 436.867547 160.2 428.090741 160.2 
Q 401.917453 160.2 386.630995 160.031828 
Q 371.344538 159.863657 371.344538 159.576063 
Q 371.344538 159.287437 386.630995 159.119523 
Q 401.917453 158.951351 428.090741 158.951351 
Q 436.867547 158.951351 444.926047 158.974049 
Q 452.984546 158.996489 460.436975 159.040854 
L 460.436975 159.289758 
Q 452.917205 159.23095 445.621906 159.203609 
Q 438.326607 159.176268 430.268107 159.176268 
Q 415.812192 159.176268 407.529221 159.282794 
Q 399.268698 159.389062 399.268698 159.576063 
Q 399.268698 159.762289 407.529221 159.868815 
Q 415.812192 159.975083 430.268107 159.975083 
Q 438.326607 159.975083 445.621906 159.947743 
Q 452.917205 159.920144 460.436975 159.861335 
z
" style="fill:#6b296b;"/>
   </g>
   <g id="patch_61">
    <path clip-path="url(#p57c91d8a04)" d="M 371.344538 157.702703 
L 458.582562 157.702703 
L 458.582562 157.946224 
L 403.67582 157.946224 
L 403.67582 158.178506 
L 455.330621 158.178506 
L 455.330621 158.422027 
L 403.67582 158.422027 
L 403.67582 158.708098 
L 460.436975 158.708098 
L 460.436975 158.951351 
L 371.344538 158.951351 
z
" style="fill:#6b296b;"/>
   </g>
   <g id="patch_62">
    <path clip-path="url(#p57c91d8a04)" d="M 460.436975 157.589729 
Q 451.451857 157.646216 441.787863 157.674588 
Q 432.12387 157.702703 421.820934 157.702703 
Q 398.539495 157.702703 384.942016 157.534531 
Q 371.344538 157.366359 371.344538 157.078765 
Q 371.344538 156.787818 385.18162 156.620936 
Q 399.038668 156.454054 423.138752 156.454054 
Q 432.423373 156.454054 440.929285 156.476752 
Q 449.455164 156.499192 457.002663 156.543556 
L 457.002663 156.792461 
Q 449.215561 156.735458 441.508326 156.707343 
Q 433.801092 156.678971 426.053923 156.678971 
Q 411.717668 156.678971 403.950533 156.782659 
Q 396.183397 156.88609 396.183397 157.078765 
Q 396.183397 157.269635 403.670996 157.373839 
Q 411.158594 157.477786 424.935775 157.477786 
Q 428.689558 157.477786 431.904233 157.471854 
Q 435.118909 157.465663 437.674676 157.452767 
L 437.674676 157.21908 
L 422.998983 157.21908 
L 422.998983 157.010929 
L 460.436975 157.010929 
z
" style="fill:#787800;"/>
   </g>
   <g id="patch_63">
    <path clip-path="url(#p57c91d8a04)" d="M 371.344538 155.205405 
L 396.979123 155.205405 
L 396.979123 155.681209 
L 434.802389 155.681209 
L 434.802389 155.205405 
L 460.436975 155.205405 
L 460.436975 156.454054 
L 434.802389 156.454054 
L 434.802389 155.92473 
L 396.979123 155.92473 
L 396.979123 156.454054 
L 371.344538 156.454054 
z
" style="fill:#177875;"/>
   </g>
   <g id="patch_64">
    <path clip-path="url(#p57c91d8a04)" d="M 371.344538 153.956757 
L 399.962367 153.956757 
L 436.12354 154.813095 
L 436.12354 153.956757 
L 460.436975 153.956757 
L 460.436975 155.205405 
L 431.797837 155.205405 
L 395.636664 154.349067 
L 395.636664 155.205405 
L 371.344538 155.205405 
z
" style="fill:#40ba47;"/>
   </g>
   <g id="patch_65">
    <path clip-path="url(#p57c91d8a04)" d="M 453.008572 152.76769 
L 453.008572 153.022527 
Q 443.71702 152.978163 434.861009 152.955723 
Q 426.029195 152.933025 418.165251 152.933025 
Q 407.736451 152.933025 402.727724 152.963719 
Q 397.743193 152.994155 397.743193 153.058638 
Q 397.743193 153.107129 401.106541 153.134212 
Q 404.46989 153.161037 413.325901 153.180382 
L 425.714637 153.206949 
Q 444.539709 153.247444 452.476244 153.329724 
Q 460.436975 153.411747 460.436975 153.563411 
Q 460.436975 153.762276 449.354863 153.859516 
Q 438.272751 153.956757 415.503608 153.956757 
Q 404.784448 153.956757 393.9685 153.934833 
Q 383.152552 153.913166 372.336605 153.87035 
L 372.336605 153.608549 
Q 383.152552 153.669678 393.242597 153.700888 
Q 403.332643 153.73184 412.720982 153.73184 
Q 422.254502 153.73184 427.311623 153.698051 
Q 432.368744 153.664004 432.368744 153.601069 
Q 432.368744 153.544839 428.932805 153.514146 
Q 425.496866 153.483452 415.213247 153.459206 
L 403.937561 153.432639 
Q 386.999836 153.393949 379.160088 153.309348 
Q 371.344538 153.224746 371.344538 153.081336 
Q 371.344538 152.901557 382.233076 152.804833 
Q 393.121614 152.708108 413.543671 152.708108 
Q 422.859421 152.708108 432.683301 152.723068 
Q 442.507182 152.738028 453.008572 152.76769 
z
" style="fill:#40ba47;"/>
   </g>
   <g id="patch_66">
    <path clip-path="url(#p57c91d8a04)" d="M 407.493392 152.013136 
Q 415.488867 152.013136 418.957804 151.975671 
Q 422.42674 151.937939 422.42674 151.85177 
Q 422.42674 151.766403 418.957804 151.729741 
Q 415.488867 151.692812 407.493392 151.692812 
L 396.790455 151.692812 
L 396.790455 152.013136 
z
M 396.790455 152.235516 
L 396.790455 152.708108 
L 371.344538 152.708108 
L 371.344538 151.459459 
L 410.200855 151.459459 
Q 429.703045 151.459459 438.777275 151.542417 
Q 447.872657 151.625107 447.872657 151.804136 
Q 447.872657 151.92777 443.134597 152.007249 
Q 438.41769 152.086727 428.899267 152.12446 
Q 434.123824 152.139446 438.248474 152.192699 
Q 442.394276 152.245685 446.624686 152.35353 
L 460.436975 152.708108 
L 433.341198 152.708108 
L 421.305681 152.397953 
Q 417.667529 152.304291 413.923616 152.270037 
Q 410.200855 152.235516 403.982152 152.235516 
z
" style="fill:#bd2e1f;"/>
   </g>
   <g id="patch_67">
    <path clip-path="url(#p57c91d8a04)" d="M 433.058947 151.00453 
L 398.795428 151.00453 
L 393.385398 151.459459 
L 371.344538 151.459459 
L 402.821072 148.962162 
L 428.96044 148.962162 
L 460.436975 151.459459 
L 438.41433 151.459459 
z
M 404.260104 150.541036 
L 427.539624 150.541036 
L 415.91808 149.547684 
z
" style="fill:#21599c;"/>
   </g>
   <g id="patch_68">
    <path clip-path="url(#p57c91d8a04)" d="M 395.758707 146.951907 
L 395.758707 148.475655 
L 404.505595 148.475655 
Q 419.462572 148.475655 427.357095 148.279767 
Q 435.271913 148.08388 435.271913 147.710837 
Q 435.271913 147.339936 427.397684 147.146189 
Q 419.543749 146.951907 404.505595 146.951907 
z
M 371.344538 146.464865 
L 397.077843 146.464865 
Q 418.650795 146.464865 429.203886 146.546217 
Q 439.756976 146.627034 447.306495 146.821316 
Q 453.96306 146.990443 457.18987 147.211485 
Q 460.436975 147.431992 460.436975 147.710837 
Q 460.436975 147.993964 457.18987 148.215542 
Q 453.96306 148.43712 447.306495 148.605711 
Q 439.696093 148.799993 429.041531 148.881345 
Q 418.386968 148.962162 397.077843 148.962162 
L 371.344538 148.962162 
z
" style="fill:#6b296b;"/>
   </g>
   <g id="patch_69">
    <path clip-path="url(#p57c91d8a04)" d="M 371.344538 143.967568 
L 393.385398 143.967568 
L 415.91808 145.810836 
L 438.41433 143.967568 
L 460.436975 143.967568 
L 428.96044 146.464865 
L 402.821072 146.464865 
z
" style="fill:#21599c;"/>
   </g>
   <g id="patch_70">
    <path clip-path="url(#p57c91d8a04)" d="M 371.344538 141.47027 
L 417.654044 141.47027 
Q 438.326274 141.47027 449.370024 141.682214 
Q 460.436975 141.893623 460.436975 142.284862 
Q 460.436975 142.678243 449.370024 142.889651 
Q 438.326274 143.10106 417.654044 143.10106 
L 399.255528 143.10106 
L 399.255528 143.967568 
L 371.344538 143.967568 
z
M 399.255528 141.936975 
L 399.255528 142.634355 
L 414.684296 142.634355 
Q 422.804701 142.634355 427.236121 142.54337 
Q 431.667542 142.452384 431.667542 142.284862 
Q 431.667542 142.117876 427.236121 142.027426 
Q 422.804701 141.936975 414.684296 141.936975 
z
" style="fill:#787800;"/>
   </g>
   <g id="patch_71">
    <path clip-path="url(#p57c91d8a04)" d="M 372.271744 137.724324 
L 459.509768 137.724324 
L 459.509768 138.454888 
L 404.603027 138.454888 
L 404.603027 139.151734 
L 456.257827 139.151734 
L 456.257827 139.882297 
L 404.603027 139.882297 
L 404.603027 141.47027 
L 372.271744 141.47027 
z
" style="fill:#21599c;"/>
   </g>
   <g id="patch_72">
    <path clip-path="url(#p57c91d8a04)" d="M 399.725115 133.978378 
L 432.056398 133.978378 
L 432.056398 137.724324 
L 399.725115 137.724324 
z
" style="fill:#21599c;"/>
   </g>
   <g id="patch_73">
    <path clip-path="url(#p57c91d8a04)" d="M 371.344538 130.232432 
L 460.436975 130.232432 
L 460.436975 130.962996 
L 428.384417 130.962996 
L 428.384417 133.978378 
L 403.459253 133.978378 
L 403.459253 130.962996 
L 371.344538 130.962996 
z
" style="fill:#40ba47;"/>
   </g>
   <g id="patch_74">
    <path clip-path="url(#p57c91d8a04)" d="M 371.344538 123.989189 
L 394.822786 123.989189 
L 394.822786 126.267853 
L 428.66425 123.989189 
L 455.928683 123.989189 
L 412.075297 126.946233 
L 460.436975 130.232432 
L 431.045253 130.232432 
L 394.822786 127.773135 
L 394.822786 130.232432 
L 371.344538 130.232432 
z
" style="fill:#bd2e1f;"/>
   </g>
   <g id="patch_75">
    <path clip-path="url(#p57c91d8a04)" d="M 371.344538 116.497297 
L 386.749994 116.497297 
L 397.519116 121.942005 
L 408.20807 116.497297 
L 423.693693 116.497297 
L 434.382648 121.942005 
L 445.165131 116.497297 
L 460.436975 116.497297 
L 445.739662 123.989189 
L 427.207687 123.989189 
L 415.890756 118.294003 
L 404.707438 123.989189 
L 386.162101 123.989189 
z
" style="fill:#21599c;"/>
   </g>
   <g id="patch_76">
    <path clip-path="url(#p57c91d8a04)" d="M 418.266555 114.816762 
L 416.521828 114.816762 
Q 395.121082 114.816762 383.223529 113.557349 
Q 371.344538 112.295959 371.344538 110.047996 
Q 371.344538 107.803987 383.204968 106.532712 
Q 395.065399 105.259459 415.890756 105.259459 
Q 436.938845 105.259459 448.68791 106.520849 
Q 460.436975 107.780262 460.436975 110.047996 
Q 460.436975 111.603974 454.200504 112.728944 
Q 447.964034 113.853914 436.25209 114.421342 
L 453.699359 116.497297 
L 432.409979 116.497297 
z
M 415.890756 106.983491 
Q 405.682248 106.983491 400.058288 107.786194 
Q 394.434328 108.588896 394.434328 110.047996 
Q 394.434328 111.530821 399.928361 112.319684 
Q 405.440956 113.10657 415.890756 113.10657 
Q 426.154947 113.10657 431.778908 112.303868 
Q 437.402868 111.499188 437.402868 110.047996 
Q 437.402868 108.588896 431.778908 107.786194 
Q 426.154947 106.983491 415.890756 106.983491 
z
" style="fill:#40ba47;"/>
   </g>
   <g id="patch_77">
    <path clip-path="url(#p57c91d8a04)" d="M 371.344538 91.524324 
L 397.625948 91.524324 
L 415.856424 98.874653 
L 434.207063 91.524324 
L 460.436975 91.524324 
L 460.436975 105.259459 
L 440.919036 105.259459 
L 440.919036 95.212735 
L 422.4654 102.618993 
L 409.367611 102.618993 
L 390.913975 95.212735 
L 390.913975 105.259459 
L 371.344538 105.259459 
z
" style="fill:#21599c;"/>
   </g>
   <g id="patch_78">
    <path clip-path="url(#p57c91d8a04)" d="M 371.344538 21.6 
L 403.67582 21.6 
L 403.67582 77.902119 
L 460.436975 77.902119 
L 460.436975 91.524324 
L 371.344538 91.524324 
z
" style="fill:#21599c;"/>
   </g>
   <g id="patch_79">
    <path clip-path="url(#p57c91d8a04)" d="M 465.12605 159.083765 
L 480.531506 159.083765 
L 491.300628 159.894985 
L 501.989583 159.083765 
L 517.475206 159.083765 
L 528.16416 159.894985 
L 538.946643 159.083765 
L 554.218487 159.083765 
L 539.521175 160.2 
L 520.9892 160.2 
L 509.672269 159.35146 
L 498.48895 160.2 
L 479.943614 160.2 
z
" style="fill:#21599c;"/>
   </g>
   <g id="patch_80">
    <path clip-path="url(#p57c91d8a04)" d="M 501.274905 158.462491 
Q 509.27038 158.462491 512.739316 158.428999 
Q 516.208253 158.395268 516.208253 158.318237 
Q 516.208253 158.241923 512.739316 158.209149 
Q 509.27038 158.176136 501.274905 158.176136 
L 490.571967 158.176136 
L 490.571967 158.462491 
z
M 490.571967 158.661289 
L 490.571967 159.083765 
L 465.12605 159.083765 
L 465.12605 157.96753 
L 503.982367 157.96753 
Q 523.484558 157.96753 532.558788 158.04169 
Q 541.654169 158.115611 541.654169 158.275655 
Q 541.654169 158.386178 536.91611 158.457228 
Q 532.199203 158.528279 522.68078 158.56201 
Q 527.905336 158.575407 532.029986 158.623013 
Q 536.175788 158.67038 540.406198 158.766788 
L 554.218487 159.083765 
L 527.122711 159.083765 
L 515.087194 158.8065 
Q 511.449041 158.722771 507.705128 158.692149 
Q 503.982367 158.661289 497.763664 158.661289 
z
" style="fill:#bd2e1f;"/>
   </g>
   <g id="patch_81">
    <path clip-path="url(#p57c91d8a04)" d="M 489.540219 157.068991 
L 489.540219 157.750072 
L 498.287108 157.750072 
Q 513.244084 157.750072 521.138608 157.662515 
Q 529.053425 157.574957 529.053425 157.408216 
Q 529.053425 157.242431 521.179196 157.155831 
Q 513.325262 157.068991 498.287108 157.068991 
z
M 465.12605 156.851294 
L 490.859356 156.851294 
Q 512.432308 156.851294 522.985398 156.887657 
Q 533.538489 156.92378 541.088008 157.01062 
Q 547.744572 157.086216 550.971383 157.185017 
Q 554.218487 157.283578 554.218487 157.408216 
Q 554.218487 157.534767 550.971383 157.633807 
Q 547.744572 157.732847 541.088008 157.808204 
Q 533.477606 157.895044 522.823043 157.931406 
Q 512.168481 157.96753 490.859356 157.96753 
L 465.12605 157.96753 
z
" style="fill:#6b296b;"/>
   </g>
   <g id="patch_82">
    <path clip-path="url(#p57c91d8a04)" d="M 465.12605 155.735059 
L 511.435557 155.735059 
Q 532.107786 155.735059 543.151536 155.829793 
Q 554.218487 155.924288 554.218487 156.099163 
Q 554.218487 156.274996 543.151536 156.36949 
Q 532.107786 156.463985 511.435557 156.463985 
L 493.03704 156.463985 
L 493.03704 156.851294 
L 465.12605 156.851294 
z
M 493.03704 155.943666 
L 493.03704 156.255379 
L 508.465809 156.255379 
Q 516.586213 156.255379 521.017634 156.21471 
Q 525.449055 156.174042 525.449055 156.099163 
Q 525.449055 156.024524 521.017634 155.984095 
Q 516.586213 155.943666 508.465809 155.943666 
z
" style="fill:#787800;"/>
   </g>
   <g id="patch_83">
    <path clip-path="url(#p57c91d8a04)" d="M 466.053257 154.618824 
L 553.291281 154.618824 
L 553.291281 154.836521 
L 498.384539 154.836521 
L 498.384539 155.04417 
L 550.03934 155.04417 
L 550.03934 155.261867 
L 498.384539 155.261867 
L 498.384539 155.735059 
L 466.053257 155.735059 
z
" style="fill:#21599c;"/>
   </g>
   <g id="patch_84">
    <path clip-path="url(#p57c91d8a04)" d="M 465.12605 153.502589 
L 491.407461 153.502589 
L 509.637937 154.09994 
L 527.988575 153.502589 
L 554.218487 153.502589 
L 554.218487 154.618824 
L 534.700549 154.618824 
L 534.700549 153.802341 
L 516.246913 154.404237 
L 503.149123 154.404237 
L 484.695487 153.802341 
L 484.695487 154.618824 
L 465.12605 154.618824 
z
" style="fill:#21599c;"/>
   </g>
   <g id="patch_85">
    <path clip-path="url(#p57c91d8a04)" d="M 493.506628 152.386354 
L 525.83791 152.386354 
L 525.83791 153.502589 
L 493.506628 153.502589 
z
" style="fill:#21599c;"/>
   </g>
   <g id="patch_86">
    <path clip-path="url(#p57c91d8a04)" d="M 465.12605 151.270118 
L 488.604298 151.270118 
L 488.604298 151.677523 
L 522.445763 151.270118 
L 549.710195 151.270118 
L 505.85681 151.798811 
L 554.218487 152.386354 
L 524.826766 152.386354 
L 488.604298 151.946654 
L 488.604298 152.386354 
L 465.12605 152.386354 
z
" style="fill:#bd2e1f;"/>
   </g>
   <g id="patch_87">
    <path clip-path="url(#p57c91d8a04)" d="M 465.12605 149.037648 
L 487.166911 149.037648 
L 509.699592 150.685447 
L 532.195842 149.037648 
L 554.218487 149.037648 
L 522.741953 151.270118 
L 496.602585 151.270118 
z
" style="fill:#21599c;"/>
   </g>
   <g id="patch_88">
    <path clip-path="url(#p57c91d8a04)" d="M 465.12605 146.805178 
L 497.457333 146.805178 
L 497.457333 148.602733 
L 554.218487 148.602733 
L 554.218487 149.037648 
L 465.12605 149.037648 
z
" style="fill:#21599c;"/>
   </g>
   <g id="patch_89">
    <path clip-path="url(#p57c91d8a04)" d="M 465.12605 144.572707 
L 552.364075 144.572707 
L 552.364075 145.008101 
L 497.457333 145.008101 
L 497.457333 145.4234 
L 549.112134 145.4234 
L 549.112134 145.858794 
L 497.457333 145.858794 
L 497.457333 146.370262 
L 554.218487 146.370262 
L 554.218487 146.805178 
L 465.12605 146.805178 
z
" style="fill:#6b296b;"/>
   </g>
   <g id="patch_90">
    <path clip-path="url(#p57c91d8a04)" d="M 554.218487 144.412685 
Q 546.766059 144.492004 538.707559 144.532125 
Q 530.64906 144.572707 521.872254 144.572707 
Q 495.698965 144.572707 480.412508 144.272032 
Q 465.12605 143.971356 465.12605 143.457164 
Q 465.12605 142.941127 480.412508 142.640912 
Q 495.698965 142.340237 521.872254 142.340237 
Q 530.64906 142.340237 538.707559 142.380819 
Q 546.766059 142.42094 554.218487 142.500259 
L 554.218487 142.945277 
Q 546.698718 142.840133 539.403419 142.79125 
Q 532.108119 142.742367 524.04962 142.742367 
Q 509.593704 142.742367 501.310734 142.932826 
Q 493.050211 143.122824 493.050211 143.457164 
Q 493.050211 143.790121 501.310734 143.980579 
Q 509.593704 144.170577 524.04962 144.170577 
Q 532.108119 144.170577 539.403419 144.121694 
Q 546.698718 144.07235 554.218487 143.967206 
z
" style="fill:#6b296b;"/>
   </g>
   <g id="patch_91">
    <path clip-path="url(#p57c91d8a04)" d="M 465.12605 140.107766 
L 490.760636 140.107766 
L 490.760636 140.958459 
L 528.583902 140.958459 
L 528.583902 140.107766 
L 554.218487 140.107766 
L 554.218487 142.340237 
L 528.583902 142.340237 
L 528.583902 141.393853 
L 490.760636 141.393853 
L 490.760636 142.340237 
L 465.12605 142.340237 
z
" style="fill:#177875;"/>
   </g>
   <g id="patch_92">
    <path clip-path="url(#p57c91d8a04)" d="M 554.218487 139.804785 
Q 545.233369 139.956276 535.569376 140.032367 
Q 525.905382 140.107766 515.602447 140.107766 
Q 492.321008 140.107766 478.723529 139.656753 
Q 465.12605 139.20574 465.12605 138.434451 
Q 465.12605 137.65417 478.963132 137.206616 
Q 492.820181 136.759061 516.920264 136.759061 
Q 526.204886 136.759061 534.710798 136.819934 
Q 543.236676 136.880115 550.784176 136.999094 
L 550.784176 137.666622 
Q 542.997073 137.513747 535.289839 137.438348 
Q 527.582604 137.362257 519.835436 137.362257 
Q 505.499181 137.362257 497.732045 137.640336 
Q 489.96491 137.917723 489.96491 138.434451 
Q 489.96491 138.946338 497.452508 139.2258 
Q 504.940107 139.504571 518.717288 139.504571 
Q 522.47107 139.504571 525.685746 139.488661 
Q 528.900421 139.472059 531.456188 139.437472 
L 531.456188 138.810757 
L 516.780496 138.810757 
L 516.780496 138.252524 
L 554.218487 138.252524 
z
" style="fill:#787800;"/>
   </g>
   <g id="patch_93">
    <path clip-path="url(#p57c91d8a04)" d="M 512.048067 136.258287 
L 510.30334 136.258287 
Q 488.902595 136.258287 477.005042 135.883001 
Q 465.12605 135.507126 465.12605 134.837267 
Q 465.12605 134.168586 476.986481 133.789765 
Q 488.846912 133.410355 509.672269 133.410355 
Q 530.720357 133.410355 542.469422 133.78623 
Q 554.218487 134.161516 554.218487 134.837267 
Q 554.218487 135.300925 547.982017 135.636149 
Q 541.745546 135.971373 530.033603 136.140458 
L 547.480872 136.759061 
L 526.191492 136.759061 
z
M 509.672269 133.924091 
Q 499.463761 133.924091 493.8398 134.163284 
Q 488.21584 134.402477 488.21584 134.837267 
Q 488.21584 135.279126 493.709874 135.514195 
Q 499.222468 135.748676 509.672269 135.748676 
Q 519.93646 135.748676 525.56042 135.509482 
Q 531.18438 135.2697 531.18438 134.837267 
Q 531.18438 134.402477 525.56042 134.163284 
Q 519.93646 133.924091 509.672269 133.924091 
z
" style="fill:#40ba47;"/>
   </g>
   <g id="patch_94">
    <path clip-path="url(#p57c91d8a04)" d="M 465.12605 121.131768 
L 493.743879 121.131768 
L 529.905053 129.552574 
L 529.905053 121.131768 
L 554.218487 121.131768 
L 554.218487 133.410355 
L 525.57935 133.410355 
L 489.418176 124.98955 
L 489.418176 133.410355 
L 465.12605 133.410355 
z
" style="fill:#40ba47;"/>
   </g>
   <g id="patch_95">
    <path clip-path="url(#p57c91d8a04)" d="M 465.12605 108.853181 
L 554.218487 108.853181 
L 554.218487 111.247847 
L 522.165929 111.247847 
L 522.165929 121.131768 
L 497.240766 121.131768 
L 497.240766 111.247847 
L 465.12605 111.247847 
z
" style="fill:#40ba47;"/>
   </g>
   <g id="patch_96">
    <path clip-path="url(#p57c91d8a04)" d="M 526.84046 103.769598 
L 492.57694 103.769598 
L 487.166911 108.853181 
L 465.12605 108.853181 
L 496.602585 80.947301 
L 522.741953 80.947301 
L 554.218487 108.853181 
L 532.195842 108.853181 
z
M 498.041616 98.590324 
L 521.321137 98.590324 
L 509.699592 87.490171 
z
" style="fill:#21599c;"/>
   </g>
   <g id="patch_97">
    <path clip-path="url(#p57c91d8a04)" d="M 546.790085 39.491419 
L 546.790085 48.376107 
Q 537.498532 46.82938 528.642522 46.047023 
Q 519.810708 45.255675 511.946763 45.255675 
Q 501.517964 45.255675 496.509236 46.325794 
Q 491.524706 47.386921 491.524706 49.63507 
Q 491.524706 51.325679 494.888054 52.269902 
Q 498.251402 53.205132 507.107413 53.879577 
L 519.49615 54.805815 
Q 538.321222 56.217653 546.257756 59.086292 
Q 554.218487 61.945939 554.218487 67.233587 
Q 554.218487 74.166881 543.136375 77.557091 
Q 532.054264 80.947301 509.285121 80.947301 
Q 498.56596 80.947301 487.750013 80.18293 
Q 476.934065 79.427552 466.118117 77.93478 
L 466.118117 68.807292 
Q 476.934065 70.938538 487.02411 72.026642 
Q 497.114155 73.105754 506.502495 73.105754 
Q 516.036014 73.105754 521.093135 71.927724 
Q 526.150256 70.740701 526.150256 68.546507 
Q 526.150256 66.58612 522.714318 65.516001 
Q 519.278379 64.445881 508.99476 63.600577 
L 497.719074 62.674339 
Q 480.781348 61.325449 472.941601 58.375877 
Q 465.12605 55.426304 465.12605 50.426419 
Q 465.12605 44.158578 476.014588 40.786353 
Q 486.903126 37.414128 507.325184 37.414128 
Q 516.640933 37.414128 526.464814 37.935699 
Q 536.288695 38.45727 546.790085 39.491419 
z
" style="fill:#40ba47;"/>
   </g>
   <g id="patch_98">
    <path clip-path="url(#p57c91d8a04)" d="M 648 160.109977 
Q 640.547571 160.154599 632.489072 160.17717 
Q 624.430572 160.2 615.653766 160.2 
Q 589.480478 160.2 574.19402 160.03085 
Q 558.907563 159.861699 558.907563 159.572432 
Q 558.907563 159.282126 574.19402 159.113235 
Q 589.480478 158.944085 615.653766 158.944085 
Q 624.430572 158.944085 632.489072 158.966915 
Q 640.547571 158.989486 648 159.034108 
L 648 159.284461 
Q 640.48023 159.22531 633.184931 159.19781 
Q 625.889632 159.17031 617.831132 159.17031 
Q 603.375217 159.17031 595.092246 159.277456 
Q 586.831723 159.384343 586.831723 159.572432 
Q 586.831723 159.759742 595.092246 159.866888 
Q 603.375217 159.973774 617.831132 159.973774 
Q 625.889632 159.973774 633.184931 159.946275 
Q 640.48023 159.918515 648 159.859364 
z
" style="fill:#6b296b;"/>
   </g>
   <g id="patch_99">
    <path clip-path="url(#p57c91d8a04)" d="M 583.321732 157.933108 
L 583.321732 158.699415 
L 592.06862 158.699415 
Q 607.025597 158.699415 614.92012 158.600902 
Q 622.834938 158.502388 622.834938 158.314781 
Q 622.834938 158.128251 614.960709 158.030814 
Q 607.106774 157.933108 592.06862 157.933108 
z
M 558.907563 157.68817 
L 584.640868 157.68817 
Q 606.213821 157.68817 616.766911 157.729082 
Q 627.320002 157.769726 634.86952 157.867432 
Q 641.526085 157.952488 644.752895 158.063652 
Q 648 158.174547 648 158.314781 
Q 648 158.457169 644.752895 158.568602 
Q 641.526085 158.680036 634.86952 158.764822 
Q 627.259118 158.862528 616.604556 158.903441 
Q 605.949993 158.944085 584.640868 158.944085 
L 558.907563 158.944085 
z
" style="fill:#6b296b;"/>
   </g>
   <g id="patch_100">
    <path clip-path="url(#p57c91d8a04)" d="M 558.907563 156.432254 
L 646.145587 156.432254 
L 646.145587 156.677193 
L 591.238846 156.677193 
L 591.238846 156.910826 
L 642.893646 156.910826 
L 642.893646 157.155765 
L 591.238846 157.155765 
L 591.238846 157.4435 
L 648 157.4435 
L 648 157.68817 
L 558.907563 157.68817 
z
" style="fill:#6b296b;"/>
   </g>
   <g id="patch_101">
    <path clip-path="url(#p57c91d8a04)" d="M 558.907563 155.176339 
L 584.542148 155.176339 
L 584.542148 155.654911 
L 622.365415 155.654911 
L 622.365415 155.176339 
L 648 155.176339 
L 648 156.432254 
L 622.365415 156.432254 
L 622.365415 155.89985 
L 584.542148 155.89985 
L 584.542148 156.432254 
L 558.907563 156.432254 
z
" style="fill:#177875;"/>
   </g>
   <g id="patch_102">
    <path clip-path="url(#p57c91d8a04)" d="M 595.056417 154.477322 
Q 603.051893 154.477322 606.520829 154.439639 
Q 609.989765 154.401687 609.989765 154.315017 
Q 609.989765 154.229154 606.520829 154.192279 
Q 603.051893 154.155134 595.056417 154.155134 
L 584.35348 154.155134 
L 584.35348 154.477322 
z
M 584.35348 154.700997 
L 584.35348 155.176339 
L 558.907563 155.176339 
L 558.907563 153.920424 
L 597.76388 153.920424 
Q 617.266071 153.920424 626.3403 154.003864 
Q 635.435682 154.087036 635.435682 154.267106 
Q 635.435682 154.391459 630.697623 154.471401 
Q 625.980715 154.551342 616.462293 154.589294 
Q 621.686849 154.604367 625.811499 154.657931 
Q 629.957301 154.711225 634.187711 154.819698 
L 648 155.176339 
L 620.904223 155.176339 
L 608.868706 154.864379 
Q 605.230554 154.770172 601.486641 154.735719 
Q 597.76388 154.700997 591.545177 154.700997 
z
" style="fill:#bd2e1f;"/>
   </g>
   <g id="patch_103">
    <path clip-path="url(#p57c91d8a04)" d="M 558.907563 152.664509 
L 582.385811 152.664509 
L 582.385811 153.122893 
L 616.227275 152.664509 
L 643.491708 152.664509 
L 599.638322 153.259359 
L 648 153.920424 
L 618.608278 153.920424 
L 582.385811 153.425702 
L 582.385811 153.920424 
L 558.907563 153.920424 
z
" style="fill:#bd2e1f;"/>
   </g>
   <g id="patch_104">
    <path clip-path="url(#p57c91d8a04)" d="M 605.82958 152.476696 
L 604.084853 152.476696 
Q 582.684107 152.476696 570.786555 152.335947 
Q 558.907563 152.194977 558.907563 151.943749 
Q 558.907563 151.692964 570.767994 151.550889 
Q 582.628424 151.408593 603.453782 151.408593 
Q 624.50187 151.408593 636.250935 151.549563 
Q 648 151.690312 648 151.943749 
Q 648 152.117642 641.763529 152.243366 
Q 635.527059 152.36909 623.815116 152.432504 
L 641.262384 152.664509 
L 619.973004 152.664509 
z
M 603.453782 151.601267 
Q 593.245273 151.601267 587.621313 151.690975 
Q 581.997353 151.780684 581.997353 151.943749 
Q 581.997353 152.109466 587.491387 152.197628 
Q 593.003981 152.285569 603.453782 152.285569 
Q 613.717973 152.285569 619.341933 152.19586 
Q 624.965893 152.105931 624.965893 151.943749 
Q 624.965893 151.780684 619.341933 151.690975 
Q 613.717973 151.601267 603.453782 151.601267 
z
" style="fill:#40ba47;"/>
   </g>
   <g id="patch_105">
    <path clip-path="url(#p57c91d8a04)" d="M 558.907563 150.152678 
L 605.217069 150.152678 
Q 625.889299 150.152678 636.933049 150.259267 
Q 648 150.365586 648 150.562344 
Q 648 150.760179 636.933049 150.866499 
Q 625.889299 150.972818 605.217069 150.972818 
L 586.818553 150.972818 
L 586.818553 151.408593 
L 558.907563 151.408593 
z
M 586.818553 150.387388 
L 586.818553 150.738108 
L 602.247321 150.738108 
Q 610.367726 150.738108 614.799147 150.69235 
Q 619.230567 150.646592 619.230567 150.562344 
Q 619.230567 150.478365 614.799147 150.432877 
Q 610.367726 150.387388 602.247321 150.387388 
z
" style="fill:#787800;"/>
   </g>
   <g id="patch_106">
    <path clip-path="url(#p57c91d8a04)" d="M 559.834769 147.640848 
L 647.072794 147.640848 
L 647.072794 148.130724 
L 592.166052 148.130724 
L 592.166052 148.597992 
L 643.820853 148.597992 
L 643.820853 149.087869 
L 592.166052 149.087869 
L 592.166052 150.152678 
L 559.834769 150.152678 
z
" style="fill:#21599c;"/>
   </g>
   <g id="patch_107">
    <path clip-path="url(#p57c91d8a04)" d="M 558.907563 145.129017 
L 648 145.129017 
L 648 145.618894 
L 615.947442 145.618894 
L 615.947442 147.640848 
L 591.022279 147.640848 
L 591.022279 145.618894 
L 558.907563 145.618894 
z
" style="fill:#40ba47;"/>
   </g>
   <g id="patch_108">
    <path clip-path="url(#p57c91d8a04)" d="M 558.907563 142.617187 
L 587.525392 142.617187 
L 623.686565 144.339831 
L 623.686565 142.617187 
L 648 142.617187 
L 648 145.129017 
L 619.360862 145.129017 
L 583.199689 143.406373 
L 583.199689 145.129017 
L 558.907563 145.129017 
z
" style="fill:#40ba47;"/>
   </g>
   <g id="patch_109">
    <path clip-path="url(#p57c91d8a04)" d="M 558.907563 138.849441 
L 574.313019 138.849441 
L 585.082141 141.587637 
L 595.771095 138.849441 
L 611.256718 138.849441 
L 621.945673 141.587637 
L 632.728156 138.849441 
L 648 138.849441 
L 633.302687 142.617187 
L 614.770712 142.617187 
L 603.453782 139.753021 
L 592.270463 142.617187 
L 573.725126 142.617187 
z
" style="fill:#21599c;"/>
   </g>
   <g id="patch_110">
    <path clip-path="url(#p57c91d8a04)" d="M 558.907563 133.82578 
L 591.238846 133.82578 
L 591.238846 137.870764 
L 648 137.870764 
L 648 138.849441 
L 558.907563 138.849441 
z
" style="fill:#21599c;"/>
   </g>
   <g id="patch_111">
    <path clip-path="url(#p57c91d8a04)" d="M 587.28814 128.802119 
L 619.619423 128.802119 
L 619.619423 133.82578 
L 587.28814 133.82578 
z
" style="fill:#21599c;"/>
   </g>
   <g id="patch_112">
    <path clip-path="url(#p57c91d8a04)" d="M 648 128.347592 
Q 639.014882 128.574855 629.350888 128.689006 
Q 619.686895 128.802119 609.383959 128.802119 
Q 586.10252 128.802119 572.505042 128.125517 
Q 558.907563 127.448916 558.907563 126.291845 
Q 558.907563 125.121283 572.744645 124.44987 
Q 586.601693 123.778458 610.701777 123.778458 
Q 619.986399 123.778458 628.49231 123.869778 
Q 637.018189 123.960061 644.565688 124.138551 
L 644.565688 125.139962 
Q 636.778586 124.910623 629.071351 124.797511 
Q 621.364117 124.68336 613.616948 124.68336 
Q 599.280693 124.68336 591.513558 125.100528 
Q 583.746423 125.516659 583.746423 126.291845 
Q 583.746423 127.059767 591.234021 127.47901 
Q 598.721619 127.897216 612.4988 127.897216 
Q 616.252583 127.897216 619.467259 127.873349 
Q 622.681934 127.848443 625.237701 127.796556 
L 625.237701 126.856371 
L 610.562008 126.856371 
L 610.562008 126.018921 
L 648 126.018921 
z
" style="fill:#787800;"/>
   </g>
   <g id="patch_113">
    <path clip-path="url(#p57c91d8a04)" d="M 640.571597 116.60254 
L 640.571597 118.140459 
Q 631.280045 117.872725 622.424034 117.7373 
Q 613.59222 117.60032 605.728276 117.60032 
Q 595.299476 117.60032 590.290749 117.785555 
Q 585.306218 117.969234 585.306218 118.358383 
Q 585.306218 118.651024 588.669567 118.814466 
Q 592.032915 118.976353 600.888926 119.093097 
L 613.277662 119.253427 
Q 632.102735 119.497813 640.039269 119.994368 
Q 648 120.489366 648 121.404646 
Q 648 122.604783 636.917888 123.19162 
Q 625.835776 123.778458 603.066633 123.778458 
Q 592.347473 123.778458 581.531525 123.646147 
Q 570.715577 123.515393 559.89963 123.256997 
L 559.89963 121.67705 
Q 570.715577 122.045964 580.805623 122.234312 
Q 590.895668 122.421104 600.284007 122.421104 
Q 609.817527 122.421104 614.874648 122.21719 
Q 619.931769 122.011719 619.931769 121.631909 
Q 619.931769 121.292571 616.49583 121.107335 
Q 613.059892 120.9221 602.776272 120.77578 
L 591.500587 120.61545 
Q 574.562861 120.381961 566.723114 119.871396 
Q 558.907563 119.360832 558.907563 118.495364 
Q 558.907563 117.410415 569.796101 116.826691 
Q 580.684639 116.242966 601.106697 116.242966 
Q 610.422446 116.242966 620.246327 116.333249 
Q 630.070208 116.423532 640.571597 116.60254 
z
" style="fill:#40ba47;"/>
   </g>
   <g id="patch_114">
    <path clip-path="url(#p57c91d8a04)" d="M 558.907563 106.195644 
L 585.188974 106.195644 
L 603.419449 111.572447 
L 621.770088 106.195644 
L 648 106.195644 
L 648 116.242966 
L 628.482061 116.242966 
L 628.482061 108.893736 
L 610.028426 114.311452 
L 596.930636 114.311452 
L 578.477 108.893736 
L 578.477 116.242966 
L 558.907563 116.242966 
z
" style="fill:#21599c;"/>
   </g>
   <g id="patch_115">
    <path clip-path="url(#p57c91d8a04)" d="M 558.907563 91.124661 
L 580.948424 91.124661 
L 603.481105 102.248636 
L 625.977355 91.124661 
L 648 91.124661 
L 616.523465 106.195644 
L 590.384098 106.195644 
z
" style="fill:#21599c;"/>
   </g>
   <g id="patch_116">
    <path clip-path="url(#p57c91d8a04)" d="M 620.621972 78.541284 
L 586.358453 78.541284 
L 580.948424 91.124661 
L 558.907563 91.124661 
L 590.384098 22.049323 
L 616.523465 22.049323 
L 648 91.124661 
L 625.977355 91.124661 
z
M 591.823129 65.721043 
L 615.10265 65.721043 
L 603.481105 38.244869 
z
" style="fill:#21599c;"/>
   </g>
   <g id="matplotlib.axis_1">
    <g id="xtick_1">
     <g id="line2d_2">
      <defs>
       <path d="M 0 0 
L 0 3.5 
" id="md936f60e4e" style="stroke:#000000;stroke-width:0.8;"/>
      </defs>
      <g>
       <use style="stroke:#000000;stroke-width:0.8;" x="134.546218" xlink:href="#md936f60e4e" y="160.2"/>
      </g>
     </g>
     <g id="text_1">
      <!-- 227 -->
      <defs>
       <path d="M 19.1875 8.296875 
L 53.609375 8.296875 
L 53.609375 0 
L 7.328125 0 
L 7.328125 8.296875 
Q 12.9375 14.109375 22.625 23.890625 
Q 32.328125 33.6875 34.8125 36.53125 
Q 39.546875 41.84375 41.421875 45.53125 
Q 43.3125 49.21875 43.3125 52.78125 
Q 43.3125 58.59375 39.234375 62.25 
Q 35.15625 65.921875 28.609375 65.921875 
Q 23.96875 65.921875 18.8125 64.3125 
Q 13.671875 62.703125 7.8125 59.421875 
L 7.8125 69.390625 
Q 13.765625 71.78125 18.9375 73 
Q 24.125 74.21875 28.421875 74.21875 
Q 39.75 74.21875 46.484375 68.546875 
Q 53.21875 62.890625 53.21875 53.421875 
Q 53.21875 48.921875 51.53125 44.890625 
Q 49.859375 40.875 45.40625 35.40625 
Q 44.1875 33.984375 37.640625 27.21875 
Q 31.109375 20.453125 19.1875 8.296875 
z
" id="DejaVuSans-50"/>
       <path d="M 8.203125 72.90625 
L 55.078125 72.90625 
L 55.078125 68.703125 
L 28.609375 0 
L 18.3125 0 
L 43.21875 64.59375 
L 8.203125 64.59375 
z
" id="DejaVuSans-55"/>
      </defs>
      <g transform="translate(121.184968 177.837813)scale(0.14 -0.14)">
       <use xlink:href="#DejaVuSans-50"/>
       <use x="63.623047" xlink:href="#DejaVuSans-50"/>
       <use x="127.246094" xlink:href="#DejaVuSans-55"/>
      </g>
     </g>
    </g>
    <g id="xtick_2">
     <g id="line2d_3">
      <g>
       <use style="stroke:#000000;stroke-width:0.8;" x="228.327731" xlink:href="#md936f60e4e" y="160.2"/>
      </g>
     </g>
     <g id="text_2">
      <!-- 228 -->
      <defs>
       <path d="M 31.78125 34.625 
Q 24.75 34.625 20.71875 30.859375 
Q 16.703125 27.09375 16.703125 20.515625 
Q 16.703125 13.921875 20.71875 10.15625 
Q 24.75 6.390625 31.78125 6.390625 
Q 38.8125 6.390625 42.859375 10.171875 
Q 46.921875 13.96875 46.921875 20.515625 
Q 46.921875 27.09375 42.890625 30.859375 
Q 38.875 34.625 31.78125 34.625 
z
M 21.921875 38.8125 
Q 15.578125 40.375 12.03125 44.71875 
Q 8.5 49.078125 8.5 55.328125 
Q 8.5 64.0625 14.71875 69.140625 
Q 20.953125 74.21875 31.78125 74.21875 
Q 42.671875 74.21875 48.875 69.140625 
Q 55.078125 64.0625 55.078125 55.328125 
Q 55.078125 49.078125 51.53125 44.71875 
Q 48 40.375 41.703125 38.8125 
Q 48.828125 37.15625 52.796875 32.3125 
Q 56.78125 27.484375 56.78125 20.515625 
Q 56.78125 9.90625 50.3125 4.234375 
Q 43.84375 -1.421875 31.78125 -1.421875 
Q 19.734375 -1.421875 13.25 4.234375 
Q 6.78125 9.90625 6.78125 20.515625 
Q 6.78125 27.484375 10.78125 32.3125 
Q 14.796875 37.15625 21.921875 38.8125 
z
M 18.3125 54.390625 
Q 18.3125 48.734375 21.84375 45.5625 
Q 25.390625 42.390625 31.78125 42.390625 
Q 38.140625 42.390625 41.71875 45.5625 
Q 45.3125 48.734375 45.3125 54.390625 
Q 45.3125 60.0625 41.71875 63.234375 
Q 38.140625 66.40625 31.78125 66.40625 
Q 25.390625 66.40625 21.84375 63.234375 
Q 18.3125 60.0625 18.3125 54.390625 
z
" id="DejaVuSans-56"/>
      </defs>
      <g transform="translate(214.966481 177.837813)scale(0.14 -0.14)">
       <use xlink:href="#DejaVuSans-50"/>
       <use x="63.623047" xlink:href="#DejaVuSans-50"/>
       <use x="127.246094" xlink:href="#DejaVuSans-56"/>
      </g>
     </g>
    </g>
    <g id="xtick_3">
     <g id="line2d_4">
      <g>
       <use style="stroke:#000000;stroke-width:0.8;" x="322.109244" xlink:href="#md936f60e4e" y="160.2"/>
      </g>
     </g>
     <g id="text_3">
      <!-- 229 -->
      <defs>
       <path d="M 10.984375 1.515625 
L 10.984375 10.5 
Q 14.703125 8.734375 18.5 7.8125 
Q 22.3125 6.890625 25.984375 6.890625 
Q 35.75 6.890625 40.890625 13.453125 
Q 46.046875 20.015625 46.78125 33.40625 
Q 43.953125 29.203125 39.59375 26.953125 
Q 35.25 24.703125 29.984375 24.703125 
Q 19.046875 24.703125 12.671875 31.3125 
Q 6.296875 37.9375 6.296875 49.421875 
Q 6.296875 60.640625 12.9375 67.421875 
Q 19.578125 74.21875 30.609375 74.21875 
Q 43.265625 74.21875 49.921875 64.515625 
Q 56.59375 54.828125 56.59375 36.375 
Q 56.59375 19.140625 48.40625 8.859375 
Q 40.234375 -1.421875 26.421875 -1.421875 
Q 22.703125 -1.421875 18.890625 -0.6875 
Q 15.09375 0.046875 10.984375 1.515625 
z
M 30.609375 32.421875 
Q 37.25 32.421875 41.125 36.953125 
Q 45.015625 41.5 45.015625 49.421875 
Q 45.015625 57.28125 41.125 61.84375 
Q 37.25 66.40625 30.609375 66.40625 
Q 23.96875 66.40625 20.09375 61.84375 
Q 16.21875 57.28125 16.21875 49.421875 
Q 16.21875 41.5 20.09375 36.953125 
Q 23.96875 32.421875 30.609375 32.421875 
z
" id="DejaVuSans-57"/>
      </defs>
      <g transform="translate(308.747994 177.837813)scale(0.14 -0.14)">
       <use xlink:href="#DejaVuSans-50"/>
       <use x="63.623047" xlink:href="#DejaVuSans-50"/>
       <use x="127.246094" xlink:href="#DejaVuSans-57"/>
      </g>
     </g>
    </g>
    <g id="xtick_4">
     <g id="line2d_5">
      <g>
       <use style="stroke:#000000;stroke-width:0.8;" x="415.890756" xlink:href="#md936f60e4e" y="160.2"/>
      </g>
     </g>
     <g id="text_4">
      <!-- 230 -->
      <defs>
       <path d="M 40.578125 39.3125 
Q 47.65625 37.796875 51.625 33 
Q 55.609375 28.21875 55.609375 21.1875 
Q 55.609375 10.40625 48.1875 4.484375 
Q 40.765625 -1.421875 27.09375 -1.421875 
Q 22.515625 -1.421875 17.65625 -0.515625 
Q 12.796875 0.390625 7.625 2.203125 
L 7.625 11.71875 
Q 11.71875 9.328125 16.59375 8.109375 
Q 21.484375 6.890625 26.8125 6.890625 
Q 36.078125 6.890625 40.9375 10.546875 
Q 45.796875 14.203125 45.796875 21.1875 
Q 45.796875 27.640625 41.28125 31.265625 
Q 36.765625 34.90625 28.71875 34.90625 
L 20.21875 34.90625 
L 20.21875 43.015625 
L 29.109375 43.015625 
Q 36.375 43.015625 40.234375 45.921875 
Q 44.09375 48.828125 44.09375 54.296875 
Q 44.09375 59.90625 40.109375 62.90625 
Q 36.140625 65.921875 28.71875 65.921875 
Q 24.65625 65.921875 20.015625 65.03125 
Q 15.375 64.15625 9.8125 62.3125 
L 9.8125 71.09375 
Q 15.4375 72.65625 20.34375 73.4375 
Q 25.25 74.21875 29.59375 74.21875 
Q 40.828125 74.21875 47.359375 69.109375 
Q 53.90625 64.015625 53.90625 55.328125 
Q 53.90625 49.265625 50.4375 45.09375 
Q 46.96875 40.921875 40.578125 39.3125 
z
" id="DejaVuSans-51"/>
       <path d="M 31.78125 66.40625 
Q 24.171875 66.40625 20.328125 58.90625 
Q 16.5 51.421875 16.5 36.375 
Q 16.5 21.390625 20.328125 13.890625 
Q 24.171875 6.390625 31.78125 6.390625 
Q 39.453125 6.390625 43.28125 13.890625 
Q 47.125 21.390625 47.125 36.375 
Q 47.125 51.421875 43.28125 58.90625 
Q 39.453125 66.40625 31.78125 66.40625 
z
M 31.78125 74.21875 
Q 44.046875 74.21875 50.515625 64.515625 
Q 56.984375 54.828125 56.984375 36.375 
Q 56.984375 17.96875 50.515625 8.265625 
Q 44.046875 -1.421875 31.78125 -1.421875 
Q 19.53125 -1.421875 13.0625 8.265625 
Q 6.59375 17.96875 6.59375 36.375 
Q 6.59375 54.828125 13.0625 64.515625 
Q 19.53125 74.21875 31.78125 74.21875 
z
" id="DejaVuSans-48"/>
      </defs>
      <g transform="translate(402.529506 177.837813)scale(0.14 -0.14)">
       <use xlink:href="#DejaVuSans-50"/>
       <use x="63.623047" xlink:href="#DejaVuSans-51"/>
       <use x="127.246094" xlink:href="#DejaVuSans-48"/>
      </g>
     </g>
    </g>
    <g id="xtick_5">
     <g id="line2d_6">
      <g>
       <use style="stroke:#000000;stroke-width:0.8;" x="509.672269" xlink:href="#md936f60e4e" y="160.2"/>
      </g>
     </g>
     <g id="text_5">
      <!-- 231 -->
      <defs>
       <path d="M 12.40625 8.296875 
L 28.515625 8.296875 
L 28.515625 63.921875 
L 10.984375 60.40625 
L 10.984375 69.390625 
L 28.421875 72.90625 
L 38.28125 72.90625 
L 38.28125 8.296875 
L 54.390625 8.296875 
L 54.390625 0 
L 12.40625 0 
z
" id="DejaVuSans-49"/>
      </defs>
      <g transform="translate(496.311019 177.837813)scale(0.14 -0.14)">
       <use xlink:href="#DejaVuSans-50"/>
       <use x="63.623047" xlink:href="#DejaVuSans-51"/>
       <use x="127.246094" xlink:href="#DejaVuSans-49"/>
      </g>
     </g>
    </g>
    <g id="xtick_6">
     <g id="line2d_7">
      <g>
       <use style="stroke:#000000;stroke-width:0.8;" x="603.453782" xlink:href="#md936f60e4e" y="160.2"/>
      </g>
     </g>
     <g id="text_6">
      <!-- 232 -->
      <g transform="translate(590.092532 177.837813)scale(0.14 -0.14)">
       <use xlink:href="#DejaVuSans-50"/>
       <use x="63.623047" xlink:href="#DejaVuSans-51"/>
       <use x="127.246094" xlink:href="#DejaVuSans-50"/>
      </g>
     </g>
    </g>
    <g id="text_7">
     <!-- Sequence Position -->
     <defs>
      <path d="M 53.515625 70.515625 
L 53.515625 60.890625 
Q 47.90625 63.578125 42.921875 64.890625 
Q 37.9375 66.21875 33.296875 66.21875 
Q 25.25 66.21875 20.875 63.09375 
Q 16.5 59.96875 16.5 54.203125 
Q 16.5 49.359375 19.40625 46.890625 
Q 22.3125 44.4375 30.421875 42.921875 
L 36.375 41.703125 
Q 47.40625 39.59375 52.65625 34.296875 
Q 57.90625 29 57.90625 20.125 
Q 57.90625 9.515625 50.796875 4.046875 
Q 43.703125 -1.421875 29.984375 -1.421875 
Q 24.8125 -1.421875 18.96875 -0.25 
Q 13.140625 0.921875 6.890625 3.21875 
L 6.890625 13.375 
Q 12.890625 10.015625 18.65625 8.296875 
Q 24.421875 6.59375 29.984375 6.59375 
Q 38.421875 6.59375 43.015625 9.90625 
Q 47.609375 13.234375 47.609375 19.390625 
Q 47.609375 24.75 44.3125 27.78125 
Q 41.015625 30.8125 33.5 32.328125 
L 27.484375 33.5 
Q 16.453125 35.6875 11.515625 40.375 
Q 6.59375 45.0625 6.59375 53.421875 
Q 6.59375 63.09375 13.40625 68.65625 
Q 20.21875 74.21875 32.171875 74.21875 
Q 37.3125 74.21875 42.625 73.28125 
Q 47.953125 72.359375 53.515625 70.515625 
z
" id="DejaVuSans-83"/>
      <path d="M 56.203125 29.59375 
L 56.203125 25.203125 
L 14.890625 25.203125 
Q 15.484375 15.921875 20.484375 11.0625 
Q 25.484375 6.203125 34.421875 6.203125 
Q 39.59375 6.203125 44.453125 7.46875 
Q 49.3125 8.734375 54.109375 11.28125 
L 54.109375 2.78125 
Q 49.265625 0.734375 44.1875 -0.34375 
Q 39.109375 -1.421875 33.890625 -1.421875 
Q 20.796875 -1.421875 13.15625 6.1875 
Q 5.515625 13.8125 5.515625 26.8125 
Q 5.515625 40.234375 12.765625 48.109375 
Q 20.015625 56 32.328125 56 
Q 43.359375 56 49.78125 48.890625 
Q 56.203125 41.796875 56.203125 29.59375 
z
M 47.21875 32.234375 
Q 47.125 39.59375 43.09375 43.984375 
Q 39.0625 48.390625 32.421875 48.390625 
Q 24.90625 48.390625 20.390625 44.140625 
Q 15.875 39.890625 15.1875 32.171875 
z
" id="DejaVuSans-101"/>
      <path d="M 14.796875 27.296875 
Q 14.796875 17.390625 18.875 11.75 
Q 22.953125 6.109375 30.078125 6.109375 
Q 37.203125 6.109375 41.296875 11.75 
Q 45.40625 17.390625 45.40625 27.296875 
Q 45.40625 37.203125 41.296875 42.84375 
Q 37.203125 48.484375 30.078125 48.484375 
Q 22.953125 48.484375 18.875 42.84375 
Q 14.796875 37.203125 14.796875 27.296875 
z
M 45.40625 8.203125 
Q 42.578125 3.328125 38.25 0.953125 
Q 33.9375 -1.421875 27.875 -1.421875 
Q 17.96875 -1.421875 11.734375 6.484375 
Q 5.515625 14.40625 5.515625 27.296875 
Q 5.515625 40.1875 11.734375 48.09375 
Q 17.96875 56 27.875 56 
Q 33.9375 56 38.25 53.625 
Q 42.578125 51.265625 45.40625 46.390625 
L 45.40625 54.6875 
L 54.390625 54.6875 
L 54.390625 -20.796875 
L 45.40625 -20.796875 
z
" id="DejaVuSans-113"/>
      <path d="M 8.5 21.578125 
L 8.5 54.6875 
L 17.484375 54.6875 
L 17.484375 21.921875 
Q 17.484375 14.15625 20.5 10.265625 
Q 23.53125 6.390625 29.59375 6.390625 
Q 36.859375 6.390625 41.078125 11.03125 
Q 45.3125 15.671875 45.3125 23.6875 
L 45.3125 54.6875 
L 54.296875 54.6875 
L 54.296875 0 
L 45.3125 0 
L 45.3125 8.40625 
Q 42.046875 3.421875 37.71875 1 
Q 33.40625 -1.421875 27.6875 -1.421875 
Q 18.265625 -1.421875 13.375 4.4375 
Q 8.5 10.296875 8.5 21.578125 
z
M 31.109375 56 
z
" id="DejaVuSans-117"/>
      <path d="M 54.890625 33.015625 
L 54.890625 0 
L 45.90625 0 
L 45.90625 32.71875 
Q 45.90625 40.484375 42.875 44.328125 
Q 39.84375 48.1875 33.796875 48.1875 
Q 26.515625 48.1875 22.3125 43.546875 
Q 18.109375 38.921875 18.109375 30.90625 
L 18.109375 0 
L 9.078125 0 
L 9.078125 54.6875 
L 18.109375 54.6875 
L 18.109375 46.1875 
Q 21.34375 51.125 25.703125 53.5625 
Q 30.078125 56 35.796875 56 
Q 45.21875 56 50.046875 50.171875 
Q 54.890625 44.34375 54.890625 33.015625 
z
" id="DejaVuSans-110"/>
      <path d="M 48.78125 52.59375 
L 48.78125 44.1875 
Q 44.96875 46.296875 41.140625 47.34375 
Q 37.3125 48.390625 33.40625 48.390625 
Q 24.65625 48.390625 19.8125 42.84375 
Q 14.984375 37.3125 14.984375 27.296875 
Q 14.984375 17.28125 19.8125 11.734375 
Q 24.65625 6.203125 33.40625 6.203125 
Q 37.3125 6.203125 41.140625 7.25 
Q 44.96875 8.296875 48.78125 10.40625 
L 48.78125 2.09375 
Q 45.015625 0.34375 40.984375 -0.53125 
Q 36.96875 -1.421875 32.421875 -1.421875 
Q 20.0625 -1.421875 12.78125 6.34375 
Q 5.515625 14.109375 5.515625 27.296875 
Q 5.515625 40.671875 12.859375 48.328125 
Q 20.21875 56 33.015625 56 
Q 37.15625 56 41.109375 55.140625 
Q 45.0625 54.296875 48.78125 52.59375 
z
" id="DejaVuSans-99"/>
      <path id="DejaVuSans-32"/>
      <path d="M 19.671875 64.796875 
L 19.671875 37.40625 
L 32.078125 37.40625 
Q 38.96875 37.40625 42.71875 40.96875 
Q 46.484375 44.53125 46.484375 51.125 
Q 46.484375 57.671875 42.71875 61.234375 
Q 38.96875 64.796875 32.078125 64.796875 
z
M 9.8125 72.90625 
L 32.078125 72.90625 
Q 44.34375 72.90625 50.609375 67.359375 
Q 56.890625 61.8125 56.890625 51.125 
Q 56.890625 40.328125 50.609375 34.8125 
Q 44.34375 29.296875 32.078125 29.296875 
L 19.671875 29.296875 
L 19.671875 0 
L 9.8125 0 
z
" id="DejaVuSans-80"/>
      <path d="M 30.609375 48.390625 
Q 23.390625 48.390625 19.1875 42.75 
Q 14.984375 37.109375 14.984375 27.296875 
Q 14.984375 17.484375 19.15625 11.84375 
Q 23.34375 6.203125 30.609375 6.203125 
Q 37.796875 6.203125 41.984375 11.859375 
Q 46.1875 17.53125 46.1875 27.296875 
Q 46.1875 37.015625 41.984375 42.703125 
Q 37.796875 48.390625 30.609375 48.390625 
z
M 30.609375 56 
Q 42.328125 56 49.015625 48.375 
Q 55.71875 40.765625 55.71875 27.296875 
Q 55.71875 13.875 49.015625 6.21875 
Q 42.328125 -1.421875 30.609375 -1.421875 
Q 18.84375 -1.421875 12.171875 6.21875 
Q 5.515625 13.875 5.515625 27.296875 
Q 5.515625 40.765625 12.171875 48.375 
Q 18.84375 56 30.609375 56 
z
" id="DejaVuSans-111"/>
      <path d="M 44.28125 53.078125 
L 44.28125 44.578125 
Q 40.484375 46.53125 36.375 47.5 
Q 32.28125 48.484375 27.875 48.484375 
Q 21.1875 48.484375 17.84375 46.4375 
Q 14.5 44.390625 14.5 40.28125 
Q 14.5 37.15625 16.890625 35.375 
Q 19.28125 33.59375 26.515625 31.984375 
L 29.59375 31.296875 
Q 39.15625 29.25 43.1875 25.515625 
Q 47.21875 21.78125 47.21875 15.09375 
Q 47.21875 7.46875 41.1875 3.015625 
Q 35.15625 -1.421875 24.609375 -1.421875 
Q 20.21875 -1.421875 15.453125 -0.5625 
Q 10.6875 0.296875 5.421875 2 
L 5.421875 11.28125 
Q 10.40625 8.6875 15.234375 7.390625 
Q 20.0625 6.109375 24.8125 6.109375 
Q 31.15625 6.109375 34.5625 8.28125 
Q 37.984375 10.453125 37.984375 14.40625 
Q 37.984375 18.0625 35.515625 20.015625 
Q 33.0625 21.96875 24.703125 23.78125 
L 21.578125 24.515625 
Q 13.234375 26.265625 9.515625 29.90625 
Q 5.8125 33.546875 5.8125 39.890625 
Q 5.8125 47.609375 11.28125 51.796875 
Q 16.75 56 26.8125 56 
Q 31.78125 56 36.171875 55.265625 
Q 40.578125 54.546875 44.28125 53.078125 
z
" id="DejaVuSans-115"/>
      <path d="M 9.421875 54.6875 
L 18.40625 54.6875 
L 18.40625 0 
L 9.421875 0 
z
M 9.421875 75.984375 
L 18.40625 75.984375 
L 18.40625 64.59375 
L 9.421875 64.59375 
z
" id="DejaVuSans-105"/>
      <path d="M 18.3125 70.21875 
L 18.3125 54.6875 
L 36.8125 54.6875 
L 36.8125 47.703125 
L 18.3125 47.703125 
L 18.3125 18.015625 
Q 18.3125 11.328125 20.140625 9.421875 
Q 21.96875 7.515625 27.59375 7.515625 
L 36.8125 7.515625 
L 36.8125 0 
L 27.59375 0 
Q 17.1875 0 13.234375 3.875 
Q 9.28125 7.765625 9.28125 18.015625 
L 9.28125 47.703125 
L 2.6875 47.703125 
L 2.6875 54.6875 
L 9.28125 54.6875 
L 9.28125 70.21875 
z
" id="DejaVuSans-116"/>
     </defs>
     <g transform="translate(304.994844 195.387188)scale(0.14 -0.14)">
      <use xlink:href="#DejaVuSans-83"/>
      <use x="63.476562" xlink:href="#DejaVuSans-101"/>
      <use x="125" xlink:href="#DejaVuSans-113"/>
      <use x="188.476562" xlink:href="#DejaVuSans-117"/>
      <use x="251.855469" xlink:href="#DejaVuSans-101"/>
      <use x="313.378906" xlink:href="#DejaVuSans-110"/>
      <use x="376.757812" xlink:href="#DejaVuSans-99"/>
      <use x="431.738281" xlink:href="#DejaVuSans-101"/>
      <use x="493.261719" xlink:href="#DejaVuSans-32"/>
      <use x="525.048828" xlink:href="#DejaVuSans-80"/>
      <use x="581.726562" xlink:href="#DejaVuSans-111"/>
      <use x="642.908203" xlink:href="#DejaVuSans-115"/>
      <use x="695.007812" xlink:href="#DejaVuSans-105"/>
      <use x="722.791016" xlink:href="#DejaVuSans-116"/>
      <use x="762" xlink:href="#DejaVuSans-105"/>
      <use x="789.783203" xlink:href="#DejaVuSans-111"/>
      <use x="850.964844" xlink:href="#DejaVuSans-110"/>
     </g>
    </g>
   </g>
   <g id="matplotlib.axis_2">
    <g id="ytick_1">
     <g id="line2d_8">
      <defs>
       <path d="M 0 0 
L -3.5 0 
" id="m644b1352fe" style="stroke:#000000;stroke-width:0.8;"/>
      </defs>
      <g>
       <use style="stroke:#000000;stroke-width:0.8;" x="90" xlink:href="#m644b1352fe" y="160.2"/>
      </g>
     </g>
     <g id="text_8">
      <!-- 0.0 -->
      <defs>
       <path d="M 10.6875 12.40625 
L 21 12.40625 
L 21 0 
L 10.6875 0 
z
" id="DejaVuSans-46"/>
      </defs>
      <g transform="translate(60.735625 165.518906)scale(0.14 -0.14)">
       <use xlink:href="#DejaVuSans-48"/>
       <use x="63.623047" xlink:href="#DejaVuSans-46"/>
       <use x="95.410156" xlink:href="#DejaVuSans-48"/>
      </g>
     </g>
    </g>
    <g id="ytick_2">
     <g id="line2d_9">
      <g>
       <use style="stroke:#000000;stroke-width:0.8;" x="90" xlink:href="#m644b1352fe" y="111.6739"/>
      </g>
     </g>
     <g id="text_9">
      <!-- 0.5 -->
      <defs>
       <path d="M 10.796875 72.90625 
L 49.515625 72.90625 
L 49.515625 64.59375 
L 19.828125 64.59375 
L 19.828125 46.734375 
Q 21.96875 47.46875 24.109375 47.828125 
Q 26.265625 48.1875 28.421875 48.1875 
Q 40.625 48.1875 47.75 41.5 
Q 54.890625 34.8125 54.890625 23.390625 
Q 54.890625 11.625 47.5625 5.09375 
Q 40.234375 -1.421875 26.90625 -1.421875 
Q 22.3125 -1.421875 17.546875 -0.640625 
Q 12.796875 0.140625 7.71875 1.703125 
L 7.71875 11.625 
Q 12.109375 9.234375 16.796875 8.0625 
Q 21.484375 6.890625 26.703125 6.890625 
Q 35.15625 6.890625 40.078125 11.328125 
Q 45.015625 15.765625 45.015625 23.390625 
Q 45.015625 31 40.078125 35.4375 
Q 35.15625 39.890625 26.703125 39.890625 
Q 22.75 39.890625 18.8125 39.015625 
Q 14.890625 38.140625 10.796875 36.28125 
z
" id="DejaVuSans-53"/>
      </defs>
      <g transform="translate(60.735625 116.992807)scale(0.14 -0.14)">
       <use xlink:href="#DejaVuSans-48"/>
       <use x="63.623047" xlink:href="#DejaVuSans-46"/>
       <use x="95.410156" xlink:href="#DejaVuSans-53"/>
      </g>
     </g>
    </g>
    <g id="ytick_3">
     <g id="line2d_10">
      <g>
       <use style="stroke:#000000;stroke-width:0.8;" x="90" xlink:href="#m644b1352fe" y="63.147801"/>
      </g>
     </g>
     <g id="text_10">
      <!-- 1.0 -->
      <g transform="translate(60.735625 68.466707)scale(0.14 -0.14)">
       <use xlink:href="#DejaVuSans-49"/>
       <use x="63.623047" xlink:href="#DejaVuSans-46"/>
       <use x="95.410156" xlink:href="#DejaVuSans-48"/>
      </g>
     </g>
    </g>
    <g id="text_11">
     <!-- Information (Bits) -->
     <defs>
      <path d="M 9.8125 72.90625 
L 19.671875 72.90625 
L 19.671875 0 
L 9.8125 0 
z
" id="DejaVuSans-73"/>
      <path d="M 37.109375 75.984375 
L 37.109375 68.5 
L 28.515625 68.5 
Q 23.6875 68.5 21.796875 66.546875 
Q 19.921875 64.59375 19.921875 59.515625 
L 19.921875 54.6875 
L 34.71875 54.6875 
L 34.71875 47.703125 
L 19.921875 47.703125 
L 19.921875 0 
L 10.890625 0 
L 10.890625 47.703125 
L 2.296875 47.703125 
L 2.296875 54.6875 
L 10.890625 54.6875 
L 10.890625 58.5 
Q 10.890625 67.625 15.140625 71.796875 
Q 19.390625 75.984375 28.609375 75.984375 
z
" id="DejaVuSans-102"/>
      <path d="M 41.109375 46.296875 
Q 39.59375 47.171875 37.8125 47.578125 
Q 36.03125 48 33.890625 48 
Q 26.265625 48 22.1875 43.046875 
Q 18.109375 38.09375 18.109375 28.8125 
L 18.109375 0 
L 9.078125 0 
L 9.078125 54.6875 
L 18.109375 54.6875 
L 18.109375 46.1875 
Q 20.953125 51.171875 25.484375 53.578125 
Q 30.03125 56 36.53125 56 
Q 37.453125 56 38.578125 55.875 
Q 39.703125 55.765625 41.0625 55.515625 
z
" id="DejaVuSans-114"/>
      <path d="M 52 44.1875 
Q 55.375 50.25 60.0625 53.125 
Q 64.75 56 71.09375 56 
Q 79.640625 56 84.28125 50.015625 
Q 88.921875 44.046875 88.921875 33.015625 
L 88.921875 0 
L 79.890625 0 
L 79.890625 32.71875 
Q 79.890625 40.578125 77.09375 44.375 
Q 74.3125 48.1875 68.609375 48.1875 
Q 61.625 48.1875 57.5625 43.546875 
Q 53.515625 38.921875 53.515625 30.90625 
L 53.515625 0 
L 44.484375 0 
L 44.484375 32.71875 
Q 44.484375 40.625 41.703125 44.40625 
Q 38.921875 48.1875 33.109375 48.1875 
Q 26.21875 48.1875 22.15625 43.53125 
Q 18.109375 38.875 18.109375 30.90625 
L 18.109375 0 
L 9.078125 0 
L 9.078125 54.6875 
L 18.109375 54.6875 
L 18.109375 46.1875 
Q 21.1875 51.21875 25.484375 53.609375 
Q 29.78125 56 35.6875 56 
Q 41.65625 56 45.828125 52.96875 
Q 50 49.953125 52 44.1875 
z
" id="DejaVuSans-109"/>
      <path d="M 34.28125 27.484375 
Q 23.390625 27.484375 19.1875 25 
Q 14.984375 22.515625 14.984375 16.5 
Q 14.984375 11.71875 18.140625 8.90625 
Q 21.296875 6.109375 26.703125 6.109375 
Q 34.1875 6.109375 38.703125 11.40625 
Q 43.21875 16.703125 43.21875 25.484375 
L 43.21875 27.484375 
z
M 52.203125 31.203125 
L 52.203125 0 
L 43.21875 0 
L 43.21875 8.296875 
Q 40.140625 3.328125 35.546875 0.953125 
Q 30.953125 -1.421875 24.3125 -1.421875 
Q 15.921875 -1.421875 10.953125 3.296875 
Q 6 8.015625 6 15.921875 
Q 6 25.140625 12.171875 29.828125 
Q 18.359375 34.515625 30.609375 34.515625 
L 43.21875 34.515625 
L 43.21875 35.40625 
Q 43.21875 41.609375 39.140625 45 
Q 35.0625 48.390625 27.6875 48.390625 
Q 23 48.390625 18.546875 47.265625 
Q 14.109375 46.140625 10.015625 43.890625 
L 10.015625 52.203125 
Q 14.9375 54.109375 19.578125 55.046875 
Q 24.21875 56 28.609375 56 
Q 40.484375 56 46.34375 49.84375 
Q 52.203125 43.703125 52.203125 31.203125 
z
" id="DejaVuSans-97"/>
      <path d="M 31 75.875 
Q 24.46875 64.65625 21.28125 53.65625 
Q 18.109375 42.671875 18.109375 31.390625 
Q 18.109375 20.125 21.3125 9.0625 
Q 24.515625 -2 31 -13.1875 
L 23.1875 -13.1875 
Q 15.875 -1.703125 12.234375 9.375 
Q 8.59375 20.453125 8.59375 31.390625 
Q 8.59375 42.28125 12.203125 53.3125 
Q 15.828125 64.359375 23.1875 75.875 
z
" id="DejaVuSans-40"/>
      <path d="M 19.671875 34.8125 
L 19.671875 8.109375 
L 35.5 8.109375 
Q 43.453125 8.109375 47.28125 11.40625 
Q 51.125 14.703125 51.125 21.484375 
Q 51.125 28.328125 47.28125 31.5625 
Q 43.453125 34.8125 35.5 34.8125 
z
M 19.671875 64.796875 
L 19.671875 42.828125 
L 34.28125 42.828125 
Q 41.5 42.828125 45.03125 45.53125 
Q 48.578125 48.25 48.578125 53.8125 
Q 48.578125 59.328125 45.03125 62.0625 
Q 41.5 64.796875 34.28125 64.796875 
z
M 9.8125 72.90625 
L 35.015625 72.90625 
Q 46.296875 72.90625 52.390625 68.21875 
Q 58.5 63.53125 58.5 54.890625 
Q 58.5 48.1875 55.375 44.234375 
Q 52.25 40.28125 46.1875 39.3125 
Q 53.46875 37.75 57.5 32.78125 
Q 61.53125 27.828125 61.53125 20.40625 
Q 61.53125 10.640625 54.890625 5.3125 
Q 48.25 0 35.984375 0 
L 9.8125 0 
z
" id="DejaVuSans-66"/>
      <path d="M 8.015625 75.875 
L 15.828125 75.875 
Q 23.140625 64.359375 26.78125 53.3125 
Q 30.421875 42.28125 30.421875 31.390625 
Q 30.421875 20.453125 26.78125 9.375 
Q 23.140625 -1.703125 15.828125 -13.1875 
L 8.015625 -13.1875 
Q 14.5 -2 17.703125 9.0625 
Q 20.90625 20.125 20.90625 31.390625 
Q 20.90625 42.671875 17.703125 53.65625 
Q 14.5 64.65625 8.015625 75.875 
z
" id="DejaVuSans-41"/>
     </defs>
     <g transform="translate(53.824062 152.245156)rotate(-90)scale(0.14 -0.14)">
      <use xlink:href="#DejaVuSans-73"/>
      <use x="29.492188" xlink:href="#DejaVuSans-110"/>
      <use x="92.871094" xlink:href="#DejaVuSans-102"/>
      <use x="128.076172" xlink:href="#DejaVuSans-111"/>
      <use x="189.257812" xlink:href="#DejaVuSans-114"/>
      <use x="228.621094" xlink:href="#DejaVuSans-109"/>
      <use x="326.033203" xlink:href="#DejaVuSans-97"/>
      <use x="387.3125" xlink:href="#DejaVuSans-116"/>
      <use x="426.521484" xlink:href="#DejaVuSans-105"/>
      <use x="454.304688" xlink:href="#DejaVuSans-111"/>
      <use x="515.486328" xlink:href="#DejaVuSans-110"/>
      <use x="578.865234" xlink:href="#DejaVuSans-32"/>
      <use x="610.652344" xlink:href="#DejaVuSans-40"/>
      <use x="649.666016" xlink:href="#DejaVuSans-66"/>
      <use x="718.269531" xlink:href="#DejaVuSans-105"/>
      <use x="746.052734" xlink:href="#DejaVuSans-116"/>
      <use x="785.261719" xlink:href="#DejaVuSans-115"/>
      <use x="837.361328" xlink:href="#DejaVuSans-41"/>
     </g>
    </g>
   </g>
   <g id="patch_117">
    <path d="M 90 160.2 
L 90 21.6 
" style="fill:none;stroke:#000000;stroke-linecap:square;stroke-linejoin:miter;stroke-width:0.8;"/>
   </g>
   <g id="patch_118">
    <path d="M 648 160.2 
L 648 21.6 
" style="fill:none;stroke:#000000;stroke-linecap:square;stroke-linejoin:miter;stroke-width:0.8;"/>
   </g>
   <g id="patch_119">
    <path d="M 90 160.2 
L 648 160.2 
" style="fill:none;stroke:#000000;stroke-linecap:square;stroke-linejoin:miter;stroke-width:0.8;"/>
   </g>
   <g id="patch_120">
    <path d="M 90 21.6 
L 648 21.6 
" style="fill:none;stroke:#000000;stroke-linecap:square;stroke-linejoin:miter;stroke-width:0.8;"/>
   </g>
  </g>
 </g>
 <defs>
  <clipPath id="p57c91d8a04">
   <rect height="138.6" width="558" x="90" y="21.6"/>
  </clipPath>
 </defs>
</svg>
