<?xml version="1.0" encoding="utf-8" standalone="no"?>
<!DOCTYPE svg PUBLIC "-//W3C//DTD SVG 1.1//EN"
  "http://www.w3.org/Graphics/SVG/1.1/DTD/svg11.dtd">
<!-- Created with matplotlib (https://matplotlib.org/) -->
<svg height="345.6pt" version="1.1" viewBox="0 0 460.8 345.6" width="460.8pt" xmlns="http://www.w3.org/2000/svg" xmlns:xlink="http://www.w3.org/1999/xlink">
 <defs>
  <style type="text/css">
*{stroke-linecap:butt;stroke-linejoin:round;}
  </style>
 </defs>
 <g id="figure_1">
  <g id="patch_1">
   <path d="M 0 345.6 
L 460.8 345.6 
L 460.8 0 
L 0 0 
z
" style="fill:#ffffff;"/>
  </g>
  <g id="axes_1">
   <g id="patch_2">
    <path d="M 57.6 307.584 
L 414.72 307.584 
L 414.72 41.472 
L 57.6 41.472 
z
" style="fill:#ffffff;"/>
   </g>
   <g id="patch_3">
    <path clip-path="url(#p936f0300e3)" d="M 61.692167 307.584 
L 72.183351 307.584 
L 72.183351 307.424302 
L 61.692167 307.424302 
z
" style="opacity:0.4;"/>
   </g>
   <g id="patch_4">
    <path clip-path="url(#p936f0300e3)" d="M 72.183351 307.584 
L 82.674535 307.584 
L 82.674535 306.785512 
L 72.183351 306.785512 
z
" style="opacity:0.4;"/>
   </g>
   <g id="patch_5">
    <path clip-path="url(#p936f0300e3)" d="M 82.674535 307.584 
L 93.165719 307.584 
L 93.165719 304.230352 
L 82.674535 304.230352 
z
" style="opacity:0.4;"/>
   </g>
   <g id="patch_6">
    <path clip-path="url(#p936f0300e3)" d="M 93.165719 307.584 
L 103.656904 307.584 
L 103.656904 299.599123 
L 93.165719 299.599123 
z
" style="opacity:0.4;"/>
   </g>
   <g id="patch_7">
    <path clip-path="url(#p936f0300e3)" d="M 103.656904 307.584 
L 114.148088 307.584 
L 114.148088 282.830881 
L 103.656904 282.830881 
z
" style="opacity:0.4;"/>
   </g>
   <g id="patch_8">
    <path clip-path="url(#p936f0300e3)" d="M 114.148088 307.584 
L 124.639272 307.584 
L 124.639272 212.244567 
L 114.148088 212.244567 
z
" style="opacity:0.4;"/>
   </g>
   <g id="patch_9">
    <path clip-path="url(#p936f0300e3)" d="M 124.639272 307.584 
L 135.130456 307.584 
L 135.130456 54.144 
L 124.639272 54.144 
z
" style="opacity:0.4;"/>
   </g>
   <g id="patch_10">
    <path clip-path="url(#p936f0300e3)" d="M 135.130456 307.584 
L 145.621641 307.584 
L 145.621641 160.023471 
L 135.130456 160.023471 
z
" style="opacity:0.4;"/>
   </g>
   <g id="patch_11">
    <path clip-path="url(#p936f0300e3)" d="M 145.621641 307.584 
L 156.112825 307.584 
L 156.112825 224.38158 
L 145.621641 224.38158 
z
" style="opacity:0.4;"/>
   </g>
   <g id="patch_12">
    <path clip-path="url(#p936f0300e3)" d="M 156.112825 307.584 
L 166.604009 307.584 
L 166.604009 258.077762 
L 156.112825 258.077762 
z
" style="opacity:0.4;"/>
   </g>
   <g id="patch_13">
    <path clip-path="url(#p936f0300e3)" d="M 166.604009 307.584 
L 177.095193 307.584 
L 177.095193 275.963887 
L 166.604009 275.963887 
z
" style="opacity:0.4;"/>
   </g>
   <g id="patch_14">
    <path clip-path="url(#p936f0300e3)" d="M 177.095193 307.584 
L 187.586377 307.584 
L 187.586377 285.545739 
L 177.095193 285.545739 
z
" style="opacity:0.4;"/>
   </g>
   <g id="patch_15">
    <path clip-path="url(#p936f0300e3)" d="M 187.586377 307.584 
L 198.077562 307.584 
L 198.077562 292.412733 
L 187.586377 292.412733 
z
" style="opacity:0.4;"/>
   </g>
   <g id="patch_16">
    <path clip-path="url(#p936f0300e3)" d="M 198.077562 307.584 
L 208.568746 307.584 
L 208.568746 299.12003 
L 198.077562 299.12003 
z
" style="opacity:0.4;"/>
   </g>
   <g id="patch_17">
    <path clip-path="url(#p936f0300e3)" d="M 208.568746 307.584 
L 219.05993 307.584 
L 219.05993 301.994586 
L 208.568746 301.994586 
z
" style="opacity:0.4;"/>
   </g>
   <g id="patch_18">
    <path clip-path="url(#p936f0300e3)" d="M 219.05993 307.584 
L 229.551114 307.584 
L 229.551114 303.112469 
L 219.05993 303.112469 
z
" style="opacity:0.4;"/>
   </g>
   <g id="patch_19">
    <path clip-path="url(#p936f0300e3)" d="M 229.551114 307.584 
L 240.042299 307.584 
L 240.042299 303.910957 
L 229.551114 303.910957 
z
" style="opacity:0.4;"/>
   </g>
   <g id="patch_20">
    <path clip-path="url(#p936f0300e3)" d="M 240.042299 307.584 
L 250.533483 307.584 
L 250.533483 305.188537 
L 240.042299 305.188537 
z
" style="opacity:0.4;"/>
   </g>
   <g id="patch_21">
    <path clip-path="url(#p936f0300e3)" d="M 250.533483 307.584 
L 261.024667 307.584 
L 261.024667 305.188537 
L 250.533483 305.188537 
z
" style="opacity:0.4;"/>
   </g>
   <g id="patch_22">
    <path clip-path="url(#p936f0300e3)" d="M 261.024667 307.584 
L 271.515851 307.584 
L 271.515851 305.507932 
L 261.024667 305.507932 
z
" style="opacity:0.4;"/>
   </g>
   <g id="patch_23">
    <path clip-path="url(#p936f0300e3)" d="M 271.515851 307.584 
L 282.007036 307.584 
L 282.007036 306.146722 
L 271.515851 306.146722 
z
" style="opacity:0.4;"/>
   </g>
   <g id="patch_24">
    <path clip-path="url(#p936f0300e3)" d="M 282.007036 307.584 
L 292.49822 307.584 
L 292.49822 306.146722 
L 282.007036 306.146722 
z
" style="opacity:0.4;"/>
   </g>
   <g id="patch_25">
    <path clip-path="url(#p936f0300e3)" d="M 292.49822 307.584 
L 302.989404 307.584 
L 302.989404 306.625815 
L 292.49822 306.625815 
z
" style="opacity:0.4;"/>
   </g>
   <g id="patch_26">
    <path clip-path="url(#p936f0300e3)" d="M 302.989404 307.584 
L 313.480588 307.584 
L 313.480588 306.94521 
L 302.989404 306.94521 
z
" style="opacity:0.4;"/>
   </g>
   <g id="patch_27">
    <path clip-path="url(#p936f0300e3)" d="M 313.480588 307.584 
L 323.971773 307.584 
L 323.971773 306.785512 
L 313.480588 306.785512 
z
" style="opacity:0.4;"/>
   </g>
   <g id="patch_28">
    <path clip-path="url(#p936f0300e3)" d="M 323.971773 307.584 
L 334.462957 307.584 
L 334.462957 307.264605 
L 323.971773 307.264605 
z
" style="opacity:0.4;"/>
   </g>
   <g id="patch_29">
    <path clip-path="url(#p936f0300e3)" d="M 334.462957 307.584 
L 344.954141 307.584 
L 344.954141 306.625815 
L 334.462957 306.625815 
z
" style="opacity:0.4;"/>
   </g>
   <g id="patch_30">
    <path clip-path="url(#p936f0300e3)" d="M 344.954141 307.584 
L 355.445325 307.584 
L 355.445325 307.264605 
L 344.954141 307.264605 
z
" style="opacity:0.4;"/>
   </g>
   <g id="patch_31">
    <path clip-path="url(#p936f0300e3)" d="M 355.445325 307.584 
L 365.936509 307.584 
L 365.936509 307.424302 
L 355.445325 307.424302 
z
" style="opacity:0.4;"/>
   </g>
   <g id="patch_32">
    <path clip-path="url(#p936f0300e3)" d="M 365.936509 307.584 
L 376.427694 307.584 
L 376.427694 307.424302 
L 365.936509 307.424302 
z
" style="opacity:0.4;"/>
   </g>
   <g id="patch_33">
    <path clip-path="url(#p936f0300e3)" d="M 376.427694 307.584 
L 386.918878 307.584 
L 386.918878 306.466117 
L 376.427694 306.466117 
z
" style="opacity:0.4;"/>
   </g>
   <g id="patch_34">
    <path clip-path="url(#p936f0300e3)" d="M 386.918878 307.584 
L 397.410062 307.584 
L 397.410062 307.264605 
L 386.918878 307.264605 
z
" style="opacity:0.4;"/>
   </g>
   <g id="patch_35">
    <path clip-path="url(#p936f0300e3)" d="M 397.410062 307.584 
L 407.901246 307.584 
L 407.901246 307.104907 
L 397.410062 307.104907 
z
" style="opacity:0.4;"/>
   </g>
   <g id="patch_36">
    <path clip-path="url(#p936f0300e3)" d="M 407.901246 307.584 
L 418.392431 307.584 
L 418.392431 307.424302 
L 407.901246 307.424302 
z
" style="opacity:0.4;"/>
   </g>
   <g id="patch_37">
    <path clip-path="url(#p936f0300e3)" d="M 418.392431 307.584 
L 428.883615 307.584 
L 428.883615 307.424302 
L 418.392431 307.424302 
z
" style="opacity:0.4;"/>
   </g>
   <g id="patch_38">
    <path clip-path="url(#p936f0300e3)" d="M 428.883615 307.584 
L 439.374799 307.584 
L 439.374799 307.264605 
L 428.883615 307.264605 
z
" style="opacity:0.4;"/>
   </g>
   <g id="patch_39">
    <path clip-path="url(#p936f0300e3)" d="M 439.374799 307.584 
L 449.865983 307.584 
L 449.865983 307.264605 
L 439.374799 307.264605 
z
" style="opacity:0.4;"/>
   </g>
   <g id="patch_40">
    <path clip-path="url(#p936f0300e3)" d="M 449.865983 307.584 
L 460.357168 307.584 
L 460.357168 307.264605 
L 449.865983 307.264605 
z
" style="opacity:0.4;"/>
   </g>
   <g id="patch_41">
    <path clip-path="url(#p936f0300e3)" d="M 460.357168 307.584 
L 470.848352 307.584 
L 470.848352 307.584 
L 460.357168 307.584 
z
" style="opacity:0.4;"/>
   </g>
   <g id="patch_42">
    <path clip-path="url(#p936f0300e3)" d="M 470.848352 307.584 
L 481.339536 307.584 
L 481.339536 307.584 
L 470.848352 307.584 
z
" style="opacity:0.4;"/>
   </g>
   <g id="patch_43">
    <path clip-path="url(#p936f0300e3)" d="M 481.339536 307.584 
L 491.83072 307.584 
L 491.83072 307.424302 
L 481.339536 307.424302 
z
" style="opacity:0.4;"/>
   </g>
   <g id="patch_44">
    <path clip-path="url(#p936f0300e3)" d="M 491.83072 307.584 
L 502.321905 307.584 
L 502.321905 307.424302 
L 491.83072 307.424302 
z
" style="opacity:0.4;"/>
   </g>
   <g id="patch_45">
    <path clip-path="url(#p936f0300e3)" d="M 502.321905 307.584 
L 512.813089 307.584 
L 512.813089 307.424302 
L 502.321905 307.424302 
z
" style="opacity:0.4;"/>
   </g>
   <g id="patch_46">
    <path clip-path="url(#p936f0300e3)" d="M 512.813089 307.584 
L 523.304273 307.584 
L 523.304273 307.584 
L 512.813089 307.584 
z
" style="opacity:0.4;"/>
   </g>
   <g id="patch_47">
    <path clip-path="url(#p936f0300e3)" d="M 523.304273 307.584 
L 533.795457 307.584 
L 533.795457 307.264605 
L 523.304273 307.264605 
z
" style="opacity:0.4;"/>
   </g>
   <g id="patch_48">
    <path clip-path="url(#p936f0300e3)" d="M 533.795457 307.584 
L 544.286641 307.584 
L 544.286641 307.584 
L 533.795457 307.584 
z
" style="opacity:0.4;"/>
   </g>
   <g id="patch_49">
    <path clip-path="url(#p936f0300e3)" d="M 544.286641 307.584 
L 554.777826 307.584 
L 554.777826 307.584 
L 544.286641 307.584 
z
" style="opacity:0.4;"/>
   </g>
   <g id="patch_50">
    <path clip-path="url(#p936f0300e3)" d="M 554.777826 307.584 
L 565.26901 307.584 
L 565.26901 307.584 
L 554.777826 307.584 
z
" style="opacity:0.4;"/>
   </g>
   <g id="patch_51">
    <path clip-path="url(#p936f0300e3)" d="M 565.26901 307.584 
L 575.760194 307.584 
L 575.760194 307.584 
L 565.26901 307.584 
z
" style="opacity:0.4;"/>
   </g>
   <g id="patch_52">
    <path clip-path="url(#p936f0300e3)" d="M 575.760194 307.584 
L 586.251378 307.584 
L 586.251378 307.584 
L 575.760194 307.584 
z
" style="opacity:0.4;"/>
   </g>
   <g id="patch_53">
    <path clip-path="url(#p936f0300e3)" d="M 586.251378 307.584 
L 596.742563 307.584 
L 596.742563 307.584 
L 586.251378 307.584 
z
" style="opacity:0.4;"/>
   </g>
   <g id="patch_54">
    <path clip-path="url(#p936f0300e3)" d="M 596.742563 307.584 
L 607.233747 307.584 
L 607.233747 307.584 
L 596.742563 307.584 
z
" style="opacity:0.4;"/>
   </g>
   <g id="patch_55">
    <path clip-path="url(#p936f0300e3)" d="M 607.233747 307.584 
L 617.724931 307.584 
L 617.724931 307.584 
L 607.233747 307.584 
z
" style="opacity:0.4;"/>
   </g>
   <g id="patch_56">
    <path clip-path="url(#p936f0300e3)" d="M 617.724931 307.584 
L 628.216115 307.584 
L 628.216115 307.584 
L 617.724931 307.584 
z
" style="opacity:0.4;"/>
   </g>
   <g id="patch_57">
    <path clip-path="url(#p936f0300e3)" d="M 628.216115 307.584 
L 638.7073 307.584 
L 638.7073 307.584 
L 628.216115 307.584 
z
" style="opacity:0.4;"/>
   </g>
   <g id="patch_58">
    <path clip-path="url(#p936f0300e3)" d="M 638.7073 307.584 
L 649.198484 307.584 
L 649.198484 307.424302 
L 638.7073 307.424302 
z
" style="opacity:0.4;"/>
   </g>
   <g id="patch_59">
    <path clip-path="url(#p936f0300e3)" d="M 649.198484 307.584 
L 659.689668 307.584 
L 659.689668 307.424302 
L 649.198484 307.424302 
z
" style="opacity:0.4;"/>
   </g>
   <g id="patch_60">
    <path clip-path="url(#p936f0300e3)" d="M 659.689668 307.584 
L 670.180852 307.584 
L 670.180852 307.584 
L 659.689668 307.584 
z
" style="opacity:0.4;"/>
   </g>
   <g id="patch_61">
    <path clip-path="url(#p936f0300e3)" d="M 670.180852 307.584 
L 680.672037 307.584 
L 680.672037 307.584 
L 670.180852 307.584 
z
" style="opacity:0.4;"/>
   </g>
   <g id="patch_62">
    <path clip-path="url(#p936f0300e3)" d="M 680.672037 307.584 
L 691.163221 307.584 
L 691.163221 307.584 
L 680.672037 307.584 
z
" style="opacity:0.4;"/>
   </g>
   <g id="patch_63">
    <path clip-path="url(#p936f0300e3)" d="M 691.163221 307.584 
L 701.654405 307.584 
L 701.654405 307.584 
L 691.163221 307.584 
z
" style="opacity:0.4;"/>
   </g>
   <g id="patch_64">
    <path clip-path="url(#p936f0300e3)" d="M 701.654405 307.584 
L 712.145589 307.584 
L 712.145589 307.584 
L 701.654405 307.584 
z
" style="opacity:0.4;"/>
   </g>
   <g id="patch_65">
    <path clip-path="url(#p936f0300e3)" d="M 712.145589 307.584 
L 722.636773 307.584 
L 722.636773 307.584 
L 712.145589 307.584 
z
" style="opacity:0.4;"/>
   </g>
   <g id="patch_66">
    <path clip-path="url(#p936f0300e3)" d="M 722.636773 307.584 
L 733.127958 307.584 
L 733.127958 307.584 
L 722.636773 307.584 
z
" style="opacity:0.4;"/>
   </g>
   <g id="patch_67">
    <path clip-path="url(#p936f0300e3)" d="M 733.127958 307.584 
L 743.619142 307.584 
L 743.619142 307.584 
L 733.127958 307.584 
z
" style="opacity:0.4;"/>
   </g>
   <g id="patch_68">
    <path clip-path="url(#p936f0300e3)" d="M 743.619142 307.584 
L 754.110326 307.584 
L 754.110326 307.584 
L 743.619142 307.584 
z
" style="opacity:0.4;"/>
   </g>
   <g id="patch_69">
    <path clip-path="url(#p936f0300e3)" d="M 754.110326 307.584 
L 764.60151 307.584 
L 764.60151 307.584 
L 754.110326 307.584 
z
" style="opacity:0.4;"/>
   </g>
   <g id="patch_70">
    <path clip-path="url(#p936f0300e3)" d="M 764.60151 307.584 
L 775.092695 307.584 
L 775.092695 307.584 
L 764.60151 307.584 
z
" style="opacity:0.4;"/>
   </g>
   <g id="patch_71">
    <path clip-path="url(#p936f0300e3)" d="M 775.092695 307.584 
L 785.583879 307.584 
L 785.583879 307.584 
L 775.092695 307.584 
z
" style="opacity:0.4;"/>
   </g>
   <g id="patch_72">
    <path clip-path="url(#p936f0300e3)" d="M 785.583879 307.584 
L 796.075063 307.584 
L 796.075063 307.584 
L 785.583879 307.584 
z
" style="opacity:0.4;"/>
   </g>
   <g id="patch_73">
    <path clip-path="url(#p936f0300e3)" d="M 796.075063 307.584 
L 806.566247 307.584 
L 806.566247 307.424302 
L 796.075063 307.424302 
z
" style="opacity:0.4;"/>
   </g>
   <g id="patch_74">
    <path clip-path="url(#p936f0300e3)" d="M 806.566247 307.584 
L 817.057432 307.584 
L 817.057432 307.584 
L 806.566247 307.584 
z
" style="opacity:0.4;"/>
   </g>
   <g id="patch_75">
    <path clip-path="url(#p936f0300e3)" d="M 817.057432 307.584 
L 827.548616 307.584 
L 827.548616 307.584 
L 817.057432 307.584 
z
" style="opacity:0.4;"/>
   </g>
   <g id="patch_76">
    <path clip-path="url(#p936f0300e3)" d="M 827.548616 307.584 
L 838.0398 307.584 
L 838.0398 307.424302 
L 827.548616 307.424302 
z
" style="opacity:0.4;"/>
   </g>
   <g id="patch_77">
    <path clip-path="url(#p936f0300e3)" d="M 838.0398 307.584 
L 848.530984 307.584 
L 848.530984 307.584 
L 838.0398 307.584 
z
" style="opacity:0.4;"/>
   </g>
   <g id="patch_78">
    <path clip-path="url(#p936f0300e3)" d="M 848.530984 307.584 
L 859.022169 307.584 
L 859.022169 307.584 
L 848.530984 307.584 
z
" style="opacity:0.4;"/>
   </g>
   <g id="patch_79">
    <path clip-path="url(#p936f0300e3)" d="M 859.022169 307.584 
L 869.513353 307.584 
L 869.513353 307.584 
L 859.022169 307.584 
z
" style="opacity:0.4;"/>
   </g>
   <g id="patch_80">
    <path clip-path="url(#p936f0300e3)" d="M 869.513353 307.584 
L 880.004537 307.584 
L 880.004537 307.584 
L 869.513353 307.584 
z
" style="opacity:0.4;"/>
   </g>
   <g id="patch_81">
    <path clip-path="url(#p936f0300e3)" d="M 880.004537 307.584 
L 890.495721 307.584 
L 890.495721 307.584 
L 880.004537 307.584 
z
" style="opacity:0.4;"/>
   </g>
   <g id="patch_82">
    <path clip-path="url(#p936f0300e3)" d="M 890.495721 307.584 
L 900.986905 307.584 
L 900.986905 307.584 
L 890.495721 307.584 
z
" style="opacity:0.4;"/>
   </g>
   <g id="patch_83">
    <path clip-path="url(#p936f0300e3)" d="M 900.986905 307.584 
L 911.47809 307.584 
L 911.47809 307.584 
L 900.986905 307.584 
z
" style="opacity:0.4;"/>
   </g>
   <g id="patch_84">
    <path clip-path="url(#p936f0300e3)" d="M 911.47809 307.584 
L 921.969274 307.584 
L 921.969274 307.424302 
L 911.47809 307.424302 
z
" style="opacity:0.4;"/>
   </g>
   <g id="patch_85">
    <path clip-path="url(#p936f0300e3)" d="M 921.969274 307.584 
L 932.460458 307.584 
L 932.460458 307.584 
L 921.969274 307.584 
z
" style="opacity:0.4;"/>
   </g>
   <g id="patch_86">
    <path clip-path="url(#p936f0300e3)" d="M 932.460458 307.584 
L 942.951642 307.584 
L 942.951642 307.584 
L 932.460458 307.584 
z
" style="opacity:0.4;"/>
   </g>
   <g id="patch_87">
    <path clip-path="url(#p936f0300e3)" d="M 942.951642 307.584 
L 953.442827 307.584 
L 953.442827 307.584 
L 942.951642 307.584 
z
" style="opacity:0.4;"/>
   </g>
   <g id="patch_88">
    <path clip-path="url(#p936f0300e3)" d="M 953.442827 307.584 
L 963.934011 307.584 
L 963.934011 307.584 
L 953.442827 307.584 
z
" style="opacity:0.4;"/>
   </g>
   <g id="patch_89">
    <path clip-path="url(#p936f0300e3)" d="M 963.934011 307.584 
L 974.425195 307.584 
L 974.425195 307.584 
L 963.934011 307.584 
z
" style="opacity:0.4;"/>
   </g>
   <g id="patch_90">
    <path clip-path="url(#p936f0300e3)" d="M 974.425195 307.584 
L 984.916379 307.584 
L 984.916379 307.584 
L 974.425195 307.584 
z
" style="opacity:0.4;"/>
   </g>
   <g id="patch_91">
    <path clip-path="url(#p936f0300e3)" d="M 984.916379 307.584 
L 995.407564 307.584 
L 995.407564 307.584 
L 984.916379 307.584 
z
" style="opacity:0.4;"/>
   </g>
   <g id="patch_92">
    <path clip-path="url(#p936f0300e3)" d="M 995.407564 307.584 
L 1005.898748 307.584 
L 1005.898748 307.584 
L 995.407564 307.584 
z
" style="opacity:0.4;"/>
   </g>
   <g id="patch_93">
    <path clip-path="url(#p936f0300e3)" d="M 1005.898748 307.584 
L 1016.389932 307.584 
L 1016.389932 307.584 
L 1005.898748 307.584 
z
" style="opacity:0.4;"/>
   </g>
   <g id="patch_94">
    <path clip-path="url(#p936f0300e3)" d="M 1016.389932 307.584 
L 1026.881116 307.584 
L 1026.881116 307.584 
L 1016.389932 307.584 
z
" style="opacity:0.4;"/>
   </g>
   <g id="patch_95">
    <path clip-path="url(#p936f0300e3)" d="M 1026.881116 307.584 
L 1037.372301 307.584 
L 1037.372301 307.584 
L 1026.881116 307.584 
z
" style="opacity:0.4;"/>
   </g>
   <g id="patch_96">
    <path clip-path="url(#p936f0300e3)" d="M 1037.372301 307.584 
L 1047.863485 307.584 
L 1047.863485 307.584 
L 1037.372301 307.584 
z
" style="opacity:0.4;"/>
   </g>
   <g id="patch_97">
    <path clip-path="url(#p936f0300e3)" d="M 1047.863485 307.584 
L 1058.354669 307.584 
L 1058.354669 307.584 
L 1047.863485 307.584 
z
" style="opacity:0.4;"/>
   </g>
   <g id="patch_98">
    <path clip-path="url(#p936f0300e3)" d="M 1058.354669 307.584 
L 1068.845853 307.584 
L 1068.845853 307.584 
L 1058.354669 307.584 
z
" style="opacity:0.4;"/>
   </g>
   <g id="patch_99">
    <path clip-path="url(#p936f0300e3)" d="M 1068.845853 307.584 
L 1079.337038 307.584 
L 1079.337038 307.584 
L 1068.845853 307.584 
z
" style="opacity:0.4;"/>
   </g>
   <g id="patch_100">
    <path clip-path="url(#p936f0300e3)" d="M 1079.337038 307.584 
L 1089.828222 307.584 
L 1089.828222 307.584 
L 1079.337038 307.584 
z
" style="opacity:0.4;"/>
   </g>
   <g id="patch_101">
    <path clip-path="url(#p936f0300e3)" d="M 1089.828222 307.584 
L 1100.319406 307.584 
L 1100.319406 307.584 
L 1089.828222 307.584 
z
" style="opacity:0.4;"/>
   </g>
   <g id="patch_102">
    <path clip-path="url(#p936f0300e3)" d="M 1100.319406 307.584 
L 1110.81059 307.584 
L 1110.81059 307.424302 
L 1100.319406 307.424302 
z
" style="opacity:0.4;"/>
   </g>
   <g id="matplotlib.axis_1">
    <g id="xtick_1">
     <g id="line2d_1">
      <defs>
       <path d="M 0 0 
L 0 3.5 
" id="m47f30f8568" style="stroke:#000000;stroke-width:0.8;"/>
      </defs>
      <g>
       <use style="stroke:#000000;stroke-width:0.8;" x="57.6" xlink:href="#m47f30f8568" y="307.584"/>
      </g>
     </g>
     <g id="text_1">
      <!-- −5 -->
      <defs>
       <path d="M 10.59375 35.5 
L 73.1875 35.5 
L 73.1875 27.203125 
L 10.59375 27.203125 
z
" id="DejaVuSans-8722"/>
       <path d="M 10.796875 72.90625 
L 49.515625 72.90625 
L 49.515625 64.59375 
L 19.828125 64.59375 
L 19.828125 46.734375 
Q 21.96875 47.46875 24.109375 47.828125 
Q 26.265625 48.1875 28.421875 48.1875 
Q 40.625 48.1875 47.75 41.5 
Q 54.890625 34.8125 54.890625 23.390625 
Q 54.890625 11.625 47.5625 5.09375 
Q 40.234375 -1.421875 26.90625 -1.421875 
Q 22.3125 -1.421875 17.546875 -0.640625 
Q 12.796875 0.140625 7.71875 1.703125 
L 7.71875 11.625 
Q 12.109375 9.234375 16.796875 8.0625 
Q 21.484375 6.890625 26.703125 6.890625 
Q 35.15625 6.890625 40.078125 11.328125 
Q 45.015625 15.765625 45.015625 23.390625 
Q 45.015625 31 40.078125 35.4375 
Q 35.15625 39.890625 26.703125 39.890625 
Q 22.75 39.890625 18.8125 39.015625 
Q 14.890625 38.140625 10.796875 36.28125 
z
" id="DejaVuSans-53"/>
      </defs>
      <g transform="translate(50.228906 322.182437)scale(0.1 -0.1)">
       <use xlink:href="#DejaVuSans-8722"/>
       <use x="83.789062" xlink:href="#DejaVuSans-53"/>
      </g>
     </g>
    </g>
    <g id="xtick_2">
     <g id="line2d_2">
      <g>
       <use style="stroke:#000000;stroke-width:0.8;" x="129.024" xlink:href="#m47f30f8568" y="307.584"/>
      </g>
     </g>
     <g id="text_2">
      <!-- 0 -->
      <defs>
       <path d="M 31.78125 66.40625 
Q 24.171875 66.40625 20.328125 58.90625 
Q 16.5 51.421875 16.5 36.375 
Q 16.5 21.390625 20.328125 13.890625 
Q 24.171875 6.390625 31.78125 6.390625 
Q 39.453125 6.390625 43.28125 13.890625 
Q 47.125 21.390625 47.125 36.375 
Q 47.125 51.421875 43.28125 58.90625 
Q 39.453125 66.40625 31.78125 66.40625 
z
M 31.78125 74.21875 
Q 44.046875 74.21875 50.515625 64.515625 
Q 56.984375 54.828125 56.984375 36.375 
Q 56.984375 17.96875 50.515625 8.265625 
Q 44.046875 -1.421875 31.78125 -1.421875 
Q 19.53125 -1.421875 13.0625 8.265625 
Q 6.59375 17.96875 6.59375 36.375 
Q 6.59375 54.828125 13.0625 64.515625 
Q 19.53125 74.21875 31.78125 74.21875 
z
" id="DejaVuSans-48"/>
      </defs>
      <g transform="translate(125.84275 322.182437)scale(0.1 -0.1)">
       <use xlink:href="#DejaVuSans-48"/>
      </g>
     </g>
    </g>
    <g id="xtick_3">
     <g id="line2d_3">
      <g>
       <use style="stroke:#000000;stroke-width:0.8;" x="200.448" xlink:href="#m47f30f8568" y="307.584"/>
      </g>
     </g>
     <g id="text_3">
      <!-- 5 -->
      <g transform="translate(197.26675 322.182437)scale(0.1 -0.1)">
       <use xlink:href="#DejaVuSans-53"/>
      </g>
     </g>
    </g>
    <g id="xtick_4">
     <g id="line2d_4">
      <g>
       <use style="stroke:#000000;stroke-width:0.8;" x="271.872" xlink:href="#m47f30f8568" y="307.584"/>
      </g>
     </g>
     <g id="text_4">
      <!-- 10 -->
      <defs>
       <path d="M 12.40625 8.296875 
L 28.515625 8.296875 
L 28.515625 63.921875 
L 10.984375 60.40625 
L 10.984375 69.390625 
L 28.421875 72.90625 
L 38.28125 72.90625 
L 38.28125 8.296875 
L 54.390625 8.296875 
L 54.390625 0 
L 12.40625 0 
z
" id="DejaVuSans-49"/>
      </defs>
      <g transform="translate(265.5095 322.182437)scale(0.1 -0.1)">
       <use xlink:href="#DejaVuSans-49"/>
       <use x="63.623047" xlink:href="#DejaVuSans-48"/>
      </g>
     </g>
    </g>
    <g id="xtick_5">
     <g id="line2d_5">
      <g>
       <use style="stroke:#000000;stroke-width:0.8;" x="343.296" xlink:href="#m47f30f8568" y="307.584"/>
      </g>
     </g>
     <g id="text_5">
      <!-- 15 -->
      <g transform="translate(336.9335 322.182437)scale(0.1 -0.1)">
       <use xlink:href="#DejaVuSans-49"/>
       <use x="63.623047" xlink:href="#DejaVuSans-53"/>
      </g>
     </g>
    </g>
    <g id="xtick_6">
     <g id="line2d_6">
      <g>
       <use style="stroke:#000000;stroke-width:0.8;" x="414.72" xlink:href="#m47f30f8568" y="307.584"/>
      </g>
     </g>
     <g id="text_6">
      <!-- 20 -->
      <defs>
       <path d="M 19.1875 8.296875 
L 53.609375 8.296875 
L 53.609375 0 
L 7.328125 0 
L 7.328125 8.296875 
Q 12.9375 14.109375 22.625 23.890625 
Q 32.328125 33.6875 34.8125 36.53125 
Q 39.546875 41.84375 41.421875 45.53125 
Q 43.3125 49.21875 43.3125 52.78125 
Q 43.3125 58.59375 39.234375 62.25 
Q 35.15625 65.921875 28.609375 65.921875 
Q 23.96875 65.921875 18.8125 64.3125 
Q 13.671875 62.703125 7.8125 59.421875 
L 7.8125 69.390625 
Q 13.765625 71.78125 18.9375 73 
Q 24.125 74.21875 28.421875 74.21875 
Q 39.75 74.21875 46.484375 68.546875 
Q 53.21875 62.890625 53.21875 53.421875 
Q 53.21875 48.921875 51.53125 44.890625 
Q 49.859375 40.875 45.40625 35.40625 
Q 44.1875 33.984375 37.640625 27.21875 
Q 31.109375 20.453125 19.1875 8.296875 
z
" id="DejaVuSans-50"/>
      </defs>
      <g transform="translate(408.3575 322.182437)scale(0.1 -0.1)">
       <use xlink:href="#DejaVuSans-50"/>
       <use x="63.623047" xlink:href="#DejaVuSans-48"/>
      </g>
     </g>
    </g>
    <g id="text_7">
     <!-- ddG -->
     <defs>
      <path d="M 45.40625 46.390625 
L 45.40625 75.984375 
L 54.390625 75.984375 
L 54.390625 0 
L 45.40625 0 
L 45.40625 8.203125 
Q 42.578125 3.328125 38.25 0.953125 
Q 33.9375 -1.421875 27.875 -1.421875 
Q 17.96875 -1.421875 11.734375 6.484375 
Q 5.515625 14.40625 5.515625 27.296875 
Q 5.515625 40.1875 11.734375 48.09375 
Q 17.96875 56 27.875 56 
Q 33.9375 56 38.25 53.625 
Q 42.578125 51.265625 45.40625 46.390625 
z
M 14.796875 27.296875 
Q 14.796875 17.390625 18.875 11.75 
Q 22.953125 6.109375 30.078125 6.109375 
Q 37.203125 6.109375 41.296875 11.75 
Q 45.40625 17.390625 45.40625 27.296875 
Q 45.40625 37.203125 41.296875 42.84375 
Q 37.203125 48.484375 30.078125 48.484375 
Q 22.953125 48.484375 18.875 42.84375 
Q 14.796875 37.203125 14.796875 27.296875 
z
" id="DejaVuSans-100"/>
      <path d="M 59.515625 10.40625 
L 59.515625 29.984375 
L 43.40625 29.984375 
L 43.40625 38.09375 
L 69.28125 38.09375 
L 69.28125 6.78125 
Q 63.578125 2.734375 56.6875 0.65625 
Q 49.8125 -1.421875 42 -1.421875 
Q 24.90625 -1.421875 15.25 8.5625 
Q 5.609375 18.5625 5.609375 36.375 
Q 5.609375 54.25 15.25 64.234375 
Q 24.90625 74.21875 42 74.21875 
Q 49.125 74.21875 55.546875 72.453125 
Q 61.96875 70.703125 67.390625 67.28125 
L 67.390625 56.78125 
Q 61.921875 61.421875 55.765625 63.765625 
Q 49.609375 66.109375 42.828125 66.109375 
Q 29.4375 66.109375 22.71875 58.640625 
Q 16.015625 51.171875 16.015625 36.375 
Q 16.015625 21.625 22.71875 14.15625 
Q 29.4375 6.6875 42.828125 6.6875 
Q 48.046875 6.6875 52.140625 7.59375 
Q 56.25 8.5 59.515625 10.40625 
z
" id="DejaVuSans-71"/>
     </defs>
     <g transform="translate(225.937344 335.860562)scale(0.1 -0.1)">
      <use xlink:href="#DejaVuSans-100"/>
      <use x="63.476562" xlink:href="#DejaVuSans-100"/>
      <use x="126.953125" xlink:href="#DejaVuSans-71"/>
     </g>
    </g>
   </g>
   <g id="matplotlib.axis_2">
    <g id="ytick_1">
     <g id="line2d_7">
      <defs>
       <path d="M 0 0 
L -3.5 0 
" id="mdda1a32244" style="stroke:#000000;stroke-width:0.8;"/>
      </defs>
      <g>
       <use style="stroke:#000000;stroke-width:0.8;" x="57.6" xlink:href="#mdda1a32244" y="307.584"/>
      </g>
     </g>
     <g id="text_8">
      <!-- 0.0 -->
      <defs>
       <path d="M 10.6875 12.40625 
L 21 12.40625 
L 21 0 
L 10.6875 0 
z
" id="DejaVuSans-46"/>
      </defs>
      <g transform="translate(34.696875 311.383219)scale(0.1 -0.1)">
       <use xlink:href="#DejaVuSans-48"/>
       <use x="63.623047" xlink:href="#DejaVuSans-46"/>
       <use x="95.410156" xlink:href="#DejaVuSans-48"/>
      </g>
     </g>
    </g>
    <g id="ytick_2">
     <g id="line2d_8">
      <g>
       <use style="stroke:#000000;stroke-width:0.8;" x="57.6" xlink:href="#mdda1a32244" y="250.582688"/>
      </g>
     </g>
     <g id="text_9">
      <!-- 0.1 -->
      <g transform="translate(34.696875 254.381907)scale(0.1 -0.1)">
       <use xlink:href="#DejaVuSans-48"/>
       <use x="63.623047" xlink:href="#DejaVuSans-46"/>
       <use x="95.410156" xlink:href="#DejaVuSans-49"/>
      </g>
     </g>
    </g>
    <g id="ytick_3">
     <g id="line2d_9">
      <g>
       <use style="stroke:#000000;stroke-width:0.8;" x="57.6" xlink:href="#mdda1a32244" y="193.581376"/>
      </g>
     </g>
     <g id="text_10">
      <!-- 0.2 -->
      <g transform="translate(34.696875 197.380595)scale(0.1 -0.1)">
       <use xlink:href="#DejaVuSans-48"/>
       <use x="63.623047" xlink:href="#DejaVuSans-46"/>
       <use x="95.410156" xlink:href="#DejaVuSans-50"/>
      </g>
     </g>
    </g>
    <g id="ytick_4">
     <g id="line2d_10">
      <g>
       <use style="stroke:#000000;stroke-width:0.8;" x="57.6" xlink:href="#mdda1a32244" y="136.580064"/>
      </g>
     </g>
     <g id="text_11">
      <!-- 0.3 -->
      <defs>
       <path d="M 40.578125 39.3125 
Q 47.65625 37.796875 51.625 33 
Q 55.609375 28.21875 55.609375 21.1875 
Q 55.609375 10.40625 48.1875 4.484375 
Q 40.765625 -1.421875 27.09375 -1.421875 
Q 22.515625 -1.421875 17.65625 -0.515625 
Q 12.796875 0.390625 7.625 2.203125 
L 7.625 11.71875 
Q 11.71875 9.328125 16.59375 8.109375 
Q 21.484375 6.890625 26.8125 6.890625 
Q 36.078125 6.890625 40.9375 10.546875 
Q 45.796875 14.203125 45.796875 21.1875 
Q 45.796875 27.640625 41.28125 31.265625 
Q 36.765625 34.90625 28.71875 34.90625 
L 20.21875 34.90625 
L 20.21875 43.015625 
L 29.109375 43.015625 
Q 36.375 43.015625 40.234375 45.921875 
Q 44.09375 48.828125 44.09375 54.296875 
Q 44.09375 59.90625 40.109375 62.90625 
Q 36.140625 65.921875 28.71875 65.921875 
Q 24.65625 65.921875 20.015625 65.03125 
Q 15.375 64.15625 9.8125 62.3125 
L 9.8125 71.09375 
Q 15.4375 72.65625 20.34375 73.4375 
Q 25.25 74.21875 29.59375 74.21875 
Q 40.828125 74.21875 47.359375 69.109375 
Q 53.90625 64.015625 53.90625 55.328125 
Q 53.90625 49.265625 50.4375 45.09375 
Q 46.96875 40.921875 40.578125 39.3125 
z
" id="DejaVuSans-51"/>
      </defs>
      <g transform="translate(34.696875 140.379283)scale(0.1 -0.1)">
       <use xlink:href="#DejaVuSans-48"/>
       <use x="63.623047" xlink:href="#DejaVuSans-46"/>
       <use x="95.410156" xlink:href="#DejaVuSans-51"/>
      </g>
     </g>
    </g>
    <g id="ytick_5">
     <g id="line2d_11">
      <g>
       <use style="stroke:#000000;stroke-width:0.8;" x="57.6" xlink:href="#mdda1a32244" y="79.578752"/>
      </g>
     </g>
     <g id="text_12">
      <!-- 0.4 -->
      <defs>
       <path d="M 37.796875 64.3125 
L 12.890625 25.390625 
L 37.796875 25.390625 
z
M 35.203125 72.90625 
L 47.609375 72.90625 
L 47.609375 25.390625 
L 58.015625 25.390625 
L 58.015625 17.1875 
L 47.609375 17.1875 
L 47.609375 0 
L 37.796875 0 
L 37.796875 17.1875 
L 4.890625 17.1875 
L 4.890625 26.703125 
z
" id="DejaVuSans-52"/>
      </defs>
      <g transform="translate(34.696875 83.377971)scale(0.1 -0.1)">
       <use xlink:href="#DejaVuSans-48"/>
       <use x="63.623047" xlink:href="#DejaVuSans-46"/>
       <use x="95.410156" xlink:href="#DejaVuSans-52"/>
      </g>
     </g>
    </g>
    <g id="text_13">
     <!-- Frequency -->
     <defs>
      <path d="M 9.8125 72.90625 
L 51.703125 72.90625 
L 51.703125 64.59375 
L 19.671875 64.59375 
L 19.671875 43.109375 
L 48.578125 43.109375 
L 48.578125 34.8125 
L 19.671875 34.8125 
L 19.671875 0 
L 9.8125 0 
z
" id="DejaVuSans-70"/>
      <path d="M 41.109375 46.296875 
Q 39.59375 47.171875 37.8125 47.578125 
Q 36.03125 48 33.890625 48 
Q 26.265625 48 22.1875 43.046875 
Q 18.109375 38.09375 18.109375 28.8125 
L 18.109375 0 
L 9.078125 0 
L 9.078125 54.6875 
L 18.109375 54.6875 
L 18.109375 46.1875 
Q 20.953125 51.171875 25.484375 53.578125 
Q 30.03125 56 36.53125 56 
Q 37.453125 56 38.578125 55.875 
Q 39.703125 55.765625 41.0625 55.515625 
z
" id="DejaVuSans-114"/>
      <path d="M 56.203125 29.59375 
L 56.203125 25.203125 
L 14.890625 25.203125 
Q 15.484375 15.921875 20.484375 11.0625 
Q 25.484375 6.203125 34.421875 6.203125 
Q 39.59375 6.203125 44.453125 7.46875 
Q 49.3125 8.734375 54.109375 11.28125 
L 54.109375 2.78125 
Q 49.265625 0.734375 44.1875 -0.34375 
Q 39.109375 -1.421875 33.890625 -1.421875 
Q 20.796875 -1.421875 13.15625 6.1875 
Q 5.515625 13.8125 5.515625 26.8125 
Q 5.515625 40.234375 12.765625 48.109375 
Q 20.015625 56 32.328125 56 
Q 43.359375 56 49.78125 48.890625 
Q 56.203125 41.796875 56.203125 29.59375 
z
M 47.21875 32.234375 
Q 47.125 39.59375 43.09375 43.984375 
Q 39.0625 48.390625 32.421875 48.390625 
Q 24.90625 48.390625 20.390625 44.140625 
Q 15.875 39.890625 15.1875 32.171875 
z
" id="DejaVuSans-101"/>
      <path d="M 14.796875 27.296875 
Q 14.796875 17.390625 18.875 11.75 
Q 22.953125 6.109375 30.078125 6.109375 
Q 37.203125 6.109375 41.296875 11.75 
Q 45.40625 17.390625 45.40625 27.296875 
Q 45.40625 37.203125 41.296875 42.84375 
Q 37.203125 48.484375 30.078125 48.484375 
Q 22.953125 48.484375 18.875 42.84375 
Q 14.796875 37.203125 14.796875 27.296875 
z
M 45.40625 8.203125 
Q 42.578125 3.328125 38.25 0.953125 
Q 33.9375 -1.421875 27.875 -1.421875 
Q 17.96875 -1.421875 11.734375 6.484375 
Q 5.515625 14.40625 5.515625 27.296875 
Q 5.515625 40.1875 11.734375 48.09375 
Q 17.96875 56 27.875 56 
Q 33.9375 56 38.25 53.625 
Q 42.578125 51.265625 45.40625 46.390625 
L 45.40625 54.6875 
L 54.390625 54.6875 
L 54.390625 -20.796875 
L 45.40625 -20.796875 
z
" id="DejaVuSans-113"/>
      <path d="M 8.5 21.578125 
L 8.5 54.6875 
L 17.484375 54.6875 
L 17.484375 21.921875 
Q 17.484375 14.15625 20.5 10.265625 
Q 23.53125 6.390625 29.59375 6.390625 
Q 36.859375 6.390625 41.078125 11.03125 
Q 45.3125 15.671875 45.3125 23.6875 
L 45.3125 54.6875 
L 54.296875 54.6875 
L 54.296875 0 
L 45.3125 0 
L 45.3125 8.40625 
Q 42.046875 3.421875 37.71875 1 
Q 33.40625 -1.421875 27.6875 -1.421875 
Q 18.265625 -1.421875 13.375 4.4375 
Q 8.5 10.296875 8.5 21.578125 
z
M 31.109375 56 
z
" id="DejaVuSans-117"/>
      <path d="M 54.890625 33.015625 
L 54.890625 0 
L 45.90625 0 
L 45.90625 32.71875 
Q 45.90625 40.484375 42.875 44.328125 
Q 39.84375 48.1875 33.796875 48.1875 
Q 26.515625 48.1875 22.3125 43.546875 
Q 18.109375 38.921875 18.109375 30.90625 
L 18.109375 0 
L 9.078125 0 
L 9.078125 54.6875 
L 18.109375 54.6875 
L 18.109375 46.1875 
Q 21.34375 51.125 25.703125 53.5625 
Q 30.078125 56 35.796875 56 
Q 45.21875 56 50.046875 50.171875 
Q 54.890625 44.34375 54.890625 33.015625 
z
" id="DejaVuSans-110"/>
      <path d="M 48.78125 52.59375 
L 48.78125 44.1875 
Q 44.96875 46.296875 41.140625 47.34375 
Q 37.3125 48.390625 33.40625 48.390625 
Q 24.65625 48.390625 19.8125 42.84375 
Q 14.984375 37.3125 14.984375 27.296875 
Q 14.984375 17.28125 19.8125 11.734375 
Q 24.65625 6.203125 33.40625 6.203125 
Q 37.3125 6.203125 41.140625 7.25 
Q 44.96875 8.296875 48.78125 10.40625 
L 48.78125 2.09375 
Q 45.015625 0.34375 40.984375 -0.53125 
Q 36.96875 -1.421875 32.421875 -1.421875 
Q 20.0625 -1.421875 12.78125 6.34375 
Q 5.515625 14.109375 5.515625 27.296875 
Q 5.515625 40.671875 12.859375 48.328125 
Q 20.21875 56 33.015625 56 
Q 37.15625 56 41.109375 55.140625 
Q 45.0625 54.296875 48.78125 52.59375 
z
" id="DejaVuSans-99"/>
      <path d="M 32.171875 -5.078125 
Q 28.375 -14.84375 24.75 -17.8125 
Q 21.140625 -20.796875 15.09375 -20.796875 
L 7.90625 -20.796875 
L 7.90625 -13.28125 
L 13.1875 -13.28125 
Q 16.890625 -13.28125 18.9375 -11.515625 
Q 21 -9.765625 23.484375 -3.21875 
L 25.09375 0.875 
L 2.984375 54.6875 
L 12.5 54.6875 
L 29.59375 11.921875 
L 46.6875 54.6875 
L 56.203125 54.6875 
z
" id="DejaVuSans-121"/>
     </defs>
     <g transform="translate(28.617187 200.357687)rotate(-90)scale(0.1 -0.1)">
      <use xlink:href="#DejaVuSans-70"/>
      <use x="50.269531" xlink:href="#DejaVuSans-114"/>
      <use x="89.132812" xlink:href="#DejaVuSans-101"/>
      <use x="150.65625" xlink:href="#DejaVuSans-113"/>
      <use x="214.132812" xlink:href="#DejaVuSans-117"/>
      <use x="277.511719" xlink:href="#DejaVuSans-101"/>
      <use x="339.035156" xlink:href="#DejaVuSans-110"/>
      <use x="402.414062" xlink:href="#DejaVuSans-99"/>
      <use x="457.394531" xlink:href="#DejaVuSans-121"/>
     </g>
    </g>
   </g>
   <g id="patch_103">
    <path d="M 57.6 307.584 
L 57.6 41.472 
" style="fill:none;stroke:#000000;stroke-linecap:square;stroke-linejoin:miter;stroke-width:0.8;"/>
   </g>
   <g id="patch_104">
    <path d="M 414.72 307.584 
L 414.72 41.472 
" style="fill:none;stroke:#000000;stroke-linecap:square;stroke-linejoin:miter;stroke-width:0.8;"/>
   </g>
   <g id="patch_105">
    <path d="M 57.6 307.584 
L 414.72 307.584 
" style="fill:none;stroke:#000000;stroke-linecap:square;stroke-linejoin:miter;stroke-width:0.8;"/>
   </g>
   <g id="patch_106">
    <path d="M 57.6 41.472 
L 414.72 41.472 
" style="fill:none;stroke:#000000;stroke-linecap:square;stroke-linejoin:miter;stroke-width:0.8;"/>
   </g>
  </g>
 </g>
 <defs>
  <clipPath id="p936f0300e3">
   <rect height="266.112" width="357.12" x="57.6" y="41.472"/>
  </clipPath>
 </defs>
</svg>
