<?xml version="1.0" encoding="utf-8" standalone="no"?>
<!DOCTYPE svg PUBLIC "-//W3C//DTD SVG 1.1//EN"
  "http://www.w3.org/Graphics/SVG/1.1/DTD/svg11.dtd">
<!-- Created with matplotlib (https://matplotlib.org/) -->
<svg height="864pt" version="1.1" viewBox="0 0 576 864" width="576pt" xmlns="http://www.w3.org/2000/svg" xmlns:xlink="http://www.w3.org/1999/xlink">
 <metadata>
  <rdf:RDF xmlns:cc="http://creativecommons.org/ns#" xmlns:dc="http://purl.org/dc/elements/1.1/" xmlns:rdf="http://www.w3.org/1999/02/22-rdf-syntax-ns#">
   <cc:Work>
    <dc:type rdf:resource="http://purl.org/dc/dcmitype/StillImage"/>
    <dc:date>2020-09-04T01:15:15.753273</dc:date>
    <dc:format>image/svg+xml</dc:format>
    <dc:creator>
     <cc:Agent>
      <dc:title>Matplotlib v3.3.1, https://matplotlib.org/</dc:title>
     </cc:Agent>
    </dc:creator>
   </cc:Work>
  </rdf:RDF>
 </metadata>
 <defs>
  <style type="text/css">*{stroke-linecap:butt;stroke-linejoin:round;}</style>
 </defs>
 <g id="figure_1">
  <g id="patch_1">
   <path d="M 0 864 
L 576 864 
L 576 0 
L 0 0 
z
" style="fill:#ffffff;"/>
  </g>
  <g id="axes_1">
   <g id="patch_2">
    <path d="M 72 248.306087 
L 518.4 248.306087 
L 518.4 103.68 
L 72 103.68 
z
" style="fill:#ffffff;"/>
   </g>
   <g id="matplotlib.axis_1">
    <g id="xtick_1">
     <g id="line2d_1">
      <defs>
       <path d="M 0 0 
L 0 3.5 
" id="m8ab987d816" style="stroke:#000000;stroke-width:0.8;"/>
      </defs>
      <g>
       <use style="stroke:#000000;stroke-width:0.8;" x="90.613974" xlink:href="#m8ab987d816" y="248.306087"/>
      </g>
     </g>
     <g id="text_1">
      <!-- 0 -->
      <g transform="translate(87.432724 262.904524)scale(0.1 -0.1)">
       <defs>
        <path d="M 31.78125 66.40625 
Q 24.171875 66.40625 20.328125 58.90625 
Q 16.5 51.421875 16.5 36.375 
Q 16.5 21.390625 20.328125 13.890625 
Q 24.171875 6.390625 31.78125 6.390625 
Q 39.453125 6.390625 43.28125 13.890625 
Q 47.125 21.390625 47.125 36.375 
Q 47.125 51.421875 43.28125 58.90625 
Q 39.453125 66.40625 31.78125 66.40625 
z
M 31.78125 74.21875 
Q 44.046875 74.21875 50.515625 64.515625 
Q 56.984375 54.828125 56.984375 36.375 
Q 56.984375 17.96875 50.515625 8.265625 
Q 44.046875 -1.421875 31.78125 -1.421875 
Q 19.53125 -1.421875 13.0625 8.265625 
Q 6.59375 17.96875 6.59375 36.375 
Q 6.59375 54.828125 13.0625 64.515625 
Q 19.53125 74.21875 31.78125 74.21875 
z
" id="DejaVuSans-48"/>
       </defs>
       <use xlink:href="#DejaVuSans-48"/>
      </g>
     </g>
    </g>
    <g id="xtick_2">
     <g id="line2d_2">
      <g>
       <use style="stroke:#000000;stroke-width:0.8;" x="174.460706" xlink:href="#m8ab987d816" y="248.306087"/>
      </g>
     </g>
     <g id="text_2">
      <!-- 50 -->
      <g transform="translate(168.098206 262.904524)scale(0.1 -0.1)">
       <defs>
        <path d="M 10.796875 72.90625 
L 49.515625 72.90625 
L 49.515625 64.59375 
L 19.828125 64.59375 
L 19.828125 46.734375 
Q 21.96875 47.46875 24.109375 47.828125 
Q 26.265625 48.1875 28.421875 48.1875 
Q 40.625 48.1875 47.75 41.5 
Q 54.890625 34.8125 54.890625 23.390625 
Q 54.890625 11.625 47.5625 5.09375 
Q 40.234375 -1.421875 26.90625 -1.421875 
Q 22.3125 -1.421875 17.546875 -0.640625 
Q 12.796875 0.140625 7.71875 1.703125 
L 7.71875 11.625 
Q 12.109375 9.234375 16.796875 8.0625 
Q 21.484375 6.890625 26.703125 6.890625 
Q 35.15625 6.890625 40.078125 11.328125 
Q 45.015625 15.765625 45.015625 23.390625 
Q 45.015625 31 40.078125 35.4375 
Q 35.15625 39.890625 26.703125 39.890625 
Q 22.75 39.890625 18.8125 39.015625 
Q 14.890625 38.140625 10.796875 36.28125 
z
" id="DejaVuSans-53"/>
       </defs>
       <use xlink:href="#DejaVuSans-53"/>
       <use x="63.623047" xlink:href="#DejaVuSans-48"/>
      </g>
     </g>
    </g>
    <g id="xtick_3">
     <g id="line2d_3">
      <g>
       <use style="stroke:#000000;stroke-width:0.8;" x="258.307438" xlink:href="#m8ab987d816" y="248.306087"/>
      </g>
     </g>
     <g id="text_3">
      <!-- 100 -->
      <g transform="translate(248.763688 262.904524)scale(0.1 -0.1)">
       <defs>
        <path d="M 12.40625 8.296875 
L 28.515625 8.296875 
L 28.515625 63.921875 
L 10.984375 60.40625 
L 10.984375 69.390625 
L 28.421875 72.90625 
L 38.28125 72.90625 
L 38.28125 8.296875 
L 54.390625 8.296875 
L 54.390625 0 
L 12.40625 0 
z
" id="DejaVuSans-49"/>
       </defs>
       <use xlink:href="#DejaVuSans-49"/>
       <use x="63.623047" xlink:href="#DejaVuSans-48"/>
       <use x="127.246094" xlink:href="#DejaVuSans-48"/>
      </g>
     </g>
    </g>
    <g id="xtick_4">
     <g id="line2d_4">
      <g>
       <use style="stroke:#000000;stroke-width:0.8;" x="342.15417" xlink:href="#m8ab987d816" y="248.306087"/>
      </g>
     </g>
     <g id="text_4">
      <!-- 150 -->
      <g transform="translate(332.61042 262.904524)scale(0.1 -0.1)">
       <use xlink:href="#DejaVuSans-49"/>
       <use x="63.623047" xlink:href="#DejaVuSans-53"/>
       <use x="127.246094" xlink:href="#DejaVuSans-48"/>
      </g>
     </g>
    </g>
    <g id="xtick_5">
     <g id="line2d_5">
      <g>
       <use style="stroke:#000000;stroke-width:0.8;" x="426.000902" xlink:href="#m8ab987d816" y="248.306087"/>
      </g>
     </g>
     <g id="text_5">
      <!-- 200 -->
      <g transform="translate(416.457152 262.904524)scale(0.1 -0.1)">
       <defs>
        <path d="M 19.1875 8.296875 
L 53.609375 8.296875 
L 53.609375 0 
L 7.328125 0 
L 7.328125 8.296875 
Q 12.9375 14.109375 22.625 23.890625 
Q 32.328125 33.6875 34.8125 36.53125 
Q 39.546875 41.84375 41.421875 45.53125 
Q 43.3125 49.21875 43.3125 52.78125 
Q 43.3125 58.59375 39.234375 62.25 
Q 35.15625 65.921875 28.609375 65.921875 
Q 23.96875 65.921875 18.8125 64.3125 
Q 13.671875 62.703125 7.8125 59.421875 
L 7.8125 69.390625 
Q 13.765625 71.78125 18.9375 73 
Q 24.125 74.21875 28.421875 74.21875 
Q 39.75 74.21875 46.484375 68.546875 
Q 53.21875 62.890625 53.21875 53.421875 
Q 53.21875 48.921875 51.53125 44.890625 
Q 49.859375 40.875 45.40625 35.40625 
Q 44.1875 33.984375 37.640625 27.21875 
Q 31.109375 20.453125 19.1875 8.296875 
z
" id="DejaVuSans-50"/>
       </defs>
       <use xlink:href="#DejaVuSans-50"/>
       <use x="63.623047" xlink:href="#DejaVuSans-48"/>
       <use x="127.246094" xlink:href="#DejaVuSans-48"/>
      </g>
     </g>
    </g>
    <g id="xtick_6">
     <g id="line2d_6">
      <g>
       <use style="stroke:#000000;stroke-width:0.8;" x="509.847633" xlink:href="#m8ab987d816" y="248.306087"/>
      </g>
     </g>
     <g id="text_6">
      <!-- 250 -->
      <g transform="translate(500.303883 262.904524)scale(0.1 -0.1)">
       <use xlink:href="#DejaVuSans-50"/>
       <use x="63.623047" xlink:href="#DejaVuSans-53"/>
       <use x="127.246094" xlink:href="#DejaVuSans-48"/>
      </g>
     </g>
    </g>
   </g>
   <g id="matplotlib.axis_2">
    <g id="ytick_1">
     <g id="line2d_7">
      <defs>
       <path d="M 0 0 
L -3.5 0 
" id="ma721b3b49a" style="stroke:#000000;stroke-width:0.8;"/>
      </defs>
      <g>
       <use style="stroke:#000000;stroke-width:0.8;" x="72" xlink:href="#ma721b3b49a" y="241.965284"/>
      </g>
     </g>
     <g id="text_7">
      <!-- −2 -->
      <g transform="translate(50.257812 245.764503)scale(0.1 -0.1)">
       <defs>
        <path d="M 10.59375 35.5 
L 73.1875 35.5 
L 73.1875 27.203125 
L 10.59375 27.203125 
z
" id="DejaVuSans-8722"/>
       </defs>
       <use xlink:href="#DejaVuSans-8722"/>
       <use x="83.789062" xlink:href="#DejaVuSans-50"/>
      </g>
     </g>
    </g>
    <g id="ytick_2">
     <g id="line2d_8">
      <g>
       <use style="stroke:#000000;stroke-width:0.8;" x="72" xlink:href="#ma721b3b49a" y="214.056599"/>
      </g>
     </g>
     <g id="text_8">
      <!-- −1 -->
      <g transform="translate(50.257812 217.855818)scale(0.1 -0.1)">
       <use xlink:href="#DejaVuSans-8722"/>
       <use x="83.789062" xlink:href="#DejaVuSans-49"/>
      </g>
     </g>
    </g>
    <g id="ytick_3">
     <g id="line2d_9">
      <g>
       <use style="stroke:#000000;stroke-width:0.8;" x="72" xlink:href="#ma721b3b49a" y="186.147914"/>
      </g>
     </g>
     <g id="text_9">
      <!-- 0 -->
      <g transform="translate(58.6375 189.947133)scale(0.1 -0.1)">
       <use xlink:href="#DejaVuSans-48"/>
      </g>
     </g>
    </g>
    <g id="ytick_4">
     <g id="line2d_10">
      <g>
       <use style="stroke:#000000;stroke-width:0.8;" x="72" xlink:href="#ma721b3b49a" y="158.239229"/>
      </g>
     </g>
     <g id="text_10">
      <!-- 1 -->
      <g transform="translate(58.6375 162.038448)scale(0.1 -0.1)">
       <use xlink:href="#DejaVuSans-49"/>
      </g>
     </g>
    </g>
    <g id="ytick_5">
     <g id="line2d_11">
      <g>
       <use style="stroke:#000000;stroke-width:0.8;" x="72" xlink:href="#ma721b3b49a" y="130.330544"/>
      </g>
     </g>
     <g id="text_11">
      <!-- 2 -->
      <g transform="translate(58.6375 134.129763)scale(0.1 -0.1)">
       <use xlink:href="#DejaVuSans-50"/>
      </g>
     </g>
    </g>
    <g id="text_12">
     <!-- CamSol Score -->
     <g transform="translate(44.178125 210.632887)rotate(-90)scale(0.1 -0.1)">
      <defs>
       <path d="M 64.40625 67.28125 
L 64.40625 56.890625 
Q 59.421875 61.53125 53.78125 63.8125 
Q 48.140625 66.109375 41.796875 66.109375 
Q 29.296875 66.109375 22.65625 58.46875 
Q 16.015625 50.828125 16.015625 36.375 
Q 16.015625 21.96875 22.65625 14.328125 
Q 29.296875 6.6875 41.796875 6.6875 
Q 48.140625 6.6875 53.78125 8.984375 
Q 59.421875 11.28125 64.40625 15.921875 
L 64.40625 5.609375 
Q 59.234375 2.09375 53.4375 0.328125 
Q 47.65625 -1.421875 41.21875 -1.421875 
Q 24.65625 -1.421875 15.125 8.703125 
Q 5.609375 18.84375 5.609375 36.375 
Q 5.609375 53.953125 15.125 64.078125 
Q 24.65625 74.21875 41.21875 74.21875 
Q 47.75 74.21875 53.53125 72.484375 
Q 59.328125 70.75 64.40625 67.28125 
z
" id="DejaVuSans-67"/>
       <path d="M 34.28125 27.484375 
Q 23.390625 27.484375 19.1875 25 
Q 14.984375 22.515625 14.984375 16.5 
Q 14.984375 11.71875 18.140625 8.90625 
Q 21.296875 6.109375 26.703125 6.109375 
Q 34.1875 6.109375 38.703125 11.40625 
Q 43.21875 16.703125 43.21875 25.484375 
L 43.21875 27.484375 
z
M 52.203125 31.203125 
L 52.203125 0 
L 43.21875 0 
L 43.21875 8.296875 
Q 40.140625 3.328125 35.546875 0.953125 
Q 30.953125 -1.421875 24.3125 -1.421875 
Q 15.921875 -1.421875 10.953125 3.296875 
Q 6 8.015625 6 15.921875 
Q 6 25.140625 12.171875 29.828125 
Q 18.359375 34.515625 30.609375 34.515625 
L 43.21875 34.515625 
L 43.21875 35.40625 
Q 43.21875 41.609375 39.140625 45 
Q 35.0625 48.390625 27.6875 48.390625 
Q 23 48.390625 18.546875 47.265625 
Q 14.109375 46.140625 10.015625 43.890625 
L 10.015625 52.203125 
Q 14.9375 54.109375 19.578125 55.046875 
Q 24.21875 56 28.609375 56 
Q 40.484375 56 46.34375 49.84375 
Q 52.203125 43.703125 52.203125 31.203125 
z
" id="DejaVuSans-97"/>
       <path d="M 52 44.1875 
Q 55.375 50.25 60.0625 53.125 
Q 64.75 56 71.09375 56 
Q 79.640625 56 84.28125 50.015625 
Q 88.921875 44.046875 88.921875 33.015625 
L 88.921875 0 
L 79.890625 0 
L 79.890625 32.71875 
Q 79.890625 40.578125 77.09375 44.375 
Q 74.3125 48.1875 68.609375 48.1875 
Q 61.625 48.1875 57.5625 43.546875 
Q 53.515625 38.921875 53.515625 30.90625 
L 53.515625 0 
L 44.484375 0 
L 44.484375 32.71875 
Q 44.484375 40.625 41.703125 44.40625 
Q 38.921875 48.1875 33.109375 48.1875 
Q 26.21875 48.1875 22.15625 43.53125 
Q 18.109375 38.875 18.109375 30.90625 
L 18.109375 0 
L 9.078125 0 
L 9.078125 54.6875 
L 18.109375 54.6875 
L 18.109375 46.1875 
Q 21.1875 51.21875 25.484375 53.609375 
Q 29.78125 56 35.6875 56 
Q 41.65625 56 45.828125 52.96875 
Q 50 49.953125 52 44.1875 
z
" id="DejaVuSans-109"/>
       <path d="M 53.515625 70.515625 
L 53.515625 60.890625 
Q 47.90625 63.578125 42.921875 64.890625 
Q 37.9375 66.21875 33.296875 66.21875 
Q 25.25 66.21875 20.875 63.09375 
Q 16.5 59.96875 16.5 54.203125 
Q 16.5 49.359375 19.40625 46.890625 
Q 22.3125 44.4375 30.421875 42.921875 
L 36.375 41.703125 
Q 47.40625 39.59375 52.65625 34.296875 
Q 57.90625 29 57.90625 20.125 
Q 57.90625 9.515625 50.796875 4.046875 
Q 43.703125 -1.421875 29.984375 -1.421875 
Q 24.8125 -1.421875 18.96875 -0.25 
Q 13.140625 0.921875 6.890625 3.21875 
L 6.890625 13.375 
Q 12.890625 10.015625 18.65625 8.296875 
Q 24.421875 6.59375 29.984375 6.59375 
Q 38.421875 6.59375 43.015625 9.90625 
Q 47.609375 13.234375 47.609375 19.390625 
Q 47.609375 24.75 44.3125 27.78125 
Q 41.015625 30.8125 33.5 32.328125 
L 27.484375 33.5 
Q 16.453125 35.6875 11.515625 40.375 
Q 6.59375 45.0625 6.59375 53.421875 
Q 6.59375 63.09375 13.40625 68.65625 
Q 20.21875 74.21875 32.171875 74.21875 
Q 37.3125 74.21875 42.625 73.28125 
Q 47.953125 72.359375 53.515625 70.515625 
z
" id="DejaVuSans-83"/>
       <path d="M 30.609375 48.390625 
Q 23.390625 48.390625 19.1875 42.75 
Q 14.984375 37.109375 14.984375 27.296875 
Q 14.984375 17.484375 19.15625 11.84375 
Q 23.34375 6.203125 30.609375 6.203125 
Q 37.796875 6.203125 41.984375 11.859375 
Q 46.1875 17.53125 46.1875 27.296875 
Q 46.1875 37.015625 41.984375 42.703125 
Q 37.796875 48.390625 30.609375 48.390625 
z
M 30.609375 56 
Q 42.328125 56 49.015625 48.375 
Q 55.71875 40.765625 55.71875 27.296875 
Q 55.71875 13.875 49.015625 6.21875 
Q 42.328125 -1.421875 30.609375 -1.421875 
Q 18.84375 -1.421875 12.171875 6.21875 
Q 5.515625 13.875 5.515625 27.296875 
Q 5.515625 40.765625 12.171875 48.375 
Q 18.84375 56 30.609375 56 
z
" id="DejaVuSans-111"/>
       <path d="M 9.421875 75.984375 
L 18.40625 75.984375 
L 18.40625 0 
L 9.421875 0 
z
" id="DejaVuSans-108"/>
       <path id="DejaVuSans-32"/>
       <path d="M 48.78125 52.59375 
L 48.78125 44.1875 
Q 44.96875 46.296875 41.140625 47.34375 
Q 37.3125 48.390625 33.40625 48.390625 
Q 24.65625 48.390625 19.8125 42.84375 
Q 14.984375 37.3125 14.984375 27.296875 
Q 14.984375 17.28125 19.8125 11.734375 
Q 24.65625 6.203125 33.40625 6.203125 
Q 37.3125 6.203125 41.140625 7.25 
Q 44.96875 8.296875 48.78125 10.40625 
L 48.78125 2.09375 
Q 45.015625 0.34375 40.984375 -0.53125 
Q 36.96875 -1.421875 32.421875 -1.421875 
Q 20.0625 -1.421875 12.78125 6.34375 
Q 5.515625 14.109375 5.515625 27.296875 
Q 5.515625 40.671875 12.859375 48.328125 
Q 20.21875 56 33.015625 56 
Q 37.15625 56 41.109375 55.140625 
Q 45.0625 54.296875 48.78125 52.59375 
z
" id="DejaVuSans-99"/>
       <path d="M 41.109375 46.296875 
Q 39.59375 47.171875 37.8125 47.578125 
Q 36.03125 48 33.890625 48 
Q 26.265625 48 22.1875 43.046875 
Q 18.109375 38.09375 18.109375 28.8125 
L 18.109375 0 
L 9.078125 0 
L 9.078125 54.6875 
L 18.109375 54.6875 
L 18.109375 46.1875 
Q 20.953125 51.171875 25.484375 53.578125 
Q 30.03125 56 36.53125 56 
Q 37.453125 56 38.578125 55.875 
Q 39.703125 55.765625 41.0625 55.515625 
z
" id="DejaVuSans-114"/>
       <path d="M 56.203125 29.59375 
L 56.203125 25.203125 
L 14.890625 25.203125 
Q 15.484375 15.921875 20.484375 11.0625 
Q 25.484375 6.203125 34.421875 6.203125 
Q 39.59375 6.203125 44.453125 7.46875 
Q 49.3125 8.734375 54.109375 11.28125 
L 54.109375 2.78125 
Q 49.265625 0.734375 44.1875 -0.34375 
Q 39.109375 -1.421875 33.890625 -1.421875 
Q 20.796875 -1.421875 13.15625 6.1875 
Q 5.515625 13.8125 5.515625 26.8125 
Q 5.515625 40.234375 12.765625 48.109375 
Q 20.015625 56 32.328125 56 
Q 43.359375 56 49.78125 48.890625 
Q 56.203125 41.796875 56.203125 29.59375 
z
M 47.21875 32.234375 
Q 47.125 39.59375 43.09375 43.984375 
Q 39.0625 48.390625 32.421875 48.390625 
Q 24.90625 48.390625 20.390625 44.140625 
Q 15.875 39.890625 15.1875 32.171875 
z
" id="DejaVuSans-101"/>
      </defs>
      <use xlink:href="#DejaVuSans-67"/>
      <use x="69.824219" xlink:href="#DejaVuSans-97"/>
      <use x="131.103516" xlink:href="#DejaVuSans-109"/>
      <use x="228.515625" xlink:href="#DejaVuSans-83"/>
      <use x="291.992188" xlink:href="#DejaVuSans-111"/>
      <use x="353.173828" xlink:href="#DejaVuSans-108"/>
      <use x="380.957031" xlink:href="#DejaVuSans-32"/>
      <use x="412.744141" xlink:href="#DejaVuSans-83"/>
      <use x="476.220703" xlink:href="#DejaVuSans-99"/>
      <use x="531.201172" xlink:href="#DejaVuSans-111"/>
      <use x="592.382812" xlink:href="#DejaVuSans-114"/>
      <use x="631.246094" xlink:href="#DejaVuSans-101"/>
     </g>
    </g>
   </g>
   <g id="line2d_12">
    <path clip-path="url(#p326ec1b8c1)" d="M 92.290909 110.591704 
L 93.967844 122.988972 
L 95.644778 129.713315 
L 97.321713 131.667622 
L 98.998648 162.643837 
L 100.675582 165.032182 
L 102.352517 158.506897 
L 104.029452 181.050561 
L 105.706386 168.504987 
L 107.383321 158.491224 
L 109.060255 174.037069 
L 110.73719 159.565054 
L 112.414125 176.038487 
L 114.091059 206.745875 
L 115.767994 202.918584 
L 117.444929 229.282274 
L 119.121863 228.819086 
L 120.798798 234.430799 
L 122.475733 241.732174 
L 124.152667 226.497613 
L 125.829602 198.013613 
L 127.506536 183.038831 
L 129.183471 164.905905 
L 130.860406 165.133263 
L 132.53734 137.250715 
L 134.214275 139.940773 
L 135.89121 166.836782 
L 137.568144 178.049994 
L 139.245079 178.972419 
L 140.922014 198.362658 
L 142.598948 196.621481 
L 144.275883 205.945938 
L 145.952817 190.940046 
L 147.629752 177.843758 
L 149.306687 189.848495 
L 150.983621 187.9948 
L 152.660556 161.313999 
L 154.337491 172.315682 
L 156.014425 184.097178 
L 157.69136 189.587431 
L 159.368295 196.23896 
L 161.045229 174.00755 
L 162.722164 187.026517 
L 164.399098 209.873206 
L 166.076033 199.922155 
L 167.752968 186.350088 
L 169.429902 197.390897 
L 171.106837 173.180897 
L 172.783772 180.770167 
L 174.460706 186.482122 
L 176.137641 181.96367 
L 177.814576 193.64007 
L 179.49151 204.484216 
L 181.168445 206.750873 
L 182.845379 219.042551 
L 184.522314 207.232744 
L 186.199249 199.719889 
L 187.876183 180.234959 
L 189.553118 168.911316 
L 191.230053 164.476734 
L 192.906987 157.445247 
L 194.583922 157.153452 
L 196.260856 164.865634 
L 197.937791 171.196325 
L 199.614726 188.20977 
L 201.29166 201.696765 
L 202.968595 187.096738 
L 204.64553 193.654668 
L 206.322464 212.624087 
L 207.999399 204.3609 
L 209.676334 182.118009 
L 211.353268 186.895707 
L 213.030203 173.322297 
L 214.707137 176.507066 
L 216.384072 145.269216 
L 218.061007 133.497166 
L 219.737941 132.214941 
L 221.414876 134.752142 
L 223.091811 135.730366 
L 224.768745 137.706594 
L 226.44568 149.346533 
L 228.122615 149.934158 
L 229.799549 153.298944 
L 231.476484 166.47188 
L 233.153418 158.061372 
L 234.830353 135.410309 
L 236.507288 156.309644 
L 238.184222 141.567894 
L 239.861157 140.693369 
L 241.538092 148.513017 
L 243.215026 139.866021 
L 244.891961 154.934321 
L 246.568896 158.388888 
L 248.24583 165.096351 
L 249.922765 175.627933 
L 251.599699 182.172997 
L 253.276634 179.901187 
L 254.953569 203.148845 
L 256.630503 190.491866 
L 258.307438 186.059075 
L 261.661307 186.386556 
L 263.338242 181.951252 
L 265.015177 159.639534 
L 266.692111 167.32521 
L 268.369046 177.549335 
L 270.04598 176.391547 
L 271.722915 147.538767 
L 273.39985 153.212312 
L 275.076784 147.690866 
L 276.753719 166.669595 
L 278.430654 162.932187 
L 280.107588 152.133484 
L 281.784523 168.607001 
L 283.461458 172.700862 
L 285.138392 178.927007 
L 286.815327 178.000632 
L 288.492261 162.966367 
L 290.169196 160.120761 
L 291.846131 160.590862 
L 293.523065 164.33032 
L 295.2 162.842752 
L 296.876935 155.706669 
L 298.553869 169.186751 
L 300.230804 159.952435 
L 301.907739 146.221403 
L 303.584673 161.599524 
L 305.261608 147.745774 
L 306.938542 163.303286 
L 308.615477 140.180066 
L 310.292412 148.510907 
L 311.969346 162.52032 
L 313.646281 153.202957 
L 315.323216 162.066726 
L 317.00015 177.072138 
L 318.677085 162.074599 
L 320.35402 160.854412 
L 322.030954 161.113658 
L 323.707889 158.393322 
L 325.384823 167.510113 
L 327.061758 167.752077 
L 328.738693 165.293472 
L 330.415627 164.259942 
L 332.092562 159.367601 
L 333.769497 156.222921 
L 335.446431 145.26472 
L 337.123366 138.491338 
L 338.800301 116.637975 
L 340.477235 124.25671 
L 342.15417 123.184197 
L 343.831104 136.964397 
L 345.508039 130.987137 
L 347.184974 161.096529 
L 348.861908 162.130059 
L 350.538843 180.117929 
L 352.215778 188.342222 
L 353.892712 188.459748 
L 355.569647 190.496041 
L 357.246582 190.288643 
L 358.923516 183.391067 
L 360.600451 196.770481 
L 362.277385 188.778344 
L 363.95432 193.144863 
L 365.631255 205.865942 
L 367.308189 186.803498 
L 368.985124 169.264874 
L 370.662059 168.577006 
L 372.338993 154.035388 
L 374.015928 160.517589 
L 375.692863 135.853187 
L 377.369797 146.93155 
L 379.046732 158.814245 
L 380.723666 173.005784 
L 382.400601 148.850311 
L 384.077536 172.78456 
L 385.75447 161.665351 
L 387.431405 179.991971 
L 389.10834 180.766254 
L 392.462209 151.36815 
L 394.139144 157.924591 
L 395.816078 145.538186 
L 397.493013 157.510235 
L 399.169947 157.634673 
L 400.846882 133.472287 
L 402.523817 154.576839 
L 404.200751 169.915976 
L 405.877686 162.842002 
L 407.554621 179.384072 
L 409.231555 184.131428 
L 410.90849 184.162538 
L 412.585424 185.917226 
L 414.262359 178.992623 
L 415.939294 180.869911 
L 417.616228 181.022003 
L 419.293163 169.669736 
L 420.970098 177.443593 
L 422.647032 172.480984 
L 424.323967 187.252357 
L 426.000902 194.138938 
L 427.677836 188.090606 
L 429.354771 188.553794 
L 431.031705 176.498593 
L 432.70864 169.57399 
L 436.062509 147.092821 
L 437.739444 139.770707 
L 439.416379 151.488545 
L 441.093313 152.674166 
L 442.770248 152.340929 
L 444.447183 157.92782 
L 446.124117 155.55094 
L 447.801052 160.954674 
L 449.477986 155.755575 
L 451.154921 156.754539 
L 452.831856 181.894189 
L 454.50879 187.281466 
L 456.185725 193.867946 
L 457.86266 218.096009 
L 459.539594 203.371543 
L 461.216529 203.663338 
L 462.893464 211.282451 
L 464.570398 200.985916 
L 466.247333 223.259963 
L 467.924267 205.577837 
L 469.601202 212.287858 
L 471.278137 234.243959 
L 472.955071 234.209393 
L 474.632006 220.384654 
L 476.308941 233.031693 
L 477.985875 201.284822 
L 479.66281 187.078357 
L 481.339745 182.028319 
L 483.016679 177.513325 
L 484.693614 169.512716 
L 486.370548 157.959801 
L 488.047483 157.959801 
L 489.724418 163.765194 
L 491.401352 180.210793 
L 493.078287 166.258679 
L 494.755222 159.833017 
L 496.432156 174.764856 
L 498.109091 195.869837 
L 498.109091 195.869837 
" style="fill:none;stroke:#808080;stroke-linecap:square;stroke-width:1.5;"/>
   </g>
   <g id="line2d_13">
    <path clip-path="url(#p326ec1b8c1)" d="M 92.290909 111.25934 
L 93.967844 150.468246 
L 95.644778 170.843903 
L 97.321713 130.434123 
L 98.998648 168.346803 
L 100.675582 178.908606 
L 102.352517 186.147914 
L 104.029452 185.979688 
L 105.706386 186.147914 
L 107.383321 183.806845 
L 109.060255 186.147914 
L 110.73719 185.716127 
L 112.414125 186.147914 
L 119.121863 186.147914 
L 120.798798 195.599164 
L 122.475733 186.147914 
L 140.922014 186.147914 
L 142.598948 185.807763 
L 144.275883 186.498172 
L 145.952817 183.920916 
L 147.629752 176.97748 
L 149.306687 186.502073 
L 150.983621 186.284704 
L 152.660556 181.695188 
L 154.337491 183.389708 
L 156.014425 188.691822 
L 157.69136 186.931466 
L 159.368295 191.033186 
L 161.045229 177.613325 
L 162.722164 185.786447 
L 164.399098 190.793753 
L 166.076033 188.568679 
L 167.752968 167.86542 
L 169.429902 184.287377 
L 171.106837 168.629576 
L 172.783772 178.400412 
L 174.460706 183.053306 
L 176.137641 175.86772 
L 177.814576 184.556892 
L 179.49151 186.096237 
L 181.168445 183.24095 
L 182.845379 202.673911 
L 184.522314 186.147914 
L 186.199249 186.147914 
L 187.876183 180.259238 
L 189.553118 181.618803 
L 191.230053 185.043483 
L 192.906987 161.983775 
L 194.583922 169.894412 
L 196.260856 186.147914 
L 197.937791 175.08666 
L 199.614726 184.246406 
L 201.29166 194.11315 
L 202.968595 184.108662 
L 204.64553 183.903356 
L 206.322464 197.001017 
L 209.676334 186.147914 
L 211.353268 179.065357 
L 213.030203 177.52018 
L 214.707137 185.82265 
L 216.384072 165.582942 
L 218.061007 132.806317 
L 219.737941 150.843706 
L 221.414876 158.391669 
L 223.091811 135.752738 
L 224.768745 137.930874 
L 226.44568 164.562281 
L 228.122615 147.406183 
L 229.799549 156.249125 
L 231.476484 153.689341 
L 233.153418 158.244224 
L 234.830353 183.615747 
L 236.507288 186.147914 
L 238.184222 156.716282 
L 239.861157 168.206131 
L 241.538092 186.147914 
L 243.215026 178.594209 
L 244.891961 178.597864 
L 246.568896 186.147914 
L 249.922765 186.147914 
L 251.599699 184.593339 
L 253.276634 186.147914 
L 254.953569 186.147914 
L 256.630503 186.988386 
L 258.307438 184.318712 
L 259.984373 186.147914 
L 261.661307 183.644031 
L 263.338242 177.993876 
L 265.015177 186.147914 
L 266.692111 185.80857 
L 268.369046 172.465151 
L 270.04598 180.159107 
L 271.722915 186.147914 
L 273.39985 162.835359 
L 275.076784 149.010828 
L 276.753719 186.147914 
L 278.430654 186.147914 
L 280.107588 156.564777 
L 281.784523 159.57979 
L 283.461458 186.147914 
L 285.138392 177.21728 
L 286.815327 181.480031 
L 288.492261 175.765848 
L 290.169196 177.187221 
L 291.846131 175.40543 
L 293.523065 172.326401 
L 295.2 162.975172 
L 296.876935 179.054278 
L 298.553869 172.661293 
L 300.230804 167.569804 
L 301.907739 163.350138 
L 303.584673 166.953736 
L 305.261608 175.051867 
L 306.938542 172.743911 
L 308.615477 152.254655 
L 310.292412 172.907576 
L 311.969346 172.635535 
L 313.646281 176.28342 
L 315.323216 184.135849 
L 317.00015 168.442501 
L 318.677085 163.55893 
L 320.35402 156.424789 
L 322.030954 184.601961 
L 323.707889 173.826622 
L 325.384823 176.71846 
L 327.061758 178.06076 
L 328.738693 184.450809 
L 330.415627 162.723556 
L 332.092562 145.262821 
L 333.769497 158.417432 
L 335.446431 129.282827 
L 337.123366 130.701959 
L 338.800301 110.253913 
L 340.477235 120.088763 
L 342.15417 139.769129 
L 343.831104 140.95472 
L 345.508039 136.302427 
L 347.184974 144.945589 
L 348.861908 168.06759 
L 350.538843 177.67387 
L 352.215778 176.859803 
L 353.892712 176.87778 
L 355.569647 182.208102 
L 357.246582 181.216737 
L 358.923516 184.613233 
L 360.600451 186.463992 
L 362.277385 186.147914 
L 363.95432 180.032079 
L 365.631255 194.685418 
L 367.308189 183.632453 
L 368.985124 186.147914 
L 370.662059 181.285214 
L 372.338993 163.808304 
L 374.015928 182.524069 
L 375.692863 181.800734 
L 377.369797 151.020019 
L 379.046732 169.260446 
L 380.723666 186.147914 
L 382.400601 179.126926 
L 384.077536 189.794157 
L 385.75447 182.322104 
L 387.431405 186.147914 
L 389.10834 181.775377 
L 390.785274 174.67369 
L 392.462209 186.147914 
L 394.139144 186.147914 
L 395.816078 166.552925 
L 397.493013 186.147914 
L 399.169947 173.93055 
L 400.846882 144.383914 
L 402.523817 164.990717 
L 404.200751 172.862185 
L 405.877686 163.190307 
L 407.554621 178.954227 
L 409.231555 182.072001 
L 410.90849 182.214214 
L 412.585424 187.01847 
L 414.262359 186.016526 
L 415.939294 186.147914 
L 417.616228 186.147914 
L 419.293163 182.076076 
L 420.970098 185.736242 
L 422.647032 183.000232 
L 424.323967 182.295283 
L 426.000902 188.306193 
L 427.677836 185.536011 
L 429.354771 185.211725 
L 431.031705 174.852438 
L 432.70864 176.736002 
L 434.385575 154.792289 
L 436.062509 146.750314 
L 437.739444 183.900037 
L 439.416379 173.65007 
L 441.093313 168.345388 
L 442.770248 180.855272 
L 444.447183 176.669313 
L 446.124117 165.724452 
L 447.801052 157.294281 
L 449.477986 167.406572 
L 451.154921 158.527835 
L 452.831856 181.612846 
L 454.50879 186.776218 
L 456.185725 192.610859 
L 457.86266 206.120733 
L 459.539594 195.803535 
L 461.216529 202.652738 
L 462.893464 208.731469 
L 464.570398 190.482757 
L 466.247333 202.574657 
L 467.924267 190.015944 
L 469.601202 190.791625 
L 471.278137 186.147914 
L 472.955071 190.949652 
L 474.632006 211.09993 
L 476.308941 206.347708 
L 477.985875 186.147914 
L 479.66281 185.636471 
L 481.339745 186.147914 
L 483.016679 186.019461 
L 484.693614 184.737496 
L 486.370548 166.106637 
L 488.047483 186.201393 
L 489.724418 188.213318 
L 493.078287 184.168738 
L 494.755222 183.324149 
L 496.432156 186.878238 
L 498.109091 196.400396 
L 498.109091 196.400396 
" style="fill:none;stroke:#000000;stroke-linecap:square;stroke-width:1.5;"/>
   </g>
   <g id="line2d_14">
    <path clip-path="url(#p326ec1b8c1)" d="M 72 214.056599 
L 518.4 214.056599 
" style="fill:none;stroke:#fc9272;stroke-dasharray:5.55,2.4;stroke-dashoffset:0;stroke-width:1.5;"/>
   </g>
   <g id="patch_3">
    <path d="M 72 248.306087 
L 72 103.68 
" style="fill:none;stroke:#000000;stroke-linecap:square;stroke-linejoin:miter;stroke-width:0.8;"/>
   </g>
   <g id="patch_4">
    <path d="M 518.4 248.306087 
L 518.4 103.68 
" style="fill:none;stroke:#000000;stroke-linecap:square;stroke-linejoin:miter;stroke-width:0.8;"/>
   </g>
   <g id="patch_5">
    <path d="M 72 248.306087 
L 518.4 248.306087 
" style="fill:none;stroke:#000000;stroke-linecap:square;stroke-linejoin:miter;stroke-width:0.8;"/>
   </g>
   <g id="patch_6">
    <path d="M 72 103.68 
L 518.4 103.68 
" style="fill:none;stroke:#000000;stroke-linecap:square;stroke-linejoin:miter;stroke-width:0.8;"/>
   </g>
  </g>
  <g id="axes_2">
   <g id="patch_7">
    <path d="M 72 421.857391 
L 518.4 421.857391 
L 518.4 277.231304 
L 72 277.231304 
z
" style="fill:#ffffff;"/>
   </g>
   <g id="matplotlib.axis_3">
    <g id="xtick_7">
     <g id="line2d_15">
      <g>
       <use style="stroke:#000000;stroke-width:0.8;" x="78.175494" xlink:href="#m8ab987d816" y="421.857391"/>
      </g>
     </g>
     <g id="text_13">
      <!-- 0 -->
      <g transform="translate(74.994244 436.455829)scale(0.1 -0.1)">
       <use xlink:href="#DejaVuSans-48"/>
      </g>
     </g>
    </g>
    <g id="xtick_8">
     <g id="line2d_16">
      <g>
       <use style="stroke:#000000;stroke-width:0.8;" x="166.396838" xlink:href="#m8ab987d816" y="421.857391"/>
      </g>
     </g>
     <g id="text_14">
      <!-- 50 -->
      <g transform="translate(160.034338 436.455829)scale(0.1 -0.1)">
       <use xlink:href="#DejaVuSans-53"/>
       <use x="63.623047" xlink:href="#DejaVuSans-48"/>
      </g>
     </g>
    </g>
    <g id="xtick_9">
     <g id="line2d_17">
      <g>
       <use style="stroke:#000000;stroke-width:0.8;" x="254.618182" xlink:href="#m8ab987d816" y="421.857391"/>
      </g>
     </g>
     <g id="text_15">
      <!-- 100 -->
      <g transform="translate(245.074432 436.455829)scale(0.1 -0.1)">
       <use xlink:href="#DejaVuSans-49"/>
       <use x="63.623047" xlink:href="#DejaVuSans-48"/>
       <use x="127.246094" xlink:href="#DejaVuSans-48"/>
      </g>
     </g>
    </g>
    <g id="xtick_10">
     <g id="line2d_18">
      <g>
       <use style="stroke:#000000;stroke-width:0.8;" x="342.839526" xlink:href="#m8ab987d816" y="421.857391"/>
      </g>
     </g>
     <g id="text_16">
      <!-- 150 -->
      <g transform="translate(333.295776 436.455829)scale(0.1 -0.1)">
       <use xlink:href="#DejaVuSans-49"/>
       <use x="63.623047" xlink:href="#DejaVuSans-53"/>
       <use x="127.246094" xlink:href="#DejaVuSans-48"/>
      </g>
     </g>
    </g>
    <g id="xtick_11">
     <g id="line2d_19">
      <g>
       <use style="stroke:#000000;stroke-width:0.8;" x="431.06087" xlink:href="#m8ab987d816" y="421.857391"/>
      </g>
     </g>
     <g id="text_17">
      <!-- 200 -->
      <g transform="translate(421.51712 436.455829)scale(0.1 -0.1)">
       <use xlink:href="#DejaVuSans-50"/>
       <use x="63.623047" xlink:href="#DejaVuSans-48"/>
       <use x="127.246094" xlink:href="#DejaVuSans-48"/>
      </g>
     </g>
    </g>
   </g>
   <g id="matplotlib.axis_4">
    <g id="ytick_6">
     <g id="line2d_20">
      <g>
       <use style="stroke:#000000;stroke-width:0.8;" x="72" xlink:href="#ma721b3b49a" y="406.878475"/>
      </g>
     </g>
     <g id="text_18">
      <!-- −25 -->
      <g transform="translate(43.895313 410.677694)scale(0.1 -0.1)">
       <use xlink:href="#DejaVuSans-8722"/>
       <use x="83.789062" xlink:href="#DejaVuSans-50"/>
       <use x="147.412109" xlink:href="#DejaVuSans-53"/>
      </g>
     </g>
    </g>
    <g id="ytick_7">
     <g id="line2d_21">
      <g>
       <use style="stroke:#000000;stroke-width:0.8;" x="72" xlink:href="#ma721b3b49a" y="376.860608"/>
      </g>
     </g>
     <g id="text_19">
      <!-- −20 -->
      <g transform="translate(43.895313 380.659826)scale(0.1 -0.1)">
       <use xlink:href="#DejaVuSans-8722"/>
       <use x="83.789062" xlink:href="#DejaVuSans-50"/>
       <use x="147.412109" xlink:href="#DejaVuSans-48"/>
      </g>
     </g>
    </g>
    <g id="ytick_8">
     <g id="line2d_22">
      <g>
       <use style="stroke:#000000;stroke-width:0.8;" x="72" xlink:href="#ma721b3b49a" y="346.84274"/>
      </g>
     </g>
     <g id="text_20">
      <!-- −15 -->
      <g transform="translate(43.895313 350.641958)scale(0.1 -0.1)">
       <use xlink:href="#DejaVuSans-8722"/>
       <use x="83.789062" xlink:href="#DejaVuSans-49"/>
       <use x="147.412109" xlink:href="#DejaVuSans-53"/>
      </g>
     </g>
    </g>
    <g id="ytick_9">
     <g id="line2d_23">
      <g>
       <use style="stroke:#000000;stroke-width:0.8;" x="72" xlink:href="#ma721b3b49a" y="316.824872"/>
      </g>
     </g>
     <g id="text_21">
      <!-- −10 -->
      <g transform="translate(43.895313 320.624091)scale(0.1 -0.1)">
       <use xlink:href="#DejaVuSans-8722"/>
       <use x="83.789062" xlink:href="#DejaVuSans-49"/>
       <use x="147.412109" xlink:href="#DejaVuSans-48"/>
      </g>
     </g>
    </g>
    <g id="ytick_10">
     <g id="line2d_24">
      <g>
       <use style="stroke:#000000;stroke-width:0.8;" x="72" xlink:href="#ma721b3b49a" y="286.807004"/>
      </g>
     </g>
     <g id="text_22">
      <!-- −5 -->
      <g transform="translate(50.257812 290.606223)scale(0.1 -0.1)">
       <use xlink:href="#DejaVuSans-8722"/>
       <use x="83.789062" xlink:href="#DejaVuSans-53"/>
      </g>
     </g>
    </g>
    <g id="text_23">
     <!-- Rosetta Energy (kcal/mol) -->
     <g transform="translate(37.815625 414.205285)rotate(-90)scale(0.1 -0.1)">
      <defs>
       <path d="M 44.390625 34.1875 
Q 47.5625 33.109375 50.5625 29.59375 
Q 53.5625 26.078125 56.59375 19.921875 
L 66.609375 0 
L 56 0 
L 46.6875 18.703125 
Q 43.0625 26.03125 39.671875 28.421875 
Q 36.28125 30.8125 30.421875 30.8125 
L 19.671875 30.8125 
L 19.671875 0 
L 9.8125 0 
L 9.8125 72.90625 
L 32.078125 72.90625 
Q 44.578125 72.90625 50.734375 67.671875 
Q 56.890625 62.453125 56.890625 51.90625 
Q 56.890625 45.015625 53.6875 40.46875 
Q 50.484375 35.9375 44.390625 34.1875 
z
M 19.671875 64.796875 
L 19.671875 38.921875 
L 32.078125 38.921875 
Q 39.203125 38.921875 42.84375 42.21875 
Q 46.484375 45.515625 46.484375 51.90625 
Q 46.484375 58.296875 42.84375 61.546875 
Q 39.203125 64.796875 32.078125 64.796875 
z
" id="DejaVuSans-82"/>
       <path d="M 44.28125 53.078125 
L 44.28125 44.578125 
Q 40.484375 46.53125 36.375 47.5 
Q 32.28125 48.484375 27.875 48.484375 
Q 21.1875 48.484375 17.84375 46.4375 
Q 14.5 44.390625 14.5 40.28125 
Q 14.5 37.15625 16.890625 35.375 
Q 19.28125 33.59375 26.515625 31.984375 
L 29.59375 31.296875 
Q 39.15625 29.25 43.1875 25.515625 
Q 47.21875 21.78125 47.21875 15.09375 
Q 47.21875 7.46875 41.1875 3.015625 
Q 35.15625 -1.421875 24.609375 -1.421875 
Q 20.21875 -1.421875 15.453125 -0.5625 
Q 10.6875 0.296875 5.421875 2 
L 5.421875 11.28125 
Q 10.40625 8.6875 15.234375 7.390625 
Q 20.0625 6.109375 24.8125 6.109375 
Q 31.15625 6.109375 34.5625 8.28125 
Q 37.984375 10.453125 37.984375 14.40625 
Q 37.984375 18.0625 35.515625 20.015625 
Q 33.0625 21.96875 24.703125 23.78125 
L 21.578125 24.515625 
Q 13.234375 26.265625 9.515625 29.90625 
Q 5.8125 33.546875 5.8125 39.890625 
Q 5.8125 47.609375 11.28125 51.796875 
Q 16.75 56 26.8125 56 
Q 31.78125 56 36.171875 55.265625 
Q 40.578125 54.546875 44.28125 53.078125 
z
" id="DejaVuSans-115"/>
       <path d="M 18.3125 70.21875 
L 18.3125 54.6875 
L 36.8125 54.6875 
L 36.8125 47.703125 
L 18.3125 47.703125 
L 18.3125 18.015625 
Q 18.3125 11.328125 20.140625 9.421875 
Q 21.96875 7.515625 27.59375 7.515625 
L 36.8125 7.515625 
L 36.8125 0 
L 27.59375 0 
Q 17.1875 0 13.234375 3.875 
Q 9.28125 7.765625 9.28125 18.015625 
L 9.28125 47.703125 
L 2.6875 47.703125 
L 2.6875 54.6875 
L 9.28125 54.6875 
L 9.28125 70.21875 
z
" id="DejaVuSans-116"/>
       <path d="M 9.8125 72.90625 
L 55.90625 72.90625 
L 55.90625 64.59375 
L 19.671875 64.59375 
L 19.671875 43.015625 
L 54.390625 43.015625 
L 54.390625 34.71875 
L 19.671875 34.71875 
L 19.671875 8.296875 
L 56.78125 8.296875 
L 56.78125 0 
L 9.8125 0 
z
" id="DejaVuSans-69"/>
       <path d="M 54.890625 33.015625 
L 54.890625 0 
L 45.90625 0 
L 45.90625 32.71875 
Q 45.90625 40.484375 42.875 44.328125 
Q 39.84375 48.1875 33.796875 48.1875 
Q 26.515625 48.1875 22.3125 43.546875 
Q 18.109375 38.921875 18.109375 30.90625 
L 18.109375 0 
L 9.078125 0 
L 9.078125 54.6875 
L 18.109375 54.6875 
L 18.109375 46.1875 
Q 21.34375 51.125 25.703125 53.5625 
Q 30.078125 56 35.796875 56 
Q 45.21875 56 50.046875 50.171875 
Q 54.890625 44.34375 54.890625 33.015625 
z
" id="DejaVuSans-110"/>
       <path d="M 45.40625 27.984375 
Q 45.40625 37.75 41.375 43.109375 
Q 37.359375 48.484375 30.078125 48.484375 
Q 22.859375 48.484375 18.828125 43.109375 
Q 14.796875 37.75 14.796875 27.984375 
Q 14.796875 18.265625 18.828125 12.890625 
Q 22.859375 7.515625 30.078125 7.515625 
Q 37.359375 7.515625 41.375 12.890625 
Q 45.40625 18.265625 45.40625 27.984375 
z
M 54.390625 6.78125 
Q 54.390625 -7.171875 48.1875 -13.984375 
Q 42 -20.796875 29.203125 -20.796875 
Q 24.46875 -20.796875 20.265625 -20.09375 
Q 16.0625 -19.390625 12.109375 -17.921875 
L 12.109375 -9.1875 
Q 16.0625 -11.328125 19.921875 -12.34375 
Q 23.78125 -13.375 27.78125 -13.375 
Q 36.625 -13.375 41.015625 -8.765625 
Q 45.40625 -4.15625 45.40625 5.171875 
L 45.40625 9.625 
Q 42.625 4.78125 38.28125 2.390625 
Q 33.9375 0 27.875 0 
Q 17.828125 0 11.671875 7.65625 
Q 5.515625 15.328125 5.515625 27.984375 
Q 5.515625 40.671875 11.671875 48.328125 
Q 17.828125 56 27.875 56 
Q 33.9375 56 38.28125 53.609375 
Q 42.625 51.21875 45.40625 46.390625 
L 45.40625 54.6875 
L 54.390625 54.6875 
z
" id="DejaVuSans-103"/>
       <path d="M 32.171875 -5.078125 
Q 28.375 -14.84375 24.75 -17.8125 
Q 21.140625 -20.796875 15.09375 -20.796875 
L 7.90625 -20.796875 
L 7.90625 -13.28125 
L 13.1875 -13.28125 
Q 16.890625 -13.28125 18.9375 -11.515625 
Q 21 -9.765625 23.484375 -3.21875 
L 25.09375 0.875 
L 2.984375 54.6875 
L 12.5 54.6875 
L 29.59375 11.921875 
L 46.6875 54.6875 
L 56.203125 54.6875 
z
" id="DejaVuSans-121"/>
       <path d="M 31 75.875 
Q 24.46875 64.65625 21.28125 53.65625 
Q 18.109375 42.671875 18.109375 31.390625 
Q 18.109375 20.125 21.3125 9.0625 
Q 24.515625 -2 31 -13.1875 
L 23.1875 -13.1875 
Q 15.875 -1.703125 12.234375 9.375 
Q 8.59375 20.453125 8.59375 31.390625 
Q 8.59375 42.28125 12.203125 53.3125 
Q 15.828125 64.359375 23.1875 75.875 
z
" id="DejaVuSans-40"/>
       <path d="M 9.078125 75.984375 
L 18.109375 75.984375 
L 18.109375 31.109375 
L 44.921875 54.6875 
L 56.390625 54.6875 
L 27.390625 29.109375 
L 57.625 0 
L 45.90625 0 
L 18.109375 26.703125 
L 18.109375 0 
L 9.078125 0 
z
" id="DejaVuSans-107"/>
       <path d="M 25.390625 72.90625 
L 33.6875 72.90625 
L 8.296875 -9.28125 
L 0 -9.28125 
z
" id="DejaVuSans-47"/>
       <path d="M 8.015625 75.875 
L 15.828125 75.875 
Q 23.140625 64.359375 26.78125 53.3125 
Q 30.421875 42.28125 30.421875 31.390625 
Q 30.421875 20.453125 26.78125 9.375 
Q 23.140625 -1.703125 15.828125 -13.1875 
L 8.015625 -13.1875 
Q 14.5 -2 17.703125 9.0625 
Q 20.90625 20.125 20.90625 31.390625 
Q 20.90625 42.671875 17.703125 53.65625 
Q 14.5 64.65625 8.015625 75.875 
z
" id="DejaVuSans-41"/>
      </defs>
      <use xlink:href="#DejaVuSans-82"/>
      <use x="64.982422" xlink:href="#DejaVuSans-111"/>
      <use x="126.164062" xlink:href="#DejaVuSans-115"/>
      <use x="178.263672" xlink:href="#DejaVuSans-101"/>
      <use x="239.787109" xlink:href="#DejaVuSans-116"/>
      <use x="278.996094" xlink:href="#DejaVuSans-116"/>
      <use x="318.205078" xlink:href="#DejaVuSans-97"/>
      <use x="379.484375" xlink:href="#DejaVuSans-32"/>
      <use x="411.271484" xlink:href="#DejaVuSans-69"/>
      <use x="474.455078" xlink:href="#DejaVuSans-110"/>
      <use x="537.833984" xlink:href="#DejaVuSans-101"/>
      <use x="599.357422" xlink:href="#DejaVuSans-114"/>
      <use x="638.720703" xlink:href="#DejaVuSans-103"/>
      <use x="702.197266" xlink:href="#DejaVuSans-121"/>
      <use x="761.376953" xlink:href="#DejaVuSans-32"/>
      <use x="793.164062" xlink:href="#DejaVuSans-40"/>
      <use x="832.177734" xlink:href="#DejaVuSans-107"/>
      <use x="890.087891" xlink:href="#DejaVuSans-99"/>
      <use x="945.068359" xlink:href="#DejaVuSans-97"/>
      <use x="1006.347656" xlink:href="#DejaVuSans-108"/>
      <use x="1034.130859" xlink:href="#DejaVuSans-47"/>
      <use x="1067.822266" xlink:href="#DejaVuSans-109"/>
      <use x="1165.234375" xlink:href="#DejaVuSans-111"/>
      <use x="1226.416016" xlink:href="#DejaVuSans-108"/>
      <use x="1254.199219" xlink:href="#DejaVuSans-41"/>
     </g>
    </g>
   </g>
   <g id="line2d_25">
    <path clip-path="url(#pb9ccd57d0b)" d="M 92.290909 333.034521 
L 94.055336 358.249529 
L 95.819763 357.048815 
L 97.58419 371.457391 
L 99.348617 383.464538 
L 101.113043 391.269184 
L 102.87747 400.874902 
L 104.641897 383.464538 
L 106.406324 408.07919 
L 108.170751 398.473472 
L 109.935178 390.668827 
L 111.699605 367.25489 
L 113.464032 382.263824 
L 115.228458 373.858821 
L 116.992885 343.240596 
L 118.757312 333.034521 
L 120.521739 352.846313 
L 122.286166 358.249529 
L 124.050593 354.647385 
L 125.81502 360.050602 
L 127.579447 394.270971 
L 129.343874 402.075616 
L 131.1083 363.052388 
L 132.872727 374.459178 
L 134.637154 376.26025 
L 136.401581 372.658106 
L 138.166008 376.860608 
L 139.930435 388.267397 
L 141.694862 382.864181 
L 143.459289 391.869541 
L 145.223715 372.057749 
L 146.988142 401.475259 
L 148.752569 381.063109 
L 150.516996 396.072043 
L 152.281423 386.466325 
L 154.04585 364.85346 
L 155.810277 373.258463 
L 157.574704 381.063109 
L 159.33913 352.846313 
L 161.103557 352.245956 
L 162.867984 365.453818 
L 164.632411 362.452031 
L 166.396838 384.665253 
L 169.925692 415.283478 
L 171.690119 392.469899 
L 173.454545 380.462752 
L 175.218972 397.272758 
L 176.983399 361.851674 
L 178.747826 338.437737 
L 180.512253 366.654532 
L 184.041107 345.642025 
L 196.392095 396.072043 
L 198.156522 361.251316 
L 199.920949 346.84274 
L 201.685375 363.652746 
L 203.449802 349.844527 
L 205.214229 366.654532 
L 206.978656 367.25489 
L 208.743083 369.656319 
L 210.50751 375.059535 
L 212.271937 352.245956 
L 214.036364 373.258463 
L 215.800791 328.832019 
L 217.565217 344.44131 
L 219.329644 342.640238 
L 221.094071 372.057749 
L 222.858498 357.048815 
L 224.622925 362.452031 
L 226.387352 366.654532 
L 228.151779 390.668827 
L 229.916206 370.256677 
L 231.680632 375.659893 
L 233.445059 368.455605 
L 235.209486 368.455605 
L 236.973913 382.263824 
L 238.73834 380.462752 
L 240.502767 372.658106 
L 242.267194 381.063109 
L 254.618182 371.457391 
L 256.382609 349.844527 
L 258.147036 369.656319 
L 261.675889 369.656319 
L 263.440316 354.047028 
L 265.204743 379.262037 
L 268.733597 357.048815 
L 270.498024 358.249529 
L 272.262451 367.855247 
L 274.026877 355.8481 
L 275.791304 346.242382 
L 277.555731 366.054175 
L 279.320158 355.247743 
L 281.084585 358.249529 
L 293.435573 364.253103 
L 295.2 355.8481 
L 296.964427 382.864181 
L 298.728854 376.26025 
L 300.493281 345.041668 
L 302.257708 343.240596 
L 304.022134 348.043454 
L 305.786561 354.047028 
L 307.550988 363.052388 
L 309.315415 355.247743 
L 311.079842 379.262037 
L 312.844269 383.464538 
L 314.608696 366.654532 
L 316.373123 372.057749 
L 318.137549 388.867755 
L 319.901976 371.457391 
L 332.252964 343.840953 
L 334.017391 340.238809 
L 335.781818 336.036307 
L 337.546245 319.826659 
L 339.310672 288.608076 
L 341.075099 283.805217 
L 342.839526 339.638451 
L 344.603953 340.238809 
L 346.368379 358.249529 
L 348.132806 375.059535 
L 349.897233 378.66168 
L 351.66166 348.643812 
L 353.426087 343.240596 
L 355.190514 370.256677 
L 356.954941 373.258463 
L 358.719368 355.247743 
L 371.070356 347.443097 
L 372.834783 358.849887 
L 374.599209 334.835593 
L 376.363636 334.835593 
L 378.128063 327.631304 
L 379.89249 337.837379 
L 381.656917 342.039881 
L 383.421344 333.634878 
L 385.185771 358.849887 
L 386.950198 376.860608 
L 388.714625 378.061322 
L 390.479051 359.450244 
L 392.243478 370.256677 
L 394.007905 363.052388 
L 395.772332 389.468112 
L 397.536759 368.455605 
L 399.301186 378.061322 
L 401.065613 337.837379 
L 402.83004 346.84274 
L 404.594466 363.652746 
L 406.358893 361.851674 
L 408.12332 373.858821 
L 409.887747 376.860608 
L 411.652174 373.258463 
L 413.416601 387.066683 
L 415.181028 390.068469 
L 416.945455 375.659893 
L 418.709881 377.460965 
L 420.474308 394.270971 
L 422.238735 389.468112 
L 424.003162 380.462752 
L 425.767589 389.468112 
L 427.532016 382.263824 
L 429.296443 402.675974 
L 431.06087 396.6724 
L 432.825296 400.274544 
L 434.589723 394.871328 
L 436.35415 375.659893 
L 448.705138 342.039881 
L 450.469565 346.242382 
L 452.233992 335.43595 
L 453.998419 357.649172 
L 455.762846 352.846313 
L 468.113834 382.864181 
L 469.878261 362.452031 
L 471.642688 375.059535 
L 473.407115 401.475259 
L 475.171542 393.670613 
L 476.935968 396.6724 
L 478.700395 394.270971 
L 480.464822 399.07383 
L 482.229249 396.6724 
L 483.993676 369.656319 
L 485.758103 404.477046 
L 487.52253 378.061322 
L 489.286957 375.659893 
L 491.051383 388.867755 
L 492.81581 388.867755 
L 494.580237 376.860608 
L 496.344664 391.269184 
L 498.109091 381.063109 
L 498.109091 381.063109 
" style="fill:none;stroke:#808080;stroke-linecap:square;stroke-width:1.5;"/>
   </g>
   <g id="line2d_26">
    <path clip-path="url(#pb9ccd57d0b)" d="M 72 394.871328 
L 518.4 394.871328 
" style="fill:none;stroke:#fc9272;stroke-dasharray:5.55,2.4;stroke-dashoffset:0;stroke-width:1.5;"/>
   </g>
   <g id="patch_8">
    <path d="M 72 421.857391 
L 72 277.231304 
" style="fill:none;stroke:#000000;stroke-linecap:square;stroke-linejoin:miter;stroke-width:0.8;"/>
   </g>
   <g id="patch_9">
    <path d="M 518.4 421.857391 
L 518.4 277.231304 
" style="fill:none;stroke:#000000;stroke-linecap:square;stroke-linejoin:miter;stroke-width:0.8;"/>
   </g>
   <g id="patch_10">
    <path d="M 72 421.857391 
L 518.4 421.857391 
" style="fill:none;stroke:#000000;stroke-linecap:square;stroke-linejoin:miter;stroke-width:0.8;"/>
   </g>
   <g id="patch_11">
    <path d="M 72 277.231304 
L 518.4 277.231304 
" style="fill:none;stroke:#000000;stroke-linecap:square;stroke-linejoin:miter;stroke-width:0.8;"/>
   </g>
  </g>
  <g id="axes_3">
   <g id="patch_12">
    <path d="M 72 595.408696 
L 518.4 595.408696 
L 518.4 450.782609 
L 72 450.782609 
z
" style="fill:#ffffff;"/>
   </g>
   <g id="matplotlib.axis_5">
    <g id="xtick_12">
     <g id="line2d_27">
      <g>
       <use style="stroke:#000000;stroke-width:0.8;" x="90.613974" xlink:href="#m8ab987d816" y="595.408696"/>
      </g>
     </g>
     <g id="text_24">
      <!-- 0 -->
      <g transform="translate(87.432724 610.007133)scale(0.1 -0.1)">
       <use xlink:href="#DejaVuSans-48"/>
      </g>
     </g>
    </g>
    <g id="xtick_13">
     <g id="line2d_28">
      <g>
       <use style="stroke:#000000;stroke-width:0.8;" x="174.460706" xlink:href="#m8ab987d816" y="595.408696"/>
      </g>
     </g>
     <g id="text_25">
      <!-- 50 -->
      <g transform="translate(168.098206 610.007133)scale(0.1 -0.1)">
       <use xlink:href="#DejaVuSans-53"/>
       <use x="63.623047" xlink:href="#DejaVuSans-48"/>
      </g>
     </g>
    </g>
    <g id="xtick_14">
     <g id="line2d_29">
      <g>
       <use style="stroke:#000000;stroke-width:0.8;" x="258.307438" xlink:href="#m8ab987d816" y="595.408696"/>
      </g>
     </g>
     <g id="text_26">
      <!-- 100 -->
      <g transform="translate(248.763688 610.007133)scale(0.1 -0.1)">
       <use xlink:href="#DejaVuSans-49"/>
       <use x="63.623047" xlink:href="#DejaVuSans-48"/>
       <use x="127.246094" xlink:href="#DejaVuSans-48"/>
      </g>
     </g>
    </g>
    <g id="xtick_15">
     <g id="line2d_30">
      <g>
       <use style="stroke:#000000;stroke-width:0.8;" x="342.15417" xlink:href="#m8ab987d816" y="595.408696"/>
      </g>
     </g>
     <g id="text_27">
      <!-- 150 -->
      <g transform="translate(332.61042 610.007133)scale(0.1 -0.1)">
       <use xlink:href="#DejaVuSans-49"/>
       <use x="63.623047" xlink:href="#DejaVuSans-53"/>
       <use x="127.246094" xlink:href="#DejaVuSans-48"/>
      </g>
     </g>
    </g>
    <g id="xtick_16">
     <g id="line2d_31">
      <g>
       <use style="stroke:#000000;stroke-width:0.8;" x="426.000902" xlink:href="#m8ab987d816" y="595.408696"/>
      </g>
     </g>
     <g id="text_28">
      <!-- 200 -->
      <g transform="translate(416.457152 610.007133)scale(0.1 -0.1)">
       <use xlink:href="#DejaVuSans-50"/>
       <use x="63.623047" xlink:href="#DejaVuSans-48"/>
       <use x="127.246094" xlink:href="#DejaVuSans-48"/>
      </g>
     </g>
    </g>
    <g id="xtick_17">
     <g id="line2d_32">
      <g>
       <use style="stroke:#000000;stroke-width:0.8;" x="509.847633" xlink:href="#m8ab987d816" y="595.408696"/>
      </g>
     </g>
     <g id="text_29">
      <!-- 250 -->
      <g transform="translate(500.303883 610.007133)scale(0.1 -0.1)">
       <use xlink:href="#DejaVuSans-50"/>
       <use x="63.623047" xlink:href="#DejaVuSans-53"/>
       <use x="127.246094" xlink:href="#DejaVuSans-48"/>
      </g>
     </g>
    </g>
   </g>
   <g id="matplotlib.axis_6">
    <g id="ytick_11">
     <g id="line2d_33">
      <g>
       <use style="stroke:#000000;stroke-width:0.8;" x="72" xlink:href="#ma721b3b49a" y="591.028458"/>
      </g>
     </g>
     <g id="text_30">
      <!-- 0.00 -->
      <g transform="translate(42.734375 594.827677)scale(0.1 -0.1)">
       <defs>
        <path d="M 10.6875 12.40625 
L 21 12.40625 
L 21 0 
L 10.6875 0 
z
" id="DejaVuSans-46"/>
       </defs>
       <use xlink:href="#DejaVuSans-48"/>
       <use x="63.623047" xlink:href="#DejaVuSans-46"/>
       <use x="95.410156" xlink:href="#DejaVuSans-48"/>
       <use x="159.033203" xlink:href="#DejaVuSans-48"/>
      </g>
     </g>
    </g>
    <g id="ytick_12">
     <g id="line2d_34">
      <g>
       <use style="stroke:#000000;stroke-width:0.8;" x="72" xlink:href="#ma721b3b49a" y="558.757771"/>
      </g>
     </g>
     <g id="text_31">
      <!-- 0.05 -->
      <g transform="translate(42.734375 562.55699)scale(0.1 -0.1)">
       <use xlink:href="#DejaVuSans-48"/>
       <use x="63.623047" xlink:href="#DejaVuSans-46"/>
       <use x="95.410156" xlink:href="#DejaVuSans-48"/>
       <use x="159.033203" xlink:href="#DejaVuSans-53"/>
      </g>
     </g>
    </g>
    <g id="ytick_13">
     <g id="line2d_35">
      <g>
       <use style="stroke:#000000;stroke-width:0.8;" x="72" xlink:href="#ma721b3b49a" y="526.487084"/>
      </g>
     </g>
     <g id="text_32">
      <!-- 0.10 -->
      <g transform="translate(42.734375 530.286303)scale(0.1 -0.1)">
       <use xlink:href="#DejaVuSans-48"/>
       <use x="63.623047" xlink:href="#DejaVuSans-46"/>
       <use x="95.410156" xlink:href="#DejaVuSans-49"/>
       <use x="159.033203" xlink:href="#DejaVuSans-48"/>
      </g>
     </g>
    </g>
    <g id="ytick_14">
     <g id="line2d_36">
      <g>
       <use style="stroke:#000000;stroke-width:0.8;" x="72" xlink:href="#ma721b3b49a" y="494.216397"/>
      </g>
     </g>
     <g id="text_33">
      <!-- 0.15 -->
      <g transform="translate(42.734375 498.015616)scale(0.1 -0.1)">
       <use xlink:href="#DejaVuSans-48"/>
       <use x="63.623047" xlink:href="#DejaVuSans-46"/>
       <use x="95.410156" xlink:href="#DejaVuSans-49"/>
       <use x="159.033203" xlink:href="#DejaVuSans-53"/>
      </g>
     </g>
    </g>
    <g id="ytick_15">
     <g id="line2d_37">
      <g>
       <use style="stroke:#000000;stroke-width:0.8;" x="72" xlink:href="#ma721b3b49a" y="461.94571"/>
      </g>
     </g>
     <g id="text_34">
      <!-- 0.20 -->
      <g transform="translate(42.734375 465.744929)scale(0.1 -0.1)">
       <use xlink:href="#DejaVuSans-48"/>
       <use x="63.623047" xlink:href="#DejaVuSans-46"/>
       <use x="95.410156" xlink:href="#DejaVuSans-50"/>
       <use x="159.033203" xlink:href="#DejaVuSans-48"/>
      </g>
     </g>
    </g>
    <g id="text_35">
     <!-- MSF -->
     <g transform="translate(36.654688 533.459715)rotate(-90)scale(0.1 -0.1)">
      <defs>
       <path d="M 9.8125 72.90625 
L 24.515625 72.90625 
L 43.109375 23.296875 
L 61.8125 72.90625 
L 76.515625 72.90625 
L 76.515625 0 
L 66.890625 0 
L 66.890625 64.015625 
L 48.09375 14.015625 
L 38.1875 14.015625 
L 19.390625 64.015625 
L 19.390625 0 
L 9.8125 0 
z
" id="DejaVuSans-77"/>
       <path d="M 9.8125 72.90625 
L 51.703125 72.90625 
L 51.703125 64.59375 
L 19.671875 64.59375 
L 19.671875 43.109375 
L 48.578125 43.109375 
L 48.578125 34.8125 
L 19.671875 34.8125 
L 19.671875 0 
L 9.8125 0 
z
" id="DejaVuSans-70"/>
      </defs>
      <use xlink:href="#DejaVuSans-77"/>
      <use x="86.279297" xlink:href="#DejaVuSans-83"/>
      <use x="149.755859" xlink:href="#DejaVuSans-70"/>
     </g>
    </g>
   </g>
   <g id="line2d_38">
    <path clip-path="url(#p4b26c9696e)" d="M 92.290909 576.232765 
L 93.967844 583.081063 
L 95.644778 577.895075 
L 97.321713 571.783417 
L 98.998648 575.384982 
L 100.675582 577.883989 
L 102.352517 574.976801 
L 104.029452 578.67308 
L 105.706386 579.118642 
L 107.383321 580.514082 
L 109.060255 584.183493 
L 110.73719 585.285537 
L 112.414125 586.086252 
L 114.091059 585.819242 
L 115.767994 587.17328 
L 117.444929 587.65267 
L 119.121863 587.675496 
L 120.798798 588.334475 
L 122.475733 588.075535 
L 125.829602 588.765209 
L 127.506536 588.834783 
L 130.860406 588.065533 
L 132.53734 585.895767 
L 134.214275 586.827595 
L 135.89121 586.656263 
L 137.568144 585.668105 
L 139.245079 583.596921 
L 140.922014 582.380409 
L 142.598948 581.932738 
L 144.275883 579.083528 
L 145.952817 578.778071 
L 147.629752 579.429048 
L 149.306687 576.298765 
L 150.983621 573.788058 
L 152.660556 575.958572 
L 154.337491 564.50486 
L 156.014425 566.829133 
L 157.69136 574.692602 
L 159.368295 571.194398 
L 161.045229 565.00908 
L 162.722164 570.926129 
L 164.399098 579.201095 
L 166.076033 573.656693 
L 167.752968 570.819953 
L 169.429902 571.912138 
L 171.106837 558.452999 
L 172.783772 562.179927 
L 174.460706 569.783279 
L 176.137641 579.323555 
L 177.814576 583.39265 
L 179.49151 584.556189 
L 181.168445 574.470372 
L 182.845379 579.709527 
L 184.522314 586.019438 
L 186.199249 580.347012 
L 187.876183 580.002221 
L 189.553118 584.131625 
L 191.230053 584.173794 
L 192.906987 579.167983 
L 194.583922 579.780412 
L 196.260856 582.312035 
L 197.937791 578.620735 
L 199.614726 573.183159 
L 201.29166 573.585258 
L 202.968595 574.296709 
L 204.64553 574.052937 
L 206.322464 572.508403 
L 207.999399 572.158357 
L 209.676334 575.72072 
L 211.353268 572.821396 
L 213.030203 570.881219 
L 214.707137 573.91062 
L 216.384072 572.850335 
L 218.061007 568.987087 
L 219.737941 572.525406 
L 221.414876 573.045218 
L 223.091811 568.016265 
L 224.768745 566.709013 
L 226.44568 571.400198 
L 228.122615 573.771161 
L 229.799549 577.420899 
L 231.476484 577.086205 
L 233.153418 578.255092 
L 234.830353 581.513097 
L 236.507288 582.344211 
L 238.184222 582.35677 
L 239.861157 581.818496 
L 241.538092 585.254841 
L 243.215026 583.775237 
L 244.891961 583.286999 
L 246.568896 585.084479 
L 248.24583 585.852646 
L 249.922765 583.799578 
L 251.599699 584.827029 
L 253.276634 586.719648 
L 254.953569 586.372868 
L 256.630503 585.487031 
L 258.307438 586.538545 
L 259.984373 587.256552 
L 261.661307 586.232244 
L 263.338242 585.734986 
L 265.015177 586.276215 
L 266.692111 586.198495 
L 268.369046 582.410455 
L 270.04598 584.133158 
L 271.722915 584.122137 
L 273.39985 578.81734 
L 275.076784 579.133339 
L 276.753719 580.357171 
L 278.430654 580.271256 
L 280.107588 576.538787 
L 281.784523 575.054211 
L 283.461458 577.837717 
L 285.138392 575.061405 
L 286.815327 575.339806 
L 288.492261 579.937763 
L 290.169196 576.966704 
L 291.846131 556.746921 
L 293.523065 529.087863 
L 295.2 492.244844 
L 296.876935 497.867138 
L 298.553869 476.292878 
L 300.230804 478.372344 
L 301.907739 477.185713 
L 303.584673 500.679783 
L 305.261608 529.10569 
L 306.938542 499.755025 
L 308.615477 544.562131 
L 310.292412 564.491542 
L 311.969346 568.702399 
L 313.646281 576.855182 
L 315.323216 576.908963 
L 317.00015 574.282904 
L 318.677085 573.250641 
L 320.35402 571.545853 
L 323.707889 575.867175 
L 325.384823 578.078984 
L 328.738693 567.387556 
L 330.415627 560.43736 
L 332.092562 541.171442 
L 333.769497 536.523921 
L 335.446431 526.909459 
L 337.123366 522.112124 
L 338.800301 525.097002 
L 340.477235 525.730023 
L 342.15417 531.46646 
L 343.831104 536.485578 
L 345.508039 539.192254 
L 347.184974 541.207813 
L 348.861908 547.05864 
L 350.538843 554.008322 
L 352.215778 557.662738 
L 353.892712 558.34425 
L 355.569647 566.086602 
L 357.246582 569.497976 
L 358.923516 569.485814 
L 360.600451 572.850799 
L 362.277385 576.753876 
L 363.95432 577.931635 
L 365.631255 579.535744 
L 367.308189 580.541114 
L 368.985124 582.052423 
L 370.662059 583.048402 
L 372.338993 582.994174 
L 374.015928 584.072016 
L 375.692863 585.556457 
L 377.369797 585.3979 
L 379.046732 584.997123 
L 380.723666 586.583285 
L 382.400601 586.751367 
L 384.077536 586.467361 
L 385.75447 586.541802 
L 387.431405 587.510219 
L 389.10834 587.515779 
L 390.785274 587.214039 
L 392.462209 587.813787 
L 394.139144 588.09085 
L 395.816078 588.132487 
L 397.493013 587.862779 
L 399.169947 584.67604 
L 400.846882 576.768226 
L 402.523817 538.835569 
L 404.200751 532.26704 
L 405.877686 489.747478 
L 407.554621 518.312225 
L 409.231555 570.44153 
L 410.90849 567.989648 
L 412.585424 582.187629 
L 414.262359 584.861189 
L 415.939294 585.030849 
L 417.616228 586.592117 
L 419.293163 584.099645 
L 420.970098 580.009738 
L 422.647032 581.765012 
L 424.323967 571.007321 
L 426.000902 574.178381 
L 427.677836 563.680301 
L 429.354771 558.503099 
L 431.031705 527.342879 
L 432.70864 567.663027 
L 434.385575 566.533998 
L 436.062509 580.596689 
L 437.739444 581.9859 
L 439.416379 582.572472 
L 441.093313 581.287035 
L 442.770248 578.993041 
L 444.447183 573.325945 
L 446.124117 565.254894 
L 447.801052 541.686076 
L 449.477986 511.241312 
L 451.154921 496.350713 
L 452.831856 457.356522 
L 454.50879 481.132891 
L 456.185725 494.932712 
L 457.86266 528.714925 
L 459.539594 554.440561 
L 461.216529 549.10993 
L 462.893464 571.206884 
L 464.570398 574.379489 
L 466.247333 580.848325 
L 467.924267 582.272463 
L 469.601202 583.875921 
L 471.278137 583.37048 
L 472.955071 584.335342 
L 474.632006 583.560762 
L 476.308941 583.733007 
L 477.985875 585.017737 
L 479.66281 584.934858 
L 481.339745 586.389506 
L 483.016679 585.145879 
L 484.693614 586.259978 
L 486.370548 586.005399 
L 489.724418 586.171851 
L 491.401352 587.567405 
L 493.078287 587.616685 
L 494.755222 587.248005 
L 496.432156 586.145759 
L 498.109091 584.200242 
L 498.109091 584.200242 
" style="fill:none;stroke:#808080;stroke-linecap:square;stroke-width:1.5;"/>
   </g>
   <g id="patch_13">
    <path d="M 72 595.408696 
L 72 450.782609 
" style="fill:none;stroke:#000000;stroke-linecap:square;stroke-linejoin:miter;stroke-width:0.8;"/>
   </g>
   <g id="patch_14">
    <path d="M 518.4 595.408696 
L 518.4 450.782609 
" style="fill:none;stroke:#000000;stroke-linecap:square;stroke-linejoin:miter;stroke-width:0.8;"/>
   </g>
   <g id="patch_15">
    <path d="M 72 595.408696 
L 518.4 595.408696 
" style="fill:none;stroke:#000000;stroke-linecap:square;stroke-linejoin:miter;stroke-width:0.8;"/>
   </g>
   <g id="patch_16">
    <path d="M 72 450.782609 
L 518.4 450.782609 
" style="fill:none;stroke:#000000;stroke-linecap:square;stroke-linejoin:miter;stroke-width:0.8;"/>
   </g>
  </g>
  <g id="axes_4">
   <g id="patch_17">
    <path d="M 72 768.96 
L 518.4 768.96 
L 518.4 624.333913 
L 72 624.333913 
z
" style="fill:#ffffff;"/>
   </g>
   <g id="matplotlib.axis_7">
    <g id="xtick_18">
     <g id="line2d_39">
      <g>
       <use style="stroke:#000000;stroke-width:0.8;" x="90.613974" xlink:href="#m8ab987d816" y="768.96"/>
      </g>
     </g>
     <g id="text_36">
      <!-- 0 -->
      <g transform="translate(87.432724 783.558437)scale(0.1 -0.1)">
       <use xlink:href="#DejaVuSans-48"/>
      </g>
     </g>
    </g>
    <g id="xtick_19">
     <g id="line2d_40">
      <g>
       <use style="stroke:#000000;stroke-width:0.8;" x="174.460706" xlink:href="#m8ab987d816" y="768.96"/>
      </g>
     </g>
     <g id="text_37">
      <!-- 50 -->
      <g transform="translate(168.098206 783.558437)scale(0.1 -0.1)">
       <use xlink:href="#DejaVuSans-53"/>
       <use x="63.623047" xlink:href="#DejaVuSans-48"/>
      </g>
     </g>
    </g>
    <g id="xtick_20">
     <g id="line2d_41">
      <g>
       <use style="stroke:#000000;stroke-width:0.8;" x="258.307438" xlink:href="#m8ab987d816" y="768.96"/>
      </g>
     </g>
     <g id="text_38">
      <!-- 100 -->
      <g transform="translate(248.763688 783.558437)scale(0.1 -0.1)">
       <use xlink:href="#DejaVuSans-49"/>
       <use x="63.623047" xlink:href="#DejaVuSans-48"/>
       <use x="127.246094" xlink:href="#DejaVuSans-48"/>
      </g>
     </g>
    </g>
    <g id="xtick_21">
     <g id="line2d_42">
      <g>
       <use style="stroke:#000000;stroke-width:0.8;" x="342.15417" xlink:href="#m8ab987d816" y="768.96"/>
      </g>
     </g>
     <g id="text_39">
      <!-- 150 -->
      <g transform="translate(332.61042 783.558437)scale(0.1 -0.1)">
       <use xlink:href="#DejaVuSans-49"/>
       <use x="63.623047" xlink:href="#DejaVuSans-53"/>
       <use x="127.246094" xlink:href="#DejaVuSans-48"/>
      </g>
     </g>
    </g>
    <g id="xtick_22">
     <g id="line2d_43">
      <g>
       <use style="stroke:#000000;stroke-width:0.8;" x="426.000902" xlink:href="#m8ab987d816" y="768.96"/>
      </g>
     </g>
     <g id="text_40">
      <!-- 200 -->
      <g transform="translate(416.457152 783.558437)scale(0.1 -0.1)">
       <use xlink:href="#DejaVuSans-50"/>
       <use x="63.623047" xlink:href="#DejaVuSans-48"/>
       <use x="127.246094" xlink:href="#DejaVuSans-48"/>
      </g>
     </g>
    </g>
    <g id="xtick_23">
     <g id="line2d_44">
      <g>
       <use style="stroke:#000000;stroke-width:0.8;" x="509.847633" xlink:href="#m8ab987d816" y="768.96"/>
      </g>
     </g>
     <g id="text_41">
      <!-- 250 -->
      <g transform="translate(500.303883 783.558437)scale(0.1 -0.1)">
       <use xlink:href="#DejaVuSans-50"/>
       <use x="63.623047" xlink:href="#DejaVuSans-53"/>
       <use x="127.246094" xlink:href="#DejaVuSans-48"/>
      </g>
     </g>
    </g>
    <g id="text_42">
     <!-- Sequence Position -->
     <g transform="translate(249.482031 797.236562)scale(0.1 -0.1)">
      <defs>
       <path d="M 14.796875 27.296875 
Q 14.796875 17.390625 18.875 11.75 
Q 22.953125 6.109375 30.078125 6.109375 
Q 37.203125 6.109375 41.296875 11.75 
Q 45.40625 17.390625 45.40625 27.296875 
Q 45.40625 37.203125 41.296875 42.84375 
Q 37.203125 48.484375 30.078125 48.484375 
Q 22.953125 48.484375 18.875 42.84375 
Q 14.796875 37.203125 14.796875 27.296875 
z
M 45.40625 8.203125 
Q 42.578125 3.328125 38.25 0.953125 
Q 33.9375 -1.421875 27.875 -1.421875 
Q 17.96875 -1.421875 11.734375 6.484375 
Q 5.515625 14.40625 5.515625 27.296875 
Q 5.515625 40.1875 11.734375 48.09375 
Q 17.96875 56 27.875 56 
Q 33.9375 56 38.25 53.625 
Q 42.578125 51.265625 45.40625 46.390625 
L 45.40625 54.6875 
L 54.390625 54.6875 
L 54.390625 -20.796875 
L 45.40625 -20.796875 
z
" id="DejaVuSans-113"/>
       <path d="M 8.5 21.578125 
L 8.5 54.6875 
L 17.484375 54.6875 
L 17.484375 21.921875 
Q 17.484375 14.15625 20.5 10.265625 
Q 23.53125 6.390625 29.59375 6.390625 
Q 36.859375 6.390625 41.078125 11.03125 
Q 45.3125 15.671875 45.3125 23.6875 
L 45.3125 54.6875 
L 54.296875 54.6875 
L 54.296875 0 
L 45.3125 0 
L 45.3125 8.40625 
Q 42.046875 3.421875 37.71875 1 
Q 33.40625 -1.421875 27.6875 -1.421875 
Q 18.265625 -1.421875 13.375 4.4375 
Q 8.5 10.296875 8.5 21.578125 
z
M 31.109375 56 
z
" id="DejaVuSans-117"/>
       <path d="M 19.671875 64.796875 
L 19.671875 37.40625 
L 32.078125 37.40625 
Q 38.96875 37.40625 42.71875 40.96875 
Q 46.484375 44.53125 46.484375 51.125 
Q 46.484375 57.671875 42.71875 61.234375 
Q 38.96875 64.796875 32.078125 64.796875 
z
M 9.8125 72.90625 
L 32.078125 72.90625 
Q 44.34375 72.90625 50.609375 67.359375 
Q 56.890625 61.8125 56.890625 51.125 
Q 56.890625 40.328125 50.609375 34.8125 
Q 44.34375 29.296875 32.078125 29.296875 
L 19.671875 29.296875 
L 19.671875 0 
L 9.8125 0 
z
" id="DejaVuSans-80"/>
       <path d="M 9.421875 54.6875 
L 18.40625 54.6875 
L 18.40625 0 
L 9.421875 0 
z
M 9.421875 75.984375 
L 18.40625 75.984375 
L 18.40625 64.59375 
L 9.421875 64.59375 
z
" id="DejaVuSans-105"/>
      </defs>
      <use xlink:href="#DejaVuSans-83"/>
      <use x="63.476562" xlink:href="#DejaVuSans-101"/>
      <use x="125" xlink:href="#DejaVuSans-113"/>
      <use x="188.476562" xlink:href="#DejaVuSans-117"/>
      <use x="251.855469" xlink:href="#DejaVuSans-101"/>
      <use x="313.378906" xlink:href="#DejaVuSans-110"/>
      <use x="376.757812" xlink:href="#DejaVuSans-99"/>
      <use x="431.738281" xlink:href="#DejaVuSans-101"/>
      <use x="493.261719" xlink:href="#DejaVuSans-32"/>
      <use x="525.048828" xlink:href="#DejaVuSans-80"/>
      <use x="581.726562" xlink:href="#DejaVuSans-111"/>
      <use x="642.908203" xlink:href="#DejaVuSans-115"/>
      <use x="695.007812" xlink:href="#DejaVuSans-105"/>
      <use x="722.791016" xlink:href="#DejaVuSans-116"/>
      <use x="762" xlink:href="#DejaVuSans-105"/>
      <use x="789.783203" xlink:href="#DejaVuSans-111"/>
      <use x="850.964844" xlink:href="#DejaVuSans-110"/>
     </g>
    </g>
   </g>
   <g id="matplotlib.axis_8">
    <g id="ytick_16">
     <g id="line2d_45">
      <g>
       <use style="stroke:#000000;stroke-width:0.8;" x="72" xlink:href="#ma721b3b49a" y="744.462778"/>
      </g>
     </g>
     <g id="text_43">
      <!-- 0.4 -->
      <g transform="translate(49.096875 748.261997)scale(0.1 -0.1)">
       <defs>
        <path d="M 37.796875 64.3125 
L 12.890625 25.390625 
L 37.796875 25.390625 
z
M 35.203125 72.90625 
L 47.609375 72.90625 
L 47.609375 25.390625 
L 58.015625 25.390625 
L 58.015625 17.1875 
L 47.609375 17.1875 
L 47.609375 0 
L 37.796875 0 
L 37.796875 17.1875 
L 4.890625 17.1875 
L 4.890625 26.703125 
z
" id="DejaVuSans-52"/>
       </defs>
       <use xlink:href="#DejaVuSans-48"/>
       <use x="63.623047" xlink:href="#DejaVuSans-46"/>
       <use x="95.410156" xlink:href="#DejaVuSans-52"/>
      </g>
     </g>
    </g>
    <g id="ytick_17">
     <g id="line2d_46">
      <g>
       <use style="stroke:#000000;stroke-width:0.8;" x="72" xlink:href="#ma721b3b49a" y="715.939914"/>
      </g>
     </g>
     <g id="text_44">
      <!-- 0.6 -->
      <g transform="translate(49.096875 719.739133)scale(0.1 -0.1)">
       <defs>
        <path d="M 33.015625 40.375 
Q 26.375 40.375 22.484375 35.828125 
Q 18.609375 31.296875 18.609375 23.390625 
Q 18.609375 15.53125 22.484375 10.953125 
Q 26.375 6.390625 33.015625 6.390625 
Q 39.65625 6.390625 43.53125 10.953125 
Q 47.40625 15.53125 47.40625 23.390625 
Q 47.40625 31.296875 43.53125 35.828125 
Q 39.65625 40.375 33.015625 40.375 
z
M 52.59375 71.296875 
L 52.59375 62.3125 
Q 48.875 64.0625 45.09375 64.984375 
Q 41.3125 65.921875 37.59375 65.921875 
Q 27.828125 65.921875 22.671875 59.328125 
Q 17.53125 52.734375 16.796875 39.40625 
Q 19.671875 43.65625 24.015625 45.921875 
Q 28.375 48.1875 33.59375 48.1875 
Q 44.578125 48.1875 50.953125 41.515625 
Q 57.328125 34.859375 57.328125 23.390625 
Q 57.328125 12.15625 50.6875 5.359375 
Q 44.046875 -1.421875 33.015625 -1.421875 
Q 20.359375 -1.421875 13.671875 8.265625 
Q 6.984375 17.96875 6.984375 36.375 
Q 6.984375 53.65625 15.1875 63.9375 
Q 23.390625 74.21875 37.203125 74.21875 
Q 40.921875 74.21875 44.703125 73.484375 
Q 48.484375 72.75 52.59375 71.296875 
z
" id="DejaVuSans-54"/>
       </defs>
       <use xlink:href="#DejaVuSans-48"/>
       <use x="63.623047" xlink:href="#DejaVuSans-46"/>
       <use x="95.410156" xlink:href="#DejaVuSans-54"/>
      </g>
     </g>
    </g>
    <g id="ytick_18">
     <g id="line2d_47">
      <g>
       <use style="stroke:#000000;stroke-width:0.8;" x="72" xlink:href="#ma721b3b49a" y="687.417051"/>
      </g>
     </g>
     <g id="text_45">
      <!-- 0.8 -->
      <g transform="translate(49.096875 691.216269)scale(0.1 -0.1)">
       <defs>
        <path d="M 31.78125 34.625 
Q 24.75 34.625 20.71875 30.859375 
Q 16.703125 27.09375 16.703125 20.515625 
Q 16.703125 13.921875 20.71875 10.15625 
Q 24.75 6.390625 31.78125 6.390625 
Q 38.8125 6.390625 42.859375 10.171875 
Q 46.921875 13.96875 46.921875 20.515625 
Q 46.921875 27.09375 42.890625 30.859375 
Q 38.875 34.625 31.78125 34.625 
z
M 21.921875 38.8125 
Q 15.578125 40.375 12.03125 44.71875 
Q 8.5 49.078125 8.5 55.328125 
Q 8.5 64.0625 14.71875 69.140625 
Q 20.953125 74.21875 31.78125 74.21875 
Q 42.671875 74.21875 48.875 69.140625 
Q 55.078125 64.0625 55.078125 55.328125 
Q 55.078125 49.078125 51.53125 44.71875 
Q 48 40.375 41.703125 38.8125 
Q 48.828125 37.15625 52.796875 32.3125 
Q 56.78125 27.484375 56.78125 20.515625 
Q 56.78125 9.90625 50.3125 4.234375 
Q 43.84375 -1.421875 31.78125 -1.421875 
Q 19.734375 -1.421875 13.25 4.234375 
Q 6.78125 9.90625 6.78125 20.515625 
Q 6.78125 27.484375 10.78125 32.3125 
Q 14.796875 37.15625 21.921875 38.8125 
z
M 18.3125 54.390625 
Q 18.3125 48.734375 21.84375 45.5625 
Q 25.390625 42.390625 31.78125 42.390625 
Q 38.140625 42.390625 41.71875 45.5625 
Q 45.3125 48.734375 45.3125 54.390625 
Q 45.3125 60.0625 41.71875 63.234375 
Q 38.140625 66.40625 31.78125 66.40625 
Q 25.390625 66.40625 21.84375 63.234375 
Q 18.3125 60.0625 18.3125 54.390625 
z
" id="DejaVuSans-56"/>
       </defs>
       <use xlink:href="#DejaVuSans-48"/>
       <use x="63.623047" xlink:href="#DejaVuSans-46"/>
       <use x="95.410156" xlink:href="#DejaVuSans-56"/>
      </g>
     </g>
    </g>
    <g id="ytick_19">
     <g id="line2d_48">
      <g>
       <use style="stroke:#000000;stroke-width:0.8;" x="72" xlink:href="#ma721b3b49a" y="658.894187"/>
      </g>
     </g>
     <g id="text_46">
      <!-- 1.0 -->
      <g transform="translate(49.096875 662.693405)scale(0.1 -0.1)">
       <use xlink:href="#DejaVuSans-49"/>
       <use x="63.623047" xlink:href="#DejaVuSans-46"/>
       <use x="95.410156" xlink:href="#DejaVuSans-48"/>
      </g>
     </g>
    </g>
    <g id="ytick_20">
     <g id="line2d_49">
      <g>
       <use style="stroke:#000000;stroke-width:0.8;" x="72" xlink:href="#ma721b3b49a" y="630.371323"/>
      </g>
     </g>
     <g id="text_47">
      <!-- 1.2 -->
      <g transform="translate(49.096875 634.170542)scale(0.1 -0.1)">
       <use xlink:href="#DejaVuSans-49"/>
       <use x="63.623047" xlink:href="#DejaVuSans-46"/>
       <use x="95.410156" xlink:href="#DejaVuSans-50"/>
      </g>
     </g>
    </g>
    <g id="text_48">
     <!-- WCN -->
     <g transform="translate(43.017187 708.822738)rotate(-90)scale(0.1 -0.1)">
      <defs>
       <path d="M 3.328125 72.90625 
L 13.28125 72.90625 
L 28.609375 11.28125 
L 43.890625 72.90625 
L 54.984375 72.90625 
L 70.3125 11.28125 
L 85.59375 72.90625 
L 95.609375 72.90625 
L 77.296875 0 
L 64.890625 0 
L 49.515625 63.28125 
L 33.984375 0 
L 21.578125 0 
z
" id="DejaVuSans-87"/>
       <path d="M 9.8125 72.90625 
L 23.09375 72.90625 
L 55.421875 11.921875 
L 55.421875 72.90625 
L 64.984375 72.90625 
L 64.984375 0 
L 51.703125 0 
L 19.390625 60.984375 
L 19.390625 0 
L 9.8125 0 
z
" id="DejaVuSans-78"/>
      </defs>
      <use xlink:href="#DejaVuSans-87"/>
      <use x="98.876953" xlink:href="#DejaVuSans-67"/>
      <use x="168.701172" xlink:href="#DejaVuSans-78"/>
     </g>
    </g>
   </g>
   <g id="line2d_50">
    <path clip-path="url(#p55ce08b4bb)" d="M 92.290909 705.033656 
L 93.967844 691.038715 
L 95.644778 686.443897 
L 97.321713 723.017617 
L 98.998648 712.730891 
L 100.675582 687.833418 
L 102.352517 678.226761 
L 104.029452 676.188762 
L 105.706386 664.603033 
L 107.383321 671.396629 
L 109.060255 658.562747 
L 110.73719 657.242151 
L 112.414125 646.360901 
L 114.091059 656.796598 
L 115.767994 641.95544 
L 117.444929 630.907826 
L 119.121863 643.246698 
L 120.798798 650.335418 
L 122.475733 636.582309 
L 124.152667 636.761101 
L 125.829602 643.488186 
L 127.506536 646.114178 
L 129.183471 639.015063 
L 130.860406 639.779541 
L 132.53734 642.854629 
L 134.214275 646.526326 
L 135.89121 650.771987 
L 137.568144 651.928844 
L 139.245079 667.932147 
L 140.922014 660.227585 
L 142.598948 666.941523 
L 144.275883 667.890112 
L 145.952817 676.600065 
L 147.629752 687.234044 
L 149.306687 688.428779 
L 150.983621 692.649479 
L 152.660556 680.154873 
L 154.337491 716.526469 
L 157.69136 662.210276 
L 159.368295 693.418241 
L 161.045229 713.330301 
L 162.722164 695.734372 
L 164.399098 666.993067 
L 166.076033 710.78601 
L 167.752968 718.014582 
L 169.429902 691.194366 
L 171.106837 723.878396 
L 172.783772 721.409124 
L 174.460706 674.59942 
L 176.137641 705.623329 
L 177.814576 664.412983 
L 179.49151 668.46536 
L 181.168445 697.390151 
L 182.845379 690.960163 
L 184.522314 650.000001 
L 186.199249 660.813968 
L 187.876183 692.786032 
L 189.553118 673.171937 
L 191.230053 665.432289 
L 192.906987 708.678959 
L 194.583922 697.745148 
L 196.260856 659.376775 
L 197.937791 686.638415 
L 199.614726 703.632173 
L 201.29166 715.334945 
L 202.968595 709.417775 
L 204.64553 698.518947 
L 206.322464 730.678196 
L 207.999399 708.064864 
L 209.676334 674.654376 
L 211.353268 709.604387 
L 213.030203 712.203986 
L 214.707137 683.146798 
L 218.061007 732.75631 
L 219.737941 708.941025 
L 221.414876 707.88136 
L 223.091811 729.750361 
L 224.768745 740.171404 
L 226.44568 723.499586 
L 228.122615 717.713003 
L 229.799549 701.285507 
L 231.476484 717.83215 
L 233.153418 706.803076 
L 234.830353 673.113496 
L 236.507288 678.562947 
L 238.184222 701.910722 
L 239.861157 674.578515 
L 241.538092 651.694419 
L 243.215026 670.661857 
L 244.891961 670.846216 
L 246.568896 652.805274 
L 248.24583 651.889341 
L 249.922765 657.749121 
L 251.599699 676.11317 
L 253.276634 652.242481 
L 254.953569 650.65828 
L 256.630503 670.819101 
L 258.307438 687.032388 
L 259.984373 647.54798 
L 261.661307 677.29462 
L 263.338242 700.503237 
L 265.015177 657.449195 
L 266.692111 668.523301 
L 268.369046 711.088619 
L 270.04598 699.856767 
L 271.722915 655.085265 
L 273.39985 689.639956 
L 275.076784 706.902969 
L 276.753719 678.536329 
L 278.430654 669.002645 
L 280.107588 705.959198 
L 281.784523 709.358976 
L 283.461458 675.933386 
L 285.138392 701.666764 
L 286.815327 691.937867 
L 288.492261 669.259552 
L 291.846131 703.483328 
L 293.523065 721.968395 
L 295.2 747.271425 
L 296.876935 714.848366 
L 298.553869 743.776477 
L 300.230804 757.499546 
L 301.907739 731.935705 
L 303.584673 748.014331 
L 305.261608 713.063088 
L 306.938542 730.114001 
L 308.615477 730.571328 
L 310.292412 706.78064 
L 311.969346 712.555951 
L 313.646281 687.660043 
L 315.323216 685.232507 
L 317.00015 723.521071 
L 318.677085 721.755832 
L 320.35402 723.999933 
L 322.030954 696.561725 
L 323.707889 702.032108 
L 325.384823 703.534397 
L 327.061758 705.85709 
L 328.738693 695.924771 
L 330.415627 719.936972 
L 332.092562 732.58517 
L 333.769497 729.895969 
L 335.446431 750.111794 
L 337.123366 753.949217 
L 338.800301 754.352263 
L 340.477235 759.329214 
L 342.15417 743.36071 
L 343.831104 736.018474 
L 345.508039 736.863388 
L 347.184974 736.591507 
L 348.861908 722.311726 
L 350.538843 713.180175 
L 352.215778 720.62214 
L 353.892712 722.940811 
L 355.569647 702.343781 
L 357.246582 706.300301 
L 358.923516 730.34628 
L 360.600451 712.087361 
L 362.277385 683.366123 
L 363.95432 700.42061 
L 365.631255 706.192157 
L 367.308189 690.964462 
L 368.985124 669.860921 
L 370.662059 687.810797 
L 372.338993 700.920144 
L 374.015928 680.127907 
L 375.692863 667.892216 
L 377.369797 705.934837 
L 379.046732 696.444407 
L 380.723666 661.056385 
L 382.400601 675.480535 
L 384.077536 702.057403 
L 385.75447 684.685969 
L 387.431405 649.316846 
L 389.10834 688.776998 
L 390.785274 688.103588 
L 392.462209 646.913992 
L 394.139144 635.919541 
L 395.816078 674.611617 
L 397.493013 641.045463 
L 399.169947 669.676603 
L 400.846882 691.777433 
L 402.523817 709.658066 
L 404.200751 713.860663 
L 405.877686 753.911824 
L 407.554621 736.920987 
L 409.231555 706.185755 
L 410.90849 695.741043 
L 412.585424 682.655683 
L 414.262359 663.071461 
L 415.939294 648.234184 
L 417.616228 639.187193 
L 420.970098 684.714108 
L 422.647032 682.611356 
L 424.323967 709.213236 
L 426.000902 686.759605 
L 427.677836 712.832415 
L 429.354771 727.589132 
L 431.031705 739.241555 
L 432.70864 701.878311 
L 434.385575 726.041658 
L 436.062509 715.632703 
L 437.739444 673.285853 
L 439.416379 690.73132 
L 441.093313 696.514075 
L 442.770248 691.227679 
L 444.447183 707.13011 
L 446.124117 719.818887 
L 447.801052 744.983577 
L 449.477986 727.109696 
L 451.154921 760.318718 
L 452.831856 762.386087 
L 454.50879 747.825751 
L 456.185725 747.239514 
L 457.86266 734.954327 
L 459.539594 714.609633 
L 461.216529 739.051633 
L 462.893464 720.909001 
L 464.570398 706.268834 
L 466.247333 697.660222 
L 467.924267 685.558051 
L 469.601202 675.490258 
L 471.278137 668.972855 
L 472.955071 666.935687 
L 474.632006 704.050395 
L 476.308941 690.588135 
L 477.985875 662.51098 
L 479.66281 684.22784 
L 481.339745 649.266519 
L 483.016679 674.441455 
L 484.693614 662.124914 
L 486.370548 688.598244 
L 488.047483 683.686645 
L 489.724418 671.399129 
L 491.401352 648.783812 
L 493.078287 677.983781 
L 494.755222 669.528846 
L 496.432156 673.744554 
L 498.109091 700.090963 
L 498.109091 700.090963 
" style="fill:none;stroke:#808080;stroke-linecap:square;stroke-width:1.5;"/>
   </g>
   <g id="patch_18">
    <path d="M 72 768.96 
L 72 624.333913 
" style="fill:none;stroke:#000000;stroke-linecap:square;stroke-linejoin:miter;stroke-width:0.8;"/>
   </g>
   <g id="patch_19">
    <path d="M 518.4 768.96 
L 518.4 624.333913 
" style="fill:none;stroke:#000000;stroke-linecap:square;stroke-linejoin:miter;stroke-width:0.8;"/>
   </g>
   <g id="patch_20">
    <path d="M 72 768.96 
L 518.4 768.96 
" style="fill:none;stroke:#000000;stroke-linecap:square;stroke-linejoin:miter;stroke-width:0.8;"/>
   </g>
   <g id="patch_21">
    <path d="M 72 624.333913 
L 518.4 624.333913 
" style="fill:none;stroke:#000000;stroke-linecap:square;stroke-linejoin:miter;stroke-width:0.8;"/>
   </g>
  </g>
 </g>
 <defs>
  <clipPath id="p326ec1b8c1">
   <rect height="144.626087" width="446.4" x="72" y="103.68"/>
  </clipPath>
  <clipPath id="pb9ccd57d0b">
   <rect height="144.626087" width="446.4" x="72" y="277.231304"/>
  </clipPath>
  <clipPath id="p4b26c9696e">
   <rect height="144.626087" width="446.4" x="72" y="450.782609"/>
  </clipPath>
  <clipPath id="p55ce08b4bb">
   <rect height="144.626087" width="446.4" x="72" y="624.333913"/>
  </clipPath>
 </defs>
</svg>
